<svg width="32" height="32" viewBox="0 0 32 32" fill="none" xmlns="http://www.w3.org/2000/svg">
<circle cx="16" cy="16" r="16" fill="white"/>
<circle cx="16" cy="16" r="16" fill="url(#paint0_linear_1616_6243)" fill-opacity="0.2"/>
<circle cx="16" cy="16" r="12" fill="#02CAB3"/>
<path d="M20.6185 11.349C20.8562 11.1227 21.1725 10.9976 21.5007 11C21.829 11.0025 22.1434 11.1324 22.3777 11.3623C22.6119 11.5922 22.7477 11.9041 22.7564 12.2322C22.7651 12.5603 22.646 12.879 22.4242 13.1209L15.6907 21.5419C15.575 21.6666 15.4352 21.7667 15.2799 21.8362C15.1245 21.9057 14.9568 21.9431 14.7866 21.9462C14.6165 21.9494 14.4475 21.9182 14.2896 21.8545C14.1318 21.7909 13.9885 21.696 13.8682 21.5757L9.40284 17.1104C9.27849 16.9945 9.17875 16.8548 9.10957 16.6995C9.04039 16.5443 9.0032 16.3767 9.0002 16.2067C8.9972 16.0368 9.02846 15.868 9.09212 15.7104C9.15577 15.5528 9.25052 15.4096 9.37071 15.2894C9.4909 15.1692 9.63406 15.0745 9.79166 15.0108C9.94926 14.9472 10.1181 14.9159 10.288 14.9189C10.458 14.9219 10.6256 14.9591 10.7808 15.0283C10.9361 15.0975 11.0758 15.1972 11.1917 15.3215L14.7254 18.8536L20.5864 11.3861C20.5969 11.3731 20.6082 11.3607 20.6201 11.349H20.6185Z" fill="white"/>
<defs>
<linearGradient id="paint0_linear_1616_6243" x1="16" y1="0" x2="16" y2="32" gradientUnits="userSpaceOnUse">
<stop stop-color="#4F5F7A" stop-opacity="0.7"/>
<stop offset="1" stop-color="#4F5F7A" stop-opacity="0.08"/>
</linearGradient>
</defs>
</svg>
