<svg width="40" height="40" viewBox="0 0 40 40" fill="none" xmlns="http://www.w3.org/2000/svg">
<mask id="mask0_1494_16873" style="mask-type:luminance" maskUnits="userSpaceOnUse" x="0" y="0" width="40" height="40">
<path d="M40 0H0V40H40V0Z" fill="white"/>
</mask>
<g mask="url(#mask0_1494_16873)">
<path d="M31.9 33.333C34.1922 30.9896 35.742 28.0221 36.3555 24.8021C36.969 21.582 36.6187 18.2525 35.3487 15.2306C34.0787 12.2086 31.9453 9.62854 29.2157 7.81345C26.4861 5.99837 23.2817 5.02895 20.0037 5.02662C16.7257 5.02428 13.5199 5.98912 10.7877 7.80031C8.05556 9.6115 5.91848 12.1885 4.64414 15.2087C3.36979 18.2288 3.01482 21.5578 3.62369 24.7787C4.23255 27.9997 5.77818 30.9694 8.06701 33.316" stroke="white" stroke-width="2" stroke-miterlimit="10" stroke-linecap="round" stroke-linejoin="round"/>
<path d="M19.799 36.667C20.9131 36.667 22.0021 36.3367 22.9284 35.7177C23.8548 35.0988 24.5768 34.2191 25.0031 33.1899C25.4295 32.1607 25.5411 31.0281 25.3239 29.9354C25.1066 28.8428 24.5702 27.8391 23.7825 27.0512C22.9948 26.2634 21.9912 25.7268 20.8986 25.5094C19.8059 25.2919 18.6734 25.4033 17.6441 25.8295C16.6147 26.2557 15.7349 26.9775 15.1158 27.9037C14.4968 28.83 14.1662 29.9189 14.166 31.033C14.1659 31.7728 14.3115 32.5054 14.5945 33.189C14.8775 33.8725 15.2924 34.4936 15.8155 35.0168C16.3386 35.54 16.9596 35.955 17.6431 36.2381C18.3266 36.5213 19.0592 36.667 19.799 36.667Z" stroke="white" stroke-width="2" stroke-miterlimit="10" stroke-linecap="round" stroke-linejoin="round"/>
<path d="M18.75 20.833H20C20.4945 20.833 20.9778 20.6864 21.3889 20.4117C21.8 20.137 22.1205 19.7465 22.3097 19.2897C22.4989 18.8329 22.5484 18.3302 22.452 17.8453C22.3555 17.3603 22.1174 16.9149 21.7678 16.5652C21.4181 16.2156 20.9727 15.9775 20.4877 15.881C20.0028 15.7846 19.5001 15.8341 19.0433 16.0233C18.5865 16.2125 18.196 16.533 17.9213 16.9441C17.6466 17.3552 17.5 17.8386 17.5 18.333V19.583C17.5024 19.9138 17.6348 20.2304 17.8687 20.4643C18.1026 20.6982 18.4192 20.8307 18.75 20.833Z" stroke="white" stroke-width="2" stroke-miterlimit="10" stroke-linecap="round" stroke-linejoin="round"/>
</g>
</svg>
