<svg width="20" height="20" viewBox="0 0 20 20" fill="none" xmlns="http://www.w3.org/2000/svg">
<path d="M13.4917 1.66666H6.50835C3.47502 1.66666 1.66669 3.47499 1.66669 6.50832V13.4833C1.66669 16.525 3.47502 18.3333 6.50835 18.3333H13.4834C16.5167 18.3333 18.325 16.525 18.325 13.4917V6.50832C18.3334 3.47499 16.525 1.66666 13.4917 1.66666ZM13.3334 10.625H10.625V13.3333C10.625 13.675 10.3417 13.9583 10 13.9583C9.65835 13.9583 9.37502 13.675 9.37502 13.3333V10.625H6.66669C6.32502 10.625 6.04169 10.3417 6.04169 9.99999C6.04169 9.65832 6.32502 9.37499 6.66669 9.37499H9.37502V6.66666C9.37502 6.32499 9.65835 6.04166 10 6.04166C10.3417 6.04166 10.625 6.32499 10.625 6.66666V9.37499H13.3334C13.675 9.37499 13.9584 9.65832 13.9584 9.99999C13.9584 10.3417 13.675 10.625 13.3334 10.625Z" fill="white"/>
</svg>
