<svg width="12" height="12" viewBox="0 0 12 12" fill="none" xmlns="http://www.w3.org/2000/svg">
<path fill-rule="evenodd" clip-rule="evenodd" d="M8.62582 8.18182H3.33657C2.29171 8.18182 1.36184 7.34727 1.26186 6.21273C1.14687 4.91455 2.08174 3.81818 3.25158 3.81818H9.43071C10.0856 3.81818 10.6805 4.33091 10.7455 5.04C10.8205 5.85818 10.2356 6.54545 9.5007 6.54545H4.25144C3.97647 6.54545 3.75151 6.3 3.75151 6C3.75151 5.7 3.97647 5.45455 4.25144 5.45455H8.62582C8.83079 5.45455 9.00077 5.26909 9.00077 5.04545C9.00077 4.82182 8.83079 4.63636 8.62582 4.63636H4.32143C3.66652 4.63636 3.0716 5.14909 3.00661 5.85818C2.93162 6.67636 3.51654 7.36364 4.25144 7.36364H9.41571C10.4606 7.36364 11.3904 6.52909 11.4904 5.39455C11.6054 4.09091 10.6705 3 9.5007 3H3.36656C1.93176 3 0.646944 4.14545 0.511963 5.70545C0.361984 7.5 1.6418 9 3.25158 9H8.62582C8.83079 9 9.00077 8.81455 9.00077 8.59091C9.00077 8.36727 8.83079 8.18182 8.62582 8.18182Z" fill="#02CAB3"/>
</svg>
