<svg width="12" height="12" viewBox="0 0 12 12" fill="none" xmlns="http://www.w3.org/2000/svg">
<path d="M10.25 5.095H8.805C7.62 5.095 6.655 4.13 6.655 2.945V1.5C6.655 1.225 6.43 1 6.155 1H4.035C2.495 1 1.25 2 1.25 3.785V8.215C1.25 10 2.495 11 4.035 11H7.965C9.505 11 10.75 10 10.75 8.215V5.595C10.75 5.32 10.525 5.095 10.25 5.095ZM6.14 7.89L5.14 8.89C5.105 8.925 5.06 8.955 5.015 8.97C4.97 8.99 4.925 9 4.875 9C4.825 9 4.78 8.99 4.735 8.97C4.695 8.955 4.655 8.925 4.625 8.895C4.62 8.89 4.615 8.89 4.615 8.885L3.615 7.885C3.47 7.74 3.47 7.5 3.615 7.355C3.76 7.21 4 7.21 4.145 7.355L4.5 7.72V5.625C4.5 5.42 4.67 5.25 4.875 5.25C5.08 5.25 5.25 5.42 5.25 5.625V7.72L5.61 7.36C5.755 7.215 5.995 7.215 6.14 7.36C6.285 7.505 6.285 7.745 6.14 7.89Z" fill="white"/>
<path d="M8.71484 4.40524C9.18984 4.41024 9.84984 4.41024 10.4148 4.41024C10.6998 4.41024 10.8498 4.07524 10.6498 3.87524C9.92984 3.15024 8.63984 1.84524 7.89984 1.10524C7.69484 0.900241 7.33984 1.04024 7.33984 1.32524V3.07024C7.33984 3.80024 7.95984 4.40524 8.71484 4.40524Z" fill="white"/>
</svg>
