<svg width="32" height="40" viewBox="0 0 32 40" fill="none" xmlns="http://www.w3.org/2000/svg">
<path d="M23.5 13H27.25C28.2446 13 29.1984 13.3805 29.9017 14.0577C30.6049 14.7349 31 15.6534 31 16.6111V35.3889C31 36.3466 30.6049 37.2651 29.9017 37.9423C29.1984 38.6195 28.2446 39 27.25 39H4.75C3.75544 39 2.80161 38.6195 2.09835 37.9423C1.39509 37.2651 1 36.3466 1 35.3889V16.6111C1 15.6534 1.39509 14.7349 2.09835 14.0577C2.80161 13.3805 3.75544 13 4.75 13H8.5" stroke="#00A393" stroke-width="2" stroke-linecap="round" stroke-linejoin="round"/>
<path d="M9 21.6316L16 29L23 21.6316M16 1V27.5263" stroke="#00A393" stroke-width="2" stroke-linecap="round" stroke-linejoin="round"/>
</svg>
