<svg width="21" height="20" viewBox="0 0 21 20" fill="none" xmlns="http://www.w3.org/2000/svg">
<path d="M18 18.3333H3C2.65833 18.3333 2.375 18.05 2.375 17.7083C2.375 17.3667 2.65833 17.0833 3 17.0833H18C18.3417 17.0833 18.625 17.3667 18.625 17.7083C18.625 18.05 18.3417 18.3333 18 18.3333Z" fill="white"/>
<path d="M16.35 2.9C14.7333 1.28333 13.15 1.24166 11.4916 2.9L10.4833 3.90833C10.4 3.99166 10.3666 4.125 10.4 4.24166C11.0333 6.45 12.8 8.21666 15.0083 8.85C15.0416 8.85833 15.075 8.86666 15.1083 8.86666C15.2 8.86666 15.2833 8.83333 15.35 8.76666L16.35 7.75833C17.175 6.94166 17.575 6.15 17.575 5.35C17.5833 4.525 17.1833 3.725 16.35 2.9Z" fill="white"/>
<path d="M13.5084 9.60833C13.2668 9.49166 13.0334 9.375 12.8084 9.24166C12.6251 9.13333 12.4501 9.01666 12.2751 8.89166C12.1334 8.8 11.9668 8.66666 11.8084 8.53333C11.7918 8.525 11.7334 8.475 11.6668 8.40833C11.3918 8.175 11.0834 7.875 10.8084 7.54166C10.7834 7.525 10.7418 7.46666 10.6834 7.39166C10.6001 7.29166 10.4584 7.125 10.3334 6.93333C10.2334 6.80833 10.1168 6.625 10.0084 6.44166C9.8751 6.21666 9.75844 5.99166 9.64177 5.75833C9.4888 5.43055 9.05859 5.33317 8.80282 5.58895L4.11677 10.275C4.00844 10.3833 3.90844 10.5917 3.88344 10.7333L3.43344 13.925C3.3501 14.4917 3.50844 15.025 3.85844 15.3833C4.15844 15.675 4.5751 15.8333 5.0251 15.8333C5.1251 15.8333 5.2251 15.825 5.3251 15.8083L8.5251 15.3583C8.6751 15.3333 8.88344 15.2333 8.98344 15.125L13.6772 10.4312C13.9279 10.1806 13.8337 9.74928 13.5084 9.60833Z" fill="white"/>
</svg>
