<svg width="32" height="32" viewBox="0 0 32 32" fill="none" xmlns="http://www.w3.org/2000/svg">
<g clip-path="url(#clip0_9_11403)">
<path d="M4.68783 27.3118C3.15967 25.8359 1.94076 24.0704 1.10221 22.1183C0.263667 20.1662 -0.177712 18.0667 -0.196173 15.9423C-0.214634 13.8178 0.190193 11.7109 0.994687 9.74457C1.79918 7.77823 2.98723 5.9918 4.48951 4.48951C5.9918 2.98723 7.77823 1.79918 9.74457 0.994687C11.7109 0.190193 13.8178 -0.214634 15.9423 -0.196173C18.0667 -0.177712 20.1662 0.263667 22.1183 1.10221C24.0704 1.94076 25.8359 3.15967 27.3118 4.68783C30.2264 7.70547 31.8391 11.7471 31.8026 15.9423C31.7662 20.1374 30.0835 24.1504 27.1169 27.1169C24.1504 30.0835 20.1374 31.7662 15.9423 31.8026C11.7471 31.8391 7.70547 30.2264 4.68783 27.3118ZM18.2398 15.9998L22.7678 11.4718L20.5118 9.21583L15.9998 13.7438L11.4718 9.21583L9.21583 11.4718L13.7438 15.9998L9.21583 20.5278L11.4718 22.7838L15.9998 18.2558L20.5278 22.7838L22.7838 20.5278L18.2558 15.9998H18.2398Z" fill="#FF4141"/>
</g>
<defs>
<clipPath id="clip0_9_11403">
<rect width="32" height="32" fill="white"/>
</clipPath>
</defs>
</svg>
