<svg width="24" height="24" viewBox="0 0 24 24" fill="none" xmlns="http://www.w3.org/2000/svg">
<path d="M11.9996 24C9.22345 23.9999 6.53292 23.0372 4.38696 21.2759C2.241 19.5146 0.772109 17.0638 0.230538 14.3409C-0.311033 11.618 0.108368 8.79161 1.41704 6.34322C2.72571 3.89482 4.84332 1.97595 7.40814 0.913509C9.97297 -0.148933 12.8263 -0.289194 15.483 0.516628C18.1396 1.32245 20.4348 3.02448 21.9772 5.33275C23.5197 7.64103 24.2142 10.4127 23.9423 13.1756C23.6703 15.9385 22.449 18.5215 20.486 20.4847C19.3743 21.6028 18.0514 22.4892 16.5947 23.0926C15.1381 23.696 13.5763 24.0044 11.9996 24ZM11.9322 15.2385C11.4815 15.2385 11.0491 15.4175 10.7303 15.7362C10.4116 16.055 10.2323 16.4872 10.2323 16.938C10.2323 17.3887 10.4116 17.821 10.7303 18.1397C11.0491 18.4584 11.4815 18.6374 11.9322 18.6374H12.0677C12.5185 18.6374 12.9509 18.4584 13.2696 18.1397C13.5883 17.821 13.7676 17.3887 13.7676 16.938C13.7676 16.4872 13.5883 16.055 13.2696 15.7362C12.9509 15.4175 12.5185 15.2385 12.0677 15.2385H11.9322ZM11.774 5.36095C11.5442 5.36174 11.3167 5.40865 11.1053 5.49883C10.894 5.589 10.7025 5.72066 10.5429 5.886C10.3837 6.05072 10.26 6.24591 10.1781 6.45986C10.0963 6.6738 10.0582 6.90212 10.0668 7.13103L10.2916 12.795C10.3122 13.2342 10.5016 13.6485 10.8197 13.9521C11.1378 14.2556 11.5607 14.4249 12.0003 14.4249C12.44 14.4249 12.8622 14.2556 13.1803 13.9521C13.4983 13.6485 13.6877 13.2342 13.7083 12.795L13.9332 7.13103C13.9414 6.90161 13.9033 6.67284 13.8211 6.45848C13.7389 6.24413 13.6144 6.04854 13.4549 5.88344C13.2954 5.71834 13.1045 5.58715 12.8932 5.49764C12.6818 5.40812 12.454 5.36216 12.2245 5.36251L11.774 5.36095Z" fill="#FF4141"/>
</svg>
