<svg width="32" height="32" viewBox="0 0 32 32" fill="none" xmlns="http://www.w3.org/2000/svg">
<path d="M27.5007 3.5H4.50073C3.94761 3.5 3.50073 3.94687 3.50073 4.5V27.5C3.50073 28.0531 3.94761 28.5 4.50073 28.5H27.5007C28.0539 28.5 28.5007 28.0531 28.5007 27.5V4.5C28.5007 3.94687 28.0539 3.5 27.5007 3.5ZM24.6132 10.7969H22.6164C21.0507 10.7969 20.7476 11.5406 20.7476 12.6344V15.0437H24.4851L23.9976 18.8156H20.7476V28.5H16.8507V18.8188H13.5914V15.0437H16.8507V12.2625C16.8507 9.03437 18.8226 7.275 21.7039 7.275C23.0851 7.275 24.2695 7.37813 24.6164 7.425V10.7969H24.6132Z" fill="white"/>
</svg>
