<svg width="22" height="22" viewBox="0 0 22 22" fill="none" xmlns="http://www.w3.org/2000/svg">
<path d="M2 0C1.4707 0.00366674 0.964119 0.215558 0.589839 0.589839C0.215558 0.964119 0.00366674 1.4707 0 2V20C0.00366674 20.5293 0.215558 21.0359 0.589839 21.4102C0.964119 21.7844 1.4707 21.9963 2 22H20C20.5293 21.9963 21.0359 21.7844 21.4102 21.4102C21.7844 21.0359 21.9963 20.5293 22 20V2C21.9963 1.4707 21.7844 0.964119 21.4102 0.589839C21.0359 0.215558 20.5293 0.00366674 20 0H2ZM2 2H20V20H14.813V13.25H17.407L17.782 10.25H14.813V8.313C14.813 7.438 15.028 6.844 16.282 6.844H17.907V4.125C17.63 4.09 16.669 4.031 15.563 4.031C15.0356 3.99043 14.5058 4.06606 14.0108 4.25253C13.5158 4.43901 13.0678 4.73181 12.6983 5.11027C12.3288 5.48874 12.0468 5.94366 11.8723 6.44295C11.6977 6.94224 11.6348 7.47375 11.688 8V10.25H9.063V13.25H11.688V20H2V2Z" fill="#171A21"/>
</svg>
