<svg width="33" height="32" viewBox="0 0 33 32" fill="none" xmlns="http://www.w3.org/2000/svg">
<circle cx="16.3252" cy="16" r="16" fill="white"/>
<circle cx="16.3252" cy="16" r="16" fill="url(#paint0_linear_1656_5596)" fill-opacity="0.2"/>
<circle cx="16.3252" cy="16" r="12" fill="#02CAB3"/>
<path d="M16.7954 23C16.6487 23 16.5287 22.9533 16.4354 22.86C16.3554 22.7667 16.3154 22.6533 16.3154 22.52V12.16L13.2754 14.5C13.1554 14.58 13.0354 14.6133 12.9154 14.6C12.7954 14.5733 12.6887 14.5 12.5954 14.38L11.7554 13.3C11.6754 13.18 11.642 13.0533 11.6554 12.92C11.682 12.7867 11.7554 12.68 11.8754 12.6L16.3554 9.14C16.4354 9.07333 16.5154 9.03333 16.5954 9.02C16.6754 9.00667 16.762 9 16.8554 9H18.6154C18.7487 9 18.862 9.04667 18.9554 9.14C19.0487 9.23333 19.0954 9.34667 19.0954 9.48V22.52C19.0954 22.6533 19.0487 22.7667 18.9554 22.86C18.862 22.9533 18.7487 23 18.6154 23H16.7954Z" fill="white"/>
<defs>
<linearGradient id="paint0_linear_1656_5596" x1="16.3252" y1="0" x2="16.3252" y2="32" gradientUnits="userSpaceOnUse">
<stop stop-color="#4F5F7A" stop-opacity="0.7"/>
<stop offset="1" stop-color="#4F5F7A" stop-opacity="0.08"/>
</linearGradient>
</defs>
</svg>
