<svg width="32" height="32" viewBox="0 0 32 32" fill="none" xmlns="http://www.w3.org/2000/svg">
<circle cx="16" cy="16" r="16" fill="white"/>
<circle cx="16" cy="16" r="16" fill="url(#paint0_linear_1656_6004)" fill-opacity="0.2"/>
<circle cx="16" cy="16" r="12" fill="#AEB9CB"/>
<path d="M16.9356 23C16.8023 23 16.689 22.9533 16.5956 22.86C16.5023 22.7667 16.4556 22.6533 16.4556 22.52V19.96H10.1156C9.96896 19.96 9.84896 19.9133 9.75563 19.82C9.67563 19.7267 9.63563 19.6133 9.63563 19.48V18.12C9.63563 18.04 9.64896 17.9467 9.67563 17.84C9.71563 17.72 9.77563 17.6133 9.85563 17.52L15.7556 9.34C15.929 9.11333 16.1756 9 16.4956 9H18.6756C18.809 9 18.9223 9.04667 19.0156 9.14C19.109 9.23333 19.1556 9.34667 19.1556 9.48V17.6H20.9356C21.0956 17.6 21.2156 17.6467 21.2956 17.74C21.389 17.82 21.4356 17.9333 21.4356 18.08V19.48C21.4356 19.6133 21.389 19.7267 21.2956 19.82C21.2023 19.9133 21.089 19.96 20.9556 19.96H19.1556V22.52C19.1556 22.6533 19.109 22.7667 19.0156 22.86C18.9223 22.9533 18.809 23 18.6756 23H16.9356ZM12.4156 17.68H16.5156V11.9L12.4156 17.68Z" fill="white"/>
<defs>
<linearGradient id="paint0_linear_1656_6004" x1="16" y1="0" x2="16" y2="32" gradientUnits="userSpaceOnUse">
<stop stop-color="#4F5F7A" stop-opacity="0.7"/>
<stop offset="1" stop-color="#4F5F7A" stop-opacity="0.08"/>
</linearGradient>
</defs>
</svg>
