<svg width="40" height="40" viewBox="0 0 40 40" fill="none" xmlns="http://www.w3.org/2000/svg">
<g clip-path="url(#clip0_1494_8343)">
<mask id="mask0_1494_8343" style="mask-type:luminance" maskUnits="userSpaceOnUse" x="0" y="0" width="40" height="40">
<path d="M40 0H0V40H40V0Z" fill="white"/>
</mask>
<g mask="url(#mask0_1494_8343)">
<path d="M15.033 4.70396L6.05001 11.704C5.25065 12.3983 4.59842 13.2457 4.13179 14.1962C3.66515 15.1466 3.39355 16.1809 3.33301 17.238V29.588C3.33538 31.4497 4.07492 33.2348 5.38989 34.5528C6.70486 35.8707 8.48825 36.6144 10.35 36.621H29.65C31.5093 36.6154 33.2909 35.8744 34.6057 34.5596C35.9204 33.2449 36.6615 31.4633 36.667 29.604V17.471C36.6041 16.3544 36.304 15.2641 35.7867 14.2727C35.2694 13.2812 34.5468 12.4113 33.667 11.721L23.367 4.50396C22.1149 3.70626 20.6537 3.2993 19.1696 3.33492C17.6854 3.37053 16.2454 3.84712 15.033 4.70396Z" stroke="#4F5F7A" stroke-width="2" stroke-linecap="round" stroke-linejoin="round"/>
<path d="M20 29.9541V24.9541" stroke="#4F5F7A" stroke-width="2" stroke-linecap="round" stroke-linejoin="round"/>
</g>
</g>
<defs>
<clipPath id="clip0_1494_8343">
<rect width="40" height="40" fill="white"/>
</clipPath>
</defs>
</svg>
