<svg width="40" height="40" viewBox="0 0 40 40" fill="none" xmlns="http://www.w3.org/2000/svg">
<g clip-path="url(#clip0_1494_84)">
<mask id="mask0_1494_84" style="mask-type:luminance" maskUnits="userSpaceOnUse" x="0" y="0" width="40" height="40">
<path d="M40 0H0V40H40V0Z" fill="white"/>
</mask>
<g mask="url(#mask0_1494_84)">
<path d="M3.33301 21.0171H31.666" stroke="#4F5F7A" stroke-width="2" stroke-miterlimit="10" stroke-linecap="round" stroke-linejoin="round"/>
<path d="M31.666 17.134V29.05C31.616 33.8 30.316 35 25.366 35H9.63301C4.60001 35 3.33301 33.75 3.33301 28.783V17.134C3.33301 12.634 4.38301 11.184 8.33301 10.951C8.73301 10.934 9.16601 10.918 9.63301 10.918H25.366C30.4 10.917 31.666 12.167 31.666 17.134Z" stroke="#4F5F7A" stroke-width="2" stroke-linecap="round" stroke-linejoin="round"/>
<path d="M36.666 11.217V22.867C36.666 27.367 35.616 28.817 31.666 29.05V17.133C31.666 12.166 30.399 10.916 25.366 10.916H9.63301C9.16601 10.916 8.73301 10.933 8.33301 10.949C8.38301 6.2 9.68301 5 14.633 5H30.366C35.4 5 36.666 6.25 36.666 11.217Z" stroke="#4F5F7A" stroke-width="2" stroke-linecap="round" stroke-linejoin="round"/>
<path d="M8.75 29.6831H11.617" stroke="#4F5F7A" stroke-width="2" stroke-miterlimit="10" stroke-linecap="round" stroke-linejoin="round"/>
<path d="M15.1831 29.6831H20.9161" stroke="#4F5F7A" stroke-width="2" stroke-miterlimit="10" stroke-linecap="round" stroke-linejoin="round"/>
</g>
</g>
<defs>
<clipPath id="clip0_1494_84">
<rect width="40" height="40" fill="white"/>
</clipPath>
</defs>
</svg>
