<svg width="40" height="40" viewBox="0 0 40 40" fill="none" xmlns="http://www.w3.org/2000/svg">
<g clip-path="url(#clip0_1494_755)">
<mask id="mask0_1494_755" style="mask-type:luminance" maskUnits="userSpaceOnUse" x="0" y="0" width="40" height="40">
<path d="M40 0H0V40H40V0Z" fill="white"/>
</mask>
<g mask="url(#mask0_1494_755)">
<path d="M30.535 20.643C34.868 20.643 36.668 18.976 35.068 13.51C34.4843 11.6455 33.4579 9.95005 32.0764 8.56856C30.6949 7.18707 28.9995 6.16065 27.135 5.57703C21.669 3.97703 20.002 5.77703 20.002 10.11V14.91C20.002 18.977 21.669 20.643 25.002 20.643H30.535Z" stroke="#4F5F7A" stroke-width="2" stroke-linecap="round" stroke-linejoin="round"/>
<path d="M33.334 25.1422C32.7966 27.8283 31.541 30.3185 29.7008 32.3478C27.8606 34.3771 25.5048 35.8696 22.8838 36.6664C20.2629 37.4632 17.4749 37.5346 14.8167 36.8729C12.1584 36.2113 9.7292 34.8413 7.78761 32.9088C5.84602 30.9763 4.46464 28.5536 3.79048 25.8985C3.11631 23.2434 3.17457 20.4551 3.95905 17.8305C4.74354 15.2058 6.2249 12.8429 8.24552 10.9932C10.2661 9.14353 12.7504 7.87623 15.434 7.32617" stroke="#4F5F7A" stroke-width="2" stroke-linecap="round" stroke-linejoin="round"/>
</g>
</g>
<defs>
<clipPath id="clip0_1494_755">
<rect width="40" height="40" fill="white"/>
</clipPath>
</defs>
</svg>
