<svg width="40" height="40" viewBox="0 0 40 40" fill="none" xmlns="http://www.w3.org/2000/svg">
<g clip-path="url(#clip0_1494_1258)">
<mask id="mask0_1494_1258" style="mask-type:luminance" maskUnits="userSpaceOnUse" x="0" y="0" width="40" height="40">
<path d="M40 0H0V40H40V0Z" fill="white"/>
</mask>
<g mask="url(#mask0_1494_1258)">
<path d="M31.8999 33.3332C34.1921 30.9899 35.742 28.0224 36.3554 24.8023C36.9689 21.5822 36.6187 18.2528 35.3486 15.2308C34.0786 12.2089 31.9452 9.62878 29.2156 7.8137C26.486 5.99861 23.2816 5.0292 20.0036 5.02686C16.7257 5.02452 13.5198 5.98936 10.7877 7.80055C8.0555 9.61174 5.91842 12.1888 4.64408 15.2089C3.36973 18.229 3.01476 21.558 3.62363 24.779C4.23249 27.9999 5.77812 30.9696 8.06695 33.3162" stroke="#4F5F7A" stroke-width="2" stroke-miterlimit="10" stroke-linecap="round" stroke-linejoin="round"/>
<path d="M19.799 36.6674C20.9131 36.6674 22.0021 36.337 22.9284 35.7181C23.8548 35.0992 24.5768 34.2195 25.0031 33.1903C25.4295 32.161 25.5411 31.0285 25.3239 29.9358C25.1066 28.8431 24.5702 27.8394 23.7825 27.0516C22.9948 26.2638 21.9912 25.7272 20.8986 25.5097C19.8059 25.2923 18.6734 25.4037 17.6441 25.8299C16.6147 26.2561 15.7349 26.9779 15.1158 27.9041C14.4968 28.8303 14.1662 29.9193 14.166 31.0334C14.1659 31.7732 14.3115 32.5058 14.5945 33.1893C14.8775 33.8729 15.2924 34.494 15.8155 35.0171C16.3386 35.5403 16.9596 35.9553 17.6431 36.2385C18.3266 36.5216 19.0592 36.6674 19.799 36.6674Z" stroke="#4F5F7A" stroke-width="2" stroke-miterlimit="10" stroke-linecap="round" stroke-linejoin="round"/>
<path d="M18.75 20.833H20C20.4945 20.833 20.9778 20.6864 21.3889 20.4117C21.8 20.137 22.1205 19.7465 22.3097 19.2897C22.4989 18.8329 22.5484 18.3302 22.452 17.8453C22.3555 17.3603 22.1174 16.9149 21.7678 16.5652C21.4181 16.2156 20.9727 15.9775 20.4877 15.881C20.0028 15.7846 19.5001 15.8341 19.0433 16.0233C18.5865 16.2125 18.196 16.533 17.9213 16.9441C17.6466 17.3552 17.5 17.8386 17.5 18.333V19.583C17.5024 19.9138 17.6348 20.2304 17.8687 20.4643C18.1026 20.6982 18.4192 20.8307 18.75 20.833Z" stroke="#4F5F7A" stroke-width="2" stroke-miterlimit="10" stroke-linecap="round" stroke-linejoin="round"/>
</g>
</g>
<defs>
<clipPath id="clip0_1494_1258">
<rect width="40" height="40" fill="white"/>
</clipPath>
</defs>
</svg>
