<svg width="24" height="24" viewBox="0 0 24 24" fill="none" xmlns="http://www.w3.org/2000/svg">
<path d="M12.0003 4.47273e-05C14.7764 0.000147967 17.467 0.962842 19.6129 2.7241C21.7589 4.48536 23.2278 6.93625 23.7693 9.65912C24.3109 12.382 23.8915 15.2084 22.5828 17.6568C21.2742 20.1052 19.1566 22.024 16.5917 23.0865C14.0269 24.1489 11.1736 24.2892 8.51693 23.4834C5.86029 22.6775 3.5651 20.9755 2.02266 18.6672C0.480221 16.359 -0.214362 13.5872 0.0576107 10.8244C0.329584 8.06154 1.55093 5.47849 3.51385 3.5153C4.62558 2.39725 5.94848 1.51082 7.40513 0.907423C8.86179 0.304022 10.4236 -0.00437092 12.0003 4.47273e-05ZM12.0676 8.76153C12.5184 8.76153 12.9508 8.58248 13.2695 8.26376C13.5882 7.94505 13.7676 7.51278 13.7676 7.06205C13.7676 6.61131 13.5882 6.17904 13.2695 5.86033C12.9508 5.54161 12.5184 5.36255 12.0676 5.36255L11.9322 5.36255C11.4814 5.36255 11.049 5.54161 10.7303 5.86033C10.4116 6.17904 10.2322 6.61131 10.2322 7.06204C10.2322 7.51278 10.4116 7.94505 10.7303 8.26376C11.049 8.58248 11.4814 8.76153 11.9322 8.76153L12.0676 8.76153ZM12.2258 18.639C12.4557 18.6383 12.6831 18.5913 12.8945 18.5012C13.1059 18.411 13.2974 18.2793 13.457 18.114C13.6162 17.9493 13.7399 17.7541 13.8218 17.5401C13.9036 17.3262 13.9417 17.0979 13.9331 16.869L13.7082 11.205C13.6877 10.7658 13.4983 10.3515 13.1802 10.0479C12.8621 9.74442 12.4392 9.57507 11.9995 9.57507C11.5599 9.57507 11.1377 9.74442 10.8196 10.0479C10.5015 10.3515 10.3121 10.7658 10.2916 11.205L10.0667 16.869C10.0584 17.0984 10.0966 17.3272 10.1788 17.5415C10.2609 17.7559 10.3855 17.9515 10.545 18.1166C10.7045 18.2817 10.8953 18.4128 11.1067 18.5024C11.3181 18.5919 11.5459 18.6378 11.7754 18.6375L12.2258 18.639Z" fill="#02CAB3"/>
</svg>
