<svg width="22" height="22" viewBox="0 0 22 22" fill="none" xmlns="http://www.w3.org/2000/svg">
<path d="M6.469 0C4.75534 0.00658448 3.11375 0.690252 1.902 1.902C0.690252 3.11375 0.00658448 4.75534 0 6.469V15.532C0.00684768 17.2455 0.690632 18.8868 1.90235 20.0984C3.11407 21.3099 4.75551 21.9934 6.469 22H15.532C17.2455 21.9932 18.8868 21.3094 20.0984 20.0976C21.3099 18.8859 21.9934 17.2445 22 15.531V6.469C21.9934 4.75534 21.3097 3.11375 20.098 1.902C18.8863 0.690252 17.2447 0.00658448 15.531 0H6.469ZM6.469 2H15.532C16.119 1.99934 16.7004 2.11449 17.2428 2.33886C17.7853 2.56323 18.2781 2.8924 18.6932 3.30753C19.1082 3.72266 19.4373 4.21559 19.6615 4.75809C19.8858 5.30058 20.0008 5.88198 20 6.469V15.532C20.0007 16.119 19.8855 16.7004 19.6611 17.2428C19.4368 17.7853 19.1076 18.2781 18.6925 18.6932C18.2773 19.1082 17.7844 19.4373 17.2419 19.6615C16.6994 19.8858 16.118 20.0008 15.531 20H6.469C5.8819 20.0008 5.30041 19.8857 4.75785 19.6614C4.21529 19.4371 3.72232 19.108 3.30718 18.6928C2.89204 18.2777 2.56288 17.7847 2.33857 17.2421C2.11427 16.6996 1.99921 16.1181 2 15.531V6.469C1.99921 5.8819 2.11427 5.30041 2.33857 4.75785C2.56288 4.21529 2.89204 3.72232 3.30718 3.30718C3.72232 2.89204 4.21529 2.56288 4.75785 2.33857C5.30041 2.11427 5.8819 1.99921 6.469 2ZM16.906 4.188C16.7268 4.188 16.5516 4.24114 16.4027 4.34069C16.2537 4.44024 16.1375 4.58174 16.069 4.74729C16.0004 4.91284 15.9825 5.09501 16.0174 5.27075C16.0524 5.4465 16.1387 5.60793 16.2654 5.73464C16.3921 5.86135 16.5535 5.94763 16.7292 5.98259C16.905 6.01755 17.0872 5.99961 17.2527 5.93104C17.4183 5.86246 17.5598 5.74634 17.6593 5.59735C17.7589 5.44836 17.812 5.27319 17.812 5.094C17.8128 4.9748 17.7899 4.85663 17.7447 4.74635C17.6994 4.63607 17.6327 4.53587 17.5484 4.45158C17.4641 4.36729 17.3639 4.30059 17.2537 4.25534C17.1434 4.21009 17.0252 4.1872 16.906 4.188ZM11 5C9.81331 5 8.65327 5.35189 7.66658 6.01118C6.67988 6.67047 5.91085 7.60754 5.45672 8.7039C5.0026 9.80026 4.88378 11.0067 5.11529 12.1705C5.3468 13.3344 5.91824 14.4035 6.75736 15.2426C7.59647 16.0818 8.66557 16.6532 9.82946 16.8847C10.9933 17.1162 12.1997 16.9974 13.2961 16.5433C14.3925 16.0892 15.3295 15.3201 15.9888 14.3334C16.6481 13.3467 17 12.1867 17 11C16.9955 9.41008 16.3619 7.88656 15.2377 6.76231C14.1134 5.63807 12.5899 5.00449 11 5ZM11 7C11.7911 7 12.5645 7.2346 13.2223 7.67412C13.8801 8.11365 14.3928 8.73836 14.6955 9.46927C14.9983 10.2002 15.0775 11.0044 14.9231 11.7804C14.7688 12.5563 14.3878 13.269 13.8284 13.8284C13.269 14.3878 12.5563 14.7688 11.7804 14.9231C11.0044 15.0775 10.2002 14.9983 9.46927 14.6955C8.73836 14.3928 8.11365 13.8801 7.67412 13.2223C7.2346 12.5645 7 11.7911 7 11C6.99775 10.4741 7.09968 9.95293 7.2999 9.46661C7.50012 8.98029 7.79467 8.53844 8.16656 8.16656C8.53844 7.79467 8.98029 7.50012 9.46661 7.2999C9.95293 7.09968 10.4741 6.99775 11 7Z" fill="#171A21"/>
</svg>
