<svg width="32" height="32" viewBox="0 0 32 32" fill="none" xmlns="http://www.w3.org/2000/svg">
<path d="M27.5017 3.5H4.50171C3.94858 3.5 3.50171 3.94687 3.50171 4.5V27.5C3.50171 28.0531 3.94858 28.5 4.50171 28.5H27.5017C28.0548 28.5 28.5017 28.0531 28.5017 27.5V4.5C28.5017 3.94687 28.0548 3.5 27.5017 3.5ZM10.9173 24.8031H7.20796V12.8719H10.9173V24.8031ZM9.06421 11.2406C8.63898 11.2406 8.2233 11.1145 7.86973 10.8783C7.51617 10.642 7.2406 10.3063 7.07787 9.91339C6.91514 9.52053 6.87256 9.08824 6.95552 8.67118C7.03848 8.25412 7.24325 7.87103 7.54393 7.57035C7.84461 7.26966 8.22771 7.06489 8.64476 6.98194C9.06182 6.89898 9.49412 6.94156 9.88698 7.10428C10.2798 7.26701 10.6156 7.54258 10.8519 7.89615C11.0881 8.24971 11.2142 8.66539 11.2142 9.09062C11.2111 10.2781 10.2486 11.2406 9.06421 11.2406ZM24.8048 24.8031H21.0986V19C21.0986 17.6156 21.0736 15.8375 19.1705 15.8375C17.2423 15.8375 16.9455 17.3438 16.9455 18.9V24.8031H13.2423V12.8719H16.7986V14.5031H16.8486C17.3423 13.5656 18.5517 12.575 20.358 12.575C24.1142 12.575 24.8048 15.0469 24.8048 18.2594V24.8031Z" fill="white"/>
</svg>
