<svg width="22" height="22" viewBox="0 0 22 22" fill="none" xmlns="http://www.w3.org/2000/svg">
<path d="M2.5 0C1.83841 0.0047127 1.20526 0.269618 0.737441 0.737441C0.269618 1.20526 0.0047127 1.83841 0 2.5V19.5C0.0047127 20.1616 0.269618 20.7947 0.737441 21.2626C1.20526 21.7304 1.83841 21.9953 2.5 22H19.5C20.1616 21.9953 20.7947 21.7304 21.2626 21.2626C21.7304 20.7947 21.9953 20.1616 22 19.5V2.5C21.9953 1.83841 21.7304 1.20526 21.2626 0.737441C20.7947 0.269618 20.1616 0.0047127 19.5 0H2.5ZM2.5 2H19.5C19.5661 1.9985 19.6318 2.0104 19.6931 2.035C19.7544 2.05959 19.8102 2.09637 19.8569 2.1431C19.9036 2.18983 19.9404 2.24555 19.965 2.30689C19.9896 2.36824 20.0015 2.43393 20 2.5V19.5C20.0015 19.5661 19.9896 19.6318 19.965 19.6931C19.9404 19.7544 19.9036 19.8102 19.8569 19.8569C19.8102 19.9036 19.7544 19.9404 19.6931 19.965C19.6318 19.9896 19.5661 20.0015 19.5 20H2.5C2.43393 20.0015 2.36824 19.9896 2.30689 19.965C2.24555 19.9404 2.18983 19.9036 2.1431 19.8569C2.09637 19.8102 2.05959 19.7544 2.035 19.6931C2.0104 19.6318 1.9985 19.5661 2 19.5V2.5C1.9985 2.43393 2.0104 2.36824 2.035 2.30689C2.05959 2.24555 2.09637 2.18983 2.1431 2.1431C2.18983 2.09637 2.24555 2.05959 2.30689 2.035C2.36824 2.0104 2.43393 1.9985 2.5 2ZM5.438 3.719C5.09801 3.719 4.76566 3.81982 4.48298 4.0087C4.20029 4.19759 3.97996 4.46606 3.84985 4.78017C3.71974 5.09427 3.6857 5.43991 3.75203 5.77336C3.81836 6.10681 3.98208 6.41311 4.22248 6.65352C4.46289 6.89392 4.76919 7.05764 5.10264 7.12397C5.43609 7.1903 5.78173 7.15626 6.09583 7.02615C6.40994 6.89604 6.67841 6.67571 6.8673 6.39303C7.05618 6.11034 7.157 5.77799 7.157 5.438C7.157 4.98209 6.97589 4.54486 6.65352 4.22248C6.33114 3.90011 5.89391 3.719 5.438 3.719ZM14.469 8.282C13.9102 8.26109 13.3562 8.39251 12.8664 8.66219C12.3765 8.93187 11.9692 9.32966 11.688 9.813H11.626V8.5H8.813V18H11.75V13.313C11.75 12.075 11.996 10.876 13.531 10.876C15.043 10.876 15.062 12.276 15.062 13.376V18H18V12.781C18 10.227 17.457 8.282 14.469 8.282ZM4 8.5V18H6.969V8.5H4Z" fill="#171A21"/>
</svg>
