<svg width="148" height="33" viewBox="0 0 148 33" fill="none" xmlns="http://www.w3.org/2000/svg">
<path d="M142.635 9C145.12 9 147.135 6.98528 147.135 4.5C147.135 2.01472 145.12 0 142.635 0C140.15 0 138.135 2.01472 138.135 4.5C138.135 6.98528 140.15 9 142.635 9Z" fill="url(#paint0_radial_78_10470)"/>
<mask id="mask0_78_10470" style="mask-type:luminance" maskUnits="userSpaceOnUse" x="0" y="1" width="146" height="32">
<path d="M145.49 1H0.189941V33H145.49V1Z" fill="white"/>
</mask>
<g mask="url(#mask0_78_10470)">
<path d="M18.9899 21.4902C18.1044 20.9923 17.1605 20.606 16.1799 20.3402C15.1599 20.0602 14.1399 19.8202 13.1099 19.6102C12.3099 19.4602 11.4899 19.3202 10.6399 19.1702C9.78993 19.0202 8.99993 18.8602 8.26993 18.6802C7.65245 18.5485 7.06109 18.3154 6.51993 17.9902C6.32688 17.8918 6.16379 17.7434 6.0477 17.5604C5.9316 17.3775 5.86675 17.1667 5.85993 16.9502C5.86026 16.7428 5.90404 16.5377 5.98843 16.3483C6.07282 16.1588 6.19597 15.9891 6.34993 15.8502C6.80235 15.4572 7.35107 15.1914 7.93993 15.0802C8.89847 14.869 9.87858 14.7716 10.8599 14.7902C11.7291 14.7928 12.5949 14.8968 13.4399 15.1002C14.2748 15.2947 15.0938 15.5521 15.8899 15.8702C16.5666 16.1376 17.2163 16.4691 17.8299 16.8602C18.009 16.975 18.2117 17.0482 18.4228 17.0741C18.634 17.1001 18.8483 17.0782 19.0499 17.0102C19.5091 16.8281 19.8908 16.4923 20.1299 16.0602C20.5312 15.5769 20.7505 14.9683 20.7499 14.3402C20.712 14.0274 20.5895 13.7308 20.3957 13.4824C20.2019 13.234 19.9441 13.0431 19.6499 12.9302C19.1142 12.5723 18.5448 12.2675 17.9499 12.0202C17.2446 11.7262 16.5195 11.4822 15.7799 11.2902C14.9932 11.0818 14.1952 10.9182 13.3899 10.8002C12.5922 10.6802 11.7866 10.62 10.9799 10.6202C9.08048 10.5697 7.18554 10.8298 5.36993 11.3902C4.06474 11.7757 2.89823 12.5291 2.00993 13.5602C1.26114 14.5097 0.868426 15.6914 0.899933 16.9002C0.866739 17.859 1.10227 18.8081 1.57993 19.6402C2.04225 20.3792 2.6684 21.0019 3.40993 21.4602C4.20629 21.9461 5.05935 22.3323 5.94993 22.6102C6.88563 22.9117 7.83703 23.162 8.79993 23.3602C9.50993 23.5102 10.2399 23.6502 10.9899 23.7802C11.7399 23.9102 12.4599 24.0502 13.1599 24.2002C13.7902 24.3302 14.4115 24.5006 15.0199 24.7102C15.4943 24.8624 15.9355 25.1033 16.3199 25.4202C16.4734 25.5465 16.597 25.7053 16.6817 25.8851C16.7665 26.065 16.8103 26.2614 16.8099 26.4602C16.8099 27.1702 16.3599 27.7202 15.4599 28.1202C14.0619 28.5977 12.585 28.8014 11.1099 28.7202C10.4043 28.7173 9.7008 28.6436 9.00993 28.5002C8.29725 28.3561 7.59553 28.1623 6.90993 27.9202C6.22993 27.6802 5.60993 27.4402 5.03993 27.1902C4.46993 26.9402 3.98993 26.7102 3.59993 26.5002C3.1933 26.2109 2.72373 26.0224 2.22993 25.9502C2.01417 25.9353 1.79836 25.9784 1.60492 26.0751C1.41147 26.1719 1.24747 26.3186 1.12993 26.5002C0.825797 26.8264 0.578988 27.2017 0.399933 27.6102C0.247743 27.9495 0.172609 28.3183 0.179932 28.6902C0.199202 29.0399 0.332699 29.3736 0.559933 29.6402C0.934633 30.156 1.4154 30.5856 1.96993 30.9002C2.71133 31.3385 3.49536 31.7004 4.30993 31.9802C5.27876 32.319 6.27612 32.5701 7.28993 32.7302C8.40731 32.9115 9.53796 32.9985 10.6699 32.9902C14.2899 32.9902 17.0499 32.4002 18.9299 31.2202C19.8022 30.7349 20.5263 30.0218 21.0247 29.157C21.5232 28.2922 21.7773 27.3082 21.7599 26.3102C21.7995 25.2783 21.539 24.257 21.0099 23.3702C20.5035 22.5852 19.8092 21.939 18.9899 21.4902Z" fill="#171A21"/>
<path d="M59.0799 12.18C57.4513 11.2615 55.5978 10.8181 53.7299 10.9C52.4731 10.8802 51.221 11.0591 50.0199 11.43C49.0292 11.7501 48.1068 12.252 47.2999 12.91C46.5415 13.551 45.9047 14.3233 45.4199 15.19C44.9752 14.3105 44.3678 13.5233 43.6299 12.87C42.8624 12.2084 41.9673 11.7114 40.9999 11.41C39.7806 11.0462 38.5121 10.8741 37.2399 10.9C36.3391 10.8895 35.441 11.0005 34.5699 11.23C33.8243 11.4286 33.1056 11.7174 32.4299 12.09C31.8505 12.4099 31.327 12.8219 30.8799 13.31C30.5077 13.7034 30.2096 14.1607 29.9999 14.66L30.2599 13.29C30.2858 12.972 30.2488 12.652 30.151 12.3483C30.0532 12.0446 29.8965 11.7631 29.6899 11.52C29.1562 11.0874 28.4736 10.8826 27.7899 10.95C27.1726 10.9038 26.5543 11.0247 25.9999 11.3C25.6527 11.5075 25.3986 11.8404 25.2899 12.23C25.1804 12.6475 25.1299 13.0784 25.1399 13.51V30.04C25.1381 30.4866 25.1816 30.9322 25.2699 31.37C25.3089 31.5703 25.3897 31.7601 25.5068 31.9273C25.624 32.0944 25.7749 32.235 25.9499 32.34C26.5027 32.6199 27.1224 32.7411 27.7399 32.69C28.3612 32.7313 28.9831 32.6179 29.5499 32.36C29.7291 32.2614 29.8852 32.1256 30.0077 31.9618C30.1301 31.7979 30.2161 31.6098 30.2599 31.41C30.3531 30.9729 30.3967 30.5268 30.3899 30.08V21.42C30.3675 20.4364 30.5729 19.461 30.9899 18.57C31.392 17.7549 32.0435 17.0893 32.8499 16.67C33.9034 16.1677 35.0638 15.9308 36.2299 15.98C37.3099 15.9218 38.3861 16.1494 39.3499 16.64C40.0877 17.0702 40.6638 17.7306 40.9899 18.52C41.3485 19.4438 41.5218 20.4292 41.4999 21.42V30C41.4964 30.4358 41.5332 30.871 41.6099 31.3C41.6494 31.5003 41.728 31.6909 41.8413 31.8607C41.9545 32.0306 42.1002 32.1765 42.2699 32.29C42.7838 32.5903 43.376 32.7297 43.9699 32.69C44.5948 32.7557 45.226 32.6557 45.7999 32.4C45.987 32.3035 46.152 32.1692 46.2845 32.0057C46.4171 31.8422 46.5142 31.653 46.5699 31.45C46.6893 31.0031 46.7498 30.5425 46.7499 30.08V21.46C46.7225 20.447 46.9277 19.4412 47.3499 18.52C47.749 17.7009 48.4108 17.039 49.2299 16.64C50.282 16.1575 51.4335 15.9313 52.5899 15.98C53.6699 15.9218 54.7461 16.1494 55.7099 16.64C56.4477 17.0702 57.0238 17.7306 57.3499 18.52C57.7085 19.4438 57.8818 20.4292 57.8599 21.42V30C57.8536 30.4534 57.8972 30.9061 57.9899 31.35C58.0818 31.7494 58.3257 32.0974 58.6699 32.32C59.2201 32.6092 59.8396 32.7407 60.4599 32.7C61.0904 32.7511 61.7228 32.6301 62.2899 32.35C62.4633 32.2479 62.6135 32.1107 62.7306 31.947C62.8477 31.7834 62.9292 31.597 62.9699 31.4C63.0631 30.9562 63.1067 30.5034 63.0999 30.05V21.47C63.1492 19.5446 62.8196 17.6283 62.1299 15.83C61.5344 14.3157 60.4643 13.035 59.0799 12.18Z" fill="#171A21"/>
<path d="M91.3 11.3202C90.7607 11.0208 90.1446 10.8885 89.5299 10.9402C88.8174 10.8775 88.1072 11.0845 87.5399 11.5202C87.3296 11.726 87.1656 11.9742 87.0587 12.2484C86.9517 12.5226 86.9045 12.8163 86.9199 13.1102L87.2299 14.3902C86.7512 13.711 86.1429 13.1333 85.44 12.6902C84.5394 12.123 83.5534 11.7044 82.5199 11.4502C81.1692 11.1175 79.7808 10.9629 78.3899 10.9902C76.7043 10.9662 75.0278 11.2439 73.44 11.8102C72.0313 12.3164 70.7341 13.0907 69.62 14.0902C68.5626 15.0358 67.7174 16.1945 67.1399 17.4902C66.5567 18.8268 66.2635 20.2719 66.2799 21.7302C66.2683 23.2171 66.5609 24.6906 67.1399 26.0602C67.7072 27.3801 68.5413 28.5683 69.5899 29.5502C70.6889 30.5798 71.9897 31.3698 73.41 31.8702C75.0062 32.431 76.6882 32.7085 78.3799 32.6902C79.8423 32.7176 81.3009 32.5324 82.7099 32.1402C83.7548 31.8476 84.747 31.392 85.6499 30.7902C86.3011 30.3691 86.851 29.809 87.2599 29.1502L86.91 30.6502C86.915 30.9208 86.9742 31.1877 87.0841 31.435C87.1941 31.6823 87.3525 31.9051 87.55 32.0902C88.0992 32.5062 88.7838 32.7023 89.47 32.6402C90.0872 32.6864 90.7055 32.5655 91.2599 32.2902C91.434 32.1829 91.5848 32.0418 91.7034 31.8752C91.8219 31.7086 91.9057 31.5198 91.9499 31.3202C92.0432 30.8696 92.0868 30.4102 92.08 29.9502V13.7802C92.0813 13.2972 92.0378 12.8151 91.9499 12.3402C91.9175 12.1347 91.843 11.938 91.7312 11.7625C91.6193 11.587 91.4725 11.4365 91.3 11.3202ZM85.6199 24.8902C85.01 25.8197 84.1408 26.5499 83.12 26.9902C81.8624 27.5226 80.505 27.7783 79.1399 27.7402C77.7458 27.7775 76.3593 27.522 75.07 26.9902C74.0312 26.5628 73.141 25.8395 72.51 24.9102C71.9182 24.0193 71.6113 22.9695 71.6299 21.9002C71.5884 20.778 71.8921 19.67 72.5001 18.7258C73.1081 17.7816 73.9911 17.0467 75.0299 16.6202C77.6114 15.5993 80.4834 15.5921 83.07 16.6002C84.0899 17.0411 84.9637 17.7624 85.5899 18.6802C86.1635 19.6132 86.4696 20.6858 86.4749 21.781C86.4802 22.8762 86.1845 23.9517 85.6199 24.8902Z" fill="#171A21"/>
<path d="M113.6 11.7402C113.115 11.4944 112.605 11.3 112.08 11.1602C111.521 11.0091 110.953 10.8922 110.38 10.8102C109.848 10.7218 109.309 10.6784 108.77 10.6802C107.845 10.6708 106.923 10.7886 106.03 11.0302C105.272 11.2409 104.538 11.5291 103.84 11.8902C103.272 12.1791 102.75 12.5497 102.29 12.9902C101.945 13.3191 101.655 13.7005 101.43 14.1202L101.78 12.9302C101.78 12.6207 101.729 12.3134 101.63 12.0202C101.504 11.68 101.249 11.4033 100.92 11.2502C100.37 11.0083 99.7697 10.902 99.1699 10.9402C98.555 10.898 97.9394 11.0115 97.3799 11.2702C97.2057 11.3703 97.0532 11.5041 96.9313 11.6637C96.8094 11.8234 96.7206 12.0058 96.6699 12.2002C96.5603 12.6551 96.5099 13.1223 96.5199 13.5902V30.0002C96.5181 30.46 96.5616 30.9189 96.6499 31.3702C96.737 31.7797 96.9812 32.1387 97.3299 32.3702C97.8802 32.6594 98.4996 32.791 99.1199 32.7502C99.7504 32.8013 100.383 32.6804 100.95 32.4002C101.3 32.187 101.555 31.8466 101.66 31.4502C101.77 31.0089 101.821 30.5549 101.81 30.1002V19.3402C101.801 18.7747 101.98 18.2223 102.32 17.7702C102.68 17.2998 103.133 16.9084 103.65 16.6202C104.223 16.3011 104.839 16.0686 105.48 15.9302C106.163 15.7819 106.861 15.7081 107.56 15.7102C108.198 15.6897 108.837 15.7502 109.46 15.8902C109.862 15.9843 110.254 16.1183 110.63 16.2902C110.94 16.4402 111.25 16.5702 111.56 16.6902C111.922 16.8203 112.305 16.8813 112.69 16.8702C113.028 16.8596 113.359 16.7655 113.652 16.5963C113.945 16.427 114.192 16.1879 114.37 15.9002C114.855 15.1995 115.104 14.3622 115.08 13.5102C115.076 13.1475 114.933 12.8002 114.68 12.5402C114.372 12.2098 114.006 11.9387 113.6 11.7402Z" fill="#171A21"/>
<path d="M135.12 11.4101C134.678 11.3015 134.225 11.2478 133.77 11.2501L127.32 11.3901V6.26009C127.32 5.82243 127.27 5.38623 127.17 4.96009C127.068 4.56191 126.813 4.22027 126.46 4.01009C125.907 3.73016 125.287 3.60901 124.67 3.66009C124.068 3.6189 123.466 3.73251 122.92 3.99009C122.747 4.08652 122.595 4.21676 122.473 4.37307C122.351 4.52939 122.261 4.7086 122.21 4.90009C122.1 5.34824 122.05 5.80883 122.06 6.27009V11.4201L118.7 11.4001C118.41 11.3755 118.118 11.4166 117.846 11.5205C117.574 11.6244 117.33 11.7883 117.13 12.0001C116.75 12.5498 116.569 13.2135 116.62 13.8801C116.562 14.5638 116.708 15.2494 117.04 15.8501C117.226 16.0676 117.46 16.2387 117.724 16.3498C117.988 16.4609 118.274 16.5089 118.56 16.4901L122.05 16.4701V25.0201C122.019 26.2059 122.302 27.3788 122.87 28.4201C123.423 29.4023 124.205 30.236 125.15 30.8501C126.196 31.529 127.354 32.0166 128.57 32.2901C129.971 32.6081 131.404 32.7625 132.84 32.7501C133.277 32.7519 133.712 32.7084 134.14 32.6201C134.339 32.5745 134.527 32.4901 134.694 32.3717C134.86 32.2533 135.002 32.1032 135.11 31.9301C135.399 31.3799 135.531 30.7604 135.49 30.1401C135.528 29.5695 135.421 28.9985 135.18 28.4801C135.082 28.3155 134.95 28.1734 134.793 28.0631C134.636 27.9528 134.458 27.8768 134.27 27.8401C133.797 27.7415 133.313 27.6978 132.83 27.7101C132.127 27.7119 131.425 27.6584 130.73 27.5501C130.125 27.4618 129.531 27.3075 128.96 27.0901C128.487 26.9111 128.067 26.6153 127.74 26.2301C127.438 25.8311 127.282 25.3402 127.3 24.8401V16.4601L133.8 16.5301C134.248 16.5401 134.695 16.4897 135.13 16.3801C135.325 16.3255 135.508 16.233 135.668 16.1077C135.827 15.9824 135.961 15.8269 136.06 15.6501C136.333 15.1163 136.458 14.5186 136.42 13.9201C136.466 13.3028 136.345 12.6845 136.07 12.1301C135.968 11.9526 135.831 11.7975 135.668 11.6738C135.505 11.5502 135.318 11.4605 135.12 11.4101Z" fill="#171A21"/>
<path d="M144.47 11.34C143.924 11.0612 143.311 10.94 142.7 10.99C142.077 10.9497 141.453 11.0703 140.89 11.34C140.712 11.4398 140.556 11.5759 140.434 11.7396C140.312 11.9032 140.225 12.0907 140.18 12.29C140.087 12.7169 140.043 13.1531 140.05 13.59V30.04C140.049 30.4932 140.092 30.9454 140.18 31.39C140.272 31.7895 140.516 32.1374 140.86 32.36C141.41 32.6492 142.03 32.7808 142.65 32.74C143.267 32.7862 143.886 32.6653 144.44 32.39C144.79 32.1768 145.045 31.8364 145.15 31.44C145.26 30.9987 145.311 30.5447 145.3 30.09V13.69C145.3 13.2292 145.25 12.7698 145.15 12.32C145.062 11.9161 144.818 11.5636 144.47 11.34Z" fill="#171A21"/>
</g>
<defs>
<radialGradient id="paint0_radial_78_10470" cx="0" cy="0" r="1" gradientUnits="userSpaceOnUse" gradientTransform="translate(141.87 1.73538) scale(5.571 5.00276)">
<stop stop-color="#C5FDDE"/>
<stop offset="1" stop-color="#00CBA9"/>
</radialGradient>
</defs>
</svg>
