<svg width="157" height="33" viewBox="0 0 157 33" fill="none" xmlns="http://www.w3.org/2000/svg">
<path d="M151.635 9C154.12 9 156.135 6.98528 156.135 4.5C156.135 2.01472 154.12 0 151.635 0C149.149 0 147.135 2.01472 147.135 4.5C147.135 6.98528 149.149 9 151.635 9Z" fill="url(#paint0_radial_154_7372)"/>
<mask id="mask0_154_7372" style="mask-type:luminance" maskUnits="userSpaceOnUse" x="0" y="1" width="155" height="32">
<path d="M154.489 1H0V33H154.489V1Z" fill="white"/>
</mask>
<g mask="url(#mask0_154_7372)">
<path d="M27.1445 17.0675C25.9137 16.3777 24.6018 15.8426 23.2389 15.4743C21.8213 15.0864 20.4036 14.7539 18.972 14.463C17.8601 14.2552 16.7204 14.0612 15.5389 13.8534C14.3575 13.6456 13.2595 13.424 12.2449 13.1746C11.3867 12.9922 10.5647 12.6692 9.81259 12.2187C9.54428 12.0824 9.3176 11.8768 9.15623 11.6234C8.99487 11.3699 8.90474 11.0779 8.89526 10.7779C8.89572 10.4906 8.95656 10.2065 9.07386 9.94407C9.19116 9.6816 9.36232 9.44653 9.57631 9.25401C10.2051 8.70955 10.9678 8.34141 11.7862 8.18728C13.1185 7.8947 14.4807 7.75985 15.8447 7.78552C17.0527 7.78916 18.2562 7.93329 19.4306 8.21498C20.5911 8.48447 21.7294 8.84107 22.8359 9.28172C23.7764 9.65227 24.6793 10.1115 25.5323 10.6532C25.7812 10.8124 26.0628 10.9137 26.3564 10.9496C26.6499 10.9856 26.9477 10.9553 27.2279 10.861C27.8661 10.6088 28.3966 10.1436 28.729 9.54494C29.2867 8.87536 29.5915 8.03232 29.5908 7.1621C29.538 6.72878 29.3678 6.31797 29.0984 5.97381C28.8291 5.62965 28.4707 5.36515 28.0619 5.20873C27.3172 4.71298 26.5259 4.29076 25.6991 3.94805C24.7188 3.54075 23.7109 3.20281 22.683 2.93673C21.5895 2.64808 20.4804 2.42144 19.3611 2.25789C18.2524 2.09171 17.1327 2.00836 16.0115 2.00853C13.3715 1.93862 10.7377 2.29894 8.21421 3.07526C6.40014 3.60941 4.77882 4.6531 3.54418 6.08151C2.50344 7.39691 1.95761 9.034 2.0014 10.7086C1.95527 12.037 2.28263 13.3518 2.94653 14.5046C3.5891 15.5284 4.45938 16.3911 5.49003 17.0259C6.59688 17.6991 7.78255 18.2342 9.02035 18.6191C10.3209 19.0368 11.6432 19.3837 12.9815 19.6581C13.9684 19.8659 14.983 20.0599 16.0254 20.24C17.0678 20.4201 18.0685 20.614 19.0415 20.8218C19.9175 21.002 20.781 21.238 21.6267 21.5284C22.286 21.7393 22.8991 22.0731 23.4335 22.512C23.6469 22.687 23.8186 22.907 23.9364 23.1561C24.0542 23.4053 24.115 23.6774 24.1146 23.9528C24.1146 24.9364 23.4891 25.6983 22.2382 26.2525C20.2952 26.9141 18.2424 27.1963 16.1922 27.0837C15.2115 27.0797 14.2337 26.9776 13.2734 26.7789C12.2829 26.5793 11.3076 26.3108 10.3546 25.9754C9.40952 25.6429 8.54779 25.3104 7.75555 24.9641C6.96332 24.6178 6.29616 24.2991 5.75411 24.0082C5.18893 23.6074 4.53628 23.3462 3.84996 23.2462C3.55007 23.2256 3.25011 23.2854 2.98125 23.4194C2.71239 23.5534 2.48444 23.7567 2.32108 24.0082C1.89836 24.4601 1.55532 24.9801 1.30646 25.546C1.09493 26.0161 0.9905 26.527 1.00068 27.0422C1.02746 27.5267 1.21301 27.989 1.52884 28.3583C2.04963 29.0728 2.71785 29.668 3.48859 30.1038C4.51905 30.7111 5.60876 31.2124 6.74093 31.6C8.0875 32.0695 9.47371 32.4172 10.8828 32.639C12.4358 32.8903 14.0073 33.0108 15.5806 32.9992C20.612 32.9992 24.4482 32.1819 27.0611 30.5471C28.2735 29.8749 29.2799 28.8869 29.9727 27.6889C30.6655 26.4908 31.0187 25.1276 30.9945 23.745C31.0496 22.3154 30.6875 20.9006 29.9521 19.672C29.2482 18.5846 28.2832 17.6894 27.1445 17.0675Z" fill="#FDFEFF"/>
<path d="M68.0789 12.18C66.4503 11.2615 64.5969 10.8181 62.7289 10.9C61.4721 10.8802 60.22 11.0591 59.0189 11.43C58.0282 11.7501 57.1058 12.252 56.2989 12.91C55.5405 13.551 54.9037 14.3233 54.4189 15.19C53.9742 14.3105 53.3668 13.5233 52.6289 12.87C51.8615 12.2084 50.9663 11.7114 49.9989 11.41C48.7796 11.0462 47.5111 10.8741 46.2389 10.9C45.3381 10.8895 44.4401 11.0005 43.5689 11.23C42.8233 11.4286 42.1046 11.7174 41.4289 12.09C40.8495 12.4099 40.326 12.8219 39.8789 13.31C39.5068 13.7034 39.2087 14.1607 38.9989 14.66L39.2589 13.29C39.2848 12.972 39.2478 12.652 39.15 12.3483C39.0522 12.0446 38.8955 11.7631 38.6889 11.52C38.1553 11.0874 37.4726 10.8826 36.7889 10.95C36.1717 10.9038 35.5534 11.0247 34.9989 11.3C34.6518 11.5075 34.3976 11.8404 34.2889 12.23C34.1794 12.6475 34.1289 13.0784 34.1389 13.51V30.04C34.1371 30.4866 34.1807 30.9322 34.2689 31.37C34.308 31.5703 34.3887 31.7601 34.5058 31.9273C34.623 32.0944 34.7739 32.235 34.9489 32.34C35.5018 32.6199 36.1214 32.7411 36.7389 32.69C37.3603 32.7313 37.9822 32.6179 38.5489 32.36C38.7282 32.2614 38.8842 32.1256 39.0067 31.9618C39.1291 31.7979 39.2151 31.6098 39.2589 31.41C39.3521 30.9729 39.3958 30.5268 39.3889 30.08V21.42C39.3665 20.4364 39.5719 19.461 39.9889 18.57C40.391 17.7549 41.0426 17.0893 41.8489 16.67C42.9024 16.1677 44.0629 15.9308 45.2289 15.98C46.3089 15.9218 47.3851 16.1494 48.3489 16.64C49.0867 17.0702 49.6629 17.7306 49.9889 18.52C50.3476 19.4438 50.5209 20.4292 50.4989 21.42V30C50.4954 30.4358 50.5322 30.871 50.6089 31.3C50.6484 31.5003 50.727 31.6909 50.8403 31.8607C50.9536 32.0306 51.0992 32.1765 51.2689 32.29C51.7828 32.5903 52.375 32.7297 52.9689 32.69C53.5938 32.7557 54.225 32.6557 54.7989 32.4C54.986 32.3035 55.151 32.1692 55.2835 32.0057C55.4161 31.8422 55.5133 31.653 55.5689 31.45C55.6883 31.0031 55.7488 30.5425 55.7489 30.08V21.46C55.7215 20.447 55.9268 19.4412 56.3489 18.52C56.748 17.7009 57.4099 17.039 58.2289 16.64C59.281 16.1575 60.4325 15.9313 61.5889 15.98C62.6689 15.9218 63.7451 16.1494 64.7089 16.64C65.4467 17.0702 66.0229 17.7306 66.3489 18.52C66.7076 19.4438 66.8809 20.4292 66.8589 21.42V30C66.8526 30.4534 66.8962 30.9061 66.9889 31.35C67.0808 31.7494 67.3248 32.0974 67.6689 32.32C68.2192 32.6092 68.8387 32.7407 69.4589 32.7C70.0894 32.7511 70.7219 32.6301 71.2889 32.35C71.4624 32.2479 71.6125 32.1107 71.7296 31.947C71.8467 31.7834 71.9283 31.597 71.9689 31.4C72.0622 30.9562 72.1058 30.5034 72.0989 30.05V21.47C72.1482 19.5446 71.8186 17.6283 71.1289 15.83C70.5335 14.3157 69.4634 13.035 68.0789 12.18Z" fill="#FDFEFF"/>
<path d="M100.299 11.3202C99.7597 11.0208 99.1436 10.8885 98.529 10.9402C97.8164 10.8775 97.1063 11.0845 96.539 11.5202C96.3286 11.726 96.1646 11.9742 96.0577 12.2484C95.9508 12.5226 95.9035 12.8163 95.919 13.1102L96.229 14.3902C95.7502 13.711 95.1419 13.1333 94.439 12.6902C93.5384 12.123 92.5525 11.7044 91.519 11.4502C90.1682 11.1175 88.7798 10.9629 87.389 10.9902C85.7033 10.9662 84.0269 11.2439 82.439 11.8102C81.0304 12.3164 79.7331 13.0907 78.619 14.0902C77.5616 15.0358 76.7164 16.1945 76.139 17.4902C75.5557 18.8268 75.2626 20.2719 75.279 21.7302C75.2673 23.2171 75.56 24.6906 76.139 26.0602C76.7062 27.3801 77.5403 28.5683 78.589 29.5502C79.6879 30.5798 80.9887 31.3698 82.409 31.8702C84.0052 32.431 85.6872 32.7085 87.379 32.6902C88.8413 32.7176 90.2999 32.5324 91.709 32.1402C92.7539 31.8476 93.746 31.392 94.649 30.7902C95.3001 30.3691 95.85 29.809 96.259 29.1502L95.909 30.6502C95.914 30.9208 95.9732 31.1877 96.0832 31.435C96.1931 31.6823 96.3515 31.9051 96.549 32.0902C97.0982 32.5062 97.7828 32.7023 98.469 32.6402C99.0862 32.6864 99.7045 32.5655 100.259 32.2902C100.433 32.1829 100.584 32.0418 100.702 31.8752C100.821 31.7086 100.905 31.5198 100.949 31.3202C101.042 30.8696 101.086 30.4102 101.079 29.9502V13.7802C101.08 13.2972 101.037 12.8151 100.949 12.3402C100.916 12.1347 100.842 11.938 100.73 11.7625C100.618 11.587 100.472 11.4365 100.299 11.3202ZM94.619 24.8902C94.0091 25.8197 93.1398 26.5499 92.119 26.9902C90.8614 27.5226 89.5041 27.7783 88.139 27.7402C86.7448 27.7775 85.3583 27.522 84.069 26.9902C83.0302 26.5628 82.14 25.8395 81.509 24.9102C80.9172 24.0193 80.6103 22.9695 80.629 21.9002C80.5874 20.778 80.8911 19.67 81.4991 18.7258C82.1071 17.7816 82.9901 17.0467 84.029 16.6202C86.6104 15.5993 89.4825 15.5921 92.069 16.6002C93.0889 17.0411 93.9627 17.7624 94.589 18.6802C95.1625 19.6132 95.4687 20.6858 95.4739 21.781C95.4792 22.8762 95.1835 23.9517 94.619 24.8902Z" fill="#FDFEFF"/>
<path d="M122.599 11.7402C122.114 11.4944 121.604 11.3 121.079 11.1602C120.52 11.0091 119.952 10.8922 119.379 10.8102C118.847 10.7218 118.308 10.6784 117.769 10.6802C116.844 10.6708 115.922 10.7886 115.029 11.0302C114.271 11.2409 113.537 11.5291 112.839 11.8902C112.271 12.1791 111.749 12.5497 111.289 12.9902C110.944 13.3191 110.654 13.7005 110.429 14.1202L110.779 12.9302C110.779 12.6207 110.728 12.3134 110.629 12.0202C110.503 11.68 110.248 11.4033 109.919 11.2502C109.369 11.0083 108.769 10.902 108.169 10.9402C107.554 10.898 106.938 11.0115 106.379 11.2702C106.205 11.3703 106.052 11.5041 105.93 11.6637C105.808 11.8234 105.719 12.0058 105.669 12.2002C105.559 12.6551 105.509 13.1223 105.519 13.5902V30.0002C105.517 30.46 105.561 30.9189 105.649 31.3702C105.736 31.7797 105.98 32.1387 106.329 32.3702C106.879 32.6594 107.499 32.791 108.119 32.7502C108.749 32.8013 109.382 32.6804 109.949 32.4002C110.299 32.187 110.554 31.8466 110.659 31.4502C110.769 31.0089 110.819 30.5549 110.809 30.1002V19.3402C110.8 18.7747 110.979 18.2223 111.319 17.7702C111.679 17.2998 112.131 16.9084 112.649 16.6202C113.221 16.3011 113.838 16.0686 114.479 15.9302C115.162 15.7819 115.86 15.7081 116.559 15.7102C117.197 15.6897 117.836 15.7502 118.459 15.8902C118.861 15.9843 119.253 16.1183 119.629 16.2902C119.939 16.4402 120.249 16.5702 120.559 16.6902C120.921 16.8203 121.304 16.8813 121.689 16.8702C122.027 16.8596 122.358 16.7655 122.651 16.5963C122.944 16.427 123.191 16.1879 123.369 15.9002C123.854 15.1995 124.103 14.3622 124.079 13.5102C124.075 13.1475 123.932 12.8002 123.679 12.5402C123.371 12.2098 123.005 11.9387 122.599 11.7402Z" fill="#FDFEFF"/>
<path d="M144.119 11.4101C143.677 11.3015 143.224 11.2478 142.769 11.2501L136.319 11.3901V6.26009C136.319 5.82243 136.269 5.38622 136.169 4.96009C136.067 4.56191 135.812 4.22027 135.459 4.01009C134.906 3.73016 134.286 3.60901 133.669 3.66009C133.067 3.6189 132.464 3.73251 131.919 3.99009C131.746 4.08652 131.593 4.21676 131.471 4.37307C131.35 4.52939 131.26 4.7086 131.209 4.90009C131.099 5.34824 131.049 5.80883 131.059 6.27009V11.4201L127.699 11.4001C127.409 11.3755 127.117 11.4166 126.845 11.5205C126.573 11.6244 126.328 11.7883 126.129 12.0001C125.748 12.5498 125.568 13.2135 125.619 13.8801C125.561 14.5638 125.707 15.2494 126.039 15.8501C126.225 16.0676 126.459 16.2387 126.723 16.3498C126.987 16.4609 127.273 16.5089 127.559 16.4901L131.049 16.4701V25.0201C131.018 26.2059 131.301 27.3788 131.869 28.4201C132.421 29.4023 133.204 30.236 134.149 30.8501C135.194 31.529 136.352 32.0166 137.569 32.2901C138.97 32.6081 140.402 32.7625 141.839 32.7501C142.275 32.7519 142.711 32.7084 143.139 32.6201C143.338 32.5745 143.526 32.4901 143.693 32.3717C143.859 32.2533 144 32.1032 144.109 31.9301C144.398 31.3799 144.53 30.7604 144.489 30.1401C144.527 29.5695 144.42 28.9985 144.179 28.4801C144.081 28.3155 143.949 28.1734 143.792 28.0631C143.635 27.9528 143.457 27.8768 143.269 27.8401C142.795 27.7414 142.312 27.6978 141.829 27.7101C141.126 27.7119 140.423 27.6584 139.729 27.5501C139.124 27.4618 138.53 27.3075 137.959 27.0901C137.486 26.9111 137.066 26.6153 136.739 26.2301C136.437 25.8311 136.281 25.3402 136.299 24.8401V16.4601L142.799 16.5301C143.247 16.5401 143.694 16.4897 144.129 16.3801C144.324 16.3255 144.507 16.233 144.666 16.1077C144.826 15.9824 144.959 15.8269 145.059 15.6501C145.332 15.1163 145.457 14.5186 145.419 13.9201C145.465 13.3028 145.344 12.6845 145.069 12.1301C144.967 11.9526 144.83 11.7975 144.667 11.6738C144.504 11.5502 144.317 11.4605 144.119 11.4101Z" fill="#FDFEFF"/>
<path d="M153.47 11.34C152.923 11.0612 152.311 10.94 151.7 10.99C151.076 10.9497 150.453 11.0703 149.89 11.34C149.711 11.4398 149.556 11.5759 149.434 11.7396C149.311 11.9032 149.225 12.0907 149.18 12.29C149.086 12.7169 149.043 13.1531 149.05 13.59V30.04C149.048 30.4932 149.092 30.9454 149.18 31.39C149.271 31.7895 149.515 32.1374 149.86 32.36C150.41 32.6492 151.029 32.7808 151.65 32.74C152.267 32.7862 152.885 32.6653 153.44 32.39C153.79 32.1768 154.044 31.8364 154.15 31.44C154.26 30.9987 154.31 30.5447 154.3 30.09V13.69C154.3 13.2292 154.249 12.7698 154.15 12.32C154.062 11.9161 153.817 11.5636 153.47 11.34Z" fill="#FDFEFF"/>
</g>
<defs>
<radialGradient id="paint0_radial_154_7372" cx="0" cy="0" r="1" gradientUnits="userSpaceOnUse" gradientTransform="translate(150.87 1.73538) scale(5.571 5.00276)">
<stop stop-color="#C5FDDE"/>
<stop offset="1" stop-color="#00CBA9"/>
</radialGradient>
</defs>
</svg>
