<svg width="148" height="33" viewBox="0 0 148 33" fill="none" xmlns="http://www.w3.org/2000/svg">
<path d="M142.635 9C145.12 9 147.135 6.98528 147.135 4.5C147.135 2.01472 145.12 0 142.635 0C140.149 0 138.135 2.01472 138.135 4.5C138.135 6.98528 140.149 9 142.635 9Z" fill="url(#paint0_radial_18_2550)"/>
<mask id="mask0_18_2550" style="mask-type:luminance" maskUnits="userSpaceOnUse" x="0" y="1" width="146" height="32">
<path d="M145.489 1H0.189453V33H145.489V1Z" fill="white"/>
</mask>
<g mask="url(#mask0_18_2550)">
<path d="M18.9892 21.49C18.1036 20.9921 17.1598 20.6059 16.1792 20.34C15.1592 20.06 14.1392 19.82 13.1092 19.61C12.3092 19.46 11.4892 19.32 10.6392 19.17C9.7892 19.02 8.9992 18.86 8.2692 18.68C7.65172 18.5484 7.06036 18.3152 6.5192 17.99C6.32615 17.8917 6.16306 17.7433 6.04696 17.5603C5.93086 17.3774 5.86602 17.1666 5.8592 16.95C5.85953 16.7426 5.9033 16.5376 5.9877 16.3481C6.07209 16.1587 6.19523 15.989 6.3492 15.85C6.80162 15.457 7.35034 15.1913 7.9392 15.08C8.89773 14.8689 9.87785 14.7715 10.8592 14.79C11.7283 14.7927 12.5942 14.8967 13.4392 15.1C14.2741 15.2946 15.0931 15.552 15.8892 15.87C16.5659 16.1375 17.2155 16.469 17.8292 16.86C18.0083 16.9749 18.2109 17.048 18.4221 17.074C18.6333 17.1 18.8476 17.0781 19.0492 17.01C19.5083 16.828 19.89 16.4922 20.1292 16.06C20.5304 15.5767 20.7498 14.9682 20.7492 14.34C20.7113 14.0273 20.5888 13.7307 20.395 13.4823C20.2012 13.2339 19.9434 13.043 19.6492 12.93C19.1134 12.5722 18.5441 12.2674 17.9492 12.02C17.2439 11.7261 16.5188 11.4821 15.7792 11.29C14.9924 11.0817 14.1945 10.9181 13.3892 10.8C12.5915 10.6801 11.7859 10.6199 10.9792 10.62C9.07975 10.5696 7.18481 10.8297 5.3692 11.39C4.064 11.7756 2.8975 12.529 2.0092 13.56C1.26041 14.5095 0.867694 15.6912 0.8992 16.9C0.866007 17.8589 1.10154 18.808 1.5792 19.64C2.04152 20.3791 2.66767 21.0018 3.4092 21.46C4.20556 21.946 5.05862 22.3322 5.9492 22.61C6.88489 22.9116 7.8363 23.1619 8.7992 23.36C9.5092 23.51 10.2392 23.65 10.9892 23.78C11.7392 23.91 12.4592 24.05 13.1592 24.2C13.7895 24.3301 14.4107 24.5005 15.0192 24.71C15.4936 24.8623 15.9347 25.1032 16.3192 25.42C16.4727 25.5464 16.5963 25.7052 16.681 25.885C16.7657 26.0649 16.8095 26.2612 16.8092 26.46C16.8092 27.17 16.3592 27.72 15.4592 28.12C14.0612 28.5976 12.5843 28.8013 11.1092 28.72C10.4036 28.7172 9.70007 28.6435 9.0092 28.5C8.29652 28.356 7.5948 28.1622 6.9092 27.92C6.2292 27.68 5.6092 27.44 5.0392 27.19C4.4692 26.94 3.9892 26.71 3.5992 26.5C3.19256 26.2107 2.72299 26.0222 2.2292 25.95C2.01344 25.9351 1.79762 25.9783 1.60418 26.075C1.41074 26.1717 1.24673 26.3185 1.1292 26.5C0.825064 26.8263 0.578256 27.2016 0.3992 27.61C0.24701 27.9494 0.171876 28.3182 0.179199 28.69C0.19847 29.0398 0.331966 29.3735 0.5592 29.64C0.9339 30.1559 1.41467 30.5855 1.9692 30.9C2.7106 31.3384 3.49463 31.7002 4.3092 31.98C5.27803 32.3189 6.27538 32.5699 7.2892 32.73C8.40658 32.9114 9.53723 32.9984 10.6692 32.99C14.2892 32.99 17.0492 32.4 18.9292 31.22C19.8015 30.7348 20.5255 30.0217 21.024 29.1569C21.5224 28.2921 21.7766 27.3081 21.7592 26.31C21.7988 25.2781 21.5383 24.2569 21.0092 23.37C20.5027 22.5851 19.8084 21.9389 18.9892 21.49Z" fill="#FDFEFF"/>
<path d="M59.0789 12.18C57.4503 11.2616 55.5969 10.8182 53.7289 10.9C52.4721 10.8803 51.22 11.0592 50.0189 11.43C49.0282 11.7501 48.1058 12.252 47.2989 12.91C46.5405 13.5511 45.9037 14.3234 45.4189 15.19C44.9742 14.3106 44.3668 13.5233 43.6289 12.87C42.8615 12.2084 41.9663 11.7115 40.9989 11.41C39.7796 11.0463 38.5111 10.8742 37.2389 10.9C36.3381 10.8895 35.4401 11.0005 34.5689 11.23C33.8233 11.4286 33.1046 11.7174 32.4289 12.09C31.8495 12.4099 31.326 12.822 30.8789 13.31C30.5068 13.7034 30.2087 14.1608 29.9989 14.66L30.2589 13.29C30.2848 12.972 30.2478 12.652 30.15 12.3483C30.0522 12.0446 29.8955 11.7632 29.6889 11.52C29.1553 11.0875 28.4726 10.8827 27.7889 10.95C27.1717 10.9039 26.5534 11.0248 25.9989 11.3C25.6518 11.5075 25.3976 11.8405 25.2889 12.23C25.1794 12.6476 25.1289 13.0785 25.1389 13.51V30.04C25.1371 30.4866 25.1807 30.9323 25.2689 31.37C25.308 31.5703 25.3887 31.7602 25.5058 31.9273C25.623 32.0944 25.7739 32.235 25.9489 32.34C26.5018 32.62 27.1214 32.7411 27.7389 32.69C28.3603 32.7313 28.9822 32.6179 29.5489 32.36C29.7282 32.2614 29.8842 32.1257 30.0067 31.9618C30.1291 31.798 30.2151 31.6098 30.2589 31.41C30.3521 30.973 30.3958 30.5268 30.3889 30.08V21.42C30.3665 20.4365 30.5719 19.4611 30.9889 18.57C31.391 17.7549 32.0426 17.0893 32.8489 16.67C33.9024 16.1677 35.0629 15.9308 36.2289 15.98C37.3089 15.9218 38.3851 16.1495 39.3489 16.64C40.0867 17.0702 40.6629 17.7307 40.9889 18.52C41.3476 19.4439 41.5209 20.4293 41.4989 21.42V30C41.4954 30.4358 41.5322 30.871 41.6089 31.3C41.6484 31.5004 41.727 31.6909 41.8403 31.8608C41.9536 32.0307 42.0992 32.1765 42.2689 32.29C42.7828 32.5904 43.375 32.7297 43.9689 32.69C44.5938 32.7558 45.225 32.6558 45.7989 32.4C45.986 32.3035 46.151 32.1693 46.2835 32.0058C46.4161 31.8423 46.5133 31.653 46.5689 31.45C46.6883 31.0032 46.7488 30.5426 46.7489 30.08V21.46C46.7215 20.447 46.9268 19.4413 47.3489 18.52C47.748 17.7009 48.4099 17.0391 49.2289 16.64C50.281 16.1576 51.4325 15.9314 52.5889 15.98C53.6689 15.9218 54.7451 16.1495 55.7089 16.64C56.4467 17.0702 57.0229 17.7307 57.3489 18.52C57.7076 19.4439 57.8809 20.4293 57.8589 21.42V30C57.8526 30.4534 57.8962 30.9062 57.9889 31.35C58.0808 31.7495 58.3248 32.0974 58.6689 32.32C59.2192 32.6093 59.8387 32.7408 60.4589 32.7C61.0894 32.7512 61.7219 32.6302 62.2889 32.35C62.4624 32.248 62.6125 32.1107 62.7296 31.9471C62.8467 31.7835 62.9283 31.5971 62.9689 31.4C63.0622 30.9562 63.1058 30.5035 63.0989 30.05V21.47C63.1482 19.5446 62.8186 17.6283 62.1289 15.83C61.5335 14.3157 60.4634 13.0351 59.0789 12.18Z" fill="#FDFEFF"/>
<path d="M91.299 11.32C90.7597 11.0206 90.1436 10.8884 89.529 10.94C88.8164 10.8773 88.1063 11.0843 87.539 11.52C87.3286 11.7258 87.1646 11.9741 87.0577 12.2482C86.9508 12.5224 86.9035 12.8162 86.919 13.11L87.229 14.39C86.7503 13.7108 86.1419 13.1331 85.439 12.69C84.5384 12.1229 83.5525 11.7042 82.519 11.45C81.1682 11.1173 79.7798 10.9627 78.389 10.99C76.7033 10.966 75.0269 11.2437 73.439 11.81C72.0304 12.3162 70.7331 13.0905 69.619 14.09C68.5616 15.0356 67.7164 16.1943 67.139 17.49C66.5557 18.8266 66.2626 20.2718 66.279 21.73C66.2673 23.2169 66.56 24.6904 67.139 26.06C67.7062 27.3799 68.5403 28.5681 69.589 29.55C70.6879 30.5796 71.9887 31.3696 73.409 31.87C75.0052 32.4308 76.6872 32.7083 78.379 32.69C79.8413 32.7174 81.2999 32.5322 82.709 32.14C83.7539 31.8474 84.746 31.3918 85.649 30.79C86.3001 30.3689 86.85 29.8089 87.259 29.15L86.909 30.65C86.914 30.9206 86.9732 31.1875 87.0832 31.4348C87.1931 31.6822 87.3515 31.9049 87.549 32.09C88.0982 32.506 88.7828 32.7021 89.469 32.64C90.0862 32.6862 90.7046 32.5653 91.259 32.29C91.4331 32.1828 91.5839 32.0416 91.7024 31.875C91.8209 31.7084 91.9048 31.5197 91.949 31.32C92.0422 30.8695 92.0858 30.4101 92.079 29.95V13.78C92.0804 13.297 92.0368 12.8149 91.949 12.34C91.9165 12.1345 91.842 11.9378 91.7302 11.7623C91.6183 11.5868 91.4716 11.4363 91.299 11.32ZM85.619 24.89C85.0091 25.8196 84.1398 26.5497 83.119 26.99C81.8614 27.5224 80.5041 27.7782 79.139 27.74C77.7448 27.7773 76.3583 27.5218 75.069 26.99C74.0302 26.5626 73.14 25.8393 72.509 24.91C71.9172 24.0191 71.6103 22.9694 71.629 21.9C71.5874 20.7778 71.8911 19.6698 72.4991 18.7256C73.1071 17.7814 73.9901 17.0465 75.029 16.62C77.6104 15.5991 80.4825 15.5919 83.069 16.6C84.0889 17.0409 84.9627 17.7622 85.589 18.68C86.1625 19.613 86.4687 20.6856 86.4739 21.7808C86.4792 22.876 86.1835 23.9515 85.619 24.89Z" fill="#FDFEFF"/>
<path d="M113.599 11.74C113.114 11.4942 112.604 11.2998 112.079 11.16C111.52 11.0089 110.952 10.892 110.379 10.81C109.847 10.7217 109.308 10.6782 108.769 10.68C107.844 10.6707 106.922 10.7884 106.029 11.03C105.271 11.2407 104.537 11.5289 103.839 11.89C103.271 12.1789 102.749 12.5495 102.289 12.99C101.944 13.3189 101.654 13.7003 101.429 14.12L101.779 12.93C101.779 12.6206 101.728 12.3132 101.629 12.02C101.503 11.6799 101.248 11.4031 100.919 11.25C100.369 11.0081 99.7686 10.9018 99.1688 10.94C98.5539 10.8978 97.9383 11.0113 97.3788 11.27C97.2046 11.3701 97.0521 11.5039 96.9302 11.6636C96.8083 11.8232 96.7195 12.0056 96.6688 12.2C96.5592 12.655 96.5088 13.1222 96.5188 13.59V30C96.517 30.4599 96.5605 30.9187 96.6488 31.37C96.7359 31.7795 96.9801 32.1385 97.3288 32.37C97.8791 32.6593 98.4985 32.7908 99.1188 32.75C99.7493 32.8011 100.382 32.6802 100.949 32.4C101.299 32.1868 101.554 31.8464 101.659 31.45C101.769 31.0088 101.819 30.5547 101.809 30.1V19.34C101.8 18.7746 101.979 18.2222 102.319 17.77C102.679 17.2996 103.131 16.9082 103.649 16.62C104.221 16.3009 104.838 16.0684 105.479 15.93C106.162 15.7817 106.86 15.7079 107.559 15.71C108.197 15.6896 108.836 15.75 109.459 15.89C109.861 15.9842 110.253 16.1181 110.629 16.29C110.939 16.44 111.249 16.57 111.559 16.69C111.921 16.8201 112.304 16.8812 112.689 16.87C113.027 16.8594 113.358 16.7653 113.651 16.5961C113.944 16.4268 114.191 16.1877 114.369 15.9C114.854 15.1993 115.103 14.362 115.079 13.51C115.075 13.1473 114.932 12.8 114.679 12.54C114.371 12.2097 114.005 11.9385 113.599 11.74Z" fill="#FDFEFF"/>
<path d="M135.119 11.41C134.677 11.3015 134.224 11.2477 133.769 11.25L127.319 11.39V6.26003C127.319 5.82237 127.269 5.38616 127.169 4.96003C127.067 4.56185 126.812 4.22021 126.459 4.01003C125.906 3.7301 125.286 3.60895 124.669 3.66003C124.067 3.61884 123.464 3.73244 122.919 3.99003C122.746 4.08646 122.593 4.2167 122.471 4.37301C122.35 4.52933 122.26 4.70854 122.209 4.90003C122.099 5.34818 122.049 5.80877 122.059 6.27003V11.42L118.699 11.4C118.409 11.3754 118.117 11.4166 117.845 11.5205C117.573 11.6243 117.328 11.7883 117.129 12C116.748 12.5497 116.568 13.2134 116.619 13.88C116.561 14.5638 116.707 15.2493 117.039 15.85C117.225 16.0675 117.459 16.2387 117.723 16.3498C117.987 16.4609 118.273 16.5089 118.559 16.49L122.049 16.47V25.02C122.018 26.2058 122.301 27.3787 122.869 28.42C123.421 29.4022 124.204 30.236 125.149 30.85C126.194 31.529 127.352 32.0166 128.569 32.29C129.97 32.6081 131.402 32.7625 132.839 32.75C133.275 32.7519 133.711 32.7083 134.139 32.62C134.338 32.5745 134.526 32.4901 134.693 32.3717C134.859 32.2533 135 32.1032 135.109 31.93C135.398 31.3798 135.53 30.7603 135.489 30.14C135.527 29.5694 135.42 28.9985 135.179 28.48C135.081 28.3154 134.949 28.1733 134.792 28.063C134.635 27.9528 134.457 27.8768 134.269 27.84C133.795 27.7414 133.312 27.6978 132.829 27.71C132.126 27.7118 131.423 27.6583 130.729 27.55C130.124 27.4617 129.53 27.3074 128.959 27.09C128.486 26.9111 128.066 26.6152 127.739 26.23C127.437 25.8311 127.281 25.3402 127.299 24.84V16.46L133.799 16.53C134.247 16.5401 134.694 16.4896 135.129 16.38C135.324 16.3255 135.507 16.2329 135.666 16.1076C135.826 15.9824 135.959 15.8269 136.059 15.65C136.332 15.1162 136.457 14.5186 136.419 13.92C136.465 13.3028 136.344 12.6844 136.069 12.13C135.967 11.9526 135.83 11.7974 135.667 11.6738C135.504 11.5501 135.317 11.4604 135.119 11.41Z" fill="#FDFEFF"/>
<path d="M144.47 11.34C143.923 11.0612 143.311 10.94 142.7 10.99C142.076 10.9497 141.453 11.0703 140.89 11.34C140.711 11.4398 140.556 11.5759 140.434 11.7396C140.311 11.9032 140.225 12.0907 140.18 12.29C140.086 12.7169 140.043 13.1531 140.05 13.59V30.04C140.048 30.4932 140.092 30.9454 140.18 31.39C140.271 31.7895 140.515 32.1374 140.86 32.36C141.41 32.6492 142.029 32.7808 142.65 32.74C143.267 32.7862 143.885 32.6653 144.44 32.39C144.79 32.1768 145.044 31.8364 145.15 31.44C145.26 30.9987 145.31 30.5447 145.3 30.09V13.69C145.3 13.2292 145.249 12.7698 145.15 12.32C145.062 11.9161 144.817 11.5636 144.47 11.34Z" fill="#FDFEFF"/>
</g>
<defs>
<radialGradient id="paint0_radial_18_2550" cx="0" cy="0" r="1" gradientUnits="userSpaceOnUse" gradientTransform="translate(141.87 1.73538) scale(5.571 5.00276)">
<stop stop-color="#C5FDDE"/>
<stop offset="1" stop-color="#00CBA9"/>
</radialGradient>
</defs>
</svg>
