<svg width="64" height="64" viewBox="0 0 64 64" fill="none" xmlns="http://www.w3.org/2000/svg">
<rect width="64" height="64" rx="8" fill="#C7FFF4"/>
<g clip-path="url(#clip0_971_3708)">
<path d="M56.0001 20.0379C55.9962 16.7257 53.312 14.0416 49.9999 14.0376H13.9999C10.6877 14.0416 8.00396 16.7257 8 20.0379V44.0377C8.00396 47.3499 10.6877 50.0336 13.9999 50.0376H49.9999C53.312 50.0336 55.9962 47.3499 56.0001 44.0377V20.0379ZM13.9999 16.4379H49.9999C51.9875 16.4401 53.5977 18.0502 53.5999 20.0379V23.804L31.9999 32.8989L10.3999 23.804V20.0379C10.4021 18.0502 12.0126 16.4401 13.9999 16.4379ZM49.9999 47.6377H13.9999C12.0126 47.6355 10.4021 46.025 10.3999 44.0377V26.6451L31.5349 35.544C31.8324 35.6688 32.1677 35.6688 32.4652 35.544L53.5999 26.6451V44.0377C53.5977 46.025 51.9875 47.6355 49.9999 47.6377Z" fill="black"/>
</g>
<defs>
<clipPath id="clip0_971_3708">
<rect width="48" height="48" fill="white" transform="translate(8 8)"/>
</clipPath>
</defs>
</svg>
