<svg width="91" height="83" viewBox="0 0 91 83" fill="none" xmlns="http://www.w3.org/2000/svg">
<path fill-rule="evenodd" clip-rule="evenodd" d="M50.5798 66.071C54.8413 63.2013 62.7295 62.7014 61.2825 56.4394C59.8688 50.1084 54.5546 49.8763 44.7476 44.1613C35.2132 37.8811 37.6182 33.4941 23.5519 32.9041C10.1346 32.9097 14.219 52.243 4.33403 49.2575C-5.55091 46.2721 5.56487 70.9646 7.323 72.7923C10.4152 76.0069 18.5582 79.8424 22.53 79.2988C25.5463 78.8965 35.2503 76.6636 40.0014 74.3462C44.6424 72.1833 45.144 69.9231 50.5798 66.071Z" fill="#EFFEFB"/>
<path d="M88.5387 3.89062L88.5669 3.89138C88.8037 3.9054 88.9843 4.1087 88.9702 4.34548L88.923 5.16467L88.8928 5.71274C88.5783 11.5315 87.8316 16.4775 88.0069 20.5492L88.034 21.1387C88.2446 25.5264 89.3637 31.7293 90.4954 41.1022C90.5947 41.1719 90.664 41.2827 90.6766 41.4128C90.6995 41.6488 90.5267 41.8588 90.2906 41.8817C84.7587 42.4177 79.6115 42.7745 74.8489 42.9521L74.1982 42.9753L73.4543 42.9995C68.6396 43.1489 61.8617 43.2214 53.1192 43.2171C52.882 43.217 52.69 43.0246 52.69 42.7875C52.69 42.6742 49.6362 5.12671 49.6362 5.12671C49.6362 5.12671 88.4213 3.89129 88.5387 3.89062Z" fill="white"/>
<path d="M81.0531 74.6393L81.323 74.667C85.1614 75.0685 87.6814 75.6479 88.8437 76.3762L88.9162 76.423C89.8088 77.0164 89.6961 77.6341 88.4132 78.6202C87.0104 79.6983 83.5625 80.7143 78.4038 81.3343C71.9454 82.1106 63.2625 82.2359 52.3582 81.5607L51.215 81.4898C44.9197 81.1079 40.0898 81.0048 31.1506 80.9564L28.683 80.9422C23.361 80.9051 21.099 80.8316 18.9153 80.5975L18.7077 80.5745C15.9701 80.2614 14.4571 79.6894 13.9502 78.7926L13.9317 78.7589C13.9221 78.7407 13.922 78.741 13.9956 78.6665C14.1428 78.5173 14.4448 78.3434 14.894 78.1624L15.0104 78.1165C15.984 77.742 17.523 77.358 19.6179 76.9699L20.0147 76.8975C24.197 76.1464 30.434 75.3827 38.7216 74.6076L40.0545 74.4843L41.1924 74.4429C59.8412 73.7746 73.1317 73.8406 81.0531 74.6393Z" fill="white"/>
<path fill-rule="evenodd" clip-rule="evenodd" d="M72.4076 3.98005C72.5682 3.80547 72.8398 3.79411 73.0144 3.95468C73.189 4.11525 73.2004 4.38694 73.0398 4.56151C73.0398 4.56151 53.5038 26.7692 53.3261 26.1511C53.2283 25.8111 61.444 15.9401 62.7363 14.6095L63.0947 14.2471C63.701 13.6179 66.7014 10.1841 72.4076 3.98005Z" fill="#E7EAEE"/>
<path fill-rule="evenodd" clip-rule="evenodd" d="M62.5763 8.85203C62.7708 8.71625 63.0385 8.76383 63.1743 8.95832C63.3101 9.1528 63.2625 9.42052 63.068 9.5563C62.4202 10.0086 52.3168 20.2007 52.1023 20.1196C51.8877 20.0384 52.9232 18.8274 52.9232 18.8274C53.5851 18.1349 59.4985 11.8506 59.4985 11.8506C59.9953 11.3204 60.4543 10.8425 60.8935 10.3998C61.3283 9.96166 61.889 9.33184 62.5763 8.85203Z" fill="#E7EAEE"/>
<path fill-rule="evenodd" clip-rule="evenodd" d="M72.4637 74.6393L72.7337 74.667C76.5721 75.0685 79.092 75.6479 80.2543 76.3762L80.3269 76.423C81.2194 77.0164 81.1068 77.6341 79.8238 78.6202C78.4211 79.6983 63.2625 80.6898 52.3582 80.0147L51.215 79.9437C44.9197 79.5618 40.0898 78.428 31.1506 78.3796L28.683 78.3654C23.361 78.3282 21.099 80.8316 18.9153 80.5975L18.7077 80.5745C15.9701 80.2615 14.4571 79.6894 13.9502 78.7926L13.9317 78.7589C13.9221 78.7408 13.922 78.741 13.9956 78.6665C14.1428 78.5173 14.4448 78.3434 14.894 78.1624L15.0104 78.1165C15.984 77.742 17.523 77.358 19.6179 76.9699L20.0147 76.8975C24.197 76.1464 30.434 75.3827 38.7216 74.6076L40.0545 74.4843L41.1924 74.4429C59.8412 73.7746 64.5423 73.8406 72.4637 74.6393Z" fill="#E7EAEE"/>
<path d="M21.5766 42.5297C21.7104 42.8802 26.2738 43.43 28.7749 44.9083C29.734 45.4753 30.4601 47.9286 30.413 47.975C29.2792 49.0934 28.663 49.6632 28.0527 50.0067C25.9071 51.214 24.2534 50.9002 22.6523 50.6476C20.7277 50.344 19.5842 48.2311 20.3345 46.4768C20.4521 46.2019 20.7484 45.8003 21.2389 45.2354L21.3041 45.161C21.3021 45.1409 21.3024 45.1202 21.3049 45.0993C21.3273 44.9099 21.3301 44.7157 21.3131 44.5164L21.2752 44.159C21.2304 43.7596 21.1437 43.0818 21.0149 42.7441C20.9557 42.5889 21.0335 42.4152 21.1886 42.356C21.3437 42.2968 21.5174 42.3746 21.5766 42.5297Z" fill="white"/>
<path d="M32.1141 47.0068C32.1137 46.9346 32.1319 46.8613 32.1702 46.794C32.2369 46.677 32.3502 46.6032 32.4735 46.5828C32.5023 46.5568 32.5219 46.5477 32.533 46.5583L32.5516 46.5771C32.6211 46.5784 32.6913 46.5966 32.7559 46.6334L34.0192 47.3508C36.6377 48.8479 39.4523 51.0743 39.7239 52.7649C40.0316 54.6807 38.0258 64.6495 37.794 64.5992C37.5622 64.549 33.2173 74.4227 33.2147 74.4494C33.2062 74.5394 29.3436 74.6826 25.2802 75.1175C23.8602 75.2695 27.5481 70.315 28.9356 66.8125C31.315 60.8057 32.1141 47.0068 32.1141 47.0068Z" fill="white"/>
<path d="M63.2718 51.9056C61.7386 51.5713 59.9576 51.7391 57.9222 52.4181C56.2565 52.9737 55.3443 53.7515 55.1168 54.7457L55.104 54.805L55.1694 54.8318C56.5295 55.3804 57.7988 55.5194 58.9863 55.2563L59.0731 55.2363C59.8954 55.04 60.5635 54.579 61.3565 53.7595L61.4659 53.6448C61.6527 53.4459 62.0927 52.9637 62.1468 52.9058C62.4286 52.604 62.644 52.3959 62.8617 52.2259L62.9089 52.1897C63.0192 52.1068 63.1533 52.0265 63.3116 51.9483L63.3591 51.9252L63.2718 51.9056Z" fill="white"/>
<path d="M48.1819 49.5439C47.0911 49.2052 45.797 49.1658 44.2979 49.432L44.2275 49.4447L44.2429 49.4756C44.9062 50.806 45.5076 51.6248 46.0101 51.9217L46.0413 51.9396C46.5466 52.2187 47.7503 52.2386 49.5963 51.9632L49.8696 51.921L49.8628 51.898C49.8558 51.8717 49.8513 51.8445 49.8495 51.8165L49.8486 51.7882C49.8486 50.6149 49.3153 49.8959 48.1819 49.5439Z" fill="white"/>
<path d="M35.7333 43.3196C35.7027 43.564 35.8061 44.4622 35.4608 44.877C35.3239 45.0413 34.9968 45.159 34.7834 45.0554C34.6891 45.0096 34.9832 44.5998 35.1619 44.1365C35.2309 43.9575 35.1096 43.7412 35.1619 43.5702C35.2076 43.4206 35.4288 43.3129 35.4608 43.2004C35.5116 43.0216 35.7535 43.1582 35.7333 43.3196Z" fill="white"/>
<path d="M36.3306 42.2705C36.3 42.5149 37.0254 43.6532 36.6632 44.0181C36.0475 44.6383 35.4555 43.5507 35.6342 43.0874C35.7032 42.9084 35.707 42.6921 35.7592 42.5211C35.8049 42.3715 36.3508 42.1091 36.3306 42.2705Z" fill="white"/>
<path d="M43.0243 60.2463C42.8906 60.7478 42.7772 63.6914 43.416 65.3533C43.6497 65.9614 43.9929 66.4071 44.4572 66.5801C44.8475 66.7193 45.2532 66.8059 45.6676 66.8633C46.5607 66.9863 53.385 67.5669 56.4487 67.1665C59.5123 66.7661 59.3389 66.7288 60.7392 66.4807C61.4168 66.3604 62.1915 66.2327 62.8842 65.9609C63.3944 65.7615 63.8601 65.4844 64.2249 65.0903C64.5515 64.7381 64.7533 64.1393 64.8135 63.4694C64.89 62.6184 64.7596 61.4928 64.6317 60.9264C64.6317 60.8947 64.6249 60.8828 64.6317 60.8728C64.6635 60.8265 64.2509 60.5965 62.8842 60.5401C60.5412 60.4435 56.8872 60.6266 53.3471 60.5898C48.5164 60.5397 43.8993 60.0972 43.1339 60.1777C43.0637 60.1851 43.0269 60.2365 43.0243 60.2463Z" fill="white"/>
<path d="M21.0806 44.5337C21.3178 44.5322 21.5114 44.7231 21.5133 44.9603C21.5134 44.9851 21.5115 45.0095 21.5076 45.0332L21.5444 45.0094C21.7505 44.8821 22.0056 44.8176 21.9511 45.1293C21.8751 45.564 20.7869 46.0694 20.7869 46.9057C20.7869 48.1472 21.2656 49.3354 22.9876 49.8321C27.8102 51.2231 30.1921 48.7575 31.0836 47.694C31.0832 47.6218 31.1014 47.5485 31.1397 47.4812C31.2064 47.3642 31.3197 47.2904 31.443 47.27C31.4718 47.244 31.4913 47.2349 31.5025 47.2455L31.5211 47.2643C31.5906 47.2656 31.6608 47.2838 31.7254 47.3206L32.9887 48.038C35.6072 49.5351 38.4218 51.7615 38.6934 53.4521C39.0011 55.3679 36.9953 65.3367 36.7635 65.2864C36.5317 65.2362 32.1868 75.1099 32.1842 75.1366C32.1727 75.258 25.1426 75.4764 20.0719 76.3777C16.7467 76.9687 14.5828 78.077 14.5128 78.1397C14.3361 78.2979 14.1308 78.5719 13.9726 78.3951C12.9105 77.2087 12.6273 73.8745 13.0376 68.9672L12.8227 68.9453C8.42781 68.5013 6.25988 67.2653 6.40745 64.482C6.76946 57.6539 8.69172 52.3032 10.9279 48.99C12.9134 46.0482 16.085 44.5695 21.0806 44.5337Z" fill="white"/>
<path fill-rule="evenodd" clip-rule="evenodd" d="M31.0834 47.694C31.083 47.6219 31.1011 47.5486 31.1395 47.4813C31.2061 47.3643 31.3195 47.2905 31.4427 47.2701C31.4715 47.2441 31.4911 47.2349 31.5022 47.2456L31.5209 47.2643C31.5904 47.2656 31.6605 47.2838 31.7252 47.3206L32.9884 48.0381C35.6069 49.5351 38.4216 51.7616 38.6931 53.4522C39.0009 55.3679 36.9951 65.3367 36.7633 65.2865C36.5315 65.2363 32.1865 75.11 32.184 75.1367C32.1754 75.2266 28.3128 75.3699 24.2495 75.8047C22.8294 75.9567 26.5174 71.0023 27.9048 67.4997C30.2842 61.493 31.0834 47.694 31.0834 47.694Z" fill="#E7EAEE"/>
<path d="M31.3089 47.554C31.3172 47.791 31.1165 47.9895 30.8794 47.9835C29.6945 47.9534 29.5062 45.916 29.6198 45.9078C29.7771 45.8964 30.0459 46.8642 30.5749 47.2167C30.9783 47.4855 31.2858 46.9008 31.3089 47.554Z" fill="white"/>
<path d="M20.5706 42.1115C20.7345 41.9152 21.0406 42.0892 21.1477 42.3008C21.2547 42.5125 21.17 42.7708 20.9583 42.8779C19.8783 43.4243 18.4402 43.2215 17.5542 42.4632C16.0152 41.1459 15.9521 37.727 15.9521 36.7067C15.9521 36.5705 17.7083 36.7312 18.4367 37.6841C19.7285 39.3741 20.3594 42.3644 20.5706 42.1115Z" fill="white"/>
<path d="M20.4554 32.8267L20.4718 32.7362C20.4856 32.6559 20.4854 32.5688 20.4442 32.1374L20.3069 30.7874C20.2809 30.5299 20.2601 30.3078 20.2421 30.0914L20.2279 29.9152C20.1041 28.3251 20.1637 27.4214 20.5931 27.0012C21.8051 25.8153 22.4747 25.8409 23.737 26.25L24.0016 26.3361C24.5626 26.5136 24.8436 26.3763 25.2272 26.2862L25.3382 26.261C26.2276 26.0662 27.1546 26.0301 28.2204 26.1228C28.8437 26.177 29.2294 26.2282 30.2188 26.3982L31.3869 26.6028C32.1179 26.7315 32.6106 26.8116 33.1318 26.8827L33.2468 26.8975C34.0824 26.9986 34.7623 26.938 35.5832 26.7528C35.6001 26.749 36.0419 26.6448 36.2153 26.6075L36.3199 26.5867C36.4824 26.5564 36.62 26.5405 36.7482 26.5405L36.7684 26.5292C38.021 25.8793 39.213 23.8492 39.1148 22.2211C38.9928 20.2008 37.0737 18.9186 32.9526 18.8931L32.7521 18.8924C32.0715 18.885 31.5741 18.7724 30.1454 18.3345L29.4403 18.1167C28.2165 17.7419 27.4791 17.5714 26.6894 17.5184C26.5535 17.5093 26.4202 17.5046 26.2893 17.5046C20.8147 17.5046 15.4216 22.1694 14.6794 26.5292C14.5446 27.3208 15.1551 30.8131 15.3758 32.5492C15.3758 32.5492 17.5026 32.5726 18.5379 32.722C18.6367 32.7362 19.476 34.5658 19.9847 34.5658C20.4442 34.5658 20.4554 32.8267 20.4554 32.8267Z" fill="white"/>
<path d="M23.6038 26.9385C24.3669 27.1894 24.786 27.2607 25.3632 27.1361L25.575 27.0881C26.9434 26.7891 27.9911 26.8793 30.9186 27.3926L31.6207 27.5155C32.163 27.6087 32.5785 27.6742 33.0158 27.7338C33.9792 27.8652 34.7573 27.8101 35.6588 27.6158L36.5788 27.4099C36.7374 27.377 36.7179 27.3894 36.7751 27.3985L36.8016 27.4018C36.9222 27.413 37.3309 27.4745 37.427 27.752C38.0185 29.461 38.1902 33.5399 37.5621 36.8979C36.7093 41.4573 34.2621 44.5827 30.7647 45.5321C25.4352 46.9788 21.4285 44.23 18.6547 37.1306L18.5694 36.9121L18.3395 36.8658L18.1755 36.8318C15.5353 36.2661 14.6436 35.2514 15.5361 33.5995C15.9831 32.7721 16.5954 32.5159 17.1058 32.6889C17.7267 32.8995 18.509 33.7113 19.403 35.1289L19.413 35.144C19.805 35.7112 20.3492 35.4939 20.6256 34.8917C20.7981 34.5159 20.962 33.8875 21.1272 32.9885L21.1604 32.8049C21.1884 32.6328 21.1753 32.4953 21.0314 31.1063L20.9804 30.6087C20.9622 30.4251 20.9467 30.2595 20.933 30.0996L20.9262 30.0201C20.8698 29.3434 20.849 28.8043 20.8703 28.3806C20.8918 27.95 20.961 27.6749 21.022 27.6152L21.124 27.517C22.0106 26.6776 22.5133 26.5936 23.4204 26.8788L23.6038 26.9385Z" fill="white"/>
<path fill-rule="evenodd" clip-rule="evenodd" d="M37.5621 36.8978C36.7093 41.4573 34.2621 44.5827 30.7647 45.5321C29.7469 45.8083 32.6947 44.7159 34.2475 42.752C36.3767 40.059 37.5745 36.0709 37.7719 34.8631C38.3688 31.2094 38.1902 33.5399 37.5621 36.8978Z" fill="#E7EAEE"/>
<path fill-rule="evenodd" clip-rule="evenodd" d="M20.626 34.8917C20.7985 34.5159 20.9623 33.8875 21.1276 32.9885L21.1607 32.8049C21.1888 32.6328 21.1756 32.4954 21.0317 31.1063L20.9808 30.6087C20.9626 30.4251 20.9471 30.2595 20.9333 30.0996L20.9266 30.0201C20.8701 29.3434 20.8494 28.8043 20.8706 28.3806C20.8922 27.95 20.9613 27.6749 21.0223 27.6152L21.1244 27.517C22.011 26.6776 22.5137 26.5936 23.4207 26.8788L23.6042 26.9385C24.3673 27.1894 24.7864 27.2607 25.3635 27.1361L25.5754 27.0881C26.9438 26.7891 27.9915 26.8793 30.9189 27.3926L31.621 27.5155C32.1634 27.6087 32.5788 27.6742 33.0161 27.7338C33.9796 27.8652 34.7577 27.8101 35.6592 27.6158L36.5792 27.4099C36.7378 27.377 36.7182 27.3894 36.7755 27.3985L36.802 27.4018C36.9225 27.413 37.3313 27.4745 37.4273 27.752C37.4273 27.752 37.0548 28.0539 36.7755 28.0744C34.342 28.2535 32.5726 28.6781 30.6917 28.8582C27.7259 29.1422 25.0736 29.2396 23.6042 30.0201C22.8942 30.3972 22.1404 34.2854 21.1941 35.6033C20.658 36.3499 20.626 34.8917 20.626 34.8917Z" fill="#E7EAEE"/>
<path fill-rule="evenodd" clip-rule="evenodd" d="M43.0726 65.3533C43.3064 65.9614 43.6495 66.4071 44.1138 66.5801C44.5041 66.7193 44.9099 66.8059 45.3242 66.8633C46.2173 66.9863 53.0417 67.5669 56.1053 67.1665C59.1689 66.7661 58.9955 66.7288 60.3958 66.4807C61.0734 66.3604 61.8482 66.2327 62.5408 65.9609C63.051 65.7615 63.5168 65.4844 63.8816 65.0903C64.2081 64.7381 64.41 64.1393 64.4701 63.4694C64.5466 62.6184 64.4162 61.4928 64.2884 60.9264C64.2602 60.7743 63.7499 60.8845 63.7781 61.0366C63.8546 61.5631 63.8784 62.6082 63.7788 63.3815C63.7173 63.8608 63.6233 64.3062 63.3883 64.559C63.0937 64.876 62.7138 65.0923 62.302 65.2539C61.6501 65.5108 60.9199 65.6311 60.2824 65.7467C58.9009 65.9988 57.6104 66.3259 51.8879 66.4807C50.9599 66.5058 46.312 66.2658 45.4121 66.1367C45.0417 66.084 44.6784 66.0076 44.3297 65.8818C43.9226 65.744 43.7084 65.239 43.5183 64.6726C43.2885 63.9879 42.7554 61.5426 43.0726 61.017C43.1908 60.8211 44.0443 60.8638 44.5784 60.9204C46.2893 61.1016 49.4283 61.1746 52.4743 61.2083C55.8278 61.2455 63.8238 61.2472 63.8238 61.0933C63.8238 60.9549 64.1417 60.9205 64.2884 60.9264C64.3358 60.9283 64.0224 60.5401 62.5408 60.5401C60.18 60.5401 56.5438 60.6266 53.0037 60.5898C48.173 60.5397 43.5559 60.0972 42.7905 60.1777C42.7743 60.1795 42.759 60.1807 42.7444 60.1816C42.1845 60.2146 42.4338 63.6914 43.0726 65.3533Z" fill="#00160A"/>
<path fill-rule="evenodd" clip-rule="evenodd" d="M44.2061 62.0047C44.23 61.8302 44.432 61.4498 44.5148 61.6495C44.6621 62.0047 44.5121 64.3758 45.9013 64.6222C46.1345 64.6635 46.7478 64.7521 46.7478 64.9477C46.7478 65.1434 46.6529 65.4386 46.1441 65.3005C45.2466 65.0569 44.7329 64.5542 44.4182 63.7565C44.1944 63.189 44.1351 62.524 44.2061 62.0047Z" fill="#00160A"/>
<path fill-rule="evenodd" clip-rule="evenodd" d="M13.2349 56.167L13.2353 56.171C13.2355 56.2037 13.2759 56.2483 13.283 56.3444C13.3134 56.7535 13.1398 57.7165 13.1091 58.0206C13.0287 58.7329 12.8881 59.6236 12.8628 60.4746C12.8466 61.0244 12.8756 61.5574 13.0319 62.0092C13.357 62.9821 14.1072 63.5804 15.0135 63.9628C15.8243 64.3056 16.7627 64.4562 17.6629 64.5642C18.3194 64.6425 18.953 64.7079 19.5148 64.7396C19.6108 64.7396 19.6888 64.8178 19.6888 64.9139C19.6888 65.01 19.6108 65.0873 19.5148 65.0873C18.9407 65.12 18.2887 65.1596 17.6141 65.122C16.6492 65.0685 15.6488 64.8753 14.782 64.5166C13.7116 64.0728 12.8474 63.3446 12.4657 62.1974C12.2994 61.6793 12.2603 61.071 12.3044 60.4459C12.3655 59.58 12.576 58.6834 12.7007 57.9622C12.7566 57.66 12.8577 56.6802 13.0138 56.2998C13.0902 56.1125 13.2221 56.0897 13.2264 56.1006C13.2445 56.1185 13.2474 56.1462 13.2349 56.167Z" fill="#00160A"/>
<path fill-rule="evenodd" clip-rule="evenodd" d="M21.8921 63.1765L21.3713 63.2596C21.2075 63.2939 21.0209 63.3603 20.8648 63.4622C20.7493 63.5377 20.6544 63.6357 20.5901 63.75C20.5601 63.8049 20.5428 63.86 20.5307 63.915C20.5081 64.0188 20.5144 64.1236 20.4962 64.235C20.4815 64.3229 20.4764 64.4097 20.4793 64.4965C20.4834 64.6156 20.5034 64.7335 20.5158 64.853C20.543 65.0419 20.5516 65.2231 20.6255 65.39C20.6587 65.4652 20.7035 65.5322 20.7607 65.6008C20.7878 65.6496 20.8494 65.6672 20.8983 65.6401C20.9471 65.6129 20.9648 65.5513 20.9376 65.5025C20.9376 65.5025 20.5992 63.9332 21.0114 63.6731C21.4236 63.4129 21.6522 63.4467 21.7728 63.4169C21.8221 63.4046 21.9295 63.2725 21.9356 63.2423C21.9418 63.2122 21.9223 63.1827 21.8921 63.1765Z" fill="#00160A"/>
<path fill-rule="evenodd" clip-rule="evenodd" d="M21.8747 63.236L21.9317 63.3538C21.9501 63.4306 21.9529 63.5195 21.9549 63.6048C21.9567 63.68 21.9649 63.7539 21.9177 63.8157C21.8921 63.8412 21.8921 63.8826 21.9177 63.9082C21.9432 63.9338 21.9846 63.9338 22.0102 63.9082C22.0939 63.8503 22.1451 63.7683 22.1605 63.6725C22.1804 63.5482 22.1268 63.4132 22.0802 63.3044C22.0648 63.2696 22.0058 63.1843 21.9451 63.1488C21.8968 63.1207 21.8499 63.1136 21.8131 63.1428C21.7875 63.1597 21.7803 63.1944 21.7973 63.2202C21.8143 63.2459 21.849 63.2531 21.8747 63.236Z" fill="#00160A"/>
<path fill-rule="evenodd" clip-rule="evenodd" d="M21.8055 63.8343C21.7606 63.8599 21.719 63.8861 21.7027 63.8935C21.5447 63.9654 21.4542 64.1227 21.4299 64.3109C21.4005 64.5392 21.4842 64.8043 21.5329 64.967C21.5468 65.0232 21.6039 65.0575 21.6601 65.0434C21.7163 65.0293 21.7504 64.9724 21.7364 64.9162C21.6992 64.749 21.659 64.4661 21.6995 64.2491C21.7149 64.1671 21.7277 64.0899 21.791 64.0406C21.791 64.0406 21.8358 63.8169 21.8055 63.8343Z" fill="#00160A"/>
<path fill-rule="evenodd" clip-rule="evenodd" d="M20.7077 64.1142C20.8023 64.2205 20.7928 64.3834 20.6866 64.478C20.525 64.6219 20.3833 64.7317 20.2592 64.8079L20.1988 64.8435C20.093 64.9035 19.9523 64.9725 19.775 65.0519C19.753 65.0618 19.5481 65.1265 19.4735 65.0686C19.4339 65.0379 19.3903 65.0016 19.3676 64.9498C19.3569 64.9256 19.3931 64.878 19.4596 64.8172C19.5705 64.7159 19.8654 64.6613 20.0693 64.5337C20.4029 64.3249 20.6598 64.0605 20.7077 64.1142Z" fill="#00160A"/>
<path fill-rule="evenodd" clip-rule="evenodd" d="M21.6226 66.5449C21.7234 66.4445 21.8865 66.4447 21.987 66.5455C22.4275 66.9873 22.5587 67.4105 22.273 67.7591C22.0905 67.9818 21.8308 68.1765 21.4625 68.324C21.2907 68.3928 21.3115 68.4252 20.8633 68.5236C20.7243 68.5541 20.5868 68.4662 20.5563 68.3272C20.5258 68.1881 20.6138 68.0507 20.7528 68.0202L20.9332 67.9797C21.2565 67.9054 21.7459 67.5893 21.8744 67.4325C21.9476 67.3431 21.8994 67.1874 21.6221 66.9094C21.5216 66.8086 21.5218 66.6454 21.6226 66.5449Z" fill="#00160A"/>
<path fill-rule="evenodd" clip-rule="evenodd" d="M28.2469 62.3904C28.307 63.574 28.3314 64.2847 28.3202 64.5225C28.2891 65.1684 28.171 65.9966 27.8853 66.7179C27.6783 67.24 27.3775 67.6996 26.9925 68.0167C26.731 68.2208 26.1778 68.6186 24.5379 68.5051C21.2448 68.2772 21.7678 62.6937 21.7881 62.6125C21.8085 62.5312 21.894 62.2162 21.9755 62.236C22.1233 62.2598 21.5505 68.0595 24.4498 68.0989C24.6749 68.102 24.8964 68.0712 25.1234 68.0414C25.4378 68.0177 25.7686 67.9463 26.0749 67.8274C26.2667 67.7531 26.449 67.659 26.605 67.5312C26.9249 67.2836 27.162 66.9061 27.3507 66.491C27.648 65.8361 27.8643 65.0858 27.935 64.4904C27.9724 64.1793 28.0553 62.2904 28.0553 62.2904C28.0987 62.1408 28.2452 62.3574 28.2469 62.3904Z" fill="#00160A"/>
<path fill-rule="evenodd" clip-rule="evenodd" d="M25.0389 61.7122L25.1864 61.7129C26.8731 61.7295 28.217 62.0305 28.217 62.3993C28.217 62.7788 27.5822 63.4988 25.827 63.4988L25.6795 63.4981C23.3213 63.5965 21.8608 62.7681 21.8608 62.3993C21.8608 62.0198 23.2837 61.7122 25.0389 61.7122Z" fill="#00160A"/>
<path fill-rule="evenodd" clip-rule="evenodd" d="M25.039 61.8838L24.8961 61.8846C23.3321 61.9013 22.0327 62.1884 22.0327 62.3991C22.0327 62.6163 23.4121 63.0863 25.039 63.0863L25.1819 63.0855C26.7459 63.0688 28.0453 62.6099 28.0453 62.3991C28.0453 62.182 26.6659 61.8838 25.039 61.8838Z" fill="white"/>
<path fill-rule="evenodd" clip-rule="evenodd" d="M27.5092 39.5375C27.5879 39.6474 27.6851 39.7486 27.7999 39.8371C27.921 39.9315 28.0618 39.9904 28.2021 40.0318C28.476 40.1051 28.7464 40.1785 29.0258 40.2241C29.8865 40.3644 32.043 40.6001 32.255 40.6396C32.3979 40.6814 32.5478 40.5989 32.5892 40.4557C32.6306 40.3125 32.5479 40.1625 32.405 40.1206C32.1894 40.0343 31.9762 39.9528 31.7536 39.8956C31.4239 39.8106 31.0853 39.7708 30.7479 39.7317C30.1728 39.6634 29.5958 39.6065 29.0178 39.5708C28.7722 39.5565 28.5301 39.5601 28.2845 39.5435C28.2086 39.5406 28.1322 39.5294 28.0566 39.505C27.9272 39.4642 27.8023 39.4157 27.6972 39.3443L27.417 39.1344C27.3865 39.1339 27.3614 39.1595 27.3615 39.1904C27.3616 39.2214 27.4878 39.5045 27.5092 39.5375Z" fill="#00160A"/>
<path fill-rule="evenodd" clip-rule="evenodd" d="M30.2039 41.5928C30.3499 41.7504 30.59 41.8821 30.8547 41.9218C31.1232 41.9604 31.3992 41.895 31.5857 41.791C31.6432 41.7623 31.6665 41.6919 31.6377 41.6345C31.609 41.577 31.5391 41.5542 31.4817 41.5829C31.3539 41.6384 31.1832 41.6473 31.0078 41.6394C30.934 41.6354 30.8597 41.6255 30.7858 41.6196C30.5929 41.6018 30.4093 41.5869 30.275 41.5067C30.2512 41.4878 30.216 41.4908 30.1964 41.5146C30.1767 41.5384 30.1801 41.573 30.2039 41.5928Z" fill="#00160A"/>
<path fill-rule="evenodd" clip-rule="evenodd" d="M88.5666 3.89138C88.8034 3.9054 88.984 4.1087 88.97 4.34548L88.9227 5.16467C88.5826 11.2216 88.5032 16.3502 88.684 20.5492L88.6923 20.7366C88.8918 25.1499 89.3792 31.3719 90.4952 41.1023C90.5944 41.1719 90.6637 41.2827 90.6763 41.4128C90.6992 41.6488 90.5264 41.8588 90.2903 41.8817C84.7584 42.4177 79.6112 42.7745 74.8486 42.9521L74.1979 42.9753C69.3473 43.141 62.3215 43.2216 53.1189 43.2171C52.8817 43.217 52.6896 43.0246 52.6897 42.7875C52.6898 42.5503 52.8822 42.3581 53.1193 42.3582L55.056 42.3579C63.4853 42.3506 69.9543 42.2668 74.4616 42.1066L75.1564 42.0808C79.6399 41.9063 84.4648 41.5734 89.6312 41.082C89.4487 39.2469 88.0254 24.8695 87.8404 20.9097L87.8342 20.7754C87.6328 16.322 87.7257 10.829 88.1125 4.29472C88.126 4.06742 88.3139 3.8919 88.5384 3.89062L88.5666 3.89138ZM49.1533 4.75803C49.3884 4.72656 49.6045 4.89162 49.636 5.12672L49.7915 6.29701C50.7287 13.3957 51.3492 19.0383 51.6532 23.2268L51.682 23.6319C51.9899 28.081 52.1818 34.5372 52.2578 43.0032C52.2599 43.2404 52.0694 43.4344 51.8322 43.4365C51.595 43.4387 51.401 43.2481 51.3989 43.0109L51.3867 41.7585C51.3062 34.1691 51.128 28.2806 50.8524 24.0952L50.8251 23.6912C50.5186 19.263 49.8384 13.112 48.7846 5.24069C48.7531 5.0056 48.9182 4.78951 49.1533 4.75803Z" fill="#00160A"/>
<path fill-rule="evenodd" clip-rule="evenodd" d="M20.5123 44.5383C20.7494 44.5366 20.9431 44.7275 20.9448 44.9647C20.9465 45.2019 20.7556 45.3955 20.5184 45.3972C15.7824 45.431 12.5354 46.7969 10.7279 49.4749C8.58564 52.649 6.56566 57.8285 6.69682 64.5319C6.79441 69.5196 17.2834 68.7279 19.7983 68.5945C20.1341 68.5767 20.3628 68.7554 20.3603 68.7821C20.3412 68.9831 20.1817 69.1488 19.9733 69.1686C16.9086 69.4592 14.3325 69.1597 12.2544 68.9497C7.85945 68.5057 5.69152 67.2697 5.83909 64.4864C6.2011 57.6583 8.12336 52.3076 10.3595 48.9944C12.345 46.0526 15.5167 44.5739 20.5123 44.5383Z" fill="#00160A"/>
<path fill-rule="evenodd" clip-rule="evenodd" d="M20.5933 27.0012C20.1639 27.4213 20.1043 28.325 20.2281 29.9151L20.2423 30.0913C20.2604 30.3077 20.2812 30.5298 20.3072 30.7873L20.4445 32.1373C20.4857 32.5687 20.4858 32.6559 20.4721 32.7361L20.4557 32.8267C20.3381 33.4668 20.0512 34.1254 19.9429 34.451L19.92 34.5173L19.907 34.4976C19.0036 33.1341 18.175 32.1443 17.3819 31.8753C16.4135 31.5469 15.5783 32.0328 14.9525 33.1911L14.9161 33.2594C13.777 35.44 15.0337 36.7894 18.0533 37.4742L18.1121 37.4872L18.2037 37.7141C21.1223 44.8606 25.2981 47.906 30.99 46.3609C34.8651 45.309 37.156 41.9052 38.0631 37.0556C38.7172 33.5591 38.5391 29.3308 37.8954 27.4709C37.6974 26.8989 37.3718 26.5919 36.8812 26.5464C36.7142 26.5309 36.54 26.5456 36.3202 26.5866L36.2155 26.6075C36.0422 26.6447 35.6003 26.7489 35.5834 26.7527C34.7626 26.9379 34.0826 26.9985 33.247 26.8974L33.1321 26.8826C32.6108 26.8115 32.1182 26.7314 31.3871 26.6028L30.219 26.3981C29.2297 26.2281 28.844 26.1769 28.2206 26.1227C27.1548 26.03 26.2278 26.0661 25.3384 26.2609L25.2274 26.2861C24.8438 26.3762 24.5628 26.5135 24.0018 26.336L23.7373 26.2499C22.475 25.8408 21.8053 25.8153 20.5933 27.0012ZM23.6041 26.9383C24.3672 27.1893 24.7863 27.2606 25.3635 27.1359L25.5753 27.0879C26.9437 26.7889 27.9914 26.8792 30.9188 27.3924L31.621 27.5153C32.1633 27.6086 32.5788 27.674 33.0161 27.7336C33.9795 27.865 34.7576 27.8099 35.6591 27.6156L36.5791 27.4098C36.7377 27.3768 36.7182 27.3892 36.7754 27.3984L36.8019 27.4017C36.9224 27.4129 37.3312 27.4743 37.4273 27.7519C38.0188 29.4608 38.1905 33.5398 37.5624 36.8977C36.7096 41.4572 34.2624 44.5826 30.765 45.532C25.4355 46.9787 21.4288 44.2298 18.655 37.1304L18.5697 36.912L18.3398 36.8657L18.1757 36.8316C15.5356 36.2659 14.6439 35.2513 15.5364 33.5994C15.9834 32.772 16.5957 32.5157 17.106 32.6888C17.727 32.8994 18.5093 33.7112 19.4033 35.1287L19.4133 35.1439C19.8053 35.7111 20.3495 35.4938 20.6259 34.8915C20.7984 34.5157 20.9623 33.8873 21.1275 32.9884L21.1607 32.8047C21.1887 32.6326 21.1756 32.4952 21.0317 31.1061L20.9807 30.6086C20.9625 30.425 20.947 30.2593 20.9332 30.0994L20.9265 30.0199C20.87 29.3432 20.8493 28.8042 20.8706 28.3804C20.8921 27.9499 20.9613 27.6748 21.0223 27.6151L21.1243 27.5168C22.0109 26.6774 22.5136 26.5935 23.4207 26.8787L23.6041 26.9383Z" fill="#00160A"/>
<path fill-rule="evenodd" clip-rule="evenodd" d="M26.2895 16.6458C26.4399 16.6458 26.5923 16.651 26.7471 16.6614C27.619 16.7199 28.4052 16.9015 29.6861 17.2937L30.4534 17.5305C31.7885 17.9382 32.2325 18.0339 32.8273 18.0339C37.4395 18.0339 39.8172 19.5984 39.9723 22.1694C40.0914 24.1415 38.7137 26.4878 37.1641 27.2917C36.9536 27.4009 36.6944 27.3188 36.5851 27.1083C36.4759 26.8977 36.558 26.6385 36.7686 26.5293C38.0212 25.8794 39.2132 23.8493 39.115 22.2211C38.993 20.2008 37.0739 18.9186 32.9528 18.8932L32.7523 18.8924C32.0717 18.885 31.5743 18.7724 30.1455 18.3346L29.4404 18.1168C28.2166 17.7419 27.4793 17.5714 26.6896 17.5184C26.5537 17.5093 26.4204 17.5047 26.2895 17.5047C20.8148 17.5047 15.4218 22.1694 14.6796 26.5293C14.4991 27.5894 15.6551 33.4931 15.4218 33.5357C15.1885 33.5782 14.9648 33.4236 14.9222 33.1902L14.872 32.9102C14.3742 30.0883 13.8373 27.5399 14.1442 26.2043C15.3867 20.7967 20.4079 16.6458 26.2895 16.6458Z" fill="#00160A"/>
<path fill-rule="evenodd" clip-rule="evenodd" d="M32.3754 29.1328C32.6332 29.1328 32.7563 29.7091 32.7113 29.857C32.5159 30.4987 33.0049 34.1566 33.3671 35.1016L33.3843 35.1453C33.91 36.4536 33.145 37.2998 31.4122 37.5357C31.1772 37.5676 30.9607 37.4031 30.9287 37.168C30.9188 37.0947 30.9831 36.9004 31.1448 36.9145C32.3349 37.0184 33.1984 35.9977 32.9438 35.327L32.9112 35.2437C32.4955 34.1637 32.0279 31.8057 32.0279 29.5683C32.0279 29.3308 32.1493 29.1328 32.3754 29.1328Z" fill="#00160A"/>
<path fill-rule="evenodd" clip-rule="evenodd" d="M15.952 36.7066C16.0757 37.007 15.9751 40.0125 17.554 41.642C18.8087 42.9368 20.2356 42.5123 20.5704 42.1113C20.7343 41.9151 21.0404 42.089 21.1475 42.3007C21.2546 42.5123 21.1698 42.7707 20.9581 42.8778C19.8781 43.4241 18.44 43.2213 17.554 42.463C16.015 41.1458 15.6792 38.2696 15.6792 37.2492C15.6792 36.8714 15.8417 36.4389 15.952 36.7066Z" fill="#00160A"/>
<path fill-rule="evenodd" clip-rule="evenodd" d="M33.8205 32.9529C33.9703 32.7275 34.1897 32.7009 34.4118 32.7932C34.6283 32.8831 34.8413 33.1149 34.9107 33.2708C35.0133 33.5026 35.0147 33.8814 34.9319 34.2419C34.8474 34.611 34.6771 34.9545 34.4928 35.1095C34.3176 35.2556 34.1706 35.3147 34.0135 35.0828C33.4143 34.1982 33.7629 33.0396 33.8205 32.9529Z" fill="#00160A"/>
<path fill-rule="evenodd" clip-rule="evenodd" d="M27.1152 33.8089C27.0502 33.57 27.0545 32.335 27.5213 32.335C28.2155 32.335 28.304 33.6204 28.215 33.8799C27.713 35.3427 27.1803 34.0477 27.1152 33.8089Z" fill="#00160A"/>
<path fill-rule="evenodd" clip-rule="evenodd" d="M33.0614 20.5132C32.9253 20.3253 33.4627 20.2674 33.6584 20.4014C35.2965 21.523 36.1381 22.5955 36.1235 23.6652C36.1092 24.7157 35.2567 25.8891 33.6041 27.2426C33.4206 27.3929 33.15 27.366 32.9997 27.1825C32.8494 26.999 35.1472 25.5232 35.2646 23.6535C35.3821 21.7838 33.3169 20.8657 33.0614 20.5132Z" fill="#00160A"/>
<path fill-rule="evenodd" clip-rule="evenodd" d="M35.6063 20.0589C35.5364 19.7543 35.9802 19.7733 36.1887 19.8865C37.5106 20.6044 38.1911 21.7172 38.1911 23.1713C38.1911 24.5957 37.228 25.8364 35.775 27.2734C35.6063 27.4402 35.3344 27.4387 35.1676 27.27C35.0008 27.1014 37.513 25.3416 37.513 22.8045C37.513 20.2674 35.7012 20.4726 35.6063 20.0589Z" fill="#00160A"/>
<ellipse cx="35.1745" cy="36.8889" rx="1.63198" ry="0.601255" fill="#FFB61D"/>
<path fill-rule="evenodd" clip-rule="evenodd" d="M33.4224 29.6457C33.8107 29.5069 34.3468 29.5924 35.0469 29.8796C35.166 29.9284 35.2818 29.9923 35.4081 30.0757L35.4959 30.1367C35.6586 30.2526 35.9355 30.4589 35.9894 30.4968C36.1653 30.6201 36.3252 30.717 36.498 30.8006C36.663 30.8803 36.9316 30.9538 37.2986 31.0164C37.4389 31.0403 37.5333 31.1734 37.5094 31.3137C37.4854 31.454 35.8905 31.2287 35.6934 31.0904L35.2877 30.7937C35.217 30.7422 35.1561 30.6987 35.1241 30.6776C35.0237 30.6113 34.9362 30.563 34.8513 30.5282C34.2797 30.2937 33.8652 30.2224 33.6222 30.2942L33.5959 30.3027C33.0886 30.1778 33.2884 29.6936 33.4224 29.6457Z" fill="#00160A"/>
<path fill-rule="evenodd" clip-rule="evenodd" d="M20.673 42.356C20.8282 42.2968 21.0019 42.3746 21.0611 42.5297C21.2461 43.0146 21.3548 44.0811 21.3866 44.3634C21.4175 44.6381 21.4175 44.9071 21.3864 45.1699C21.3669 45.3348 21.2174 45.4527 21.0525 45.4331C20.8876 45.4136 20.7698 45.2641 20.7893 45.0993C20.8149 44.8828 20.8149 44.6601 20.7891 44.4307C20.7642 44.2089 20.6678 43.1857 20.4993 42.7441C20.4401 42.5889 20.5179 42.4152 20.673 42.356Z" fill="#00160A"/>
<path fill-rule="evenodd" clip-rule="evenodd" d="M20.7768 45.1743C20.933 44.9958 21.4589 44.6991 21.3828 45.1338C21.3068 45.5684 20.2187 46.0738 20.2187 46.9101C20.2187 48.1516 20.6974 49.3398 22.4193 49.8365C28.5874 51.6156 30.7628 47.086 30.9342 47.2499C31.1056 47.4139 31.1117 47.6857 30.9477 47.8571C29.9789 48.8701 29.1978 49.5453 28.5874 49.8888C26.4418 51.0961 24.1128 51.3353 22.137 50.6477C20.3299 50.0188 19.0689 48.2312 19.8192 46.4769C19.941 46.1922 20.2545 45.7716 20.7768 45.1743Z" fill="#00160A"/>
<path fill-rule="evenodd" clip-rule="evenodd" d="M63.9503 0.606176C64.1448 0.470397 64.4125 0.517985 64.5483 0.712466C64.6841 0.906947 64.4645 1.18673 64.27 1.32251C63.6222 1.77477 62.0615 3.25213 61.742 3.5905L61.4349 3.91758C60.8319 4.56696 53.6488 12.0365 53.4763 11.8737C53.3181 11.7244 60.3268 4.01742 60.8527 3.45417L60.8725 3.43292C61.3694 2.90279 61.8283 2.42482 62.2675 1.9822C62.7023 1.54402 63.263 1.08599 63.9503 0.606176Z" fill="#E7EAEE"/>
<path fill-rule="evenodd" clip-rule="evenodd" d="M63.9503 6.96238C64.1448 6.8266 64.4125 6.87419 64.5483 7.06867C64.6841 7.26315 64.6365 7.53088 64.442 7.66665C63.7942 8.11891 53.6908 18.3111 53.4763 18.2299C53.2617 18.1488 54.2972 16.9378 54.2972 16.9378C54.9591 16.2452 60.8725 9.96091 60.8725 9.96091C61.3694 9.43077 61.8283 8.9528 62.2675 8.51019C62.7023 8.07201 63.263 7.4422 63.9503 6.96238Z" fill="#00160A"/>
<path fill-rule="evenodd" clip-rule="evenodd" d="M73.4384 2.0904C73.5989 1.91582 73.8706 1.90447 74.0452 2.06503C74.2198 2.2256 74.2311 2.49729 74.0705 2.67186C74.0705 2.67186 54.5346 24.8795 54.3568 24.2615C54.259 23.9214 62.4747 14.0504 63.7671 12.7198L64.1255 12.3574C64.7317 11.7282 67.7321 8.29448 73.4384 2.0904Z" fill="#00160A"/>
<path fill-rule="evenodd" clip-rule="evenodd" d="M28.3507 29.1464C28.7049 29.1022 29.3173 29.1627 29.9892 29.3739C30.2154 29.445 30.3412 29.6861 30.2701 29.9124C30.199 30.1386 29.9579 30.2644 29.7316 30.1933C29.1618 30.0142 28.7221 29.9224 28.4241 29.9148L28.3507 29.9146C28.2462 29.917 28.1699 29.9353 27.8739 30.0484L27.4287 30.2224C27.0023 30.3906 26.6883 30.4895 26.3406 30.5466C25.9485 30.611 25.3569 30.5847 24.5446 30.4743C24.3095 30.4423 23.9077 30.1635 24.1769 29.9909C24.446 29.8183 25.5841 30.0065 26.1177 29.9124C26.6513 29.8183 27.6642 29.232 28.3507 29.1464Z" fill="#00160A"/>
<path fill-rule="evenodd" clip-rule="evenodd" d="M9.99692 58.5689C11.9309 58.535 12.7551 59.0728 12.5772 59.2468C12.5772 59.2468 10.5227 59.0902 9.99692 59.0728C9.44113 59.0543 6.89694 59.0159 6.82689 58.7893C6.80026 58.7032 6.80209 58.615 6.82704 58.535C6.85311 58.4514 7.35313 58.5027 8.21777 58.5415C8.7026 58.5632 9.30207 58.581 9.99692 58.5689Z" fill="#00160A"/>
<path fill-rule="evenodd" clip-rule="evenodd" d="M13.0545 68.9591C13.0545 68.9591 12.8805 77.1583 14.0444 77.8266C14.2052 77.919 14.1876 78.2749 14.0109 78.4331C13.8342 78.5913 13.5627 78.5763 13.4045 78.3995C12.335 77.2049 12.0553 73.8326 12.4781 68.8695C12.4974 68.6426 13.0746 68.7227 13.0545 68.9591Z" fill="#00160A"/>
<path fill-rule="evenodd" clip-rule="evenodd" d="M40.0123 73.6265L39.9892 73.628L38.6185 73.7546C30.0527 74.5561 24.6993 75.346 20.4923 76.1254L20.097 76.1998C18.0672 76.5883 16.4005 76.9754 15.432 77.3657C14.2206 77.854 13.1306 78.4363 13.5173 79.1625C14.191 80.4281 15.6089 80.924 18.715 81.2679L19.0463 81.303C21.4475 81.5481 24.0281 81.6074 30.5702 81.6406L32.8057 81.6536C40.7805 81.7068 45.3923 81.9934 51.3644 82.3594L51.9731 82.3973C62.9706 83.0917 71.749 82.9804 78.3084 82.2107L78.5065 82.1872C83.806 81.5502 87.3815 80.4966 88.9368 79.3012C89.8524 78.5975 89.9923 77.8923 90.0177 77.24C90.0404 76.6536 88.6945 75.7677 87.9256 75.4766C85.7839 74.6657 85.0851 74.3717 80.9677 73.9565C72.8351 73.1365 59.3017 72.9125 40.0123 73.6265ZM81.0533 74.6393L81.3232 74.6671C85.1616 75.0686 87.6815 75.648 88.8439 76.3763L88.9164 76.4231C89.8089 77.0164 89.6963 77.6342 88.4134 78.6202C87.0106 79.6984 83.5627 80.7143 78.404 81.3344C71.9456 82.1106 63.2626 82.2359 52.3584 81.5608L51.2152 81.4898C44.9199 81.1079 40.0899 81.0049 31.1508 80.9565L28.6832 80.9422C23.3612 80.9051 21.0992 80.8316 18.9155 80.5975L18.7079 80.5745C15.9703 80.2615 14.4573 79.6895 13.9504 78.7927L13.9319 78.7589C13.9222 78.7408 13.9222 78.7411 13.9957 78.6665C14.143 78.5173 14.4449 78.3435 14.8942 78.1624L15.0106 78.1166C15.9842 77.742 17.5231 77.3581 19.618 76.97L20.0148 76.8976C24.1972 76.1464 30.4342 75.3827 38.7218 74.6076L40.0547 74.4844L41.1925 74.443C59.8413 73.7746 73.1318 73.8406 81.0533 74.6393Z" fill="#00160A"/>
<path d="M61.514 66.2695C61.357 71.9919 60.9089 75.8036 60.1467 77.1372C59.5017 78.2657 57.3365 78.6488 54.5919 78.4632L53.6037 78.3914C52.2617 78.2909 51.5132 78.2176 50.7917 78.1061L50.6934 78.0907C49.5323 77.9052 48.7663 77.6489 48.3368 77.2325C46.7522 75.6961 45.9122 72.2922 45.7516 66.9898C45.7445 66.7527 46.3731 66.9709 46.6102 66.9638C46.6594 66.9623 49.4947 67.3043 53.3975 67.1223C55.7118 67.0144 61.514 66.2695 61.514 66.2695Z" fill="white"/>
<path fill-rule="evenodd" clip-rule="evenodd" d="M46.2362 66.9248C46.3932 72.6472 47.7422 75.9729 48.5044 77.3066C49.1494 78.4351 51.3147 78.8181 54.0593 78.6325L55.0474 78.5608C56.3895 78.4602 51.4658 76.9938 49.7657 75.1365C47.8589 73.0534 46.2362 66.9248 46.2362 66.9248Z" fill="#E7EAEE"/>
<path fill-rule="evenodd" clip-rule="evenodd" d="M47.3973 68.6973C47.4294 68.4623 47.7191 68.0602 47.881 68.33C48.0429 68.5998 48.1154 69.2542 48.452 70.0897L49.1661 71.4745C49.2293 71.6313 49.2867 71.7764 49.3407 71.9165L49.3727 72C49.695 72.8457 49.8926 73.3411 49.9629 73.9041C49.9923 74.1395 49.8253 74.3541 49.5899 74.3835C49.3546 74.4128 49.1399 74.2459 49.1106 74.0105C49.0508 73.5317 49.0416 72.9206 48.7418 72.1341L48.679 71.971C48.6359 71.8604 48.5903 71.7455 48.541 71.6231L48.0451 70.4177C47.9591 70.2067 47.8929 70.0392 47.8345 69.8838L47.7878 69.7573C47.6094 69.2663 47.3629 68.9489 47.3973 68.6973Z" fill="#00160A"/>
<path fill-rule="evenodd" clip-rule="evenodd" d="M36.09 41.7432C35.8257 41.9441 36.1486 42.2275 36.252 42.5364C36.2756 42.6068 36.3057 42.6794 36.3453 42.7643L36.3937 42.865L36.5032 43.0833L36.5487 43.1758C36.5974 43.2772 36.632 43.3568 36.6596 43.4327C36.7448 43.6671 36.7367 43.7726 36.6567 43.8441C36.2056 44.2467 35.7264 44.5161 34.8081 44.9228L34.301 45.1448C32.7722 45.8203 31.7522 46.2684 31.1773 47.1827C30.4186 48.3892 30.6209 50.1185 31.15 52.6368L31.1749 52.7536C31.2764 53.2229 31.0816 54.08 30.9414 55.3787L30.9312 55.4722C30.8739 55.9913 30.8 56.5726 30.6987 57.3102L30.2953 60.1729C30.1429 61.2677 30.0295 62.1387 29.9313 62.9916L29.8941 63.3209C29.5987 65.9874 29.5136 68.0843 29.6846 69.7874C29.833 71.2649 30.6983 73.3785 31.7193 74.3883C33.2195 75.8721 34.7106 75.1693 36.0596 72.1012C36.6626 70.7299 37.0353 69.4426 37.2134 68.1342C37.4516 66.3848 37.3539 64.6012 36.9387 62.1951L36.8956 61.9505C36.6116 60.391 35.3709 54.6443 35.2228 53.9153L35.1749 53.6833L34.8596 52.2143C34.8394 52.1184 34.8206 52.0277 34.8023 51.9387L34.7438 51.6477C34.4828 50.3216 34.3923 49.4416 34.4906 48.872C34.4999 48.8183 34.5453 48.7393 34.6381 48.6391C34.7826 48.483 35.0122 48.3068 35.3502 48.089L35.5006 47.9942C35.817 47.7992 36.5701 47.3511 36.5754 47.3478L36.7372 47.2487C38.3275 46.2647 39.0753 45.4931 39.0753 44.4012C39.0753 43.3163 38.6176 42.4872 37.8745 41.9924C37.2567 41.581 36.4787 41.4479 36.09 41.7432ZM36.9563 42.7566L36.8086 42.4596L36.7921 42.4564C36.9843 42.4893 37.2006 42.5756 37.3984 42.7073C37.9057 43.0451 38.2164 43.6078 38.2164 44.4012C38.2164 45.0798 37.6171 45.6937 36.2788 46.5222L36.0449 46.6641C35.816 46.8006 35.1895 47.1747 34.9727 47.311L34.9546 47.3224C34.5233 47.5961 34.2236 47.8225 34.0078 48.0556C33.8115 48.2676 33.6855 48.4865 33.6442 48.7259C33.5168 49.4637 33.6281 50.4687 33.9398 52.0079L34.0191 52.3909L34.308 53.7346L34.4701 54.5121C34.8015 56.0809 35.8239 60.8406 36.0582 62.1466L36.0658 62.1898C36.4896 64.5943 36.5918 66.3332 36.3624 68.0183C36.1953 69.2454 35.8449 70.4556 35.2733 71.7554C34.6563 73.1588 34.036 73.9449 33.4655 74.1861C33.0388 74.3664 32.6112 74.2322 32.1516 73.7776C31.2866 72.9221 30.4973 70.9942 30.3675 69.7016C30.2036 68.0705 30.2869 66.0253 30.5763 63.4126L30.6128 63.0898C30.7143 62.2079 30.8325 61.3044 30.9943 60.1474L31.3465 57.6543L31.4222 57.1016C31.4975 56.542 31.5564 56.0732 31.6043 55.6461L31.6346 55.3683C31.7714 54.068 31.7939 53.1896 31.6797 52.6146L31.6709 52.5721C31.1558 50.1895 31.1011 48.6441 31.7326 47.6399C32.1798 46.9287 32.9098 46.5514 34.2322 45.9626L34.8214 45.7041C35.8132 45.2646 36.3506 44.9619 36.885 44.4849C37.2801 44.1323 37.3154 43.668 37.1233 43.1393C37.0797 43.0193 37.0285 42.9037 36.9563 42.7566Z" fill="#00160A"/>
<path d="M36.9561 42.7565L36.8084 42.4595L36.7918 42.4563C36.984 42.4892 37.2003 42.5755 37.3981 42.7073C37.9054 43.045 38.2161 43.6078 38.2161 44.4011C38.2161 45.0797 37.6168 45.6936 36.2786 46.5222L36.0446 46.664C35.8157 46.8005 35.1893 47.1747 34.9724 47.311L34.9544 47.3223C34.5231 47.596 34.2233 47.8224 34.0075 48.0555C33.8113 48.2675 33.6852 48.4865 33.6439 48.7258C33.5166 49.4637 33.6278 50.4686 33.9396 52.0078L34.0188 52.3908L34.3077 53.7346L34.4698 54.512C34.8012 56.0808 35.8236 60.8406 36.0579 62.1465L36.0656 62.1897C36.4893 64.5942 36.5915 66.3332 36.3621 68.0183C36.195 69.2453 35.8446 70.4555 35.2731 71.7554C34.656 73.1588 34.0358 73.9449 33.4652 74.186C33.0386 74.3663 32.6109 74.2322 32.1513 73.7776C31.2863 72.922 30.497 70.9942 30.3672 69.7015C30.2034 68.0704 30.2866 66.0252 30.5761 63.4125L30.6125 63.0898C30.7141 62.2078 30.8323 61.3043 30.994 60.1474L31.3463 57.6542L31.4219 57.1015C31.4973 56.5419 31.5561 56.0732 31.6041 55.646L31.6343 55.3682C31.7712 54.068 31.7937 53.1896 31.6795 52.6146L31.6706 52.572C31.1555 50.1894 31.1009 48.6441 31.7324 47.6399C32.1796 46.9287 32.9095 46.5514 34.2319 45.9625L34.8211 45.7041C35.8129 45.2645 36.3503 44.9619 36.8848 44.4848C37.2798 44.1322 37.3151 43.6679 37.123 43.1392C37.0794 43.0193 37.0282 42.9036 36.9561 42.7565Z" fill="white"/>
<path fill-rule="evenodd" clip-rule="evenodd" d="M34.1789 48.5163C34.2963 48.3102 34.5585 48.2383 34.7646 48.3557C37.2439 49.7677 38.6645 51.4676 38.984 53.4565C39.2917 55.3722 37.2859 65.341 37.0541 65.2908C36.8223 65.2406 36.6751 65.0119 36.7253 64.7801L36.8338 64.2753C37.9807 58.89 38.4121 55.3121 38.1359 53.5927C37.8629 51.8934 36.6116 50.3961 34.3396 49.102C34.1335 48.9847 34.0615 48.7224 34.1789 48.5163Z" fill="#00160A"/>
<path fill-rule="evenodd" clip-rule="evenodd" d="M35.1994 42.771C35.399 42.6428 35.6647 42.7006 35.7929 42.9002C36.0137 43.2439 36.146 43.5239 36.1874 43.7628C36.2281 43.9983 36.2007 44.3142 36.1144 44.7346C36.0667 44.9669 35.8397 45.1166 35.6073 45.0689C35.4986 45.0466 35.4079 44.985 35.3472 44.9019C35.2781 44.8075 35.6846 44.5619 35.6846 43.9092C35.6846 43.2565 34.9999 42.8992 35.1994 42.771Z" fill="#00160A"/>
<path fill-rule="evenodd" clip-rule="evenodd" d="M35.0422 43.433C35.1462 43.3462 35.2377 43.6736 35.2175 43.8351C35.1869 44.0795 35.1869 44.9574 34.8415 45.3721C34.7046 45.5365 34.481 45.6745 34.2676 45.5709C34.1733 45.5251 34.4674 45.1152 34.6461 44.6519C34.7755 44.3164 34.8765 43.9569 34.945 43.7158C34.9958 43.537 34.9345 43.5229 35.0422 43.433Z" fill="#00160A"/>
<path fill-rule="evenodd" clip-rule="evenodd" d="M61.0953 65.8097C61.3324 65.8156 61.5198 66.0127 61.5139 66.2498L61.5046 66.6029C61.3476 72.3253 60.909 75.8036 60.1467 77.1373C59.5017 78.2658 57.3365 78.6488 54.5919 78.4632L53.6037 78.3915C52.2617 78.291 51.5132 78.2176 50.7917 78.1062L50.6934 78.0907C49.5323 77.9052 48.7663 77.6489 48.3368 77.2325C46.7522 75.6962 45.9122 72.2922 45.7517 66.9898C45.7445 66.7527 45.9309 66.5547 46.1679 66.5475C46.405 66.5404 46.603 66.7267 46.6102 66.9638L46.6202 67.2671C46.7964 72.1846 47.5884 75.3105 48.9347 76.6159L48.9671 76.6458C49.4631 77.0851 50.6929 77.3027 53.5454 77.5249L54.5588 77.5999L54.7351 77.6117C57.104 77.7599 58.9959 77.4199 59.401 76.7111C60.0779 75.5268 60.5108 71.9973 60.6552 66.2283C60.6611 65.9912 60.8582 65.8038 61.0953 65.8097Z" fill="#00160A"/>
<path fill-rule="evenodd" clip-rule="evenodd" d="M45.5089 49.8741C45.5911 49.6516 46.962 49.992 47.3261 50.2053C47.4597 50.2835 50.5167 51.7171 51.397 52.2686C52.514 52.9684 53.2994 55.9836 53.0344 59.368C52.9954 59.8664 52.6949 60.4155 52.1505 61.0415C51.9948 61.2204 51.7236 61.2393 51.5446 61.0837C51.3656 60.928 51.3468 60.6567 51.5024 60.4778C51.9371 59.978 52.1565 59.5771 52.1781 59.301L52.1916 59.1168C52.3971 56.1115 51.8667 53.2985 51.1437 52.8456L51.0033 52.759C50.3197 52.345 49.9022 52.2089 49.0662 52.0535C49.0662 52.0535 47.7622 51.0025 47.2478 50.7087C46.1071 50.0573 45.4712 49.9763 45.5089 49.8741Z" fill="#00160A"/>
<path fill-rule="evenodd" clip-rule="evenodd" d="M57.0563 46.325C57.2246 46.4921 53.666 49.545 53.4762 49.7162C52.8941 50.2413 52.5332 51.4332 52.6811 52.9778L52.6896 53.0627C52.7197 53.3515 52.8216 54.5176 52.8258 54.6813L52.8371 54.9214C52.8423 55.0055 52.8501 55.0942 52.8658 55.2469L52.9494 56.0168C53.0897 57.2919 53.1268 58.1847 53.0341 59.368C52.9951 59.8664 52.6947 60.4155 52.1503 61.0414C51.9946 61.2204 51.7233 61.2393 51.5444 61.0837C51.3654 60.928 52.4788 59.4166 52.5004 59.1405C52.5846 58.0647 52.0052 55.2742 52.0052 55.2742C51.9805 55.0297 51.9773 54.9505 51.9686 54.747C51.9575 54.486 51.9824 54.2813 52.0579 53.9098L52.1172 53.6236C52.1781 53.3196 52.195 53.166 52.1813 53.0056L52.1788 52.9802C52.0768 52.0037 52.1342 51.2127 52.3298 50.5759C52.5057 50.0031 52.7934 49.5549 53.1774 49.2086C53.3458 49.0566 53.5173 48.9367 53.7219 48.8167L53.9639 48.6788C53.9939 48.6611 54.0133 48.6487 54.0254 48.6398L54.0608 48.613C54.3964 48.3526 56.888 46.1579 57.0563 46.325Z" fill="#00160A"/>
<path fill-rule="evenodd" clip-rule="evenodd" d="M61.0394 52.7875C61.0975 53.0174 55.3695 54.935 54.6078 55.5878C53.5649 56.4817 53.0077 57.78 53.1672 58.9395L53.1768 59.0038C53.2807 59.6482 53.0131 60.3234 52.1027 61.0884C51.9212 61.241 51.6502 61.2175 51.4977 61.0359C51.3451 60.8543 51.3686 60.5834 51.5502 60.4308C52.2488 59.8438 52.5415 59.394 52.5006 59.1405C52.2608 57.6536 52.9416 56.0319 54.2207 54.9357C55.1476 54.1412 60.9813 52.5575 61.0394 52.7875Z" fill="#00160A"/>
<path fill-rule="evenodd" clip-rule="evenodd" d="M43.5085 48.7147C45.4026 48.2919 47.0461 48.2919 48.4368 48.7237C49.9284 49.1869 50.7076 50.2375 50.7076 51.7883C50.7076 51.8713 50.6841 51.9488 50.6433 52.0145L50.6242 52.0425L50.6384 52.0642C50.6619 52.1022 50.6798 52.1444 50.6906 52.1899L50.6963 52.2176C50.7361 52.4514 50.5789 52.6733 50.3451 52.7132L50.1244 52.7501C47.8685 53.1194 46.3921 53.1146 45.6261 52.6915C44.8479 52.2617 44.062 51.1412 43.2127 49.3149C43.097 49.0663 43.2409 48.7744 43.5085 48.7147ZM48.182 49.544C47.0912 49.2052 45.7971 49.1659 44.298 49.432L44.2276 49.4447L44.2431 49.4756C44.9064 50.8061 45.5077 51.6248 46.0102 51.9218L46.0414 51.9397C46.5467 52.2187 47.7504 52.2386 49.5965 51.9633L49.8697 51.9211L49.8629 51.8981C49.8559 51.8718 49.8514 51.8445 49.8496 51.8165L49.8487 51.7883C49.8487 50.6149 49.3154 49.8959 48.182 49.544Z" fill="#00160A"/>
<path fill-rule="evenodd" clip-rule="evenodd" d="M58.3344 44.2391C58.5528 44.2429 58.7337 44.4101 58.7545 44.6276C58.9057 46.2078 58.708 47.4082 58.133 48.2252C57.5127 49.1066 56.3138 49.3848 54.5919 49.1282C54.3667 49.0947 54.2086 48.8919 54.2272 48.6682L54.2289 48.6536L54.2072 48.6477C54.1112 48.6174 54.0257 48.5534 53.97 48.4619L53.9555 48.4363C53.3615 47.2938 53.6386 46.2319 54.7294 45.3837C55.7171 44.6156 56.8911 44.2336 58.2357 44.2381L58.3344 44.2391ZM57.9334 45.1701L57.9297 45.1038L57.928 45.1039C56.9015 45.153 56.015 45.4722 55.2566 46.062C54.4823 46.664 54.3218 47.2791 54.7176 48.0402C54.7541 48.1104 54.7693 48.186 54.7656 48.2596L54.7635 48.2852L54.7977 48.2903C56.1601 48.4813 57.0137 48.2846 57.4083 47.7616L57.4306 47.731C57.8176 47.181 57.9918 46.3282 57.9334 45.1701Z" fill="#00160A"/>
<path d="M22.1126 64.1272C22.6228 64.1443 22.8144 64.7156 22.5173 65.2897C22.3116 65.6872 21.8087 66.105 21.2893 66.3507C20.9928 66.491 20.649 66.5094 20.2666 66.413C20.1286 66.3783 20.0449 66.2382 20.0796 66.1002C20.1144 65.9622 20.2545 65.8785 20.3925 65.9133C20.6658 65.9821 20.4532 65.6032 20.4375 65.4617C20.4219 65.3203 20.5239 65.1929 20.6653 65.1773C20.9245 65.1486 21.06 65.0145 21.1915 64.9245C21.2284 64.8992 21.2765 64.8489 21.3441 64.7644L21.4207 64.6653L21.4471 64.6302C21.7377 64.2443 21.8515 64.127 22.086 64.1267L22.1126 64.1272Z" fill="white"/>
<path fill-rule="evenodd" clip-rule="evenodd" d="M22.1126 64.1272C22.6228 64.1443 22.8144 64.7156 22.5173 65.2897C22.3116 65.6872 21.8087 66.105 21.2893 66.3507C20.9928 66.491 20.649 66.5094 20.2666 66.413C20.1286 66.3783 20.0449 66.2382 20.0796 66.1002C20.1144 65.9622 20.2545 65.8785 20.3925 65.9133C20.6658 65.9821 20.8885 65.9702 21.0689 65.8849C21.495 65.6832 21.9131 65.3359 22.0596 65.0528C22.144 64.8897 22.1621 64.762 22.1365 64.6857C22.131 64.6691 22.1251 64.6584 22.1183 64.6518L22.1116 64.6465L22.1026 64.6534C22.0952 64.6593 22.0868 64.6666 22.0775 64.6752L22.0631 64.6892C22.02 64.7323 21.9808 64.7797 21.9044 64.88L21.8014 65.016C21.6753 65.1809 21.5873 65.2781 21.4826 65.3498C21.2734 65.4929 21.059 65.6522 20.722 65.6895C20.5805 65.7052 20.4532 65.6032 20.4375 65.4617C20.4219 65.3203 20.5239 65.1929 20.6653 65.1773C20.9245 65.1486 21.06 65.0145 21.1915 64.9245C21.2284 64.8992 21.2765 64.8489 21.3441 64.7644L21.4207 64.6653L21.4471 64.6302C21.7377 64.2443 21.8515 64.127 22.086 64.1267L22.1126 64.1272Z" fill="#00160A"/>
<path fill-rule="evenodd" clip-rule="evenodd" d="M22.2969 65.2757C22.6101 65.2862 22.725 65.5609 22.6998 65.8825C22.681 66.1224 22.5841 66.3791 22.4373 66.5428C22.2513 66.7501 21.9917 66.9282 21.6401 67.1119L21.5686 67.1487C21.4416 67.2131 21.3539 67.2546 21.1217 67.362C20.8369 67.4938 20.4575 67.541 19.9803 67.5119C19.8382 67.5032 19.7301 67.381 19.7388 67.2389C19.7474 67.0969 19.8696 66.9888 20.0117 66.9975C20.4111 67.0219 20.71 66.9847 20.9053 66.8943L21.1474 66.7813C21.218 66.7478 21.2718 66.7214 21.3355 66.689C21.6714 66.5187 21.9078 66.3613 22.0537 66.1987C22.1136 66.1319 22.1661 66.0005 22.1825 65.876L22.186 65.8422L22.1864 65.8352L22.1663 65.8472C22.1166 65.8962 21.4913 66.2724 21.4237 66.2859C20.5439 66.4608 20.7043 66.391 20.3673 66.4282C20.2258 66.4439 20.0985 66.3419 20.0828 66.2004C20.0672 66.059 20.1692 65.9316 20.3106 65.916C20.4038 65.9057 20.5789 66.0719 20.773 66.0565C20.9388 66.0434 21.3495 65.8324 21.3495 65.8324L21.5266 65.6846C21.5704 65.6482 21.6083 65.6173 21.6448 65.5883L21.7318 65.5211C21.9559 65.3524 22.1217 65.2698 22.2969 65.2757Z" fill="#00160A"/>
<path fill-rule="evenodd" clip-rule="evenodd" d="M21.3959 67.785C21.7453 67.6578 22.0321 67.9704 22.1664 68.2693C22.3122 68.5935 22.1333 68.8794 21.7947 69.0887C21.5653 69.2306 21.2536 69.3387 21.021 69.3649C20.6931 69.4019 20.3033 69.2924 19.8432 69.0474C19.7176 68.9805 19.6699 68.8245 19.7368 68.6989C19.8037 68.5732 19.9597 68.5256 20.0854 68.5925C20.462 68.793 20.7574 68.876 20.9632 68.8528C21.12 68.8351 21.3589 68.7522 21.5238 68.6503C21.6058 68.5996 21.9561 68.2693 21.5723 68.2693C21.4275 68.2693 21.2622 68.189 21.242 68.1153C21.2218 68.0417 21.2622 67.8337 21.3959 67.785Z" fill="#00160A"/>
<path fill-rule="evenodd" clip-rule="evenodd" d="M26.3025 62.3412C26.3584 62.313 26.4426 62.3621 26.4496 62.4214L26.4499 62.4343L26.4299 62.6369L27.0246 62.341C27.0554 62.3245 27.1049 62.3351 27.1421 62.3645L27.1554 62.3763C27.1894 62.4102 27.1952 62.4504 27.1711 62.472L27.1606 62.4792L26.3713 62.8553C26.3074 62.8832 26.2186 62.8341 26.2165 62.7749L26.2173 62.762L26.1882 62.6369L25.5835 62.8551C25.5213 62.881 25.4445 62.8417 25.4402 62.7864L25.4405 62.7734L25.4276 62.619L24.6868 62.8556C24.6171 62.8817 24.5461 62.8375 24.557 62.7803L24.5606 62.7679L24.5708 62.619L23.9766 62.8295C23.908 62.8563 23.8424 62.8193 23.8523 62.7645L23.8559 62.7515L23.8897 62.5982L23.3421 62.7541C23.2775 62.7766 23.222 62.7466 23.2293 62.6974L23.2324 62.6847L23.2912 62.5141L22.8523 62.619C22.8048 62.6301 22.7671 62.6134 22.7617 62.581L22.7612 62.5682C22.7644 62.5321 22.8008 62.4941 22.8455 62.4773L22.8626 62.4721L23.4131 62.3366C23.4683 62.3227 23.5101 62.3526 23.5045 62.3975L23.5017 62.4101L23.4544 62.563L24.0458 62.3407C24.1075 62.3164 24.1647 62.3535 24.1572 62.4073L24.1542 62.42L24.0869 62.6248L24.7442 62.342C24.8067 62.3134 24.8749 62.3575 24.8679 62.4158L24.8651 62.4285L24.7949 62.6467L25.5236 62.3408C25.5791 62.3158 25.6491 62.3551 25.6562 62.4101L25.6566 62.423L25.6408 62.6504L26.3025 62.3412Z" fill="#FFB61D"/>
<ellipse cx="27.4525" cy="36.3738" rx="1.77642" ry="0.499115" transform="rotate(8.98977 27.4525 36.3738)" fill="#FFB61D"/>
<path fill-rule="evenodd" clip-rule="evenodd" d="M13.3733 47.7997L13.6833 48.4513L14.3789 48.6434L13.855 49.1396L13.8872 49.8605L13.2534 49.5156L12.5777 49.7689L12.7099 49.0596L12.2601 48.4953L12.9757 48.4018L13.3733 47.7997Z" fill="#00160A"/>
<path fill-rule="evenodd" clip-rule="evenodd" d="M18.3932 46.5966L18.6173 47.0945L19.1232 47.2397L18.7404 47.6208L18.762 48.1723L18.3014 47.91L17.8088 48.1056L17.9069 47.5625L17.5809 47.1318L18.1021 47.0585L18.3932 46.5966Z" fill="#00160A"/>
<path fill-rule="evenodd" clip-rule="evenodd" d="M21.8293 56.904L22.0533 57.4018L22.5592 57.5471L22.1765 57.9281L22.198 58.4797L21.7374 58.2174L21.2448 58.413L21.3429 57.8698L21.0169 57.4392L21.5381 57.3658L21.8293 56.904Z" fill="#00160A"/>
<path fill-rule="evenodd" clip-rule="evenodd" d="M36.7746 53.4682L36.9986 53.9661L37.5045 54.1113L37.1218 54.4923L37.1433 55.0439L36.6827 54.7816L36.1901 54.9772L36.2882 54.434L35.9622 54.0034L36.4835 53.93L36.7746 53.4682Z" fill="#00160A"/>
<path fill-rule="evenodd" clip-rule="evenodd" d="M14.6139 69.9597L14.838 70.4575L15.3439 70.6027L14.9611 70.9838L14.9827 71.5353L14.5221 71.273L14.0295 71.4687L14.1276 70.9255L13.8016 70.4949L14.3228 70.4215L14.6139 69.9597Z" fill="#00160A"/>
<path fill-rule="evenodd" clip-rule="evenodd" d="M14.4542 74.4267L14.7281 75.0352L15.3464 75.2127L14.8786 75.6784L14.9049 76.3525L14.342 76.0319L13.7399 76.2711L13.8598 75.6072L13.4614 75.0809L14.0984 74.9912L14.4542 74.4267Z" fill="#00160A"/>
<path fill-rule="evenodd" clip-rule="evenodd" d="M19.6081 71.8498L19.8819 72.4583L20.5002 72.6358L20.0324 73.1015L20.0588 73.7756L19.4958 73.455L18.8937 73.6942L19.0136 73.0303L18.6152 72.504L19.2522 72.4143L19.6081 71.8498Z" fill="#00160A"/>
<path fill-rule="evenodd" clip-rule="evenodd" d="M26.4792 69.7883L26.753 70.3968L27.3713 70.5743L26.9035 71.04L26.9299 71.7141L26.3669 71.3935L25.7648 71.6326L25.8847 70.9688L25.4863 70.4424L26.1233 70.3527L26.4792 69.7883Z" fill="#00160A"/>
<path fill-rule="evenodd" clip-rule="evenodd" d="M16.2938 55.3585L16.6038 56.0101L17.2993 56.2023L16.7754 56.6985L16.8076 57.4193L16.1738 57.0744L15.4981 57.3278L15.6303 56.6184L15.1806 56.0541L15.8961 55.9606L16.2938 55.3585Z" fill="#00160A"/>
<path fill-rule="evenodd" clip-rule="evenodd" d="M17.1526 50.5484L17.4626 51.2001L18.1582 51.3922L17.6343 51.8884L17.6665 52.6093L17.0327 52.2643L16.357 52.5177L16.4892 51.8083L16.0394 51.2441L16.755 51.1506L17.1526 50.5484Z" fill="#00160A"/>
<path fill-rule="evenodd" clip-rule="evenodd" d="M24.8831 53.4689L25.1931 54.1205L25.8887 54.3126L25.3647 54.8088L25.3969 55.5297L24.7631 55.1847L24.0875 55.4381L24.2197 54.7287L23.7699 54.1645L24.4854 54.071L24.8831 53.4689Z" fill="#00160A"/>
<path fill-rule="evenodd" clip-rule="evenodd" d="M29.3494 51.2355L29.6594 51.8871L30.355 52.0792L29.831 52.5754L29.8632 53.2963L29.2294 52.9513L28.5538 53.2047L28.686 52.4953L28.2362 51.9311L28.9517 51.8376L29.3494 51.2355Z" fill="#00160A"/>
<path fill-rule="evenodd" clip-rule="evenodd" d="M27.9754 58.107L28.2854 58.7587L28.981 58.9508L28.457 59.447L28.4892 60.1679L27.8554 59.8229L27.1798 60.0763L27.312 59.3669L26.8622 58.8026L27.5777 58.7092L27.9754 58.107Z" fill="#00160A"/>
<path fill-rule="evenodd" clip-rule="evenodd" d="M16.6375 60.3402L16.9475 60.9918L17.6431 61.184L17.1191 61.6801L17.1513 62.401L16.5175 62.0561L15.8419 62.3095L15.9741 61.6001L15.5243 61.0358L16.2398 60.9423L16.6375 60.3402Z" fill="#00160A"/>
<path fill-rule="evenodd" clip-rule="evenodd" d="M12.215 52.7812L12.4925 53.3364L13.1117 53.5017L12.6471 53.9224L12.6777 54.5357L12.1129 54.2405L11.5126 54.4542L11.6283 53.8511L11.2267 53.3699L11.8629 53.2923L12.215 52.7812Z" fill="#00160A"/>
<path fill-rule="evenodd" clip-rule="evenodd" d="M9.1227 56.3887L9.40024 56.9438L10.0195 57.1091L9.55477 57.5298L9.58539 58.1431L9.02066 57.8479L8.42036 58.0616L8.53603 57.4586L8.1344 56.9773L8.77061 56.8998L9.1227 56.3887Z" fill="#00160A"/>
<path fill-rule="evenodd" clip-rule="evenodd" d="M31.6526 47.3821C31.661 47.6191 31.4603 47.8176 31.2231 47.8116C30.0383 47.7815 29.8499 45.7442 29.9636 45.7359C30.1209 45.7245 30.3897 46.6923 30.9187 47.0448C31.3221 47.3136 31.6295 46.729 31.6526 47.3821Z" fill="#00160A"/>
<path fill-rule="evenodd" clip-rule="evenodd" d="M57.6505 51.6033C60.4439 50.6716 62.8476 50.6369 64.8479 51.5183C65.2164 51.6806 65.1789 52.2152 64.7914 52.3246L64.644 52.3672C64.0687 52.5374 63.6674 52.7051 63.4513 52.8573L63.4078 52.8895L63.3903 52.9031C63.2272 53.0304 63.0532 53.1965 62.8244 53.439L62.1331 54.189C62.1009 54.2235 62.0729 54.2533 62.0511 54.2763C61.122 55.2524 60.3149 55.823 59.2726 56.0719C57.8455 56.4127 56.3309 56.2471 54.7394 55.5839C54.6116 55.5307 54.5232 55.4229 54.4898 55.2989L54.489 55.2955L54.4664 55.2857C54.3126 55.2113 54.2135 55.0491 54.225 54.8718L54.2278 54.8436C54.4198 53.3688 55.5887 52.2911 57.6505 51.6033ZM63.2718 51.9056C61.7386 51.5714 59.9576 51.7392 57.9222 52.4182C56.2565 52.9738 55.3443 53.7516 55.1168 54.7458L55.104 54.8051L55.1694 54.8319C56.5295 55.3805 57.7988 55.5195 58.9863 55.2564L59.0731 55.2364C59.8954 55.04 60.5635 54.5791 61.3565 53.7596L61.466 53.6448C61.6527 53.446 62.0927 52.9638 62.1468 52.9059C62.4286 52.6041 62.644 52.396 62.8617 52.226L62.9089 52.1898C63.0192 52.1069 63.1533 52.0266 63.3116 51.9484L63.3591 51.9253L63.2718 51.9056Z" fill="#00160A"/>
<path fill-rule="evenodd" clip-rule="evenodd" d="M63.9503 0.0907947C64.1448 -0.0449836 64.4125 0.00260431 64.5483 0.197085C64.6841 0.391566 64.4645 0.671353 64.27 0.807132C63.6222 1.25939 62.0615 2.73675 61.742 3.07512L61.4349 3.4022C60.8319 4.05158 53.6488 11.5211 53.4763 11.3583C53.3181 11.2091 60.3268 3.50204 60.8527 2.93879L60.8725 2.91754C61.3694 2.3874 61.8283 1.90943 62.2675 1.46682C62.7023 1.02864 63.263 0.570613 63.9503 0.0907947Z" fill="#00160A"/>
</svg>
