<svg width="20" height="20" viewBox="0 0 20 20" fill="none" xmlns="http://www.w3.org/2000/svg">
<path d="M16.6667 5.62508C17.9323 5.62508 18.9583 4.59907 18.9583 3.33341C18.9583 2.06776 17.9323 1.04175 16.6667 1.04175C15.401 1.04175 14.375 2.06776 14.375 3.33341C14.375 4.59907 15.401 5.62508 16.6667 5.62508Z" fill="white"/>
<path d="M15.8667 6.79175C14.5584 6.50841 13.4917 5.44175 13.2084 4.13341C13.1001 3.62508 13.0917 3.13341 13.1834 2.66675C13.2917 2.15008 12.9084 1.66675 12.3751 1.66675H5.83342C3.53341 1.66675 1.66675 3.53341 1.66675 5.83342V11.6251C1.66675 13.9251 3.53341 15.7917 5.83342 15.7917H7.08342C7.31675 15.7917 7.61675 15.9417 7.75008 16.1251L9.00008 17.7834C9.55008 18.5167 10.4501 18.5167 11.0001 17.7834L12.2501 16.1251C12.4084 15.9167 12.6501 15.7917 12.9167 15.7917H14.1751C16.4751 15.7917 18.3334 13.9334 18.3334 11.6334V7.62508C18.3334 7.10008 17.8501 6.71675 17.3334 6.81675C16.8667 6.90008 16.3751 6.90008 15.8667 6.79175ZM6.66675 10.0001C6.20008 10.0001 5.83342 9.62508 5.83342 9.16675C5.83342 8.70842 6.20008 8.33342 6.66675 8.33342C7.12508 8.33342 7.50008 8.70842 7.50008 9.16675C7.50008 9.62508 7.13341 10.0001 6.66675 10.0001ZM10.0001 10.0001C9.53342 10.0001 9.16675 9.62508 9.16675 9.16675C9.16675 8.70842 9.53342 8.33342 10.0001 8.33342C10.4584 8.33342 10.8334 8.70842 10.8334 9.16675C10.8334 9.62508 10.4667 10.0001 10.0001 10.0001ZM13.3334 10.0001C12.8667 10.0001 12.5001 9.62508 12.5001 9.16675C12.5001 8.70842 12.8667 8.33342 13.3334 8.33342C13.7917 8.33342 14.1667 8.70842 14.1667 9.16675C14.1667 9.62508 13.8001 10.0001 13.3334 10.0001Z" fill="white"/>
</svg>
