<svg width="268" height="268" viewBox="0 0 268 268" fill="none" xmlns="http://www.w3.org/2000/svg">
<rect width="268" height="268" fill="white"/>
<path fill-rule="evenodd" clip-rule="evenodd" d="M121.298 102.982C120.724 102.179 119.278 101.416 118.012 101.479C116.746 101.542 115.553 102.065 114.417 102.622C115.285 103.255 116.261 103.741 117.291 104.055C117.617 104.154 118.354 104.446 119.945 103.789" fill="#E7EAEE"/>
<path fill-rule="evenodd" clip-rule="evenodd" d="M32.1222 190.283C-0.522268 145.991 86.9257 134.079 138.871 100.077C167.176 81.5482 180.122 61.2794 204.587 61.8298C254.602 62.955 256.648 157.43 246.027 174.402C205.979 238.397 45.6339 208.615 32.1222 190.283Z" fill="#EFFEFB"/>
<path fill-rule="evenodd" clip-rule="evenodd" d="M136.144 130.316C147.053 130.316 158.153 131.347 167.943 136.24C169.097 136.817 170.429 137.888 170.013 139.123C169.856 139.586 169.475 139.93 169.095 140.233C164.659 143.777 158.762 144.677 153.149 145.314C150.967 145.561 148.784 145.788 146.596 145.971C129.24 147.424 111.665 146.148 94.6901 142.203C93.6907 141.97 92.5266 141.575 92.2491 140.574C91.9117 139.357 93.1321 138.318 94.2127 137.688C102.574 132.814 112.13 130.064 121.77 129.758C120.055 130.025 144.591 130.379 136.144 130.316Z" fill="white"/>
<path fill-rule="evenodd" clip-rule="evenodd" d="M198.733 95.6857C196.481 100.219 194.599 105.022 194.081 110.063C194.058 110.281 194.041 110.512 194.142 110.706C194.346 111.097 194.884 111.116 195.322 111.088C205.46 110.42 215.939 112.415 224.54 117.862C227.48 119.724 230.18 121.968 233.229 123.643C233.364 123.716 233.517 123.791 233.664 123.748C233.812 123.705 233.902 123.557 233.977 123.421C235.829 120.053 237.47 116.566 238.887 112.989C239.389 111.721 239.868 110.423 239.992 109.063C240.306 105.641 238.054 102.149 234.823 101.046C226.542 98.2187 218.261 95.3916 209.98 92.5645C208.466 92.0478 206.932 91.5268 205.338 91.4114C203.744 91.296 202.056 91.6297 200.827 92.6587C199.881 93.4506 199.283 94.5776 198.733 95.6857Z" fill="white"/>
<path d="M168.29 203.305C168.273 204.159 170.321 204.793 170.947 204.209C171.573 203.626 171.647 202.679 171.68 201.825C172.126 190.323 172.215 179.171 171.978 167.663L202.202 175.483L200.851 206.038C200.81 206.904 202.151 207.226 202.805 206.656C203.459 206.085 203.566 205.127 203.627 204.262C204.249 195.361 204.36 186.42 204.85 177.526C205.109 172.813 211.173 172.813 217.065 167.002C219.999 164.109 222.503 160.117 222.503 160.117C222.969 170.923 223.868 181.757 223.057 192.543C222.995 193.363 224.266 193.696 224.893 193.163C225.496 192.651 225.621 191.792 225.683 190.999L225.691 190.9C226.526 179.609 227.49 155.446 228.693 139.619C229.149 133.626 230.439 127.885 231.195 124.478C231.528 122.975 230.484 123 228.396 122.062C227.541 121.678 225.629 124.494 224.763 132.487L224.719 132.907C224.406 136.087 224.133 142.088 223.9 150.911C223.522 152.933 221.244 153.4 217.065 152.313L216.901 152.27C212.619 151.128 206.05 149.042 197.194 146.014L197.133 145.179C196.168 131.766 196.496 122.392 198.119 117.058L198.169 116.894C200.719 108.773 196.462 112.131 195.978 112.779C192.739 117.122 192.042 122.672 192.063 127.676L192.124 142.719C192.124 144.29 192.049 145.929 191.188 147.231C190.45 148.349 189.241 149.047 188.058 149.688L173.44 157.594C172.092 158.328 170.751 159.105 169.691 160.206C168.524 161.418 167.73 163.106 168 164.764C168.179 165.869 168.631 166.73 169.355 167.345L169.09 175.082C168.687 187.133 168.42 196.54 168.29 203.305Z" fill="white"/>
<path d="M96.8514 204.019C96.8679 204.873 95.5346 205.15 94.9089 204.567C94.2831 203.983 94.2091 203.036 94.1759 202.182C93.7298 190.68 93.2837 179.171 93.5204 167.663C83.427 170.683 73.3335 173.704 63.2401 176.725C63.7092 186.496 64.1783 196.267 64.6475 206.038C64.689 206.904 63.3473 207.226 62.6934 206.656C62.0395 206.085 61.9323 205.126 61.8718 204.262C61.2492 195.361 60.8414 186.446 60.6489 177.525C60.6249 176.414 59.7454 175.533 58.9266 174.779C53.6163 169.892 48.3061 165.004 42.9958 160.116C42.5301 170.923 42.7031 181.757 43.5136 192.543C43.5752 193.363 42.3045 193.696 41.6772 193.163C41.0498 192.63 40.9405 191.72 40.8799 190.9C39.5738 173.235 40.4595 155.463 39.1415 137.799C38.8247 133.553 38.366 129.254 36.8052 125.291C39.5998 124.642 72.2461 117.924 69.4803 113.678C73.2078 117.026 73.4567 122.672 73.436 127.676C73.4157 132.586 73.3953 137.496 73.375 142.406C73.3681 144.069 73.3922 145.842 74.3101 147.231C75.0783 148.393 76.3552 149.102 77.5822 149.765C82.2731 152.302 86.964 154.838 91.655 157.375C93.1354 158.175 94.6414 158.995 95.808 160.206C96.9746 161.418 97.7687 163.106 97.4991 164.764C97.2295 166.422 95.6536 167.892 93.9846 167.668C95.753 168.044 95.5821 167.646 96.1438 167.345C96.3797 179.57 96.6155 191.795 96.8514 204.019Z" fill="white"/>
<path d="M38.9778 128.415C38.4919 126.946 38.006 125.476 37.52 124.007C38.1969 124.176 62.3073 115.659 66.7417 114.371C67.1752 114.245 67.4207 114.188 67.4378 114.216C70.3487 118.819 70.4161 124.601 70.3919 130.046C70.3694 135.103 70.3469 140.16 70.3244 145.217C70.3195 146.331 70.095 147.744 69.014 148.016C62.6175 149.626 56.3117 151.595 50.1366 153.913C48.3156 154.596 46.4117 155.323 44.4816 155.081C43.4669 154.954 42.5066 154.564 41.5599 154.178C40.9457 153.927 40.227 153.53 40.2288 152.867C40.2432 147.448 40.2575 142.029 40.2719 136.609C40.2757 135.173 40.2789 133.728 40.0451 132.311C39.8257 130.981 39.401 129.695 38.9778 128.415Z" fill="white"/>
<path fill-rule="evenodd" clip-rule="evenodd" d="M133.856 0.241122C133.688 0.287861 133.422 0.25607 133.449 0.0837967C133.55 0.0322639 133.662 -0.020761 133.771 0.00821714C133.88 0.0371952 133.951 0.195072 133.863 0.266074L133.856 0.241122Z" fill="#00160A"/>
<path fill-rule="evenodd" clip-rule="evenodd" d="M27.1595 113.304L30.4239 121.756C30.738 122.569 31.0876 123.429 31.7996 123.936C32.9889 124.782 34.6326 124.307 35.992 123.771C38.7576 122.683 41.4702 121.466 44.1827 120.25L44.1828 120.25L44.1828 120.25C47.13 118.929 50.077 117.608 53.0918 116.45C58.8813 114.226 65.0232 112.6 71.2222 112.88C72.2119 112.924 73.0255 111.991 73.201 111.02C73.3765 110.049 73.0793 109.063 72.7853 108.121L70.5688 101.018C69.8137 98.5984 69.0206 96.1081 67.3823 94.1692C65.7439 92.2302 63.026 90.9643 60.6128 91.7688L31.4077 101.505C27.9695 102.651 25.6352 106.43 26.1588 110.002C26.3259 111.142 26.7442 112.229 27.1595 113.304ZM65.7059 93.4303C68.089 95.4982 69.2188 98.6159 70.2035 101.607C71.0472 104.169 71.8544 106.746 72.4682 109.373C72.6037 109.952 72.7297 110.559 72.5859 111.137C72.4422 111.715 71.9457 112.25 71.348 112.238C65.4698 112.114 59.645 113.479 54.1021 115.432C50.0427 116.861 46.1067 118.605 42.1708 120.348L42.1708 120.348L42.1705 120.348L42.17 120.348C40.7318 120.985 39.2937 121.622 37.8495 122.244C36.6862 122.744 35.504 123.24 34.2521 123.435C33.2416 123.593 31.9364 123.361 31.6664 122.378C31.1957 120.667 30.4952 119.033 29.7942 117.399L29.7942 117.399C29.3329 116.323 28.8714 115.247 28.4751 114.148C27.4764 111.379 26.9027 108.297 27.8533 105.511C28.1479 104.648 28.6008 103.812 29.3063 103.231C29.9317 102.716 30.7124 102.433 31.4765 102.16C40.9078 98.7958 50.4046 95.6137 59.9598 92.6162C61.0042 92.2886 62.0951 91.9592 63.1769 92.1282C64.127 92.2767 64.9808 92.8012 65.7059 93.4303ZM37.5201 124.007L38.9779 128.415C39.4011 129.695 39.8258 130.981 40.0452 132.311C40.279 133.728 40.2758 135.173 40.272 136.609L40.2289 152.867C40.2271 153.53 40.9458 153.927 41.56 154.178C42.5067 154.564 43.467 154.954 44.4816 155.081C46.3887 155.32 48.2701 154.613 50.0713 153.937L50.1367 153.913C56.3118 151.595 62.6175 149.626 69.0141 148.016C70.0951 147.744 70.3196 146.331 70.3245 145.217L70.392 130.046C70.4162 124.6 70.3488 118.819 67.4379 114.215C67.2451 113.91 66.9182 113.571 66.5846 113.709C68.2007 116.526 69.2115 119.688 69.529 122.919C69.6751 124.406 69.6762 125.903 69.6772 127.396L69.689 145.243C69.6896 146.142 69.5153 147.284 68.6443 147.51C63.1134 148.949 57.5672 150.393 52.2453 152.476C52.036 152.557 51.8258 152.641 51.615 152.724L51.6148 152.724L51.6146 152.724L51.6143 152.724L51.6141 152.724L51.6139 152.724C48.9667 153.77 46.2042 154.862 43.4286 154.351C42.122 154.11 40.6931 153.223 40.7191 151.896L40.9186 141.712C41.0249 136.282 41.0975 130.666 38.9879 125.661C38.6906 124.955 38.2632 124.192 37.5201 124.007ZM71.4668 150.163C64.5551 151.321 57.7695 153.19 51.2598 155.728C50.1931 156.144 49.1339 156.578 48.0747 157.011L46.5653 157.63C46.2227 157.293 46.7362 156.784 47.1791 156.587C54.5085 153.32 62.2973 151.03 70.2601 149.801C70.7132 149.731 71.3125 149.742 71.4668 150.163ZM61.4827 102.197C61.405 102.568 61.5483 102.962 61.7873 103.251C62.0478 103.567 62.4915 103.786 62.8564 103.609C63.3658 103.363 63.3288 102.578 63.0278 102.09C62.8544 101.808 62.5907 101.55 62.2669 101.529C61.8975 101.506 61.5603 101.826 61.4827 102.197ZM62.569 103.076C62.3058 103.194 61.9634 102.935 61.9955 102.642C62.0275 102.35 62.4173 102.175 62.6485 102.35C62.8796 102.525 62.8322 102.958 62.569 103.076ZM46.4223 107.948C46.0347 107.505 45.9528 106.695 46.3949 106.318C46.4804 106.245 46.5819 106.191 46.6897 106.177C46.9344 106.146 47.1605 106.316 47.3434 106.497C47.7494 106.897 48.0829 107.592 47.741 108.058C47.4287 108.483 46.7673 108.343 46.4223 107.948ZM47.1292 106.971C47.0362 106.875 46.9239 106.771 46.797 106.791C46.5535 106.828 46.559 107.225 46.6773 107.46C46.8106 107.725 47.1363 107.971 47.3389 107.764C47.5469 107.553 47.3356 107.185 47.1292 106.971ZM39.1795 109.517C38.9592 109.7 38.9319 110.014 38.9572 110.291C38.9869 110.615 39.0727 110.947 39.2889 111.199C39.5052 111.451 39.8755 111.604 40.2006 111.501C40.5135 111.403 40.7147 111.089 40.7342 110.777C40.7538 110.464 40.6189 110.158 40.4312 109.901C40.1486 109.513 39.5532 109.207 39.1795 109.517ZM39.6051 110.014C39.7969 109.885 40.139 110.101 40.0169 110.292L40.1159 110.489C40.3629 110.518 40.3161 110.934 40.0738 110.988C39.8315 111.042 39.6004 110.843 39.503 110.626C39.4109 110.42 39.4132 110.143 39.6051 110.014ZM53.0881 98.3349C53.3385 98.3801 53.5931 98.4655 53.7703 98.6475C53.9474 98.8295 54.0231 99.1278 53.8894 99.3436C53.7739 99.53 53.5444 99.6074 53.3309 99.6592C53.0182 99.7351 52.6852 99.7847 52.3782 99.6885C52.0713 99.5924 51.8017 99.3129 51.8138 98.9924C51.8343 98.4507 52.5529 98.2382 53.0881 98.3349ZM52.8821 98.8817C52.6615 98.7584 52.3405 98.8978 52.2808 99.1428C52.6514 99.3656 53.1523 99.3507 53.5089 99.1062C53.434 98.877 53.1252 98.7609 52.9171 98.8839L52.8821 98.8817ZM95.7797 203.304L95.0721 166.63C94.5104 166.931 94.4521 167.697 94.4657 168.333L95.2299 203.91C94.1986 203.981 93.7988 202.609 93.7554 201.578C93.269 190.043 92.9881 178.499 92.9129 166.953C94.5819 167.177 96.1578 165.707 96.4274 164.049C96.697 162.391 95.9029 160.703 94.7363 159.491C93.5697 158.28 92.0637 157.46 90.5832 156.66L76.5105 149.05C75.2835 148.387 74.0066 147.679 73.2384 146.516C72.3205 145.127 72.2964 143.355 72.3033 141.691L72.3643 126.961C72.385 121.958 72.1361 116.312 68.4086 112.963C71.1744 117.209 71.8906 122.467 71.9103 127.531C71.9177 129.44 71.8365 131.35 71.7553 133.259C71.621 136.415 71.4869 139.569 71.7532 142.713C71.8792 144.201 72.1173 145.742 72.962 146.976C73.6419 147.969 74.6577 148.677 75.6769 149.319C78.0945 150.842 80.6669 152.125 83.2357 153.406L83.2357 153.406C87.2638 155.415 91.2828 157.42 94.6813 160.337C95.5397 161.073 96.1784 162.748 95.0855 163.044C84.1868 165.994 73.4227 169.439 62.8375 173.364C62.0184 173.668 61.1741 173.037 60.5283 172.45L43.5339 156.993C42.9207 156.435 41.8549 156.802 41.4107 157.501C40.9665 158.2 40.9661 159.081 40.9801 159.909L41.5302 192.498C40.38 191.39 40.2197 189.637 40.1425 188.044C39.7792 180.551 39.6943 173.045 39.6094 165.54C39.4866 154.691 39.3639 143.844 38.4002 133.041C38.1327 130.044 37.7147 126.846 35.7334 124.576C37.2942 128.539 37.7529 132.838 38.0698 137.084C38.7305 145.94 38.8374 154.823 38.9443 163.706C39.0506 172.541 39.1569 181.377 39.8082 190.185C39.8688 191.005 39.9781 191.915 40.6054 192.448C41.2328 192.981 42.5035 192.648 42.4419 191.829C41.6313 181.042 41.4584 170.208 41.9241 159.402L57.8549 174.065C58.6737 174.818 59.5532 175.7 59.5772 176.811C59.7697 185.731 60.1775 194.646 60.8001 203.547C60.8606 204.412 60.9677 205.37 61.6216 205.941C62.2755 206.511 63.6173 206.189 63.5757 205.324L62.1683 176.01L92.4487 166.948C92.2119 178.456 92.6581 189.966 93.1042 201.467C93.1373 202.321 93.2114 203.269 93.8372 203.852C94.4629 204.435 95.7961 204.158 95.7797 203.304ZM59.5367 175.029L42.2848 158.65C41.9903 158.37 41.6717 157.955 41.8755 157.604C42.1477 157.135 42.866 157.464 43.268 157.829L61.5858 174.43C72.7664 170.435 84.0853 166.826 95.5155 163.61C95.8278 164.038 95.6533 164.676 95.2732 165.045C94.8931 165.415 94.3649 165.582 93.8574 165.736L62.6936 175.239C62.3013 175.359 61.8742 175.505 61.6628 175.855C61.4965 176.131 61.5027 176.473 61.5148 176.795C61.6451 180.268 61.8663 183.739 62.0875 187.21C62.4902 193.529 62.8928 199.847 62.7465 206.175C60.8659 202.876 60.7495 198.901 60.6806 195.107L60.3685 177.907C60.3498 176.88 60.2823 175.737 59.5367 175.029ZM37.96 105.352C37.836 105.431 37.6863 105.458 37.5402 105.459C37.0989 105.462 36.6458 105.198 36.4946 104.777C36.3435 104.355 36.5731 103.81 36.9999 103.696C37.3279 103.608 37.6787 103.775 37.9178 104.019C38.2722 104.382 38.3868 105.082 37.96 105.352ZM37.3529 104.222C37.074 104.153 36.8936 104.603 37.0847 104.821C37.2757 105.039 37.6276 105.017 37.88 104.878L37.3613 104.232L37.3529 104.222ZM67.0104 98.3304L66.3359 97.8127C66.2016 97.7097 66.0568 97.6026 65.8926 97.5978C65.617 97.5897 65.396 97.8962 65.3922 98.1969C65.3883 98.4975 65.5499 98.7741 65.7476 98.9836C66.0253 99.278 66.4367 99.4822 66.7999 99.3356C67.1631 99.1891 67.3271 98.5734 67.0104 98.3304ZM65.8174 98.3418C65.8868 98.174 66.1431 98.1598 66.2276 98.3191L66.2638 98.3518C66.537 98.3823 66.7547 98.6944 66.7086 98.9896C66.3488 98.9134 66.0203 98.6746 65.8174 98.3418ZM55.1676 110.515C55.0605 110.311 54.9899 110.068 55.0536 109.845C55.1845 109.386 55.7984 109.285 56.2099 109.493C56.7375 109.759 57.0425 110.581 56.6113 110.997C56.1826 111.41 55.4482 111.05 55.1676 110.515ZM55.7988 110.53L56.2026 110.717C56.3934 110.549 56.3706 110.185 56.1605 110.045C55.9504 109.905 55.6263 110.037 55.562 110.289L55.7986 110.53L55.7988 110.53ZM56.4005 105.385C56.5666 105.006 56.3588 104.564 56.017 104.287C55.8172 104.126 55.5505 104.001 55.2802 104.035C54.8866 104.085 54.6365 104.469 54.6762 104.813C54.7159 105.156 54.9733 105.452 55.2644 105.688C55.6066 105.964 56.2344 105.764 56.4005 105.385ZM55.6146 104.566C55.7637 104.64 55.8454 104.785 55.9085 104.924L55.8891 104.984C56.1169 105.051 55.9271 105.397 55.6891 105.367C55.4511 105.337 55.3143 105.121 55.2235 104.928C55.1846 104.845 55.1469 104.754 55.1795 104.669C55.2339 104.527 55.4655 104.491 55.6146 104.566ZM63.0723 109.895C62.8839 109.595 62.804 109.166 63.0212 108.888C63.3573 108.457 64.0368 108.748 64.3919 109.162C64.5295 109.322 64.6565 109.509 64.6753 109.724C64.7089 110.11 64.3502 110.451 63.9824 110.461C63.6146 110.472 63.2749 110.219 63.0723 109.895ZM63.9528 109.465L63.6003 109.211C63.4563 109.349 63.4285 109.603 63.5387 109.772C63.6489 109.941 63.8832 110.005 64.0576 109.913C64.1784 109.787 64.1105 109.529 63.9451 109.486L63.9528 109.465ZM59.7714 96.0057C59.6754 96.1361 59.6664 96.3033 59.6795 96.4597C59.7108 96.8336 59.8681 97.2198 60.2014 97.4418C60.5347 97.6639 61.0648 97.6581 61.3192 97.3625C61.6463 96.9822 61.3596 96.4123 60.961 96.093C60.6221 95.8216 60.0224 95.6648 59.7714 96.0057ZM60.3329 96.4055C60.4993 96.2893 60.8081 96.4408 60.7408 96.6212L60.8503 96.6503C60.9422 96.8231 60.9392 97.0349 60.8426 97.2056C60.6432 97.1456 60.437 97.0697 60.3085 96.919C60.18 96.7683 60.1664 96.5217 60.3329 96.4055ZM30.8171 105.737C31.0597 105.36 31.6623 105.404 32.0478 105.645C32.4195 105.877 32.692 106.409 32.3839 106.716C32.2274 106.872 31.9793 106.901 31.7553 106.884C31.4533 106.86 31.1449 106.761 30.9387 106.547C30.7324 106.332 30.6569 105.986 30.8171 105.737ZM31.6306 105.945L31.2475 106.129C31.3967 106.373 31.7274 106.499 32.009 106.418C32.0485 106.213 31.8679 105.996 31.6527 105.989L31.6306 105.945ZM44.2786 101.729C44.6086 101.959 45.0654 101.918 45.4151 101.721C45.5472 101.647 45.6755 101.543 45.721 101.395C45.8066 101.117 45.5679 100.848 45.3285 100.693C44.9532 100.449 44.4062 100.327 44.1032 100.661C43.8312 100.961 43.9486 101.499 44.2786 101.729ZM44.4182 101.148C44.3999 100.983 44.6291 100.838 44.7372 100.962L44.758 100.922C44.9507 100.919 45.1402 101.04 45.2229 101.219C45.0857 101.308 44.9408 101.399 44.779 101.409C44.6171 101.419 44.4366 101.314 44.4182 101.148ZM41.3939 115.584C41.7261 115.35 42.2506 115.473 42.4444 115.83C42.6383 116.187 42.4559 116.694 42.0792 116.846C41.754 116.977 41.3421 116.829 41.1747 116.52C41.0074 116.212 41.1072 115.786 41.3939 115.584ZM42.0319 116.43C42.1103 116.163 41.8562 115.856 41.5786 115.884C41.5044 116.158 41.735 116.47 42.0183 116.479L42.0319 116.43ZM35.5608 118.057C35.4011 118.192 35.3655 118.446 35.3786 118.67C35.4147 119.288 35.9464 119.954 36.4472 119.695C36.735 119.545 36.8647 119.129 36.7798 118.786C36.6949 118.443 36.4351 118.179 36.1422 118.043C35.9546 117.956 35.7231 117.92 35.5608 118.057ZM36.1716 118.62C36.3423 118.669 36.4212 118.942 36.3086 119.095L36.4269 119.249C36.1965 119.289 35.8943 119.22 35.8493 118.963C35.8153 118.769 36.0008 118.571 36.1716 118.62ZM34.4907 113.795C34.4188 113.875 34.3285 113.939 34.2288 113.98C34.0512 114.054 33.8438 114.053 33.6665 113.979C33.2916 113.822 33.1163 113.316 33.3147 112.963C33.513 112.611 34.0389 112.493 34.3703 112.727C34.7017 112.962 34.7617 113.494 34.4907 113.795ZM34.1177 113.708C34.3507 113.536 34.1934 113.084 33.9031 113.092C33.7737 113.17 33.6759 113.298 33.6355 113.443C33.7687 113.566 33.9348 113.654 34.1121 113.695L34.1177 113.708ZM70.0229 108.032C69.9304 107.712 69.7781 107.338 69.4074 107.258C69.0095 107.173 68.6315 107.528 68.6093 107.882C68.587 108.238 68.8715 108.612 69.2794 108.669C69.6873 108.726 70.123 108.378 70.0229 108.032ZM69.4421 107.924C69.561 108.061 69.3972 108.295 69.2012 108.267L69.2242 108.2C69.0966 108.172 69.031 108.022 69.1051 107.928C69.1793 107.834 69.3652 107.832 69.4421 107.924ZM67.1916 102.766C67.0966 102.308 67.546 101.827 68.0079 101.891C68.5352 101.965 68.8049 102.727 68.4413 103.116C68.0777 103.506 67.3 103.287 67.1916 102.766ZM67.8303 102.974C68.0322 103.021 68.2567 102.835 68.2355 102.629C68.2143 102.422 67.939 102.288 67.7698 102.408C67.6006 102.528 67.6495 102.846 67.8498 102.899L67.8303 102.974ZM49.9979 112.04C49.9513 111.879 49.8501 111.735 49.7164 111.64C49.2684 111.321 48.5443 111.77 48.6005 112.332C48.6568 112.894 49.4544 113.178 49.8295 112.77C50.0036 112.581 50.0704 112.291 49.9979 112.04ZM49.0995 112.41C49.0542 112.238 49.2323 112.05 49.3978 112.095C49.5634 112.14 49.6304 112.395 49.5102 112.522C49.3899 112.648 49.1448 112.582 49.0995 112.41Z" fill="#00160A"/>
<path fill-rule="evenodd" clip-rule="evenodd" d="M207.011 94.8317C207.087 94.8885 207.137 94.9667 207.175 95.047C207.344 95.4099 207.24 95.8851 206.852 96.0902C206.464 96.2953 205.84 96.0761 205.824 95.6853C205.819 95.5604 205.871 95.4392 205.929 95.3248C206.024 95.1369 206.148 94.9498 206.345 94.8346C206.543 94.7193 206.831 94.6972 207.011 94.8317ZM206.753 95.4174C206.872 95.3844 206.834 95.1946 206.709 95.1972C206.388 95.281 206.238 95.6656 206.436 95.8983C206.595 95.7699 206.706 95.5995 206.752 95.4165L206.753 95.4174ZM221.57 101.136C221.865 101.243 222.195 101.091 222.439 100.902C222.706 100.696 222.939 100.42 222.973 100.098C223.006 99.7754 222.773 99.4177 222.428 99.3869C222.186 99.3653 221.96 99.4989 221.772 99.643C221.521 99.8363 221.286 100.074 221.21 100.37C221.134 100.666 221.266 101.025 221.57 101.136ZM222.662 100.02L221.994 100.641L221.981 100.663L221.722 100.491C221.804 100.299 221.895 100.097 222.072 99.9726C222.25 99.8487 222.543 99.845 222.662 100.02ZM228.849 104.609C228.588 104.348 228.696 103.884 228.878 103.556C229.009 103.32 229.183 103.09 229.427 102.995C229.672 102.9 229.995 102.991 230.091 103.246C230.151 103.404 230.114 103.584 230.07 103.748C229.99 104.049 229.881 104.357 229.658 104.562C229.434 104.766 229.064 104.823 228.849 104.609ZM229.739 103.7C229.765 103.646 229.788 103.587 229.779 103.528C229.769 103.467 229.721 103.415 229.663 103.403C229.295 103.512 229.044 103.946 229.12 104.34C229.385 104.204 229.606 103.976 229.739 103.7ZM226.411 110.716C226.801 111.018 227.355 110.603 227.594 110.177C227.754 109.889 227.875 109.579 227.951 109.26C227.998 109.063 228.003 108.808 227.821 108.711C227.733 108.664 227.626 108.671 227.528 108.689C226.868 108.805 226.313 109.359 226.207 110.006C226.165 110.261 226.204 110.556 226.411 110.716ZM227.498 109.305C227.53 109.403 227.46 109.503 227.394 109.583L226.726 110.399C226.611 109.918 226.904 109.376 227.375 109.198C227.432 109.208 227.481 109.251 227.498 109.305ZM169.515 160.246C169.156 161.105 169.505 162.32 170.415 162.527C179.66 164.623 188.787 167.233 197.741 170.34C200.708 171.37 204.011 172.45 206.893 171.204C208.013 170.72 208.961 169.92 209.89 169.131L219.582 160.904C216.333 165.257 212.314 169.036 207.765 172.015C206.677 172.728 205.525 173.408 204.242 173.63C202.645 173.907 201.023 173.447 199.468 172.991L172.252 165.023C171.165 164.704 169.803 163.661 170.497 162.767C169.599 163.099 169.665 164.374 169.899 165.3L199.342 173.878C200.737 174.284 202.184 174.695 203.623 174.495C205.053 174.296 206.326 173.514 207.536 172.729C212.685 169.387 217.728 165.463 220.58 160.037C220.663 159.879 220.746 159.718 220.83 159.555C221.576 158.105 222.37 156.562 223.873 156.007C224.132 168.182 223.939 180.366 223.293 192.527C223.25 193.342 224.529 193.632 225.13 193.077C225.731 192.522 225.798 191.614 225.825 190.798L227.394 143.704C227.614 137.084 227.891 130.231 230.837 124.295C227.372 129.697 227.065 136.458 226.863 142.867L225.37 190.067C225.333 191.236 225.134 192.655 224.05 193.105L224.623 155.468C222.793 155.303 221.485 157.092 220.399 158.576L220.379 158.604C217.228 162.912 212.803 166.093 208.456 169.198C206.624 170.506 204.384 171.88 202.265 171.114C191.703 167.291 180.933 164.039 170.018 161.378C171.416 159.319 173.504 157.837 175.604 156.495C179.37 154.089 183.329 151.982 187.43 150.201L187.717 150.077C189.617 149.254 191.596 148.398 192.852 146.767C194.542 144.573 194.502 141.558 194.432 138.792C194.334 134.993 194.321 131.192 194.392 127.393C194.489 122.211 194.792 116.838 197.206 112.249C194.413 114.703 194.139 118.874 194.068 122.585L193.717 140.782C193.673 143.053 193.509 145.602 191.811 147.118C191.172 147.688 190.377 148.045 189.595 148.397L189.541 148.422C183.273 151.244 177.226 154.554 171.473 158.311C170.692 158.821 169.875 159.388 169.515 160.246ZM202.579 205.84C202.149 206.213 201.245 206.011 201.275 205.457C201.827 195.382 202.439 185.311 203.111 175.243C202.813 175.052 202.545 175.527 202.523 175.87L200.904 201.849C200.82 203.207 200.736 204.581 200.998 205.918C201.149 206.689 202.397 206.789 202.971 206.229C203.545 205.668 203.618 204.809 203.657 204.025L205.108 175.225C205.126 174.859 204.953 174.334 204.585 174.438L203.094 204.295C203.066 204.85 203.009 205.467 202.579 205.84ZM172.949 166.58L171.807 201.164C171.782 201.913 170.63 202.173 170.029 201.705C169.428 201.237 169.275 200.42 169.194 199.674C168.819 196.201 169.117 192.704 169.414 189.218L169.414 189.217L169.414 189.217C169.46 188.678 169.506 188.14 169.549 187.601C170.106 180.679 170.248 173.725 169.971 166.786C169.963 166.585 170.284 166.512 170.439 166.647C170.594 166.781 170.617 167.005 170.629 167.207C171.027 173.925 170.56 180.647 170.092 187.37L170.092 187.37C169.911 189.971 169.73 192.573 169.599 195.174C169.51 196.947 169.448 198.752 169.911 200.468C170.002 200.807 170.135 201.169 170.443 201.349C170.75 201.53 171.26 201.377 171.271 201.027L172.39 167.322C172.402 166.963 172.599 166.466 172.949 166.58ZM232.928 111.907C233.002 111.889 233.082 111.88 233.152 111.914C233.265 111.969 233.313 112.118 233.329 112.253C233.404 112.865 233.015 113.505 232.475 113.658C232.245 113.723 231.924 113.632 231.911 113.37C231.879 112.7 232.335 112.043 232.928 111.907ZM232.859 112.775C232.966 112.671 233.013 112.496 232.974 112.344C232.615 112.433 232.33 112.808 232.313 113.215C232.542 113.174 232.749 113.008 232.856 112.781L232.859 112.775ZM211.43 109.126C211.364 109.008 211.272 108.905 211.161 108.827C210.78 108.559 210.193 108.656 209.917 109.033C209.642 109.41 209.726 110.002 210.095 110.287C210.463 110.571 211.055 110.501 211.346 110.137C211.57 109.857 211.605 109.439 211.43 109.126ZM210.788 109.952C210.52 109.993 210.269 109.678 210.368 109.425C210.466 109.171 210.863 109.111 211.032 109.323C211.202 109.536 211.056 109.911 210.788 109.952ZM231.011 116.942C231.101 116.986 231.18 117.07 231.193 117.174C231.202 117.248 231.177 117.321 231.154 117.391L231.025 117.768C230.938 118.022 230.845 118.285 230.664 118.474C230.482 118.663 230.184 118.754 229.97 118.609C229.6 118.357 229.792 117.74 230.07 117.378C230.304 117.073 230.676 116.775 231.011 116.942ZM230.544 117.908C230.679 117.782 230.731 117.564 230.669 117.384C230.301 117.494 230.08 117.985 230.231 118.36L230.556 117.923L230.544 117.908ZM218.218 110.715C218.188 110.648 218.151 110.582 218.095 110.534C217.915 110.383 217.64 110.495 217.453 110.638C217.212 110.822 216.999 111.066 216.925 111.362C216.851 111.658 216.948 112.011 217.207 112.169C217.656 112.444 218.246 111.958 218.318 111.432C218.352 111.19 218.316 110.938 218.218 110.715ZM217.467 111.807C217.292 111.736 217.267 111.446 217.427 111.346L217.424 111.346L217.828 110.95C217.982 111.266 217.799 111.701 217.467 111.807ZM203.473 108.465C203.382 108.557 203.267 108.624 203.143 108.657C202.632 108.79 202.101 108.18 202.29 107.679C202.479 107.177 203.274 107.088 203.565 107.535C203.749 107.816 203.708 108.227 203.473 108.465ZM203.06 107.698C202.893 107.666 202.716 107.815 202.714 107.989C202.713 108.163 202.886 108.315 203.054 108.288C203.234 108.127 203.261 107.818 203.111 107.628L203.06 107.698ZM235.575 106.838C235.952 106.642 236.118 106.133 236.192 105.664C236.257 105.246 235.743 104.974 235.414 105.163C235.085 105.353 234.926 105.784 234.793 106.18C234.644 106.624 235.199 107.034 235.575 106.838ZM235.657 105.559C235.804 105.602 235.839 105.875 235.71 105.965L235.71 105.961C235.699 106.194 235.484 106.385 235.286 106.337C235.294 106.03 235.437 105.731 235.657 105.559ZM219.61 107.246C219.231 107.244 218.971 106.736 219.064 106.325C219.158 105.913 219.499 105.624 219.857 105.482C220.114 105.381 220.401 105.63 220.459 105.927C220.517 106.224 220.403 106.531 220.247 106.781C220.096 107.023 219.874 107.247 219.61 107.246ZM220.029 106.353L220.072 106.031C219.723 105.965 219.374 106.37 219.446 106.757C219.518 106.814 219.612 106.834 219.697 106.813C219.765 106.635 219.873 106.476 220.008 106.355L220.029 106.353ZM211.433 104.744C211.83 104.752 212.107 104.412 212.209 104.094C212.288 103.848 212.288 103.542 212.041 103.391C211.767 103.222 211.363 103.36 211.133 103.57C210.928 103.756 210.792 104.009 210.834 104.259C210.876 104.508 211.129 104.738 211.433 104.744ZM211.598 103.745C211.755 103.697 211.908 103.902 211.787 103.997L211.776 103.98C211.717 104.125 211.599 104.253 211.447 104.339C211.292 104.152 211.366 103.863 211.598 103.745ZM226.178 114.757C226.191 114.691 226.202 114.621 226.177 114.559C226.14 114.463 226.032 114.415 225.93 114.4C225.49 114.335 225.108 114.714 224.902 115.107C224.721 115.454 224.671 115.985 225.031 116.143C225.375 116.295 225.729 115.941 225.894 115.603C226.024 115.335 226.12 115.05 226.178 114.757ZM225.351 115.334C225.285 115.219 225.351 115.05 225.478 115.01L225.465 115.02C225.56 115.011 225.628 115.133 225.591 115.22C225.553 115.307 225.445 115.347 225.351 115.334ZM214.691 98.5754C214.478 98.773 214.241 98.9552 213.968 99.0244C213.883 99.0459 213.818 98.9431 213.787 98.8546C213.616 98.3664 213.642 97.7443 214.009 97.405C214.376 97.0657 215.094 97.2779 215.114 97.7997C215.126 98.1106 214.909 98.3728 214.691 98.5754ZM214.601 97.7024C214.273 97.6782 214.043 98.1196 214.14 98.4591C214.432 98.3686 214.645 98.0432 214.628 97.7151L214.601 97.7024ZM205.108 100.983C205.093 100.73 204.918 100.472 204.68 100.457C204.487 100.445 204.314 100.591 204.203 100.759C204.03 101.023 203.968 101.397 204.137 101.664C204.306 101.931 204.743 101.975 204.896 101.698C205.017 101.479 205.123 101.236 205.108 100.983ZM204.447 101.58L204.418 101.239L204.422 101.235C204.468 101.088 204.564 100.958 204.688 100.876C204.807 101.125 204.689 101.471 204.447 101.58ZM197.523 106.04C197.687 106.314 197.58 106.684 197.426 106.965C197.374 107.061 197.313 107.158 197.222 107.209C197.03 107.317 196.791 107.172 196.669 106.976C196.488 106.688 196.48 106.263 196.695 106.005C196.91 105.748 197.347 105.748 197.523 106.04ZM196.925 106.47C196.925 106.57 197.034 106.648 197.117 106.608C197.2 106.568 197.221 106.426 197.154 106.359C197.084 106.307 196.972 106.38 196.98 106.472L196.925 106.47ZM199.19 101.171C199.54 101.185 199.838 100.785 199.725 100.452C199.698 100.372 199.652 100.298 199.592 100.238C199.342 99.9918 198.854 100.088 198.715 100.411C198.576 100.733 198.84 101.157 199.19 101.171ZM199.271 100.439C199.428 100.443 199.325 100.736 199.171 100.705L199.173 100.711C199.112 100.617 199.165 100.472 199.271 100.439Z" fill="#00160A"/>
<path fill-rule="evenodd" clip-rule="evenodd" d="M233.191 99.8465C235.098 100.498 237.082 101.198 238.476 102.661C240.223 104.494 240.726 107.255 240.385 109.773C240.045 112.291 238.968 114.639 237.905 116.943C236.702 119.547 235.5 122.151 234.298 124.755C230.334 122.835 226.926 119.936 223.135 117.69C214.864 112.788 204.985 111.154 195.4 111.606C194.594 111.644 193.546 111.529 193.348 110.741C193.288 110.507 193.327 110.26 193.368 110.021C194.294 104.637 196.095 99.4072 198.678 94.6028C199.061 93.8905 199.467 93.1795 200.024 92.5956C201.311 91.2472 203.276 90.7349 205.131 90.817C206.985 90.8991 208.773 91.5054 210.531 92.106C218.084 94.6862 225.638 97.2663 233.191 99.8465ZM198.733 95.6858C196.482 100.219 194.599 105.022 194.081 110.063C194.058 110.281 194.041 110.512 194.142 110.706C194.346 111.097 194.884 111.116 195.322 111.088C205.46 110.42 215.939 112.415 224.54 117.862C227.48 119.724 230.18 121.968 233.229 123.643C233.364 123.716 233.517 123.791 233.664 123.748C233.812 123.705 233.902 123.557 233.977 123.421C235.829 120.053 237.47 116.566 238.887 112.989C239.389 111.721 239.868 110.423 239.992 109.063C240.306 105.641 238.054 102.149 234.823 101.046C226.542 98.2187 218.261 95.3917 209.98 92.5646C208.466 92.0478 206.932 91.5268 205.338 91.4114C203.744 91.2961 202.056 91.6297 200.827 92.6587C199.881 93.4506 199.283 94.5776 198.733 95.6858Z" fill="#00160A"/>
<path fill-rule="evenodd" clip-rule="evenodd" d="M131.443 116.932C130.956 117.206 130.323 116.783 130.138 116.26C129.994 115.852 130.027 115.414 130.06 114.978C130.069 114.855 130.079 114.731 130.084 114.609C130.134 113.451 129.812 112.326 129.49 111.203C129.39 110.854 129.29 110.504 129.202 110.154C127.728 104.333 129.583 97.7984 133.904 93.5921C134.457 94.6444 135.934 94.9218 137.058 94.5115C138.181 94.1012 139.03 93.1891 139.828 92.304C140.626 91.419 141.462 90.499 142.576 90.0633C141.742 89.921 140.874 89.9781 140.067 90.2284C139.943 89.0966 138.747 88.1983 137.613 88.3853C136.84 88.5129 136.226 87.7887 135.744 87.175C135.262 86.5614 134.492 85.9216 133.783 86.2542C134.695 86.8 134.622 88.1422 134.238 89.1266C134.168 89.3062 134.091 89.4869 134.013 89.6687C133.667 90.4831 133.312 91.3171 133.528 92.1531C133.733 92.9487 133.083 93.6826 132.527 94.2908C129.401 97.7036 127.721 102.376 127.964 106.978C127.045 105.741 125.877 104.687 124.549 103.895C124.302 103.747 124.046 103.606 123.791 103.466C122.884 102.966 121.971 102.463 121.381 101.635C120.684 100.657 119.395 100.234 118.188 100.271C116.981 100.307 115.825 100.733 114.694 101.153C114.38 101.27 114.014 101.452 113.99 101.783C113.973 102.03 114.162 102.24 114.348 102.405C116.132 103.983 118.914 104.339 121.043 103.262C121.818 102.869 122.757 103.247 123.499 103.697C127.807 106.315 130.222 111.682 129.306 116.607C128.587 116.875 127.815 116.84 127.038 116.804C126.611 116.784 126.182 116.764 125.761 116.795C124.573 116.882 123.214 117.742 123.422 118.904C123.905 121.596 124.387 124.364 123.853 127.047C123.699 127.825 123.46 128.583 123.222 129.341C123.05 129.887 122.879 130.433 122.738 130.987C122.385 132.377 122.23 133.815 122.277 135.247C122.29 135.631 122.322 136.03 122.515 136.364C122.799 136.855 123.369 137.103 123.912 137.283C125.662 137.865 127.533 138.085 129.372 137.926C130.763 137.806 132.33 137.315 132.858 136.035C133.191 135.226 133.015 134.311 132.847 133.454C132.046 129.382 131.537 125.069 132.941 121.16C132.989 121.025 133.04 120.89 133.091 120.754C133.391 119.955 133.697 119.138 133.567 118.306C133.414 117.333 132.308 116.447 131.443 116.932ZM127.581 129.264L126.457 131.651C126.325 131.931 126.245 132.356 126.535 132.469C127.318 131.378 127.874 130.128 128.16 128.819C128.265 128.338 128.701 127.98 129.174 127.828C129.647 127.677 130.157 127.697 130.653 127.728C130.931 127.746 131.238 127.781 131.425 127.986C131.574 128.149 131.609 128.381 131.639 128.598L132.417 134.406C132.486 134.916 132.551 135.454 132.356 135.931C132.025 136.737 131.08 137.094 130.218 137.261C128.1 137.673 125.864 137.469 123.858 136.68C123.575 136.569 123.285 136.438 123.093 136.203C122.838 135.89 122.807 135.458 122.802 135.055C122.768 132.45 123.366 129.84 124.531 127.504L127.25 128.49C127.415 128.55 127.599 128.627 127.662 128.79C127.722 128.944 127.651 129.115 127.581 129.264ZM127.801 127.881C127.622 128.085 127.28 128.177 127.072 128.001C126.364 127.401 125.382 127.134 124.464 127.29C124.793 125.347 124.549 123.383 124.304 121.415C124.188 120.477 124.071 119.538 124.017 118.6C124.01 118.49 124.007 118.372 124.071 118.282C124.175 118.135 124.393 118.141 124.573 118.164L128.857 118.696C129.003 118.714 129.155 118.734 129.281 118.811C129.635 119.029 129.599 119.542 129.518 119.948L128.092 127.131C128.039 127.397 127.98 127.676 127.801 127.881ZM128.811 126.186C129.456 123.711 129.896 121.183 130.124 118.637C131.173 118.809 132.283 118.588 133.184 118.027C133.004 118.869 132.779 119.706 132.555 120.542C132.02 122.531 131.487 124.518 131.56 126.562L131.56 126.58C131.567 126.753 131.573 126.933 131.502 127.09C131.428 127.254 131.239 127.382 131.068 127.324C130.27 127.056 129.344 127.198 128.666 127.694C128.545 127.203 128.679 126.691 128.807 126.201L128.811 126.186ZM134.405 93.1815C133.952 92.5174 133.858 91.6448 134.084 90.875C134.189 90.5152 134.36 90.1625 134.53 89.8121C134.871 89.1098 135.207 88.4166 135.003 87.6933C134.944 87.4848 134.875 87.196 135.074 87.1064C135.862 87.7861 136.381 88.7657 136.498 89.795C136.532 90.0958 136.527 90.4206 136.36 90.6741C136.196 90.9222 135.917 91.0489 135.639 91.1752C135.542 91.2196 135.444 91.2639 135.352 91.3134C134.996 91.5039 134.669 91.9276 134.867 92.2765C136.578 91.0291 138.77 90.4473 140.882 90.6803C140.316 91.0368 139.796 91.4641 139.338 91.9487C139.179 92.117 139.022 92.295 138.864 92.4742C138.183 93.2477 137.483 94.043 136.487 94.1658C135.684 94.2646 134.858 93.8456 134.405 93.1815ZM118.011 100.764C119.277 100.702 120.724 101.464 121.298 102.267L119.945 103.074C118.433 103.699 117.692 103.466 117.342 103.356C117.324 103.35 117.307 103.345 117.29 103.34C116.261 103.026 115.285 102.54 114.417 101.907C115.553 101.351 116.745 100.827 118.011 100.764ZM139.347 90.0145C139.284 90.1009 139.169 90.1309 139.064 90.1552L137.329 90.5559C137.245 90.5752 137.156 90.5943 137.075 90.5663C136.861 90.4925 136.877 90.1858 136.961 89.9772C137.045 89.7686 137.148 89.5082 136.995 89.3422C136.81 89.1409 137.155 88.8724 137.429 88.8518C138.077 88.8031 138.741 89.0473 139.201 89.503C139.339 89.64 139.463 89.8581 139.347 90.0145ZM129.49 117.683C129.637 117.851 129.552 118.194 129.328 118.182C127.954 118.109 126.587 117.9 125.254 117.561C126.433 117.286 127.664 117.377 128.872 117.47C129.096 117.487 129.344 117.515 129.49 117.683ZM132.577 117.535C132.638 117.673 132.554 117.854 132.409 117.897C131.694 118.109 130.954 118.237 130.209 118.276C130.017 118.151 130.074 117.834 130.257 117.697C130.44 117.56 130.686 117.552 130.916 117.55L132.577 117.535ZM136.107 130.782C146.489 130.859 157.409 131.079 166.382 136.373C167.243 136.881 167.254 138.233 166.653 139.039C166.052 139.845 165.061 140.231 164.116 140.55C161.133 141.556 158.06 142.286 154.946 142.73C152.003 143.149 149.03 143.311 146.061 143.445C128.734 144.227 111.152 144.034 94.3656 139.612C94.2967 138.997 94.8442 138.507 95.3458 138.154C102.998 132.767 112.562 131.192 121.77 129.758C112.13 130.064 102.574 132.814 94.2127 137.688C93.1321 138.318 91.9117 139.357 92.2491 140.574C92.5266 141.575 93.6907 141.97 94.6901 142.203C111.665 146.148 129.24 147.424 146.596 145.971C148.784 145.788 150.967 145.561 153.149 145.314C158.762 144.677 164.659 143.777 169.095 140.233C169.475 139.93 169.856 139.586 170.013 139.123C170.429 137.888 169.097 136.817 167.943 136.24C158.153 131.347 146.94 129.425 136.107 130.782ZM169.05 137.646C169.604 138.349 169.605 139.572 168.826 140.003C166.285 141.411 163.704 142.814 160.903 143.559C159.42 143.954 157.896 144.158 156.375 144.352C153.422 144.731 150.465 145.077 147.5 145.344C129.538 146.962 111.321 145.641 93.7693 141.445C92.9505 141.25 92.5975 140.148 92.9385 139.368C93.2062 138.756 93.7647 138.337 94.3861 138.081C93.9547 138.442 93.8389 139.275 94.2029 139.785C94.686 140.463 95.5736 140.673 96.3835 140.83C105.974 142.697 115.68 144.094 125.443 144.316C128.573 144.387 131.703 144.338 134.833 144.289C144.065 144.143 153.391 143.985 162.354 141.738C164.167 141.284 166.066 140.677 167.275 139.234C167.505 138.96 167.711 138.646 167.763 138.289C167.872 137.538 167.293 136.883 166.758 136.352C167.602 136.631 168.496 136.943 169.05 137.646ZM94.9054 137.906C94.7023 137.895 94.5273 137.963 94.3861 138.081C94.556 138.011 94.7307 137.953 94.9054 137.906ZM95.4679 137.612C95.327 137.644 95.16 137.476 95.2473 137.359L95.3191 137.435C95.3834 137.262 95.6319 137.196 95.7709 137.316C95.6974 137.442 95.6088 137.58 95.4679 137.612ZM154.229 202.372C154.981 204.75 156.822 206.981 159.265 207.292C160.148 207.405 160.812 206.106 160.213 205.439C159.614 204.771 158.277 205.319 158.305 206.222C156.769 205.612 155.693 204.139 155.15 202.559C154.607 200.979 154.523 199.281 154.443 197.61L154.12 190.827C154.012 188.55 153.81 186.048 152.223 184.434C151.878 184.083 151.48 183.79 151.083 183.498C150.574 183.123 150.066 182.75 149.673 182.257C148.752 181.103 148.618 179.513 148.571 178.029C148.317 169.859 149.565 161.644 152.232 153.931C152.407 153.426 152.588 152.922 152.769 152.417C153.5 150.383 154.232 148.344 154.559 146.209C154.148 146.103 153.862 146.608 153.731 147.017L151.101 155.279C150.414 157.434 149.727 159.593 149.217 161.798C148.016 166.98 147.808 172.338 147.604 177.657C147.554 178.942 147.519 180.293 148.1 181.436C148.52 182.262 149.211 182.881 149.906 183.502C150.41 183.952 150.916 184.405 151.321 184.939C152.217 186.12 152.569 187.626 152.826 189.093C153.164 191.027 153.376 192.984 153.461 194.947C153.481 195.423 153.495 195.902 153.508 196.381L153.508 196.382L153.508 196.382C153.564 198.411 153.621 200.448 154.229 202.372ZM158.888 205.952C158.962 205.666 159.394 205.564 159.578 205.793L159.627 205.751C159.809 205.982 159.686 206.388 159.405 206.464C159.123 206.541 158.813 206.238 158.888 205.952ZM102.565 209.352C102.446 208.585 103.336 208.083 104.084 207.932L104.175 207.914C104.904 207.767 105.752 207.597 106.022 206.905C107.107 204.119 107.165 201.042 107.222 197.984C107.289 194.357 107.356 190.757 109.137 187.7C109.991 186.234 111.191 185.005 112.479 183.917C112.577 183.834 112.677 183.75 112.777 183.667C113.821 182.794 114.914 181.88 115.281 180.573C115.486 179.843 115.436 179.068 115.385 178.311L114.391 163.665C114.264 161.795 114.137 159.924 113.885 158.067C113.368 154.263 112.332 150.551 111.134 146.91C112.077 147.451 112.503 148.584 112.816 149.639C114.624 155.722 115.046 162.13 115.456 168.472L116.098 178.406C116.216 180.223 116.116 182.457 114.528 183.293C112.006 184.62 110.001 186.933 109.019 189.645C108.078 192.246 108.077 195.058 108.076 197.85C108.076 198.483 108.076 199.114 108.065 199.742C108.004 203.141 107.494 206.795 105.203 209.269C104.826 209.676 104.375 210.059 103.831 210.144C103.288 210.23 102.652 209.905 102.565 209.352ZM103.067 209.332C103.041 209.493 103.202 209.636 103.362 209.648C103.523 209.659 103.674 209.578 103.812 209.495C104.254 209.226 104.661 208.9 105.021 208.526C104.741 208.311 104.342 208.318 104.02 208.459C103.698 208.6 103.439 208.854 103.199 209.115C103.141 209.178 103.081 209.247 103.067 209.332ZM134.718 185.502C134.66 190.222 135.272 194.92 135.882 199.6C136.052 200.903 136.228 202.228 136.762 203.425C137.004 203.967 137.477 204.553 138.049 204.422C138.227 204.381 138.384 204.271 138.517 204.143C139.037 203.643 139.197 202.72 138.709 202.188C138.221 201.656 137.12 201.935 137.087 202.662C136.132 197.524 135.521 192.321 135.26 187.099C135.231 186.518 135.169 185.861 134.718 185.502ZM138.329 202.551C138.354 202.65 138.3 202.751 138.249 202.839L137.827 203.556L137.547 203.502C137.516 203.215 137.578 202.918 137.722 202.668C137.855 202.436 138.263 202.29 138.329 202.551ZM134.804 176.981C134.659 175.41 134.718 173.828 134.789 172.253C135.155 164.079 135.828 155.921 136.804 147.8C136.827 147.605 136.873 147.378 137.048 147.296C137.411 147.127 137.612 147.735 137.567 148.14C136.48 157.866 135.764 167.638 135.503 177.423C135.497 177.638 135.178 177.707 135.018 177.568C134.858 177.43 134.823 177.194 134.804 176.981Z" fill="#00160A"/>
<path d="M139.064 185.355C136.892 185.208 134.72 185.061 132.548 184.913C129.553 184.711 126.549 184.507 123.603 183.934C121.546 183.534 119.525 182.954 117.571 182.205C117.359 182.124 117.137 182.033 116.994 181.857C116.722 181.521 116.858 180.992 117.174 180.695C117.49 180.398 117.931 180.278 118.354 180.176C127.305 178.018 136.704 179.407 145.77 181.03C146.456 181.153 147.163 181.285 147.747 181.663C148.33 182.041 148.765 182.731 148.624 183.407C148.459 184.2 147.617 184.652 146.838 184.902C144.353 185.699 141.671 185.531 139.064 185.355" fill="white"/>
<path fill-rule="evenodd" clip-rule="evenodd" d="M139.064 185.355C136.892 185.208 134.72 185.061 132.548 184.913C129.553 184.711 126.549 184.507 123.603 183.934C121.546 183.534 119.525 182.954 117.571 182.205C117.359 182.124 117.137 182.033 116.994 181.857C116.722 181.521 116.858 180.992 117.174 180.695C117.49 180.398 117.931 180.278 118.354 180.176C127.305 178.018 136.704 179.407 145.77 181.03C146.456 181.153 147.163 181.285 147.747 181.663C148.33 182.041 148.765 182.731 148.624 183.407C148.459 184.2 147.617 184.652 146.838 184.902C144.353 185.699 141.671 185.531 139.064 185.355M117.369 181.591C124.414 183.999 131.988 184.304 139.436 184.587C141.264 184.656 143.094 184.726 144.923 184.68C145.645 184.662 146.43 184.601 146.966 184.123C147.503 183.645 147.535 182.601 146.865 182.332C142.976 180.77 138.704 180.482 134.514 180.219C129.528 179.906 124.486 179.607 119.565 180.459C118.723 180.605 117.787 180.854 117.369 181.591Z" fill="#00160A"/>
<path fill-rule="evenodd" clip-rule="evenodd" d="M224.637 151.916C225.066 149.543 225.295 147.133 225.32 144.721C225.358 141.017 224.916 137.313 225.125 133.616C225.334 129.918 226.274 126.108 228.693 123.32C228.472 124.855 227.994 126.351 227.286 127.728C225.893 130.437 225.845 133.619 225.828 136.67C225.803 141.365 225.777 146.059 225.751 150.754C225.743 152.185 224.762 153.495 223.5 154.151C222.237 154.806 220.743 154.883 219.34 154.654C218.226 154.472 217.15 154.11 216.08 153.748C209.738 151.607 203.395 149.466 197.053 147.324C196.543 147.152 195.942 146.867 195.905 146.327C195.347 138.128 195.315 129.893 195.811 121.69C196.025 118.161 196.497 114.288 199.076 111.891C198.293 113.553 197.507 115.226 197.026 117C196.393 119.334 196.306 121.777 196.223 124.195C195.971 131.511 195.72 138.862 196.577 146.131C196.618 146.476 196.739 146.905 197.08 146.95C199.904 147.325 202.61 148.304 205.29 149.277C209.005 150.625 212.719 151.973 216.434 153.321C217.337 153.649 218.253 153.98 219.21 154.062C220.579 154.179 221.934 153.781 223.252 153.387C223.644 153.27 224.061 153.136 224.315 152.813C224.513 152.561 224.579 152.232 224.637 151.916Z" fill="#00160A"/>
<path fill-rule="evenodd" clip-rule="evenodd" d="M218.688 155.843C213.059 155.481 207.847 152.979 202.459 151.346C200.564 150.772 198.638 150.304 196.714 149.836C195.462 149.531 194.211 149.227 192.96 148.923C195.407 148.296 197.973 149.087 200.372 149.869C206.478 151.86 212.583 153.852 218.688 155.843Z" fill="#00160A"/>
<path fill-rule="evenodd" clip-rule="evenodd" d="M119.29 101.701C119.475 101.707 119.641 101.733 119.906 101.797L121.438 102.198C121.521 102.219 121.597 102.238 121.664 102.255C121.76 102.279 121.818 102.376 121.794 102.472C121.77 102.568 121.672 102.626 121.577 102.602L121.025 102.46L119.983 102.184L119.905 102.164C119.612 102.091 119.453 102.064 119.279 102.058L119.234 102.059C118.91 102.071 117.381 102.221 116.395 102.286C116.297 102.292 116.212 102.218 116.205 102.119C116.199 102.021 116.274 101.936 116.372 101.929L116.745 101.903C117.726 101.829 119.013 101.704 119.268 101.701L119.29 101.701Z" fill="#00160A"/>
<path fill-rule="evenodd" clip-rule="evenodd" d="M119.082 101.066C119.155 101 119.268 101.006 119.334 101.08L119.912 101.723C119.977 101.797 119.971 101.91 119.898 101.976C119.824 102.042 119.711 102.036 119.646 101.962L119.068 101.318C119.002 101.245 119.008 101.132 119.082 101.066Z" fill="#00160A"/>
<path fill-rule="evenodd" clip-rule="evenodd" d="M119.867 101.719C119.947 101.776 119.965 101.888 119.907 101.968L119.369 102.71C119.311 102.79 119.2 102.807 119.12 102.749C119.04 102.692 119.022 102.58 119.08 102.5L119.617 101.758C119.675 101.679 119.787 101.661 119.867 101.719Z" fill="#00160A"/>
<path fill-rule="evenodd" clip-rule="evenodd" d="M117.038 101.319C117.084 101.232 117.193 101.198 117.28 101.244L118.202 101.731C118.289 101.778 118.322 101.886 118.276 101.973C118.23 102.06 118.122 102.093 118.035 102.047L117.113 101.56C117.026 101.514 116.992 101.406 117.038 101.319Z" fill="#00160A"/>
<path fill-rule="evenodd" clip-rule="evenodd" d="M118.197 101.796C118.261 101.871 118.251 101.984 118.175 102.048L117.225 102.844C117.15 102.908 117.037 102.898 116.973 102.822C116.91 102.746 116.92 102.634 116.996 102.57L117.946 101.774C118.021 101.71 118.134 101.72 118.197 101.796Z" fill="#00160A"/>
<path fill-rule="evenodd" clip-rule="evenodd" d="M126.535 132.469C126.245 132.356 126.325 131.931 126.457 131.651C126.831 130.855 127.206 130.06 127.58 129.264C127.651 129.115 127.722 128.944 127.662 128.79C127.599 128.627 127.415 128.55 127.25 128.49C126.343 128.162 125.437 127.833 124.531 127.504C123.366 129.84 122.768 132.451 122.802 135.056C122.807 135.458 122.838 135.89 123.093 136.203C123.285 136.438 123.575 136.569 123.858 136.68C125.864 137.469 128.1 137.674 130.218 137.262C131.08 137.094 132.025 136.737 132.356 135.931C132.551 135.454 132.486 134.916 132.417 134.406C132.158 132.47 131.898 130.534 131.639 128.598C131.609 128.381 131.574 128.149 131.425 127.986C131.238 127.781 130.931 127.746 130.653 127.729C130.157 127.697 129.647 127.677 129.174 127.828C128.701 127.98 128.265 128.338 128.16 128.819C127.874 130.128 127.318 131.378 126.535 132.469Z" fill="#E7EAEE"/>
<path fill-rule="evenodd" clip-rule="evenodd" d="M124.464 127.29C125.382 127.134 126.364 127.402 127.072 128.001C127.28 128.177 127.622 128.086 127.801 127.881C127.98 127.677 128.04 127.398 128.092 127.132C128.568 124.737 129.043 122.343 129.518 119.948C129.599 119.543 129.635 119.029 129.281 118.812C129.155 118.735 129.003 118.715 128.857 118.696C127.429 118.519 126.001 118.342 124.573 118.164C124.393 118.142 124.175 118.135 124.071 118.282C124.007 118.372 124.01 118.49 124.017 118.6C124.186 121.505 124.95 124.421 124.464 127.29Z" fill="white"/>
<path fill-rule="evenodd" clip-rule="evenodd" d="M133.184 118.027C132.283 118.588 131.173 118.809 130.124 118.637C129.896 121.183 129.457 123.711 128.811 126.186C128.682 126.68 128.544 127.198 128.666 127.694C129.344 127.198 130.271 127.056 131.068 127.324C131.239 127.382 131.428 127.254 131.502 127.09C131.576 126.927 131.566 126.74 131.56 126.562C131.456 123.658 132.577 120.869 133.184 118.027Z" fill="white"/>
<path fill-rule="evenodd" clip-rule="evenodd" d="M125.254 117.561C126.587 117.9 127.954 118.109 129.328 118.182C129.552 118.194 129.637 117.851 129.49 117.683C129.343 117.515 129.096 117.487 128.872 117.47C127.664 117.377 126.433 117.286 125.254 117.561Z" fill="white"/>
<path fill-rule="evenodd" clip-rule="evenodd" d="M130.209 118.277C130.954 118.237 131.694 118.11 132.409 117.897C132.554 117.854 132.638 117.673 132.577 117.536C132.023 117.541 131.47 117.546 130.916 117.55C130.687 117.553 130.44 117.56 130.257 117.697C130.074 117.834 130.018 118.152 130.209 118.277" fill="white"/>
<path fill-rule="evenodd" clip-rule="evenodd" d="M134.084 90.8751C133.858 91.6448 133.952 92.5175 134.405 93.1816C134.858 93.8456 135.684 94.2647 136.486 94.1658C137.714 94.0146 138.492 92.8433 139.338 91.9488C139.796 91.4641 140.316 91.0369 140.882 90.6804C138.77 90.4474 136.578 91.0292 134.867 92.2766C134.669 91.9276 134.996 91.504 135.352 91.3134C135.707 91.1229 136.139 91.0095 136.36 90.6741C136.527 90.4207 136.531 90.0959 136.497 89.795C136.381 88.7657 135.862 87.7862 135.074 87.1064C134.875 87.196 134.944 87.4849 135.003 87.6934C135.308 88.7776 134.401 89.7942 134.084 90.8751Z" fill="#FFB61D"/>
<path fill-rule="evenodd" clip-rule="evenodd" d="M139.064 90.1552C139.169 90.1309 139.284 90.1009 139.347 90.0145C139.463 89.8582 139.339 89.64 139.201 89.503C138.742 89.0473 138.077 88.8031 137.429 88.8518C137.155 88.8724 136.81 89.1409 136.995 89.3422C137.148 89.5082 137.045 89.7686 136.961 89.9772C136.877 90.1858 136.861 90.4925 137.075 90.5663C137.156 90.5943 137.245 90.5752 137.329 90.5559C137.907 90.4224 138.486 90.2888 139.064 90.1552Z" fill="#FFB61D"/>
</svg>
