<svg width="392" height="336" viewBox="0 0 392 336" fill="none" xmlns="http://www.w3.org/2000/svg">
<path fill-rule="evenodd" clip-rule="evenodd" d="M113.567 226.459C60.801 238.76 30.6112 221.586 22.9977 174.937C11.5775 104.964 50.2641 31.4524 103.346 24.4054C156.428 17.3584 178.743 37.4601 216.051 62.7029C253.359 87.9457 361.493 147.34 373.778 157.42C386.063 167.501 412.349 206.891 359.772 231.841C324.721 248.475 281.117 245.342 228.959 222.443C210.624 214.427 193.927 210.184 178.868 209.716C163.809 209.248 142.042 214.829 113.567 226.459Z" fill="#EFFEFB"/>
<path d="M173.715 137.624C178.457 140.719 180.364 144.724 179.436 149.637C174.994 156.295 172.773 162.061 172.773 166.934C172.773 171.807 172.439 178.146 171.77 185.95L134.853 186.73L134.775 186.683C133.788 186.702 132.818 186.717 131.865 186.73C123.648 186.837 116.359 187.925 116.015 187.978C113.325 188.396 108.476 183.404 107.131 181.713C104.969 178.996 103.941 175.781 103.484 172.281C103.053 168.979 103.661 165.91 104.855 162.968C106.249 159.53 108.432 156.555 111.2 153.935C114.234 151.153 117.502 148.882 121.166 147.207C121.308 147.142 123.937 145.848 124.064 145.865C124.148 145.876 128.351 147.223 134.198 149.954C140.833 145.238 148.009 140.247 155.728 134.982C162.977 133.648 168.972 134.528 173.715 137.624Z" fill="white"/>
<path fill-rule="evenodd" clip-rule="evenodd" d="M125.945 217.968C131.75 219.164 135.249 216.886 136.443 211.135C138.234 202.509 127.413 204.05 124.101 199.611C120.789 195.171 128.135 194.281 136.443 196.946C144.759 196.581 147.16 197.058 147.637 194.764C148.115 192.471 143.782 191.026 132.21 191.404C120.638 191.782 122.34 191.798 123.22 201.467C123.807 207.912 124.715 213.413 125.945 217.968Z" fill="white"/>
<path d="M270.211 236.392C265.749 232.701 262.607 230.38 260.923 228.896C256.901 225.351 252.781 221.917 248.723 218.413C247.889 217.692 247.078 216.917 246.392 216.058C245.53 214.981 245.727 214.238 247.087 213.713C248.16 213.299 249.333 213.109 250.479 212.926C253.895 212.38 257.317 211.87 260.742 211.379C262.246 211.163 263.764 211.037 265.273 210.849C265.542 210.816 265.799 210.681 266.062 210.593C265.932 210.381 265.832 210.14 265.666 209.961C264.344 208.534 263.011 207.118 261.68 205.7C261.563 205.575 261.439 205.457 261.318 205.336C261.507 205.29 261.694 205.229 261.886 205.201C265.392 204.684 268.898 204.163 272.406 203.658C274.709 203.327 277.012 202.984 279.323 202.712C281.688 202.434 284.059 202.209 286.432 202.013C288.555 201.837 290.685 201.764 292.807 201.587C294.167 201.474 295.514 201.206 296.873 201.096C298.573 200.959 300.281 200.937 301.983 200.82C304.109 200.675 306.23 200.461 308.356 200.319C310.144 200.2 311.937 200.167 313.724 200.046C315.165 199.949 316.599 199.737 318.041 199.649C319.45 199.564 320.865 199.573 322.277 199.54C325.932 199.455 329.588 199.351 333.244 199.29C335.481 199.253 337.737 199.114 339.95 199.353C341.103 199.477 342.421 200.073 343.244 200.885C345.321 202.936 347.163 205.227 349.094 207.427C350.278 208.776 351.464 210.123 352.629 211.488C355.085 214.365 357.523 217.257 359.981 220.132C360.744 221.025 361.561 221.872 362.327 222.763C362.547 223.018 362.676 223.352 362.847 223.65C362.605 223.452 361.884 222.836 362.124 223.054C385.834 244.624 285.984 249.21 270.211 236.392Z" fill="white"/>
<path d="M0.123025 156.687C0.203855 154.466 0.272572 152.244 0.358809 150.024C0.386671 149.306 0.467825 148.591 0.512123 147.874C0.879958 141.92 1.58739 136.003 3.11119 130.23C4.32718 125.624 5.93283 121.143 7.88433 116.767C10.1104 111.774 12.8168 107.08 15.9351 102.616C17.5239 100.342 19.2592 98.1507 21.1055 96.0779C23.327 93.584 25.6094 91.1147 28.099 88.8935C30.9412 86.3576 33.9956 84.0465 37.0629 81.7781C37.7458 81.2731 38.953 81.0269 39.768 81.2378C41.1991 81.6081 41.406 82.8521 40.3114 83.8021C37.8258 85.9592 36.643 88.7131 36.4608 91.9113C36.3602 93.6779 36.5257 95.4594 36.4276 97.2262C36.1044 103.051 37.8051 108.412 40.3239 113.526C42.7319 118.416 46.2382 122.442 51.2694 124.795C54.1563 126.144 57.2434 127.092 60.2836 128.09C62.9243 128.958 65.6301 129.627 68.299 130.412C70.9172 131.182 73.4963 131.88 76.2704 130.955C77.6936 130.48 78.7613 131.753 78.2164 133.132C76.1555 138.348 74.3996 143.762 70.7795 148.159C68.608 150.797 66.0957 153.239 63.4082 155.357C59.4626 158.466 54.9259 160.684 50.3943 162.867C45.9743 164.997 41.6539 167.334 37.2143 169.421C32.2129 171.773 27.1446 173.986 22.0729 176.186C17.9812 177.96 13.8506 179.647 9.71588 181.321C8.72719 181.721 7.66814 182.002 6.61446 182.176C5.55872 182.351 3.23935 180.696 2.82501 179.602C1.77353 176.825 1.05878 173.97 0.763606 171.01C0.583973 169.209 0.342188 167.415 0.0641609 165.617C1.29934e-08 165.489 -1.73245e-08 165.362 0.0641601 165.171C0.171093 162.707 0.215942 160.308 0.245735 157.909C0.246555 157.843 0.0855462 157.775 0 157.708C0 157.41 0 157.112 0 156.751C0.0427644 156.687 0.122968 156.688 0.123025 156.687Z" fill="white"/>
<path fill-rule="evenodd" clip-rule="evenodd" d="M171.328 185.871L249.02 183.892H252.207C256.853 187.352 261.95 188.844 267.499 188.366C275.821 187.649 283.17 178.463 284.887 165.656C285.14 164.658 285.753 164.418 286.727 164.936C287.799 167.027 289.702 167.939 292.435 167.672C293.622 167.544 294.282 167.822 294.952 169.11C295.622 170.398 299.164 172.018 301.383 170.718C303.603 169.417 313.838 152.84 313.838 150.05C313.838 147.261 314.412 141.168 314.864 140.775C315.316 140.382 316.165 140.701 317.815 140.178C319.464 139.655 320.876 140.176 326.165 126.293C331.453 112.41 339.545 91.6568 340.407 77.1248C341.269 62.5928 331.004 67.729 326.165 73.7931C321.325 79.8572 307.835 95.4714 295.35 103.95C293.822 105.092 292.575 105.628 291.608 105.56C291.029 101.951 288.656 100.606 284.489 101.526C282.87 101.817 281.544 100.537 280.513 97.6853C277.842 82.8825 271.752 72.1711 262.244 65.5513C247.981 55.6216 223.679 49.947 217.832 70.7086C213.934 84.5496 216.277 101.365 224.863 121.156L221.288 124.25C207.223 129.115 195.733 135.122 186.818 142.269C173.445 152.99 173.189 163.447 172.48 172.073C172.007 177.823 171.623 182.423 171.328 185.871Z" fill="white"/>
<path d="M142.579 126.096C142.698 124.971 142.752 123.839 142.882 122.716C142.889 122.656 143.46 122.526 143.625 122.639C145.154 123.69 146.667 124.766 148.148 125.883C148.55 126.185 148.581 126.486 148.764 125.695C149.048 124.457 150.809 124.112 151.863 124.991C154.281 127.007 155.501 129.719 156.386 132.667C157.154 135.225 156.85 137.824 156.924 140.408C156.972 142.067 158.526 143.318 160.156 143.384C161.361 143.434 162.629 143.963 163.713 144.561C166.337 146.008 168.024 148.292 168.854 151.168C169.746 154.266 168.916 157.023 167.12 159.597C165.487 161.938 164 164.39 161.63 166.106C160.319 167.056 158.809 167.844 157.783 169.043C156.681 170.331 155.415 171.17 153.915 171.75C150.218 173.176 146.178 171.326 144.368 168.243C142.456 164.177 135.631 167.491 132.986 161.491C131.652 159.511 131.132 157.851 131.42 157.685C131.771 157.482 131.285 156.97 130.663 156.316C127.947 153.464 125.535 150.374 123.885 146.757C123.624 146.186 123.355 145.597 123.242 144.988C123.172 144.614 123.276 144.08 123.518 143.822C123.671 143.66 124.278 143.776 124.585 143.944C125.045 144.195 125.41 144.616 125.835 144.939C126.559 145.49 126.961 145.255 126.765 144.397C126.208 141.956 126.72 139.64 127.578 137.401C128.041 136.194 128.794 135.093 129.493 133.992C129.56 133.888 130.232 134.046 130.525 134.235C131.067 134.586 131.537 135.05 132.037 135.466C132.071 134.799 132.081 134.13 132.147 133.466C132.186 133.072 132.283 132.677 132.402 132.298C133.002 130.398 133.323 130.301 134.909 131.493C135.122 131.653 135.377 131.757 135.612 131.887C135.644 131.645 135.687 131.404 135.707 131.161C135.882 129.073 135.464 127.177 133.937 125.627C133.919 125.608 134.25 125.063 134.441 125.048C136.64 124.875 138.84 124.784 140.852 125.959C141.263 126.199 141.673 126.441 142.148 126.746C142.339 126.572 142.553 126.344 142.579 126.096Z" fill="white"/>
<path fill-rule="evenodd" clip-rule="evenodd" d="M175.193 49.269C168.698 54.652 165.752 62.4453 166.357 72.6486C167.263 87.9537 185.068 98.8577 193.68 94.2424C202.293 89.6271 211.803 82.9037 212.938 68.5924C213.42 82.2106 214.848 88.8385 196.487 98.7147C178.126 108.591 158.931 93.2664 156.155 86.9501C153.378 80.6339 146.695 66.6901 160.26 50.5135C162.116 48.3741 167.094 47.9592 175.193 49.269Z" fill="white"/>
<path fill-rule="evenodd" clip-rule="evenodd" d="M329.945 228.343C331.516 228.17 332.963 228.032 334.4 227.819C337.663 227.335 340.919 226.802 344.182 226.311C346.123 226.019 348.094 225.877 350.008 225.464C351.351 225.175 352.567 225.363 353.804 225.77C354.003 225.835 354.155 226.043 354.329 226.184C354.12 226.301 353.921 226.495 353.701 226.523C350.833 226.885 347.957 227.186 345.093 227.578C342.213 227.971 339.347 228.47 336.469 228.881C334.464 229.168 332.447 229.372 330.439 229.64C329.392 229.78 328.357 230.005 327.31 230.144C325.828 230.342 324.337 230.473 322.856 230.673C321.117 230.907 319.387 231.198 317.649 231.438C316.253 231.631 314.849 231.772 313.451 231.963C311.671 232.206 309.896 232.482 308.117 232.732C306.805 232.915 305.49 233.082 304.175 233.25C302.791 233.426 301.4 233.564 300.022 233.779C299.187 233.908 298.42 233.902 298.172 232.942C297.946 232.066 298.393 231.38 299.246 231.191C300.413 230.933 301.612 230.791 302.805 230.679C304.221 230.545 305.645 230.488 307.066 230.411C308.815 230.317 310.567 230.268 312.314 230.142C314.173 230.008 316.026 229.795 317.883 229.637C320.067 229.452 322.256 229.317 324.437 229.106C325.572 228.997 326.694 228.768 327.823 228.603C328.486 228.506 329.152 228.429 329.945 228.343Z" fill="#E7EAEE"/>
<path fill-rule="evenodd" clip-rule="evenodd" d="M295.863 216.244C297.435 216.159 298.88 216.099 300.321 215.982C301.852 215.858 303.376 215.652 304.907 215.533C306.625 215.4 308.35 215.346 310.069 215.218C312.018 215.072 313.964 214.868 315.913 214.718C317.355 214.608 318.802 214.568 320.243 214.452C322.051 214.308 323.853 214.099 325.661 213.954C327.102 213.839 328.549 213.802 329.99 213.687C331.895 213.535 333.793 213.252 335.7 213.188C337.875 213.115 340.059 212.438 342.232 213.188C342.491 213.277 342.726 213.435 342.972 213.561C342.738 213.605 342.506 213.665 342.27 213.691C340.621 213.866 338.969 214.015 337.322 214.208C335.322 214.443 333.33 214.751 331.327 214.955C329.862 215.105 328.381 215.095 326.914 215.234C324.903 215.425 322.902 215.714 320.892 215.917C319.433 216.063 317.966 216.125 316.505 216.246C314.599 216.404 312.693 216.578 310.789 216.755C309.053 216.917 307.318 217.079 305.585 217.267C303.372 217.507 301.165 217.802 298.95 218.021C296.849 218.228 294.739 218.344 292.637 218.547C291.175 218.689 289.724 218.958 288.261 219.072C287.689 219.117 287.053 218.993 286.529 218.761C286.155 218.594 285.919 218.119 285.621 217.781C285.999 217.524 286.359 217.078 286.758 217.04C289.184 216.808 291.619 216.677 294.05 216.492C294.615 216.449 295.174 216.329 295.863 216.244Z" fill="#E7EAEE"/>
<path fill-rule="evenodd" clip-rule="evenodd" d="M162.196 248.41C162.065 248.516 161.996 248.596 161.93 248.595C161.329 248.577 160.73 248.545 160.13 248.517C160.703 248.122 161.226 247.514 161.858 247.369C164.342 246.8 166.581 245.797 168.654 244.317C171.363 242.384 173.036 239.848 173.644 236.608C173.738 236.109 173.598 235.885 172.995 235.889C172.136 235.893 171.274 235.753 170.415 235.655C168.735 235.465 167.397 234.277 167.25 232.861C167.155 231.952 168.519 230.05 169.527 229.559C171.87 228.417 174.474 230.672 175.14 232.624C175.408 233.41 175.536 233.125 175.89 232.801C177.562 231.273 178.11 229.31 177.977 227.154C177.835 224.85 176.82 222.997 174.821 221.7C174.128 221.251 173.862 220.611 174.399 219.795C174.985 218.904 176.61 218.844 177.245 219.631C178.103 220.696 178.856 221.923 179.33 223.198C180.478 226.292 180.184 229.299 178.252 232.067C178.114 232.265 178 232.494 177.822 232.648C176.305 233.965 175.487 235.604 174.871 237.535C173.042 243.262 168.844 246.643 163.153 248.336C162.879 248.418 162.559 248.347 162.196 248.41ZM169.936 231.09C168.838 231.74 168.538 233.607 169.578 233.932C170.779 234.307 172.167 234.1 173.473 234.112C173.529 234.113 173.624 233.784 173.641 233.603C173.812 231.847 172.165 230.636 169.936 231.09Z" fill="#FFB61D"/>
<path fill-rule="evenodd" clip-rule="evenodd" d="M315.492 221.843C319.118 221.498 322.613 221.128 326.114 220.819C328.594 220.6 331.084 220.489 333.566 220.285C335.097 220.159 336.623 219.957 338.15 219.776C340.257 219.525 342.366 219.058 344.469 219.082C345.668 219.096 347.063 219.485 347.881 220.7C347.944 220.794 348.015 220.883 348.083 220.974C347.925 221.006 347.755 221.091 347.61 221.06C344.867 220.479 342.169 221.042 339.447 221.293C337.549 221.468 335.62 221.259 333.711 221.345C331.794 221.431 329.884 221.677 327.97 221.841C325.857 222.021 323.74 222.16 321.63 222.369C320.496 222.482 319.377 222.733 318.244 222.868C316.562 223.068 314.871 223.195 313.189 223.397C311.265 223.629 309.339 223.86 307.428 224.178C305.157 224.556 302.906 225.058 300.635 225.447C298.387 225.833 296.134 226.244 293.866 226.444C292.832 226.535 291.739 226.213 290.706 225.947C289.911 225.743 290.092 225.184 290.598 224.817C291.006 224.52 291.507 224.264 291.997 224.187C293.473 223.956 294.963 223.818 296.449 223.65C298.019 223.474 299.588 223.278 301.162 223.14C303.402 222.942 305.648 222.813 307.887 222.608C309.248 222.484 310.599 222.251 311.959 222.107C313.091 221.988 314.229 221.929 315.492 221.843Z" fill="#E7EAEE"/>
<path fill-rule="evenodd" clip-rule="evenodd" d="M291.447 211.174C294.438 210.832 297.299 210.472 300.165 210.156C302.027 209.95 303.898 209.833 305.761 209.628C306.849 209.509 307.925 209.284 309.01 209.129C309.755 209.023 310.506 208.963 311.253 208.868C313.537 208.575 315.816 208.241 318.104 207.987C320.431 207.729 322.769 207.571 325.098 207.326C327.231 207.102 329.353 206.753 331.49 206.601C332.257 206.546 333.068 206.863 333.83 207.101C334.084 207.18 334.249 207.543 334.455 207.776C334.163 207.872 333.876 208.032 333.579 208.054C331.916 208.173 330.248 208.233 328.586 208.364C326.831 208.503 325.079 208.683 323.329 208.874C321.988 209.02 320.653 209.224 319.312 209.378C317.704 209.563 316.089 209.689 314.485 209.901C312.13 210.212 309.785 210.587 307.432 210.915C304.885 211.269 302.329 211.564 299.787 211.953C297.591 212.289 295.414 212.741 293.222 213.108C290.342 213.59 287.455 214.026 284.575 214.51C283.523 214.686 282.884 214.087 282.789 213.251C282.703 212.494 283.37 212.219 284.222 212.162C286.458 212.013 288.683 211.69 290.911 211.421C291.055 211.404 291.184 211.259 291.447 211.174Z" fill="#E7EAEE"/>
<path fill-rule="evenodd" clip-rule="evenodd" d="M324.861 238.002C322.07 238.351 319.408 238.692 316.747 239.052C315.614 239.205 314.487 239.499 313.355 239.514C312.987 239.518 312.255 238.762 312.312 238.486C312.428 237.928 312.907 237.095 313.345 237.019C315.209 236.695 317.113 236.613 319.002 236.43C320.706 236.264 322.408 236.075 324.112 235.91C326 235.727 327.889 235.551 329.78 235.387C331.896 235.203 334.014 235.024 336.132 234.866C337.583 234.757 339.04 234.715 340.49 234.593C342.195 234.449 343.895 234.231 345.6 234.082C346.964 233.964 348.337 233.935 349.7 233.806C351.106 233.672 352.506 233.464 353.909 233.294C354.078 233.274 354.264 233.251 354.421 233.299C354.963 233.465 355.496 233.663 356.033 233.849C355.56 234.012 355.098 234.26 354.613 234.324C351.74 234.701 348.86 235.025 345.986 235.389C344.073 235.63 342.168 235.934 340.254 236.162C338.497 236.372 336.73 236.493 334.974 236.704C334.049 236.814 333.143 237.087 332.217 237.189C330.248 237.407 328.272 237.552 326.3 237.746C325.859 237.79 325.426 237.915 324.861 238.002Z" fill="#E7EAEE"/>
<path fill-rule="evenodd" clip-rule="evenodd" d="M111.2 153.935C114.234 151.153 117.502 148.882 121.166 147.207C121.308 147.142 121.454 146.984 121.58 147.001C122.13 147.077 122.674 147.201 123.22 147.308C122.825 147.578 122.457 147.907 122.03 148.109C117.791 150.118 113.843 152.555 110.632 156.047C107.51 159.441 105.273 163.249 104.779 168.004C104.325 172.375 104.88 176.463 107.352 180.15C108.679 182.129 110.471 183.605 112.648 184.585C112.821 184.663 112.984 184.764 113.151 184.854C112.957 184.893 112.764 184.94 112.568 184.971C109.878 185.388 108.476 183.404 107.131 181.713C104.969 178.996 103.941 175.781 103.484 172.281C103.053 168.979 103.661 165.91 104.855 162.968C106.249 159.53 108.432 156.555 111.2 153.935Z" fill="#00160A"/>
<path fill-rule="evenodd" clip-rule="evenodd" d="M279.522 210.407C279.065 209.401 279.727 208.287 280.779 208.297C282.575 208.314 284.371 208.435 286.167 208.525C287.541 208.594 288.914 208.685 290.287 208.766C290.453 208.775 290.661 208.724 290.776 208.801C291.158 209.059 291.506 209.362 291.867 209.648C291.519 209.82 291.181 210.113 290.82 210.14C289.707 210.223 288.576 210.303 287.47 210.203C285.511 210.025 283.66 210.465 281.851 211.019C280.866 211.32 280.245 211.006 279.522 210.407Z" fill="#E7EAEE"/>
<path fill-rule="evenodd" clip-rule="evenodd" d="M20.0727 127.549C19.8165 129.104 19.5329 130.527 19.3142 131.96C19.1755 132.868 19.1445 133.792 19.0455 134.707C18.884 136.2 18.6002 137.688 18.5568 139.183C18.4519 142.804 18.4848 146.429 18.4076 150.052C18.333 153.545 19.0063 156.926 19.8206 160.291C19.9788 160.945 20.0267 161.715 20.4145 162.203C21.0095 162.951 20.457 163.314 20.0392 163.429C19.6401 163.538 18.8614 163.343 18.7014 163.042C18.2629 162.218 17.9658 161.286 17.7861 160.364C17.3306 158.027 16.7785 155.684 16.6183 153.32C16.4016 150.122 16.5518 146.9 16.4768 143.689C16.3858 139.798 16.9591 135.977 17.4937 132.141C18.3762 125.809 19.6378 119.566 21.6388 113.489C21.8804 112.755 22.4228 112.047 23.0002 111.515C23.7056 110.866 24.7922 111.46 24.9477 112.439C25.1316 113.598 24.6036 114.485 23.9668 115.361C22.0499 117.998 21.0916 121.005 20.5852 124.183C20.4133 125.262 20.2435 126.342 20.0727 127.549Z" fill="#E7EAEE"/>
<path fill-rule="evenodd" clip-rule="evenodd" d="M32.9984 155.161C32.9081 155.957 34.3391 156.91 32.7437 157.211C32.3123 157.292 31.3684 156.43 31.1699 155.846C30.5687 154.075 29.9867 152.247 29.8251 150.408C29.6019 147.868 29.7691 145.296 29.7691 142.738C29.7691 142.442 29.7691 142.145 29.7691 141.848C29.7691 137.821 29.7875 133.793 29.7568 129.766C29.7487 128.699 29.4989 127.63 29.5301 126.566C29.553 125.783 29.7154 124.944 30.0756 124.25C30.3329 123.755 30.9979 123.206 31.5251 123.163C31.8873 123.133 32.6141 123.897 32.6732 124.363C32.8278 125.583 32.7655 126.839 32.6743 128.073C32.6034 129.031 32.267 129.973 32.2091 130.93C32.0647 133.323 32.0017 135.72 31.9245 138.116C31.8246 141.218 31.5419 144.33 31.7153 147.419C31.8585 149.972 32.5499 152.497 32.9984 155.161Z" fill="#E7EAEE"/>
<path fill-rule="evenodd" clip-rule="evenodd" d="M45.2084 149.994C42.7843 146.246 40.9774 142.288 39.8468 138.039C39.6188 137.182 39.8169 136.096 40.1383 135.242C40.2926 134.832 41.3649 134.372 41.712 134.555C42.1829 134.803 42.5578 135.623 42.6228 136.237C42.8737 138.607 43.0352 140.953 43.8169 143.26C44.7668 146.062 46.396 148.401 47.974 150.804C48.3024 151.304 49.2848 151.798 48.5919 152.432C47.9015 153.064 47.1999 152.332 46.6792 151.751C46.1898 151.206 45.7386 150.624 45.2084 149.994Z" fill="#E7EAEE"/>
<path fill-rule="evenodd" clip-rule="evenodd" d="M56.3341 141.963C54.8761 140.545 53.4163 139.252 52.111 137.81C51.4321 137.06 51.5594 136.107 52.3754 135.392C53.1892 134.678 53.6983 135.344 54.1671 135.887C55.9407 137.942 57.6895 140.019 59.4398 142.095C59.539 142.212 59.644 142.508 59.6189 142.526C59.3328 142.724 58.9629 143.09 58.7282 143.018C57.9265 142.773 57.1701 142.37 56.3341 141.963Z" fill="#E7EAEE"/>
<path fill-rule="evenodd" clip-rule="evenodd" d="M133.138 314.418C136.435 315.243 139.617 316.024 142.758 316.934C143.334 317.101 143.744 317.798 144.23 318.249C143.548 318.293 142.822 318.503 142.19 318.351C138.928 317.57 135.66 316.786 132.451 315.829C129.302 314.89 126.22 313.743 123.111 312.681C122.963 312.63 122.84 312.516 122.697 312.445C121.936 312.064 121.125 311.678 121.725 310.656C122.278 309.714 123.138 309.737 123.99 310.218C125.239 310.925 126.39 311.815 127.691 312.407C129.409 313.189 131.232 313.758 133.138 314.418Z" fill="#E7EAEE"/>
<path fill-rule="evenodd" clip-rule="evenodd" d="M137.445 304.71C138.784 305.483 140.07 306.172 141.325 306.912C141.592 307.069 141.75 307.417 141.959 307.677C141.514 307.854 140.972 308.293 140.64 308.167C137.975 307.15 135.342 306.045 132.715 304.929C131.272 304.315 129.845 303.656 128.439 302.961C127.652 302.571 126.755 302.163 127.437 300.958C127.862 300.206 128.871 300.02 129.809 300.532C132.329 301.908 134.855 303.274 137.445 304.71Z" fill="#E7EAEE"/>
<path fill-rule="evenodd" clip-rule="evenodd" d="M130.036 290.425C129.984 288.575 131.17 287.793 132.71 288.707C135.328 290.26 137.879 291.929 140.437 293.582C141.2 294.075 141.921 294.646 142.6 295.25C142.854 295.476 142.935 295.898 143.094 296.231C142.651 296.223 142.147 296.351 141.775 296.183C139.585 295.194 137.418 294.152 135.258 293.096C133.528 292.251 131.819 291.361 130.036 290.425Z" fill="#E7EAEE"/>
<path fill-rule="evenodd" clip-rule="evenodd" d="M138.912 277.541C141.162 277.57 142.355 279.067 143.64 280.391C144.009 280.771 144.308 281.247 144.529 281.727C144.749 282.203 145.046 282.854 144.436 283.177C144.161 283.322 143.552 283.035 143.185 282.805C142.13 282.148 141.136 281.397 140.086 280.731C139.708 280.492 139.181 280.47 138.825 280.212C138.307 279.835 137.881 279.334 137.416 278.886C137.873 278.438 138.33 277.989 138.912 277.541Z" fill="#E7EAEE"/>
<path fill-rule="evenodd" clip-rule="evenodd" d="M146.106 240.998C147.962 244.849 149.45 248.822 149.946 253.106C150.212 255.403 150.517 257.698 150.699 260.003C150.864 262.095 150.991 264.201 150.944 266.297C150.888 268.804 150.618 271.306 150.464 273.812C150.357 275.554 150.339 277.304 150.192 279.042C149.984 281.487 149.651 283.922 149.449 286.368C149.297 288.22 149.195 290.082 149.199 291.939C149.203 294.052 149.355 296.165 149.435 298.279C149.525 300.69 149.322 303.156 149.759 305.502C150.413 309.014 151.309 312.513 152.473 315.889C154.184 320.853 157.145 325.168 160.41 329.23C162.427 331.739 164.755 333.966 168.033 334.831C168.076 334.842 168.113 335.237 168.028 335.311C166.819 336.369 165.315 335.938 164.039 335.768C161.187 335.387 158.367 334.714 155.565 334.029C148.447 332.288 141.339 330.506 134.242 328.679C130.785 327.788 127.366 326.751 123.922 325.805C123.416 325.665 122.763 325.435 122.365 325.629C120.357 326.613 118.806 325.532 117.331 324.532C114.097 322.34 112.262 319.156 111.311 315.415C109.999 310.254 111.054 305.329 112.958 300.556C114.214 297.408 115.711 294.352 117.215 291.311C118.741 288.225 120.657 285.373 122.979 282.823C123.764 281.961 124.718 281.255 125.57 280.453C126.74 279.352 126.801 277.842 126.897 276.404C127.009 274.737 126.756 273.03 126.996 271.39C127.809 265.815 130.268 260.809 132.855 255.909C134.145 253.465 135.784 251.144 137.603 249.064C138.952 247.521 140.727 246.272 142.817 245.679C143.458 245.498 143.639 245.351 143.161 244.552C142.469 243.394 141.496 242.05 142.72 240.501C144.183 239.036 145.24 239.201 146.106 240.998ZM148.051 252.624C148.001 252.674 147.917 252.717 147.906 252.774C147.812 253.264 147.8 253.781 147.633 254.243C146.893 256.282 146.321 258.42 145.298 260.31C143.245 264.1 140.624 267.514 137.528 270.535C134.829 273.17 132.091 275.765 129.415 278.422C127.889 279.937 126.319 281.438 125.005 283.128C122.897 285.84 120.681 288.542 119.068 291.547C117.193 295.038 115.788 298.805 114.431 302.543C113.578 304.891 113 307.38 112.643 309.856C112.26 312.516 112.772 315.17 113.976 317.595C114.862 319.382 116.111 320.864 118.157 321.508C120.603 322.279 123.005 323.189 125.446 323.979C130.862 325.731 136.259 327.552 141.723 329.142C145.814 330.333 149.987 331.253 154.144 332.202C156.498 332.74 158.892 333.103 161.274 333.513C161.463 333.545 161.695 333.319 161.907 333.213C161.8 333.062 161.708 332.899 161.585 332.762C160.715 331.798 159.746 330.908 158.982 329.866C156.881 326.998 154.579 324.226 152.878 321.128C149.86 315.631 147.838 309.737 147.384 303.397C147.245 301.445 147.048 299.498 146.877 297.292C146.877 294.844 146.779 292.391 146.908 289.951C147.018 287.858 147.395 285.78 147.643 283.694C147.823 282.187 147.883 280.657 148.179 279.174C148.744 276.339 148.478 275.194 146.067 273.577C144.946 272.825 143.537 272.101 143.483 270.526C143.46 269.86 143.993 269.07 144.497 268.555C144.649 268.399 145.724 268.833 146.075 269.25C146.869 270.197 147.468 271.305 148.163 272.337C148.275 272.503 148.467 272.615 148.622 272.752C148.723 272.58 148.896 272.415 148.913 272.236C149.02 271.036 149.169 269.832 149.162 268.631C149.153 267.087 148.999 265.544 148.927 264C148.831 261.93 148.763 259.859 148.665 257.789C148.596 256.315 148.513 254.842 148.398 253.371C148.378 253.115 148.172 252.873 148.051 252.624ZM142.784 247.352C140.042 248.297 138.155 250.311 136.671 252.64C133.709 257.289 131.351 262.259 129.812 267.558C129.094 270.027 128.789 272.622 129.749 275.157C129.806 275.306 130.201 275.492 130.229 275.462C133.901 271.582 137.589 267.716 141.197 263.775C144.878 259.754 146.268 254.957 145.58 249.581C145.268 247.141 145.096 247.08 142.784 247.352ZM339.95 199.353C341.103 199.477 342.421 200.073 343.244 200.885C345.321 202.936 347.163 205.227 349.094 207.427C350.278 208.776 351.464 210.123 352.629 211.488C355.085 214.365 357.523 217.257 359.981 220.132C360.744 221.025 361.561 221.872 362.327 222.763C362.547 223.018 362.676 223.352 362.847 223.65C362.605 223.452 362.344 223.274 362.124 223.054C356.316 217.239 350.532 211.401 344.699 205.612C342.789 203.717 340.618 202.113 337.998 201.365C335.237 200.578 332.423 200.31 329.53 200.785C328.073 201.024 326.542 200.777 325.048 200.837C321.724 200.969 318.402 201.189 315.077 201.311C313.129 201.382 311.173 201.269 309.226 201.359C307.143 201.455 305.066 201.691 302.987 201.869C301.075 202.033 299.161 202.188 297.251 202.374C295.738 202.522 294.23 202.73 292.717 202.879C290.794 203.069 288.863 203.184 286.944 203.412C285.319 203.605 283.708 203.924 282.087 204.167C280.285 204.437 278.478 204.673 276.676 204.944C273.902 205.363 271.129 205.794 268.361 206.248C268.258 206.265 268.088 206.665 268.147 206.75C268.659 207.488 269.187 208.221 269.766 208.909C272.657 212.342 275.586 215.742 278.461 219.188C281.72 223.096 284.875 227.092 288.19 230.95C290.517 233.658 292.809 236.452 296.093 238.121C296.198 238.174 296.292 238.251 296.391 238.316C296.271 238.336 296.138 238.401 296.033 238.37C294.028 237.782 291.935 237.54 290.47 235.644C287.767 232.142 284.855 228.803 282.074 225.36C278.633 221.101 275.361 216.696 271.273 213.008C270.94 212.707 270.592 212.396 270.197 212.199C269.321 211.762 268.516 211.615 267.833 212.651C266.473 214.713 264.99 216.693 263.632 218.756C262.726 220.132 263.02 220.807 264.658 221.922C268.972 224.856 273.658 226.946 278.671 228.37C280.758 228.963 282.828 229.715 284.312 231.472C284.417 231.597 284.53 231.715 284.639 231.836C284.462 231.819 284.274 231.837 284.112 231.78C277.361 229.393 270.602 227.027 263.874 224.577C262.768 224.174 261.75 223.461 260.785 222.763C260.168 222.317 260.197 221.649 260.6 220.932C261.982 218.469 263.305 215.972 264.637 213.481C264.727 213.312 264.767 212.922 264.735 212.911C264.396 212.794 264.021 212.625 263.687 212.676C262.29 212.889 260.883 213.089 259.518 213.446C256.439 214.25 253.381 215.138 250.321 216.016C250.142 216.067 250.025 216.335 249.879 216.502C250.653 217.107 251.427 217.711 252.265 218.38C255.508 221.202 258.689 223.956 261.864 226.718C263.564 228.197 265.253 229.689 266.948 231.175C267.018 231.236 267.09 231.294 267.161 231.353C267.001 231.38 266.827 231.461 266.683 231.424C264.624 230.904 262.607 230.38 260.923 228.895C256.901 225.351 252.781 221.917 248.723 218.413C247.889 217.692 247.078 216.917 246.392 216.058C245.53 214.981 245.727 214.238 247.087 213.713C248.16 213.299 249.333 213.109 250.479 212.926C253.895 212.38 257.317 211.87 260.742 211.379C262.246 211.163 263.764 211.037 265.273 210.849C265.542 210.816 265.799 210.681 266.062 210.593C265.932 210.381 265.832 210.14 265.666 209.961C264.344 208.534 263.011 207.118 261.68 205.7C261.563 205.575 261.439 205.457 261.318 205.336C261.507 205.29 261.694 205.229 261.886 205.201C265.392 204.683 268.898 204.163 272.406 203.658C274.709 203.327 277.012 202.984 279.323 202.712C281.688 202.434 284.059 202.209 286.432 202.013C288.555 201.837 290.685 201.764 292.807 201.587C294.167 201.474 295.513 201.206 296.873 201.096C298.573 200.959 300.281 200.937 301.983 200.82C304.109 200.675 306.23 200.461 308.356 200.319C310.144 200.199 311.937 200.167 313.724 200.046C315.165 199.949 316.599 199.737 318.041 199.649C319.45 199.564 320.865 199.573 322.277 199.54C325.932 199.455 329.588 199.35 333.244 199.29C335.481 199.253 337.737 199.114 339.95 199.353ZM127.302 190.723C128.278 190.824 129.275 190.692 130.257 190.751C132.652 190.893 135.043 191.113 137.439 191.247C139.669 191.372 141.909 191.346 144.133 191.535C146.409 191.728 147.772 192.679 147.626 195.407C147.495 197.868 147.45 200.334 147.362 202.797C147.281 205.089 147.192 207.381 147.112 209.673C147.1 210.012 147.112 210.353 147.134 210.692C147.153 210.985 147.202 211.277 147.237 211.57C147.153 211.57 147.005 211.595 146.994 211.567C146.873 211.25 146.717 210.932 146.679 210.602C146.546 209.445 146.459 208.283 146.348 207.124C146.182 205.395 146.015 203.666 145.84 201.937C145.752 201.063 145.651 200.19 145.549 199.317C145.485 198.775 145.423 198.231 145.327 197.695C145.286 197.466 145.16 197.253 145.072 197.032C144.893 197.134 144.678 197.201 144.54 197.344C142.86 199.09 141.711 201.126 141.27 203.55C141.222 203.815 141.062 204.06 140.953 204.314C140.864 204.089 140.79 203.856 140.682 203.641C138.72 199.713 135.627 197.103 131.405 196.211C129.475 195.803 127.392 196.15 125.378 196.138C124.365 196.131 124.197 196.713 124.285 197.579C124.477 199.463 124.621 201.351 124.801 203.235C125.046 205.8 125.31 208.363 125.559 210.927C125.733 212.726 125.876 214.53 126.081 216.325C126.138 216.83 126.368 217.315 126.512 217.81C126.58 218.042 126.631 218.279 126.69 218.514C126.433 218.335 126.014 218.204 125.945 217.968C125.597 216.779 125.342 215.563 125.052 214.357C124.716 212.956 124.377 211.556 124.039 210.027C123.701 207.642 123.235 205.396 123.055 203.127C122.8 199.919 122.31 196.676 123.024 193.482C123.428 191.674 125.492 190.535 127.302 190.723ZM120.427 197.025C120.954 197.211 121.352 197.774 121.807 198.173C121.493 198.537 121.232 198.975 120.855 199.251C120.029 199.854 119.045 200.263 118.303 200.95C116.543 202.581 117.376 205.822 119.203 206.677C120.046 207.072 120.888 207.474 121.702 207.926C121.996 208.089 122.208 208.405 122.458 208.651C122.154 208.659 121.85 208.667 121.547 208.675C119.596 208.726 118.133 207.824 117.04 206.256C115.393 203.893 116.268 201.582 118.206 199.733C118.389 199.559 118.554 199.366 118.741 199.197C118.982 198.978 119.236 198.775 119.484 198.565C119.001 198.504 118.469 198.278 118.045 198.41C116.463 198.901 115.564 200.224 115.084 201.671C113.433 206.64 117.334 210.665 121.76 210.147C122.228 210.092 122.733 210.367 123.22 210.489C123.103 210.562 122.995 210.664 122.867 210.706C119.161 211.914 116.004 210.544 114.214 206.965C114.091 206.717 113.922 206.494 113.774 206.132C112.918 201.743 114.747 198.469 118.76 197.16C119.286 196.988 119.942 196.854 120.427 197.025ZM124.939 192.043C124.154 192.223 123.878 193.072 124.293 193.825C124.862 194.856 125.74 194.894 126.797 194.79C128.466 194.625 130.166 194.496 131.83 194.638C133.938 194.818 136.014 195.394 138.122 195.593C139.878 195.759 141.662 195.627 143.56 195.498C144.302 195.456 145.043 195.4 145.785 195.373C146.677 195.341 147.187 194.626 146.707 193.862C146.412 193.393 145.804 192.905 145.286 192.84C143.118 192.569 140.934 192.411 138.751 192.299C137.208 192.22 135.654 192.346 134.111 192.269C131.774 192.154 129.444 191.909 127.107 191.789C126.389 191.752 125.646 191.881 124.939 192.043ZM240.589 182.761C243.171 182.812 245.745 183.23 248.321 183.497C248.513 183.517 248.721 183.578 248.881 183.682C249.217 183.902 249.527 184.163 249.847 184.408C249.438 184.448 249.029 184.499 248.619 184.527C246.05 184.703 243.481 184.89 240.909 185.032C240.482 185.055 240.039 184.781 239.611 184.803C236.955 184.946 234.302 185.156 231.645 185.29C231.047 185.32 230.434 185.034 229.836 185.065C227.264 185.197 224.697 185.411 222.125 185.55C221.655 185.575 221.17 185.298 220.7 185.322C218.043 185.463 215.39 185.673 212.733 185.808C212.178 185.837 211.607 185.554 211.052 185.583C208.48 185.717 205.913 185.931 203.341 186.068C202.829 186.095 202.3 185.815 201.788 185.841C199.131 185.979 196.478 186.188 193.821 186.328C193.351 186.353 192.866 186.075 192.396 186.1C189.739 186.24 187.086 186.445 184.429 186.588C184.002 186.61 183.559 186.336 183.131 186.359C180.475 186.501 177.822 186.712 175.165 186.845C174.567 186.875 173.954 186.59 173.356 186.62C170.784 186.753 168.217 186.966 165.645 187.105C165.175 187.131 164.689 186.853 164.219 186.878C161.563 187.018 158.91 187.227 156.253 187.365C155.74 187.391 155.212 187.111 154.7 187.138C152.085 187.275 149.475 187.486 146.861 187.624C146.348 187.651 145.82 187.37 145.308 187.397C142.651 187.535 139.998 187.745 137.341 187.883C136.828 187.91 136.3 187.629 135.788 187.656C133.216 187.793 130.648 188.003 128.077 188.143C127.607 188.168 127.121 187.89 126.651 187.915C123.995 188.055 121.341 188.258 118.685 188.403C118.3 188.424 117.899 188.151 117.515 188.174C115.324 188.308 113.137 188.514 110.946 188.65C109.455 188.744 107.954 188.703 106.467 188.832C104.342 189.017 102.212 189.22 100.109 189.569C98.4644 189.842 96.8704 190.435 95.2244 190.696C94.7606 190.769 94.0771 190.266 93.7288 189.834C93.5814 189.651 93.9132 188.81 94.2435 188.538C95.5978 187.424 97.2274 187.235 99.0417 187.381C100.171 187.294 101.173 187.213 102.174 187.12C103.992 186.952 105.806 186.722 107.628 186.616C110.031 186.476 112.441 186.35 114.847 186.362C118.887 186.382 122.926 186.573 126.966 186.584C129.969 186.593 132.972 186.435 135.975 186.342C138.509 186.263 141.044 186.169 143.578 186.085C146.24 185.996 148.903 185.913 151.565 185.825C154.099 185.74 156.635 185.679 159.168 185.559C162.18 185.416 165.188 185.199 168.2 185.064C168.841 185.035 169.495 185.315 170.137 185.291C173.957 185.15 177.776 184.956 181.595 184.792C182.29 184.763 182.99 184.828 183.683 184.781C185.956 184.627 188.225 184.42 190.499 184.287C191.011 184.257 191.54 184.541 192.052 184.512C194.369 184.378 196.681 184.165 198.997 184.026C199.423 184.001 199.868 184.28 200.294 184.253C202.568 184.115 204.837 183.902 207.111 183.768C207.623 183.738 208.153 184.023 208.664 183.993C210.981 183.859 213.293 183.643 215.609 183.509C216.121 183.479 216.651 183.764 217.162 183.734C219.394 183.601 221.62 183.38 223.851 183.25C224.406 183.218 224.978 183.506 225.532 183.474C227.764 183.344 229.99 183.13 232.221 182.989C232.605 182.965 233.007 183.24 233.391 183.217C235.792 183.075 238.194 182.713 240.589 182.761ZM240.546 55.7008C246.173 56.2213 251.474 58.0242 256.354 60.8098C259.222 62.4469 261.889 64.4715 264.501 66.5068C268.553 69.6639 271.736 73.6196 274.484 77.9329C276.533 81.1497 278.325 84.5093 279.389 88.1672C280.357 91.4928 281.222 94.8736 281.762 98.2881C282.152 100.754 281.921 103.316 281.994 105.834C282.068 108.408 281.798 110.946 281.524 113.507C280.855 119.756 279.682 125.878 277.926 131.917C277.165 134.537 277.715 137.249 278.214 139.902C278.651 142.226 279.458 144.398 280.695 146.418C280.844 146.662 280.832 147.003 280.895 147.299C280.578 147.278 280.244 147.315 279.947 147.228C277.801 146.601 277.105 144.852 276.594 142.936C276.227 141.561 275.895 140.158 275.334 138.859C274.693 137.373 274.444 137.514 273.037 138.215C270.141 139.657 267.196 141.026 264.19 142.222C260.117 143.842 255.835 144.682 251.502 145.36C249.151 145.729 246.776 146.446 245.005 148.162C244.181 148.96 243.543 150.093 243.192 151.191C242.753 152.567 242.653 154.017 243.47 155.441C243.955 156.285 244.465 156.428 245.271 156.206C249.184 155.13 253.07 153.935 257.02 153.017C260.055 152.312 263.182 152.017 266.247 151.429C269.427 150.819 272.63 150.669 275.852 150.683C276.094 150.685 276.336 150.748 276.578 150.783C276.359 150.833 276.141 150.889 275.92 150.934C272.925 151.547 269.928 152.148 266.936 152.773C264.224 153.339 261.52 153.94 258.809 154.508C255.779 155.143 252.738 155.729 249.714 156.395C248.239 156.72 246.764 157.095 245.341 157.596C243.357 158.296 242.733 159.527 242.624 161.778C242.501 164.31 242.939 166.681 243.548 169.032C244.642 173.251 246.517 177.099 249.549 180.353C252.097 183.088 254.97 185.303 258.623 186.247C260.593 186.756 262.653 187.076 264.684 187.154C267.218 187.25 269.68 186.776 272.083 185.766C275.093 184.5 277.418 182.512 279.144 179.851C281.039 176.928 282.286 173.695 282.735 170.232C283.109 167.358 283.498 164.456 283.475 161.569C283.443 157.406 282.581 153.344 280.97 149.468C280.87 149.227 280.48 148.887 281.247 148.865C283.278 148.807 285.293 150.657 285.319 152.767C285.344 154.697 285.408 156.632 285.306 158.557C285.121 162.045 288.847 166.605 291.918 167.392C292.59 167.564 292.65 167.326 292.486 166.979C290.614 163.019 291.763 159.146 292.875 155.32C295.022 147.932 297.965 140.831 300.912 133.731C303.794 126.788 306.56 119.797 309.359 112.82C311.732 106.902 314.067 100.968 316.439 95.0491C318.723 89.3496 321.031 83.6598 323.331 77.9669C323.405 77.7846 323.526 77.6211 323.598 77.4383C323.734 77.0919 323.852 76.7378 323.977 76.3869C323.619 76.6285 323.177 76.8019 322.917 77.1223C319.843 80.913 316.982 84.8936 313.693 88.487C310.178 92.3273 306.362 95.9118 302.496 99.4101C299.735 101.909 296.677 104.084 293.746 106.396C293.472 106.612 293.155 106.775 292.858 106.962C292.886 106.617 292.949 106.27 292.937 105.925C292.847 103.283 295.302 103.046 296.778 101.892C299 100.154 301.31 98.5212 303.459 96.6982C307.462 93.3015 310.648 89.1559 313.893 85.0719C314.771 83.9678 315.71 82.9127 316.686 81.7713C319.531 78.6823 322.209 75.5533 325.125 72.6634C327.683 70.1291 330.525 67.9134 334.115 66.8706C335.717 66.4055 338.627 67.4728 339.703 69.1604C340.827 70.9213 341.274 72.8524 341.269 74.9517C341.257 79.3097 340.369 83.5318 339.448 87.7525C338.443 92.3576 337.468 96.971 336.349 101.549C335.692 104.234 334.92 106.91 333.953 109.498C331.652 115.655 329.316 121.805 326.772 127.865C325.325 131.313 323.535 134.632 321.715 137.908C320.706 139.724 319.215 141.108 316.816 140.999C315.834 140.954 315.202 142.097 315.067 143.492C314.87 145.521 314.703 147.567 314.285 149.557C313.437 153.584 311.631 157.246 309.465 160.715C307.829 163.336 306.01 165.844 304.322 168.434C303.152 170.227 301.603 171.675 299.481 171.787C298.152 171.857 296.77 171.014 295.421 170.552C295.201 170.477 295.008 170.273 294.848 170.089C294.187 169.333 293.678 168.216 292.854 167.895C292.082 167.596 290.961 168.351 290.032 168.257C288.446 168.097 287.119 167.275 286.148 165.949C285.959 165.691 285.744 165.09 285.538 166.078C284.979 168.76 284.271 171.415 283.516 174.05C282.14 178.853 279.592 182.982 275.698 186.126C273.284 188.075 270.503 189.365 267.245 189.544C263.941 189.726 260.978 188.83 258.022 187.516C253.837 185.657 250.16 183.122 246.723 180.114C241.794 175.8 238.057 170.63 235.492 164.697C234.057 161.378 233.215 157.794 232.243 154.291C231.264 150.761 230.032 147.376 228.007 144.28C226.171 141.476 224.833 138.409 224.325 135.089C224.156 133.982 224.533 132.751 224.835 131.623C225.435 129.378 225.767 127.113 225.259 124.84C225.006 123.707 224.313 122.68 223.912 121.572C222.301 117.126 220.607 112.704 219.18 108.2C218.196 105.093 217.515 101.882 216.861 98.6854C216.442 96.6383 216.311 94.5321 216.063 92.4511C215.882 90.933 215.66 89.4164 215.562 87.8924C215.421 85.7027 215.451 83.5009 215.273 81.3152C215.043 78.496 215.461 75.704 216.155 73.0542C216.834 70.4627 218.159 68.0056 219.429 65.6096C220.9 62.8335 222.915 60.4502 225.64 58.7627C228.074 57.2556 230.672 56.136 233.56 55.9242C235.884 55.7537 238.243 55.4877 240.546 55.7008ZM222.024 123.73C221.862 123.996 221.764 124.38 221.528 124.51C220.145 125.275 218.76 126.052 217.317 126.691C214.867 127.774 212.374 128.757 209.771 129.783C205.703 131.594 201.683 133.25 197.847 135.26C194.025 137.262 190.473 139.72 187.156 142.531C182.302 146.647 178.384 151.477 175.854 157.308C174.82 159.691 174.111 162.301 173.766 164.876C173.309 168.284 173.365 171.759 173.18 175.204C173.026 178.095 172.854 180.986 172.666 183.876C172.595 184.965 171.747 184.157 171.302 184.355C171.267 184.37 170.897 183.932 170.919 183.731C171.133 181.809 171.518 179.898 171.618 177.973C171.744 175.545 171.629 173.106 171.653 170.672C171.698 166.007 172.587 161.529 174.528 157.26C176.334 153.286 178.772 149.765 181.664 146.507C186.03 141.589 191.257 137.825 196.956 134.654C202.346 131.655 207.934 129.093 213.718 126.947C216.228 126.016 218.671 124.907 221.151 123.894C221.419 123.785 221.732 123.782 222.024 123.73ZM290.453 180.18C292.669 180.492 294.875 180.879 297.089 181.211C298.439 181.414 299.792 181.667 301.151 181.727C303.142 181.814 305.14 181.716 307.134 181.76C308.595 181.793 310.055 181.917 311.514 182.019C312.548 182.091 313.579 182.254 314.612 182.27C317.004 182.309 319.398 182.308 321.79 182.277C327.395 182.205 332.999 182.047 338.603 182.056C340.036 182.058 341.467 182.55 342.9 182.814C342.983 182.829 343.104 182.778 343.15 182.822C343.478 183.134 343.791 183.463 344.108 183.787C343.694 183.819 343.279 183.877 342.865 183.879C340.03 183.887 337.195 183.908 334.361 183.871C333.242 183.856 332.126 183.655 331.006 183.625C326.898 183.514 322.788 183.43 318.679 183.354C317.212 183.327 315.744 183.35 314.149 183.35C312.312 183.35 310.602 183.382 308.894 183.342C306.279 183.282 303.667 183.129 301.053 183.094C297.749 183.049 294.442 183.146 291.14 183.055C289.593 183.013 288.049 182.713 286.515 182.454C285.658 182.309 285.458 181.515 285.742 180.869C285.939 180.424 286.595 179.956 287.067 179.932C288.19 179.874 289.331 180.023 290.453 180.18ZM224.863 126.67C224.772 126.72 224.653 126.749 224.594 126.824C222.728 129.182 220.652 131.408 219.06 133.938C216.919 137.336 215.152 140.975 214.095 144.887C213.523 147.002 213.11 149.16 212.613 151.296C212.287 152.696 211.548 153.852 210.339 154.628C208.732 155.659 207.029 156.544 205.445 157.608C201.503 160.256 199.006 164.005 197.551 168.453C196.736 170.942 196.223 173.489 196.694 176.154C196.981 177.775 197.1 179.425 197.279 181.063C197.307 181.324 197.253 181.593 197.238 181.859C196.892 181.828 196.38 181.927 196.231 181.74C195.825 181.227 195.386 180.621 195.293 180.002C195.016 178.154 194.907 176.282 194.714 174.422C194.674 174.034 194.558 173.654 194.477 173.27C194.132 173.653 193.737 174.002 193.45 174.425C191.536 177.245 189.652 180.085 187.734 182.902C187.594 183.108 187.265 183.187 187.024 183.324C186.962 182.894 186.708 182.364 186.872 182.051C187.479 180.889 188.143 179.738 188.933 178.694C190.78 176.25 192.875 173.977 194.553 171.428C195.66 169.747 196.259 167.723 197.01 165.822C197.778 163.877 198.991 162.285 200.559 160.931C202.538 159.222 204.507 157.503 206.544 155.724C207.928 154.257 209.409 152.97 210.53 151.422C212.007 149.38 212.532 146.892 213.13 144.47C214.395 139.345 216.647 134.699 219.971 130.584C220.799 129.559 221.584 128.483 222.529 127.575C223.042 127.082 223.845 126.885 224.527 126.576C224.608 126.539 224.749 126.635 224.863 126.67ZM39.768 81.2378C41.1991 81.6081 41.406 82.8521 40.3114 83.8021C37.8258 85.9592 36.643 88.7131 36.4608 91.9113C36.3602 93.6779 36.5257 95.4594 36.4276 97.2262C36.1044 103.051 37.8051 108.412 40.3239 113.526C42.7319 118.416 46.2382 122.442 51.2694 124.795C54.1563 126.144 57.2434 127.092 60.2836 128.09C62.9243 128.958 65.6301 129.627 68.299 130.412C70.9172 131.182 73.4963 131.88 76.2704 130.955C77.6936 130.48 78.7613 131.753 78.2164 133.132C76.1555 138.348 74.3996 143.762 70.7795 148.159C68.608 150.797 66.0957 153.239 63.4082 155.357C59.4626 158.466 54.9259 160.684 50.3943 162.867C45.9743 164.997 41.6539 167.334 37.2143 169.421C32.2129 171.773 27.1446 173.986 22.0729 176.186C17.9812 177.96 13.8506 179.647 9.71588 181.321C8.72719 181.721 7.66814 182.002 6.61446 182.176C5.55872 182.351 3.23935 180.696 2.82501 179.602C1.77353 176.825 1.05878 173.97 0.763606 171.01C0.583973 169.209 0.342188 167.415 0.0641609 165.617C1.29934e-08 165.489 -1.73245e-08 165.362 0.0641601 165.171C0.171093 162.707 0.215942 160.308 0.245735 157.909C0.246555 157.843 0.0855462 157.775 0 157.708V156.751C0.0427644 156.687 0.122968 156.688 0.123025 156.687C0.203855 154.466 0.272572 152.245 0.358809 150.024C0.386671 149.306 0.467825 148.591 0.512123 147.874C0.879958 141.92 1.58739 136.003 3.11119 130.23C4.32718 125.624 5.93283 121.143 7.88433 116.767C10.1104 111.774 12.8168 107.08 15.9351 102.616C17.5239 100.342 19.2592 98.1507 21.1055 96.0779C23.327 93.584 25.6094 91.1147 28.099 88.8935C30.9412 86.3576 33.9956 84.0465 37.0629 81.7781C37.7458 81.2731 38.953 81.0269 39.768 81.2378ZM36.0383 84.7375C35.8942 84.8022 35.7312 84.8423 35.6087 84.9352C31.7522 87.8584 27.919 90.8111 24.7256 94.479C22.7418 96.7575 20.7139 99.0041 18.8409 101.371C14.2889 107.123 10.7663 113.462 8.08415 120.457C7.99309 120.718 7.88743 120.974 7.81318 121.24C6.66068 125.357 5.44121 129.458 4.39538 133.602C3.93143 135.441 3.79824 137.364 3.55483 139.255C3.28696 141.334 2.98863 143.415 2.84681 145.505C2.72997 147.227 2.88738 148.966 2.80542 150.692C2.7036 152.835 2.40717 154.971 2.33533 157.115C2.28679 158.563 2.52055 160.019 2.55619 161.473C2.59926 163.229 2.53359 164.989 2.57664 166.745C2.61194 168.186 2.6465 169.637 2.84628 171.061C3.09092 172.804 3.52673 174.52 3.84499 176.254C4.30453 178.758 5.33326 179.728 7.785 179.905C9.50335 180.029 10.8093 179.014 11.0498 177.404C11.0791 177.208 11.3872 176.868 11.4272 176.887C13.5935 177.903 15.4738 176.879 17.3723 176.074C21.4063 174.362 25.4584 172.689 29.452 170.888C35.394 168.208 41.3115 165.472 47.1998 162.678C49.9548 161.371 52.6603 159.946 55.3123 158.442C60.4879 155.507 65.2191 152.026 69.0508 147.397C72.0206 143.809 73.8563 139.731 74.9202 135.268C75.1222 134.421 74.8246 133.685 73.8113 133.467C71.0646 132.878 68.3243 132.257 65.5733 131.688C59.982 130.53 54.5772 128.918 49.5523 126.095C43.1002 122.471 38.967 116.997 36.4849 110.236C35.3074 107.028 34.3617 103.704 34.3861 100.211C34.4044 97.5889 34.1735 94.9431 34.453 92.3503C34.7113 89.9539 35.5033 87.6147 36.0506 85.2481C36.0878 85.0873 36.0443 84.9081 36.0383 84.7375ZM143.625 122.639C145.154 123.69 146.667 124.766 148.148 125.883C148.55 126.185 148.581 126.486 148.764 125.695C149.048 124.457 150.809 124.112 151.863 124.991C154.281 127.007 155.501 129.719 156.386 132.667C157.154 135.225 156.85 137.824 156.924 140.408C156.972 142.067 158.526 143.318 160.156 143.384C161.361 143.434 162.629 143.963 163.713 144.561C166.337 146.008 168.024 148.292 168.854 151.168C169.746 154.266 168.916 157.023 167.12 159.597C165.487 161.938 164 164.39 161.63 166.106C160.319 167.056 158.809 167.844 157.783 169.043C156.681 170.331 155.415 171.17 153.915 171.75C150.218 173.176 146.178 171.326 144.368 168.243C142.737 165.466 138.81 166.076 137.288 168.327C136.624 169.309 136.441 170.606 135.945 171.717C135.641 172.399 135.936 172.295 136.392 172.227C138.652 171.892 140.913 171.57 143.175 171.251C143.291 171.234 143.416 171.28 143.536 171.296C143.447 171.365 143.364 171.445 143.267 171.5C141.024 172.768 138.596 173.483 136.057 173.786C134.134 174.016 132.168 174.383 130.272 174.188C128.778 174.036 127.257 173.293 125.937 172.499C124.381 171.562 123.913 169.97 123.944 168.111C124.002 164.5 125.387 161.453 127.674 158.812C128.333 158.051 129.496 157.731 130.421 157.198C130.773 156.995 131.285 156.97 130.663 156.316C127.947 153.464 125.535 150.374 123.885 146.757C123.624 146.186 123.355 145.597 123.242 144.988C123.172 144.614 123.276 144.08 123.518 143.822C123.671 143.66 124.278 143.776 124.585 143.944C125.045 144.195 125.41 144.616 125.835 144.939C126.559 145.49 126.961 145.255 126.765 144.397C126.208 141.956 126.72 139.64 127.578 137.401C128.041 136.194 128.794 135.093 129.493 133.992C129.56 133.888 130.232 134.046 130.525 134.235C131.067 134.586 131.537 135.05 132.037 135.466C132.071 134.799 132.081 134.13 132.147 133.466C132.186 133.072 132.283 132.677 132.402 132.298C133.002 130.398 133.323 130.301 134.909 131.493C135.122 131.653 135.377 131.757 135.612 131.887L135.68 131.403C135.691 131.323 135.7 131.242 135.707 131.161C135.882 129.072 135.464 127.177 133.937 125.627C133.919 125.608 134.25 125.063 134.441 125.048C136.64 124.875 138.84 124.784 140.852 125.959C141.263 126.199 141.673 126.441 142.148 126.746C142.339 126.572 142.553 126.344 142.579 126.095C142.698 124.971 142.752 123.839 142.882 122.716C142.889 122.656 143.46 122.526 143.625 122.639ZM128.971 159.009C128.922 159.102 128.89 159.212 128.82 159.286C126.318 161.928 125.151 165.066 125.244 168.705C125.294 170.681 126.347 172.136 128.324 172.497C129.58 172.726 130.883 172.715 132.167 172.751C132.322 172.755 132.575 172.393 132.634 172.162C133.012 170.692 132.985 169.053 134.561 167.927C135.001 167.756 135.441 167.588 135.879 167.415C136.079 167.337 136.433 167.266 136.441 167.167C136.46 166.957 136.359 166.632 136.198 166.532C135.767 166.266 135.295 165.972 134.81 165.904C132.571 165.593 130.983 164.414 130.072 162.383C129.639 161.417 129.403 160.363 129.078 159.348C129.042 159.235 129.007 159.122 128.971 159.009ZM134.943 168.82C134.773 169.464 134.579 170.103 134.458 170.756C134.437 170.865 134.781 171.179 134.88 171.149C135.287 171.025 135.417 169.073 134.943 168.82ZM144.224 124.029C144.361 124.498 144.554 124.959 144.623 125.438C144.779 126.524 144.686 127.562 143.619 128.202C142.766 128.713 142.127 128.099 141.547 127.65C140.23 126.632 138.674 126.499 137.128 126.305C136.284 126.199 136.245 126.546 136.521 127.273C136.927 128.342 137.432 129.477 137.401 130.57C137.381 131.255 136.505 131.962 135.921 132.571C135.376 133.138 134.854 132.87 134.423 132.309C134.356 132.223 134.143 132.251 133.998 132.226C134.008 132.456 133.978 132.697 134.035 132.915C134.373 134.213 133.889 135.468 132.528 136.214C131.585 136.731 130.921 135.943 130.349 135.333C129.918 134.873 129.878 135.152 129.696 135.502C128.105 138.545 127.923 141.728 128.767 144.999C128.977 145.812 128.603 146.216 127.932 146.185C127.15 146.149 126.383 145.842 125.603 145.685C125.242 145.613 124.865 145.619 124.496 145.589C124.596 145.945 124.642 146.328 124.805 146.652C126.155 149.337 127.89 151.766 130.141 153.739C131.47 154.903 132.285 155.924 132.245 157.933C132.193 160.556 133.589 162.701 136.011 164.128C137.94 165.264 139.99 165.027 142.025 165.097C143.066 165.133 143.824 165.492 144.443 166.318L144.689 166.647C145.96 168.352 147.217 170.05 149.491 170.645C152.055 171.317 154.4 171.049 156.377 169.241C156.789 168.865 156.793 167.965 156.811 167.302C156.814 167.182 155.98 166.969 155.519 166.917C153.677 166.711 151.825 167.179 149.966 166.676C147.339 165.965 144.925 164.918 142.935 163.023C142.559 162.665 142.243 162.245 141.9 161.854C142.505 161.997 143.112 162.135 143.715 162.286C143.866 162.323 144.038 162.368 144.146 162.468C146.961 165.061 150.264 166.191 154.082 165.89C157.956 165.584 159.952 163.551 160.152 160.15C160.358 156.638 159.68 153.237 158.064 150.054C157.831 149.593 157.833 148.954 157.889 148.415C158.109 146.321 158.634 144.207 156.386 142.717C156.009 142.467 155.904 141.63 155.878 141.054C155.801 139.348 155.264 138.711 153.598 138.556C152.582 138.462 152.013 137.854 151.781 136.9C151.714 136.624 151.717 136.33 151.688 136.044C151.417 136.288 151.075 136.487 150.889 136.784C149.946 138.292 148.541 139.225 147.063 140.127C146.315 140.584 146.073 140.532 145.887 139.685C145.8 139.287 145.476 138.94 145.26 138.57C145.051 138.866 144.835 139.158 144.636 139.461C144.374 139.86 144.188 140.334 143.858 140.662C142.678 141.836 141.487 143.003 140.215 144.072C139.939 144.304 139.108 144.308 138.898 144.08C138.62 143.779 138.657 143.146 138.644 142.654C138.631 142.164 138.752 141.671 138.754 141.179C138.755 140.987 138.604 140.638 138.505 140.633C138.294 140.62 137.969 140.723 137.873 140.886L137.373 141.729C136.873 142.572 136.382 143.422 135.98 144.311C134.903 146.694 134.461 149.224 134.402 151.838C134.394 152.207 134.001 152.603 133.705 152.908C133.604 153.012 133.083 152.934 133.051 152.839C132.913 152.427 132.805 151.972 132.834 151.543C132.88 150.862 133.056 150.191 133.156 149.513C133.761 145.419 135.533 141.937 138.592 139.136C138.705 139.033 139.096 139.025 139.103 139.048C139.381 139.997 139.64 140.953 139.874 141.914C139.927 142.131 139.878 142.373 139.876 142.603C140.081 142.51 140.311 142.449 140.488 142.318C142.423 140.886 143.971 139.123 145.082 136.974C145.349 136.456 145.724 135.993 146.049 135.505L146.62 136.545C146.809 136.892 146.996 137.24 147.175 137.592C147.243 137.728 147.135 137.951 147.201 138.09C147.25 138.193 147.536 138.309 147.569 138.276C148.557 137.255 149.507 136.196 150.51 135.191C150.895 134.806 151.62 134.171 151.803 134.284C152.4 134.649 152.839 135.291 153.29 135.864C153.393 135.995 153.227 136.327 153.322 136.479C153.497 136.759 153.87 137.22 153.993 137.173C154.614 136.933 155.237 136.619 155.738 136.189C155.938 136.017 155.826 135.481 155.728 134.982C155.213 131.726 153.928 128.848 151.581 126.489C151.433 126.34 151.281 126.197 151.131 126.051C151.091 126.247 151.051 126.443 151.01 126.639C150.786 127.72 149.623 128.371 148.784 127.716C147.725 126.891 146.885 125.789 145.872 124.895C145.42 124.496 144.779 124.311 144.224 124.029ZM233.869 150.699C233.779 150.79 233.625 150.87 233.609 150.972C233.549 151.338 233.46 151.723 233.518 152.08C233.833 154.029 234.23 155.966 234.522 157.918C235.032 161.324 235.885 164.63 237.644 167.611C238.268 168.667 239.281 169.498 240.13 170.419C240.227 170.524 240.415 170.543 240.561 170.603C240.555 170.512 240.558 170.42 240.541 170.332C240.335 169.268 240.254 168.159 239.893 167.15C239.031 164.742 238.037 162.382 236.968 159.875C236.327 158.139 235.649 156.415 235.057 154.662C234.649 153.455 234.362 152.209 234.015 150.981C233.987 150.882 233.919 150.793 233.869 150.699ZM302.496 144.98C302.491 145.096 302.247 145.193 302.134 145.317C301.827 145.654 301.469 145.964 301.239 146.349C298.713 150.588 297.385 155.255 296.358 160.026C296.085 161.293 295.842 162.565 295.586 164.09C295.5 164.821 295.328 165.554 295.352 166.28C295.38 167.125 295.372 168.072 295.744 168.785C296.786 170.786 299.583 170.729 301.299 169.676C302.887 168.7 303.65 167.128 304.51 165.644C305.976 163.114 307.199 160.442 308.722 157.949C310.794 154.558 312.836 151.181 313.77 147.266C314.051 146.088 313.451 145.285 312.194 145.321C309.235 145.406 306.359 144.823 303.48 144.283C302.511 144.102 302.534 144.051 302.496 144.98ZM159.391 144.449C158.879 146.651 159.207 148.753 159.841 150.831C160.764 153.858 161.771 156.863 161.462 160.098C161.246 162.362 160.229 164.149 158.284 165.399C157.985 165.591 157.851 166.04 157.641 166.37C158.035 166.452 158.431 166.604 158.821 166.589C159.062 166.58 159.322 166.347 159.523 166.16C160.961 164.823 162.574 163.617 163.764 162.084C164.962 160.543 165.735 158.672 166.822 156.818C167.071 155.632 167.365 154.453 167.56 153.259C167.997 150.578 166.655 147.999 164.209 147.088C162.607 146.491 160.854 146.27 160.174 144.325C160.063 144.007 159.648 143.34 159.391 144.449ZM81.9266 86.3051C85.0523 86.6763 88.1999 87.2557 91.1988 88.1946C94.4129 89.201 97.2289 91.1161 99.508 93.6389C102.615 97.0782 104.642 101.075 105.543 105.666C105.924 107.61 106.044 109.54 106.007 111.493C105.984 112.734 105.856 113.972 105.762 115.21C105.562 117.859 106.227 120.378 106.884 122.901C107.557 125.486 107.312 128.077 107.075 130.701C106.724 134.579 105.266 138.088 103.683 141.538C102.664 143.759 101.284 145.82 99.9986 147.912C98.911 149.681 97.7258 151.391 96.5201 153.19C94.8939 155.75 93.3065 158.231 91.7802 160.749C91.1074 161.859 90.5599 163.045 89.9523 164.195C89.8781 164.335 89.804 164.485 89.6951 164.596C89.318 164.982 88.9256 165.353 88.539 165.73C88.5025 165.18 88.2853 164.564 88.4581 164.09C89.8412 160.3 91.9728 156.917 94.2842 153.633C97.0829 149.657 100.056 145.789 102.041 141.301C103.345 138.352 104.373 135.319 104.737 132.098C104.947 130.233 105.183 128.361 105.226 126.489C105.269 124.629 105.086 122.764 104.991 120.901C104.987 120.809 104.826 120.64 104.817 120.645C104.609 120.764 104.369 120.866 104.22 121.043C103.423 121.981 102.663 122.949 101.866 123.887C99.8403 126.268 97.3736 127.87 94.2605 128.563C91.1854 129.248 88.6002 128.353 86.4154 126.349C83.6468 123.809 83.6885 120.703 85.5933 117.763C87.3359 115.073 89.861 113.647 93.1089 113.19C96.2843 112.743 99.1669 113.626 102.05 114.566C103.115 114.914 103.771 115.287 103.822 113.78C103.879 112.074 103.773 110.345 104.017 108.667C104.331 106.509 103.579 104.624 102.97 102.665C101.766 98.7886 99.4396 95.7544 96.327 93.1875C93.9392 91.2182 91.2603 89.8645 88.3391 89.0709C85.3234 88.2517 82.2629 87.8765 79.0548 88.2019C73.8574 88.7292 69.3412 90.7185 65.2377 93.7611C62.3309 95.9164 60.0688 98.7072 58.064 101.71C57.7653 102.157 57.272 102.475 56.8704 102.854C56.3686 103.328 55.6995 103.465 55.3412 102.91C55.0692 102.49 54.9704 101.592 55.2365 101.249L55.855 100.452C57.0945 98.8547 58.3586 97.2593 59.8312 95.9001C61.635 94.2353 63.7025 92.8339 65.7505 91.4602C69.1739 89.164 72.9248 87.6191 77.0255 86.9915C78.6629 86.7409 80.3425 86.117 81.9266 86.3051ZM131.177 160.844C131.158 161.006 131.105 161.172 131.123 161.329C131.297 162.794 132.256 163.764 133.342 164.575C133.705 164.847 134.341 164.752 134.853 164.825C134.583 164.409 134.331 163.981 134.037 163.583C133.863 163.346 133.623 163.157 133.413 162.691C132.788 162.15 132.165 161.607 131.536 161.071C131.429 160.98 131.297 160.919 131.177 160.844ZM332.805 70.0724C331.436 71.2118 330.075 72.3653 328.775 73.5817C326.643 75.577 325.293 78.1306 324.176 80.7464C321.829 86.2469 319.658 91.8227 317.437 97.3761C314.162 105.561 310.907 113.752 307.643 122.196C307.472 122.467 307.252 122.718 307.137 123.011C305.062 128.284 303.006 133.566 300.931 138.84C299.331 142.904 297.634 146.933 296.121 151.029C294.722 154.818 293.817 158.749 293.29 162.756C293.239 163.142 293.37 163.552 293.417 163.951C293.456 163.612 293.442 163.255 293.552 162.94C293.626 162.729 293.965 162.608 294.033 162.397C295.334 158.377 296.528 154.321 297.924 150.335C298.884 147.591 300.091 144.931 301.241 142.256C301.779 141.006 302.258 140.886 303.465 141.483C304.28 141.887 305.11 142.264 305.907 142.701C307.166 143.392 308.501 143.654 309.924 143.528C310.939 143.438 312.208 142.267 312.233 141.176C312.257 140.111 311.784 139.256 310.548 139.143C309.775 139.073 308.985 139.111 308.229 138.964C307.672 138.855 307.157 138.527 306.623 138.296C306.971 138.031 307.295 137.719 307.676 137.516C307.912 137.391 308.237 137.429 308.522 137.396C310.432 137.175 312.053 138.089 313.732 138.743C316.756 139.921 318.46 139.697 319.997 137.679C320.822 136.595 321.376 135.281 321.922 134.015C324.399 128.27 327.029 122.578 329.223 116.725C331.493 110.671 333.609 104.528 335.271 98.2869C337.06 91.5723 339.02 84.8481 339.366 77.8303C339.461 75.8979 339.295 74.0272 338.742 72.1189C337.853 69.047 334.953 68.2853 332.805 70.0724ZM227.676 131.577C227.567 131.787 227.428 131.987 227.353 132.209C226.392 135.055 226.543 137.905 227.872 140.54C229.264 143.299 230.969 145.902 232.552 148.564C232.619 148.677 232.843 148.697 232.994 148.761C233.043 148.555 233.178 148.325 233.127 148.149C232.673 146.595 232.158 145.058 231.733 143.497C231.645 143.175 231.741 142.637 231.966 142.437C232.299 142.141 232.857 141.854 233.259 141.921C234.42 142.115 235.385 143.495 235.499 144.873C235.688 147.148 235.755 149.442 236.099 151.694C236.652 155.316 238.081 158.67 239.668 161.953C239.753 162.131 239.921 162.269 240.051 162.426C240.178 162.223 240.364 162.036 240.421 161.815C240.619 161.042 240.656 160.207 240.966 159.486C242.056 156.946 242.039 154.504 240.704 152.043C239.974 150.697 239.405 149.263 238.636 147.741C238.093 146.179 237.835 144.426 236.941 143.098C235.561 141.051 233.702 139.33 232.128 137.406C230.737 135.707 229.458 133.919 228.129 132.17L227.676 131.577ZM154.861 155.825C155.154 156.325 155.379 156.788 155.75 157.059C157.143 158.077 156.987 160.819 155.616 161.664C155.309 161.853 154.779 161.694 154.352 161.695C154.352 161.348 154.246 160.959 154.369 160.662C155.237 158.574 154.336 156.863 152.062 156.315C151.706 156.229 151.383 156.013 151.044 155.857C151.355 155.665 151.66 155.463 151.979 155.286C152.321 155.096 152.675 154.929 153.024 154.755C154.34 154.099 154.55 154.207 154.861 155.825ZM157.164 144.906C157.371 146.094 157.307 147.378 157.094 148.573C156.927 149.505 154.482 150.018 153.152 149.845C151.747 149.663 150.883 148.825 150.009 147.93C149.249 147.152 148.382 146.54 147.309 146.973C146.219 147.412 146.178 148.494 146.229 149.646C145.924 151.672 145.335 153.311 143.566 154.511C141.224 156.099 138.526 154.935 137.474 153.011C137.355 152.793 137.144 152.625 136.976 152.434C136.848 152.621 136.681 152.793 136.6 152.998C135.968 154.595 135.281 156.177 134.758 157.81C134.431 158.827 134.896 159.29 135.936 159.279C136.632 159.272 137.327 159.267 138.022 159.286C138.204 159.291 138.383 159.391 138.564 159.448C138.464 159.618 138.402 159.881 138.256 159.941C137.6 160.211 136.823 160.753 136.267 160.592C134.81 160.17 133.533 159.372 133.449 157.565C133.314 154.623 134.893 152.403 136.573 150.238C138.486 147.774 141.31 146.904 144.158 146.097C147.734 145.084 151.309 144.067 154.886 143.058C155.631 142.848 156.96 143.732 157.164 144.906ZM143.487 147.194C142.212 147.701 140.951 148.258 139.731 148.885C137.627 149.969 137.406 151.885 139.158 153.404C140.981 154.984 143.32 154.448 144.008 152.191C144.394 150.925 144.477 149.568 144.696 147.999C144.755 147.048 144.156 146.929 143.487 147.194ZM148.773 148.135C148.885 148.18 148.994 148.238 149.109 148.267C150.84 148.709 152.187 151.527 151.364 153.054C151.202 153.355 150.869 153.561 150.615 153.811C150.551 153.562 150.48 153.315 150.426 153.064C150.263 152.322 150.106 151.578 149.888 150.774C149.493 149.964 149.155 149.215 148.827 148.463C148.784 148.365 148.79 148.245 148.773 148.135ZM154.153 143.841C152.717 144.342 151.337 144.999 149.678 145.591C149.636 145.783 149.499 146.018 149.565 146.161C150.392 147.976 153.499 149.255 155.361 148.571C156.459 148.168 157.066 146.777 156.704 145.494C156.454 144.604 154.981 143.553 154.153 143.841ZM286.068 99.9046C288.541 100.145 290.514 101.226 292.019 103.354C292.846 104.523 292.218 105.492 292.023 106.474C291.322 110.015 290.476 113.525 289.672 117.044C289.01 119.942 288.336 122.836 287.659 125.73C286.756 129.587 285.85 133.442 284.936 137.296C284.279 140.068 283.614 142.839 282.936 145.607C282.865 145.896 282.685 146.158 282.556 146.432C282.436 146.144 282.192 145.844 282.216 145.569C282.403 143.384 282.593 141.198 282.877 139.025C283.177 136.738 283.542 134.458 283.951 132.188C284.439 129.48 284.951 126.774 285.544 124.087C286.886 118.005 288.619 112.039 290.601 106.139C291.389 103.795 289.152 102.247 287.342 102.288C286.185 102.314 285.187 102.578 284.124 102.838C283.949 102.881 283.672 102.492 283.442 102.175C283.442 101.963 283.416 101.866 283.447 101.795C283.693 101.235 282.799 100.209 284.116 100.086C284.768 100.026 285.429 99.8423 286.068 99.9046ZM159.231 133.946C160.783 133.97 162.334 134.176 163.884 134.161C166.101 134.14 168.216 134.612 170.196 135.485C171.938 136.252 173.546 137.313 175.277 138.308C177.297 140.107 178.834 142.118 179.425 144.695C179.503 145.033 179.13 145.472 178.966 145.865C178.701 145.629 178.27 145.434 178.197 145.15C176.789 139.695 172.826 137.04 167.651 135.708C164.824 134.981 161.964 135.16 159.094 135.416C158.723 135.449 157.89 135.941 157.859 134.961C157.83 134.061 158.591 133.937 159.231 133.946ZM232.993 57.5056C227.953 58.221 224.225 61.1136 221.4 65.2666C218.321 69.7928 217.291 74.9369 217.156 80.2231C217.059 83.9973 217.51 87.7964 217.886 91.5677C218.167 94.3853 218.565 97.21 219.184 99.9708C219.965 103.451 221.039 106.864 221.957 110.314C223.492 116.083 225.425 121.716 227.875 127.16C230.487 132.962 233.92 138.218 238.744 142.469C240.301 143.841 242.106 144.833 244.206 145.041C246.821 145.301 249.361 144.808 251.862 144.043C257.211 142.406 262.617 140.936 267.913 139.144C272.749 137.508 275.761 133.998 276.835 129.015C277.641 125.279 278.32 121.509 278.883 117.729C279.362 114.512 279.751 111.266 279.887 108.02C279.991 105.538 279.666 103.035 279.477 100.546C279.333 98.6481 279.103 96.7571 278.911 94.6077C278.288 90.831 277.157 87.2164 275.667 83.6823C273.404 78.3123 270.287 73.5875 266.072 69.5102C261.477 65.0657 255.986 62.2385 250.014 60.2939C246.644 59.1965 243.156 58.3889 239.665 57.7528C237.492 57.3567 235.168 57.197 232.993 57.5056ZM82.9039 92.0662C82.754 92.3005 82.6205 92.5474 82.4517 92.7671C79.3156 96.8455 75.9954 100.796 73.0828 105.029C69.6463 110.022 66.7749 115.371 64.5456 121.129C63.6775 122.933 62.883 124.679 62.0641 126.414C61.6305 127.332 60.7291 127.217 60.1148 126.921C59.4496 126.601 59.5317 125.923 59.9301 125.21C63.2124 119.335 66.3628 113.385 69.7211 107.555C71.7809 103.979 74.0064 100.481 76.4103 97.1288C77.6963 95.3358 79.5099 93.9197 81.1073 92.3559C81.3196 92.1482 81.6508 92.0014 81.9465 91.9569C82.2533 91.9107 82.5838 92.0232 82.9039 92.0662ZM91.3184 115.515C87.8019 116.447 86.054 119.022 86.3586 122.407C86.5506 124.54 87.3949 125.906 89.4174 126.482C91.7358 127.141 94.0505 126.839 96.2336 125.961C99.3653 124.702 101.927 122.798 102.704 118.976C102.785 117.947 102.489 117.194 101.572 116.524C98.3212 114.148 94.8904 114.567 91.3184 115.515ZM164.624 48.493C164.538 48.5994 164.452 48.642 164.367 48.7484C164.092 48.8724 163.751 48.8492 163.552 49.0048C158.58 52.8892 155.462 57.9637 153.823 63.9929C153.045 66.8561 152.693 69.7762 152.822 72.7217C153.049 77.9052 154.675 82.6425 157.623 86.9536C160.844 91.6636 165.124 95.1297 170.233 97.5616C173.161 98.9553 176.269 99.9585 179.561 100.134C181.042 100.213 182.558 99.969 184.011 100.185C186.802 100.601 189.399 99.8493 191.978 99.0993C197.17 97.5888 201.74 94.9796 205.654 91.2083C208.542 88.426 211.039 85.4013 212.689 81.7321C212.721 81.6602 212.761 81.5918 212.798 81.5217C212.847 81.6168 212.949 81.7187 212.937 81.8059C212.691 83.6685 212.811 85.5547 211.486 87.217C207.386 92.3624 202.631 96.6972 196.47 99.2144C193.835 100.291 191.021 100.983 188.237 101.638C186.563 102.033 184.787 102.2 183.065 102.155C178.708 102.04 174.506 101.121 170.484 99.3905C166.19 97.543 162.431 94.9481 159.227 91.5782C155.501 87.6588 152.901 83.0969 151.802 77.793C151.364 75.6803 151.016 73.4966 151.046 71.3509C151.139 64.6479 153.109 58.4679 157.012 52.9809C158.076 51.4858 159.506 50.2435 160.804 48.9197C161.416 48.2958 164.132 47.995 164.624 48.493ZM170.102 48.5577C170.166 48.5652 170.222 48.6441 170.283 48.6897C170.171 48.7293 170.062 48.7734 169.949 48.8078C165.574 50.1434 162.458 53.0154 160.376 56.992C159.101 59.4291 158.409 62.0774 158.02 64.8396C157.228 70.4545 158.524 75.6244 161.22 80.4423C164.55 86.3948 169.26 90.9249 175.779 93.2701C177.858 94.018 180.007 94.8209 182.176 95.0169C187.384 95.4875 192.387 94.554 197.024 91.944C200.481 89.9984 203.322 87.3948 205.869 84.3724C208.824 80.8667 210.504 76.7808 211.549 72.4137C211.916 70.8829 211.759 69.2271 211.854 67.6293C211.872 67.3299 211.956 67.0344 212.009 66.7371C212.359 66.9179 212.899 67.0132 213.025 67.2948C213.474 68.2984 214.167 69.4055 214.063 70.3999C213.851 72.4442 213.338 74.4938 212.674 76.4472C210.95 81.5169 207.905 85.746 203.953 89.3067C200.275 92.6197 196.035 94.9342 191.211 96.0957C189.577 96.489 187.925 96.9408 186.263 97.0368C184.723 97.1256 183.145 96.8562 181.609 96.5973C179.562 96.2525 177.471 95.9651 175.518 95.3008C170.124 93.4662 165.599 90.3487 161.951 85.8785C159.036 82.307 157.352 78.2495 156.545 73.7998C155.595 68.564 156.446 63.491 158.383 58.5932C159.694 55.2791 161.605 52.3422 164.224 49.8942C164.422 49.709 164.532 49.4283 164.683 49.0642C164.768 48.8937 164.853 48.8511 164.937 48.8085C166.616 47.8505 168.367 48.356 170.102 48.5577ZM362.356 94.2163C364.111 94.2349 365.862 94.4735 367.616 94.611C369.75 94.7783 371.883 94.9887 374.022 95.0709C376.067 95.1496 378.121 95.0378 380.167 95.1092C381.176 95.1445 382.203 95.3227 383.162 95.6079C383.488 95.705 383.63 96.3271 383.857 96.7093C383.545 96.8019 383.24 96.9207 382.921 96.9801C382.551 97.0492 382.17 97.0661 381.729 97.0463C377.474 96.9079 373.284 96.7975 369.093 96.7649C367.396 96.7516 365.697 96.9701 364 96.9604C363.168 96.9557 362.334 96.684 361.507 96.5085C360.645 96.3255 360.387 95.6102 360.708 95.0879C360.984 94.639 361.79 94.2103 362.356 94.2163ZM182.733 52.0961C183.693 56.6695 184.581 61.2585 185.521 65.8362C186.004 68.1863 185.43 69.1617 183.409 70.3028C180.739 71.8104 178.156 73.4898 175.604 75.2027C174.325 76.0607 173.277 76.3593 172.576 75.6813C171.915 75.0412 171.807 74.4775 172.689 73.8771C175.449 71.998 178.222 70.1319 180.891 68.1223C181.472 67.6847 181.996 66.6401 181.936 65.9291C181.717 63.3323 181.254 60.7562 180.854 58.177C180.687 57.1007 180.448 56.0364 180.241 54.8379C180.142 53.7806 179.859 52.8183 180.013 51.9357C180.109 51.3825 180.806 50.6271 181.331 50.5324C182.263 50.3644 182.577 51.3514 182.733 52.0961ZM358.691 41.4101C358.847 41.5728 358.932 42.0159 358.822 42.1776C358.297 42.9533 357.693 43.6769 357.052 44.4829C354.986 47.2994 353.01 50.071 350.952 52.7815C350.683 53.1365 349.811 53.4747 349.536 53.3072C348.838 52.8811 349.467 52.4266 349.757 51.9437C351.68 48.7394 353.541 45.4986 355.447 42.2841C356.325 40.804 357.752 40.4282 358.691 41.4101ZM300.085 0.0010137C300.422 0.0291989 300.8 0.43552 301.027 0.770694C301.86 2.0004 301.422 3.38269 301.257 4.66023C300.967 6.88929 300.443 9.08649 300.035 11.3004C299.845 12.3343 299.695 13.376 299.527 14.5423C299.19 16.2775 298.824 17.879 298.524 19.493C297.978 22.4248 297.491 25.3677 296.942 28.299C296.485 30.7443 295.991 33.1828 295.486 35.6186C294.657 39.6178 293.834 43.6187 292.948 47.6048C292.705 48.6985 291.853 49.1082 291.155 48.5848C290.919 48.4083 290.684 47.9561 290.74 47.6942C292.046 41.5968 293.447 35.5198 294.714 29.4143C295.646 24.9255 296.313 20.3788 297.285 15.8998C298.211 11.6327 298.688 7.35486 298.551 2.98829C298.527 2.23301 298.881 1.43532 299.189 0.713243C299.328 0.38613 299.798 -0.0230494 300.085 0.0010137ZM230.875 30.2817C231.121 30.697 231.373 31.1083 231.623 31.6519C232.038 33.8609 232.467 35.9368 232.864 38.0191C233.064 39.0687 233.218 40.1286 233.368 41.1876C233.405 41.4507 233.346 41.7288 233.331 42C232.964 41.9385 232.373 42.0009 232.269 41.7947C231.736 40.7326 231.255 39.6265 230.893 38.488C230.479 37.1837 230.306 35.7906 229.839 34.5118C229.583 33.812 228.887 33.3023 228.482 32.6446C228.131 32.0757 227.719 31.4244 227.702 30.7988C227.691 30.3973 228.292 29.7228 228.718 29.62C229.463 29.4401 230.348 29.3904 230.875 30.2817Z" fill="#00160A"/>
<path d="M145.944 157.745C147.458 157.339 148.554 156.519 148.392 155.914C148.23 155.308 146.87 155.146 145.356 155.552C143.841 155.958 142.745 156.778 142.907 157.383C143.07 157.989 144.429 158.151 145.944 157.745Z" fill="#FFB61D"/>
<path fill-rule="evenodd" clip-rule="evenodd" d="M156.368 152.822C157.449 152.416 158.073 151.596 157.85 150.991C157.641 150.385 156.841 150.223 155.973 150.629C155.021 151.034 154.172 151.854 154.167 152.46C154.176 153.065 155.201 153.227 156.368 152.822Z" fill="#FFB61D"/>
</svg>
