<svg width="64" height="64" viewBox="0 0 64 64" fill="none" xmlns="http://www.w3.org/2000/svg">
<rect width="64" height="64" rx="8" fill="#C7FFF4"/>
<path d="M40.0762 8H24.1052C21.2868 8.0032 19.0028 10.2872 19 13.1056V50.8946C19.0028 53.7131 21.2868 55.9971 24.1052 55.9999H40.0762C42.8947 55.9971 45.1786 53.7131 45.1818 50.8946V13.1056C45.1786 10.2872 42.8947 8.0032 40.0762 8ZM42.9997 50.8946C42.9981 52.5086 41.6902 53.8166 40.0762 53.8182H24.1052C22.4913 53.8166 21.1833 52.5086 21.1817 50.8946V13.1056C21.1833 11.4913 22.4913 10.1833 24.1052 10.1817H40.0762C41.6902 10.1833 42.9981 11.4913 42.9997 13.1056V50.8946Z" fill="#171A21"/>
<path d="M35.3419 12.3638H28.7717C28.167 12.3638 27.6765 12.852 27.6765 13.4544C27.6765 14.0569 28.167 14.5454 28.7717 14.5454H35.3419C35.9467 14.5454 36.4367 14.0569 36.4367 13.4544C36.4367 12.852 35.9467 12.3638 35.3419 12.3638Z" fill="#171A21"/>
<path d="M34.2468 49.4541C34.2468 50.6594 33.2663 51.6362 32.0568 51.6362C30.8469 51.6362 29.8665 50.6594 29.8665 49.4541C29.8665 48.2492 30.8469 47.2725 32.0568 47.2725C33.2663 47.2725 34.2468 48.2492 34.2468 49.4541Z" fill="#171A21"/>
</svg>
