<svg width="220" height="160" viewBox="0 0 220 160" fill="none" xmlns="http://www.w3.org/2000/svg">
<path fill-rule="evenodd" clip-rule="evenodd" d="M219.34 60.5371C216.621 80.8134 213.551 91.5237 195.634 112.758C177.717 133.992 95.7272 147.961 65.4157 147.961C35.1041 147.961 -2.25139 124.587 0.106228 97.5055C2.46385 70.4236 14.7639 48.2887 44.2046 45.5639C74.2915 42.7793 100.72 55.6745 130.258 48.7585C155.795 42.7793 163.609 19.9884 181.148 12.798C216.621 -1.74406 221.19 46.7431 219.34 60.5371Z" fill="#EFFEFB"/>
<path d="M201.091 70.4402C200.089 72.1388 187.403 80.7342 179.707 82.0063C178.218 82.2524 176.592 82.3369 175.298 81.5593C174.534 81.1 173.965 80.3837 173.424 79.6749C172.187 78.0545 171.007 76.3906 169.887 74.6874C169.299 73.7924 168.715 72.858 168.515 71.8057C167.985 69.0189 170.232 66.5158 172.452 64.75C177.555 60.6911 183.53 57.7342 189.853 56.139C190.972 55.8566 192.159 55.6175 193.267 55.9382C195.067 56.4588 196.143 58.2797 196.83 60.0227C197.516 61.7657 198.052 63.6722 199.424 64.9473C199.738 65.2385 202.093 68.7415 201.091 70.4402Z" fill="white"/>
<path fill-rule="evenodd" clip-rule="evenodd" d="M132.922 144.491C120.609 146.597 126.477 137.648 128.175 126.447C130.965 108.043 134.406 80.0735 134.406 80.0735C134.406 80.0735 136.65 122.692 136.65 133.069C136.65 143.446 134.406 144.238 132.922 144.491Z" fill="white"/>
<path d="M119.766 134.352C120.08 137.315 120.411 140.342 121.671 143.043C120.984 136.926 120.297 130.81 119.609 124.693C119.525 123.938 119.55 122.976 120.245 122.668C120.832 129.575 121.709 136.457 122.871 143.291C123.009 144.102 121.791 144.566 121.106 144.109C120.422 143.652 120.203 142.762 120.047 141.954C118.913 136.065 118.29 130.079 118.186 124.083C116.742 124.367 115.73 125.767 115.437 127.209C115.145 128.651 115.427 130.141 115.708 131.585C116.614 136.235 117.519 140.884 118.425 145.534C118.848 147.708 119.272 149.955 118.804 152.121C117.007 143.916 115.562 135.634 114.475 127.305C100.686 135.737 82.9181 137.305 67.8651 131.418C64.5775 130.133 61.3125 128.429 59.141 125.646C57.4304 123.453 56.5177 120.731 56.0395 117.992C54.3412 108.263 57.8214 98.3388 62.5451 89.6655C64.3374 86.3746 66.3787 82.9469 66.234 79.2023C66.1842 77.9131 65.9062 76.4857 66.6591 75.4379C66.7657 75.6319 61.7306 39.6147 63.7504 31.6478C68.6131 12.4681 84.4097 9.87063 94.5238 10.1072C101.31 10.2659 144.325 18.8144 150.54 30.4394C158.708 45.7179 156.974 58.5633 155.523 67.0332C155.091 69.5554 134.412 79.8877 134.406 79.9399C133.224 90.9302 125.29 114.878 118.637 123.705C119.013 127.254 119.389 130.803 119.766 134.352Z" fill="white"/>
<path fill-rule="evenodd" clip-rule="evenodd" d="M20.4767 89.6327C16.5986 88.0846 11.9771 88.5437 8.48077 90.8244C8.14228 91.0451 7.65563 90.799 7.48806 90.4317C7.3205 90.0644 7.38318 89.637 7.46889 89.2426C8.58555 84.1038 13.034 80.1718 17.9811 78.3649C22.9281 76.5579 28.3394 76.5528 33.5982 76.8617C34.12 76.8924 34.6654 76.9331 35.1105 77.2067C35.5556 77.4802 35.855 78.0651 35.6332 78.5376C33.5645 82.9427 32.0062 87.5863 30.9992 92.3463C30.8359 93.1182 30.0361 93.6303 29.2484 93.6947C28.4607 93.759 27.6889 93.4684 26.9741 93.1319C24.7463 92.0834 22.7637 90.5456 20.4767 89.6327Z" fill="white"/>
<path fill-rule="evenodd" clip-rule="evenodd" d="M139.677 12.0575C139.87 9.10967 139.647 6.13502 139.019 3.24851L139.005 3.18697C138.899 2.69891 138.789 2.19688 138.887 1.70842C139.105 0.628137 140.305 -0.0221046 141.406 0.000574423C142.508 0.0232535 143.529 0.549162 144.504 1.06275C149.179 3.52576 153.939 6.05093 157.62 9.84239C157.735 12.9119 157.012 15.941 156.298 18.9312L156.231 19.2122C153.25 31.7103 150.808 44.3372 148.916 57.0459C148.735 58.264 148.391 59.7009 147.236 60.1275C146.407 60.4335 145.443 60.0424 144.855 59.3837C144.266 58.7251 143.984 57.8505 143.788 56.9892C143.304 54.864 143.245 52.6426 143.618 50.495C143.845 49.1818 144.23 47.9044 144.615 46.6267L144.615 46.6267L144.615 46.6266L144.615 46.6265L144.615 46.6265L144.615 46.6264L144.615 46.6263L144.615 46.6262C144.96 45.479 145.306 44.3315 145.538 43.1575C145.77 41.9836 145.887 40.7904 146.001 39.5992C146.604 33.2647 147.116 26.9215 147.536 20.5722C147.595 19.675 147.649 18.7495 147.355 17.8997C146.833 16.3883 145.31 15.433 143.772 14.995C143.507 14.9195 143.237 14.8553 142.968 14.7911L142.968 14.7911C142.341 14.6416 141.715 14.4923 141.143 14.201C140.326 13.7847 139.617 12.9728 139.677 12.0575ZM142.534 11.8153C144.708 12.2741 146.833 12.9669 148.86 13.8778C149.268 14.0613 149.697 14.276 149.917 14.6653C150.097 14.9833 150.108 15.3662 150.113 15.7316C150.177 20.023 150.19 24.3257 149.736 28.5934C149.464 31.1489 149.025 33.682 148.586 36.215L148.586 36.2153C148.447 37.017 148.308 37.8187 148.174 38.621C147.513 42.5917 146.981 46.5839 146.579 50.5891C146.287 53.4951 146.073 56.4988 146.977 59.2761C147.441 59.1913 147.62 58.6328 147.708 58.1695L156.062 14.137C156.264 13.0702 156.466 11.9672 156.228 10.9078C155.81 9.05307 154.164 7.76345 152.577 6.71705C149.521 4.70264 146.269 2.987 142.881 1.60252C142.599 4.99842 142.483 8.40807 142.534 11.8153ZM146.83 40.7337C148.359 32.8811 149.05 24.8654 148.887 16.8669C148.875 16.2628 148.843 15.6136 148.473 15.1355C148.202 14.7851 147.789 14.58 147.385 14.399C145.867 13.7192 144.272 13.2134 142.64 12.8946C142.167 12.8024 141.473 12.9023 141.494 13.3832L147.359 15.8071C147.703 15.9493 148.07 16.1101 148.264 16.4275C148.455 16.7389 148.436 17.1301 148.412 17.4943L146.83 40.7337ZM141.371 0.825725C140.888 0.505145 140.189 0.835607 139.92 1.34947C139.65 1.86333 139.691 2.47849 139.752 3.05545C139.842 3.90198 139.96 4.74895 140.078 5.59604C140.405 7.94617 140.732 10.2972 140.454 12.6425C140.898 12.7947 141.393 12.4821 141.608 12.0653C141.823 11.6486 141.829 11.1591 141.83 10.6901L141.845 2.23278C141.846 1.71589 141.802 1.11133 141.371 0.825725ZM145.715 59.0852C145.448 56.9952 145.379 54.8801 145.507 52.7771C145.575 51.6527 145.7 50.5322 145.824 49.412L145.824 49.4117C145.989 47.93 146.154 46.4487 146.189 44.9592C144.971 48.5853 144.511 52.4643 144.847 56.2747C144.934 57.2659 145.097 58.3053 145.715 59.0852ZM146.385 42.8173C146.581 42.7294 146.664 42.454 146.548 42.273C146.349 42.3711 146.264 42.649 146.375 42.8414L146.385 42.8173ZM144.564 24.6563C134.868 18.677 123.905 15.0946 112.942 12.0033C109.437 11.0152 105.903 10.0683 102.284 9.66286C91.562 8.46165 80.6921 12.1611 71.7765 18.2376C68.2009 20.6746 64.7511 23.6722 63.2062 27.7142C62.06 30.7132 62.0679 34.0148 62.1784 37.2234C62.5597 48.2897 63.9796 59.2909 65.398 70.2725C66.5068 70.0725 66.6164 68.5389 66.4558 67.4236C64.981 57.1824 64.1541 46.848 63.9817 36.5026C63.9333 33.6016 63.9485 30.6275 64.9524 27.9054C66.7698 22.9777 71.457 19.755 76.0562 17.2188C81.849 14.0244 88.1461 11.3391 94.7598 11.1966C102.771 11.0239 110.365 14.5775 117.363 18.4804C121.265 20.6562 125.221 23.086 127.703 26.8003C129.956 30.173 130.775 34.2833 131.367 38.2964C133.243 51.0332 133.312 63.9586 133.377 76.8328C133.38 77.3536 133.348 77.9504 132.94 78.2742C132.661 78.4955 132.28 78.5232 131.925 78.5417L118.855 79.222C124.945 80.9731 131.701 80.2825 137.311 77.3352L151.834 69.7061C153.189 68.994 154.588 68.2461 155.522 67.0331C156.808 65.3638 156.992 63.118 157.053 61.0118C157.277 53.2329 156.499 45.4256 154.745 37.8438C155.353 46.0455 155.437 54.286 154.997 62.4985C154.922 63.9009 154.809 65.3723 154.047 66.5517C153.232 67.8114 151.816 68.5248 150.467 69.1806L134.794 76.798C135.443 64.6206 134.94 52.3821 133.294 40.299C132.74 36.235 132.034 32.1141 130.174 28.4584C125.779 19.8193 116.051 15.5457 107.059 11.9246C120.502 15.8572 134.097 19.855 146.191 26.9198C146.348 25.9438 145.405 25.1753 144.564 24.6563ZM194.651 61.8282C195.348 63.6242 196.327 65.5385 198.128 66.223C198.555 66.256 198.809 65.6904 198.669 65.2861C198.553 64.9484 198.278 64.7025 198.008 64.461C197.954 64.4133 197.901 64.3659 197.85 64.3179C196.704 63.2533 196.141 61.7487 195.587 60.2665L195.587 60.2654C195.477 59.9726 195.368 59.6807 195.255 59.3933C194.568 57.6503 193.492 55.8294 191.693 55.3088C190.584 54.9881 189.397 55.2272 188.278 55.5096C181.956 57.1048 175.98 60.0617 170.877 64.1207C168.657 65.8864 166.411 68.3895 166.94 71.1763C167.14 72.2286 167.724 73.163 168.312 74.058C169.432 75.7612 170.612 77.4251 171.849 79.0455C172.39 79.7543 172.959 80.4706 173.723 80.9299C175.017 81.7075 176.643 81.623 178.132 81.3769C185.828 80.1048 192.414 75.3222 198.682 70.679C199.008 70.4373 199.347 70.1799 199.516 69.8108C199.685 69.4417 199.613 68.9282 199.255 68.7377C198.844 68.5193 198.359 68.8209 197.993 69.1078C192.16 73.674 185.93 78.1361 178.699 79.7402C177.328 80.0443 175.817 80.2234 174.584 79.5521C173.661 79.05 173.037 78.147 172.449 77.2766L168.801 71.8788C168.494 71.4241 168.175 70.9355 168.164 70.3869C168.152 69.8382 168.596 69.2449 169.14 69.3157C174.254 69.9807 179.391 70.4587 184.54 70.7485C184.95 70.7715 185.379 70.7901 185.752 70.6195C186.233 70.3998 186.526 69.9133 186.783 69.4509C188.963 65.5216 190.628 61.3072 191.722 56.9491C193.177 57.9923 193.856 59.7592 194.503 61.4452L194.579 61.6422L194.651 61.8282ZM190.15 56.6045C189.176 60.2492 187.735 63.7688 185.873 67.05C185.561 67.6 185.214 68.1665 184.669 68.486C183.974 68.8926 183.11 68.816 182.311 68.7268L169.573 67.3054C171.686 64.5128 174.826 62.7003 177.963 61.143C180.932 59.6689 183.98 58.3539 187.09 57.2057C188.074 56.8421 189.107 56.4899 190.15 56.6045ZM119.765 134.351C120.08 137.315 120.411 140.342 121.67 143.043L119.609 124.693C119.524 123.938 119.549 122.976 120.244 122.668C120.832 129.575 121.709 136.457 122.871 143.291C123.009 144.102 121.79 144.566 121.106 144.109C120.421 143.652 120.202 142.762 120.047 141.954C118.913 136.065 118.289 130.078 118.185 124.083C116.742 124.367 115.729 125.767 115.437 127.209C115.145 128.651 115.426 130.141 115.708 131.585L118.424 145.534C118.848 147.708 119.271 149.955 118.804 152.121C117.007 143.916 115.562 135.634 114.475 127.305C100.685 135.737 82.9175 137.305 67.8646 131.418C64.5769 130.133 61.3119 128.429 59.1404 125.646C57.4299 123.453 56.5171 120.731 56.0389 117.992C54.3406 108.263 57.8208 98.3387 62.5445 89.6654C62.6676 89.4395 62.7918 89.2129 62.9164 88.9856C64.6068 85.9023 66.3682 82.6898 66.2335 79.2023C66.2246 78.9719 66.2084 78.7371 66.1921 78.5008L66.1921 78.5006C66.1172 77.4148 66.0402 76.2983 66.6585 75.4378C67.4878 76.9465 67.8036 78.7315 67.5423 80.4332C81.818 79.8187 96.1147 79.695 110.399 80.0622C110.565 80.719 109.614 81.0241 108.937 81.0139C95.6063 80.8151 82.2698 81.0422 68.954 81.6948C68.5324 81.7154 68.0897 81.7429 67.7322 81.9674C67.3561 82.2036 67.137 82.618 66.9349 83.0134C63.1557 90.4079 59.3642 97.91 57.5375 106.011C56.5981 110.177 56.2383 114.736 58.1636 118.548C58.894 119.994 59.927 121.271 61.0804 122.409C67.2724 128.516 76.5446 130.389 85.2406 130.243C90.7907 130.149 96.3286 129.351 101.679 127.874C107.352 126.308 113.009 123.84 116.881 119.408C119.155 116.806 120.7 113.654 122.054 110.474C124.638 104.403 126.62 98.0755 127.962 91.6147C128.802 91.7915 128.813 92.9794 128.62 93.8157C126.221 104.163 123.434 115.191 115.534 122.291C108.399 128.703 98.3452 130.692 88.7675 131.228C83.2349 131.538 77.6152 131.441 72.2564 130.031C66.8977 128.621 61.7811 125.799 58.3791 121.425C59.3713 125.208 62.7323 127.909 66.2314 129.656C75.4188 134.243 86.268 134.001 96.4125 132.406C103.17 131.344 110.106 129.601 115.365 125.226C119.861 121.487 122.726 116.146 124.882 110.711C127.269 104.695 128.925 98.3891 129.801 91.9763C130.347 91.6314 130.752 92.5961 130.683 93.2382C129.501 104.229 125.29 114.878 118.636 123.705L119.765 134.351ZM113.376 153.145C112.79 152.155 112.412 151.042 112.276 149.9L111.433 152.754L109.308 144.648C109.143 144.019 108.742 143.232 108.106 143.367C107.488 143.499 107.418 144.347 107.51 144.972C107.973 148.117 108.856 151.2 110.129 154.113L107.868 152.129C107.759 153.073 108.007 154.055 108.553 154.833C107.376 153.966 105.796 153.67 104.385 154.053C105.394 155.454 106.763 156.594 108.324 157.331L106.414 154.665C107.958 155.556 109.575 156.319 111.245 156.945L109.626 154.916L111.626 155.47C110.096 151.989 108.537 148.376 108.574 144.573C109.153 147.667 110.001 150.709 111.105 153.656C111.292 154.155 111.5 154.672 111.898 155.026C112.297 155.38 112.944 155.514 113.362 155.182C113.686 154.924 113.781 154.479 113.855 154.071L114.755 149.077L115.744 155.271C116.494 153.376 118.934 152.902 120.971 152.889C123.662 152.872 126.372 153.169 129.076 153.464L129.076 153.464C133.95 153.997 138.801 154.527 143.471 153.217C143.333 153.939 143.094 154.641 142.76 155.296C146.528 154.748 150.341 154.507 154.148 154.577C155.756 154.607 157.369 154.691 158.982 154.776H158.982H158.982H158.982H158.982H158.982H158.982H158.983H158.983C163.246 155 167.51 155.223 171.687 154.432L143.963 154.188C144.483 154.158 144.882 153.553 144.705 153.062C144.528 152.572 143.834 152.362 143.414 152.672C143.141 151.805 141.916 151.419 141.196 151.974C141.613 150.688 142.438 149.537 143.523 148.729C142.299 148.663 141.056 149.038 140.072 149.769L143.054 135.968C142.802 135.751 142.381 135.897 142.195 136.172C142.01 136.445 141.99 136.792 141.97 137.121L141.97 137.131C141.691 141.844 140.029 146.466 137.243 150.278L136.15 147.113L134.582 150.893C133.872 150.343 132.864 150.204 132.031 150.542C132.244 151.35 132.89 152.03 133.687 152.283L134.058 151.289L136.507 152.93C135.571 151.949 135.368 150.344 136.03 149.161L137.512 151.647L140.385 145.966C140.401 148.247 139.423 150.403 138.465 152.473C139.507 151.657 140.402 150.655 141.096 149.529C141.766 150.715 141.034 152.306 139.869 153.012C138.704 153.718 137.264 153.756 135.903 153.698C133.826 153.611 131.734 153.35 129.644 153.089L129.644 153.089C124.951 152.504 120.271 151.921 115.812 153.303L115.17 147.375C114.188 149.15 113.573 151.127 113.376 153.145ZM141.347 153.303C141.246 153.183 141.247 152.99 141.348 152.87L141.429 152.901C141.566 152.575 142.138 152.601 142.243 152.939C141.979 153.129 141.669 153.255 141.347 153.303ZM156.494 90.3263C153.265 88.6943 149.422 89.1348 145.838 89.626C144.825 89.7648 143.793 89.9105 142.875 90.3615C141.958 90.8124 141.159 91.6291 141.001 92.639C132.247 91.5461 123.859 87.6931 117.326 81.7647C115.908 80.478 114.462 78.6459 115.099 76.8406C115.3 76.2731 115.69 75.7943 116.095 75.3496C119.141 72.0104 123.34 70.0022 127.428 68.0745C122.795 68.4808 118.349 70.7342 115.283 74.231C114.58 75.0324 113.932 75.9277 113.69 76.9658C113.093 79.5288 115.084 81.9334 117.076 83.653C123.433 89.1397 131.429 92.7028 139.76 93.7609C140.26 93.8244 140.285 94.5268 140.24 95.0283C140.037 97.2591 141.253 99.4361 142.938 100.912C144.624 102.387 146.735 103.273 148.829 104.066C155.317 106.524 162.049 108.333 168.894 109.46C169.346 109.534 169.967 109.499 170.062 109.051C168.483 108.006 166.581 107.608 164.722 107.219L164.422 107.155C159.709 106.163 155.059 104.871 150.509 103.289C148.643 102.64 146.772 101.931 145.145 100.811C143.518 99.6897 142.136 98.1063 141.615 96.2001C141.358 95.2588 141.707 93.8538 142.676 93.9722C146.619 94.4544 150.671 94.9307 154.522 93.9524C155.393 93.7311 156.302 93.3972 156.833 92.6718C157.364 91.9464 157.296 90.7319 156.494 90.3263ZM146.546 92.9321C145.193 92.699 143.81 92.6366 142.44 92.7468C143.106 91.483 144.731 91.1504 146.146 90.9577C149.222 90.5389 152.425 90.1304 155.371 91.1055C155.566 91.17 155.774 91.2522 155.879 91.4281C156.018 91.6598 155.917 91.975 155.72 92.1596C155.523 92.3442 155.254 92.4279 154.994 92.5006C152.256 93.2658 149.348 93.4143 146.546 92.9321ZM101.751 156.688C104.016 156.625 106.295 157.126 108.326 158.133C107.783 158.913 106.692 159.022 105.743 159.058L80.9266 160C80.6992 159.972 80.6564 159.621 80.8175 159.458C80.9786 159.295 81.2304 159.274 81.4593 159.263L105.685 158.081C104.285 157.953 102.919 157.469 101.751 156.688ZM53.993 74.6161C53.6393 76.3074 55.0702 78.1118 56.7933 78.2397C53.9755 82.4861 48.9 84.5817 44.0232 86.0611C40.9794 86.9844 37.6031 87.7426 34.7015 86.4398C34.3414 86.6598 34.7254 87.2016 35.1056 87.3848C37.9293 88.7455 41.2771 87.9873 44.2807 87.091C48.6854 85.7764 53.2257 84.0774 56.223 80.5923C56.3452 80.4502 56.4669 80.3038 56.5895 80.1565L56.5909 80.1549L56.5912 80.1546C57.3626 79.2274 58.167 78.2606 59.3268 78.0461C63.061 77.3555 66.171 75.0167 69.2442 72.7056L69.2443 72.7055L69.2445 72.7054L69.2447 72.7053L69.2448 72.7052C69.9416 72.1811 70.6366 71.6585 71.3364 71.1569C75.5914 68.1073 80.3106 65.7067 85.2811 64.0636C85.72 63.9184 86.2539 63.6491 86.2148 63.1884C80.0525 63.754 74.666 67.4289 69.6992 71.1203L69.5336 71.2434L69.5335 71.2435C66.158 73.7529 62.6307 76.3751 58.4774 76.997C59.8341 75.927 59.5477 73.4545 58.017 72.6529C56.4864 71.8513 54.3466 72.9248 53.993 74.6161ZM55.1429 75.6495C54.8659 74.829 55.2934 73.8531 56.0532 73.4375C56.2688 73.3196 56.5101 73.241 56.7559 73.2408C57.5673 73.24 58.1598 74.1078 58.1651 74.9191C58.1704 75.7303 57.7592 76.4787 57.3594 77.1847C56.4245 77.0415 55.4454 76.5457 55.1429 75.6495ZM147.355 57.5711C147.125 57.3154 147.196 56.971 147.269 56.6141C147.321 56.362 147.374 56.1037 147.323 55.8661C147.279 55.6602 147.158 55.4848 147.038 55.3088C146.931 55.1532 146.824 54.9971 146.77 54.8189C146.782 54.5835 147.097 54.4627 147.311 54.5604C147.526 54.658 147.646 54.8884 147.721 55.1119C147.994 55.9276 147.854 56.8704 147.355 57.5711ZM126.581 39.6715C127.155 38.3102 128.293 37.103 129.745 36.8266C130.215 36.7372 130.2 35.9629 129.788 35.7194C129.377 35.476 128.848 35.6199 128.417 35.8254C126.406 36.7826 125.136 38.8894 124.639 41.0602C124.141 43.231 124.306 45.4918 124.473 47.7125L125.362 59.5168C125.392 59.9182 125.429 60.3395 125.653 60.6743C126.108 61.3561 127.084 61.3775 127.902 61.3255L132.043 61.0625C131.123 60.3413 129.888 60.0377 128.738 60.25C128.066 60.374 127.392 59.9311 127.036 59.3483C126.68 58.7655 126.576 58.068 126.488 57.3908C125.911 52.9607 125.699 48.4831 125.855 44.0183C125.907 42.5417 126.007 41.0329 126.581 39.6715ZM137.155 144.45C136.919 144.62 136.684 144.232 136.649 143.943C135.049 130.491 134.808 116.919 134.568 103.374L134.407 94.2423C134.402 93.9823 134.406 93.6973 134.573 93.498C134.861 93.1549 135.466 93.3122 135.717 93.6828C135.969 94.0534 135.969 94.5334 135.961 94.9811C135.714 108.31 135.876 121.665 137.152 134.935L137.199 135.42C137.492 138.434 137.789 141.494 137.155 144.45ZM123.85 59.6548C123.499 59.4623 123.067 59.5713 122.683 59.6848C104.941 64.9321 87.2402 70.3427 69.7997 76.5182C69.4732 76.6338 69.0999 76.8003 69.025 77.1385C68.9457 77.4966 69.2828 77.8387 69.6435 77.9051C70.0042 77.9715 70.369 77.8425 70.7133 77.7159C88.1915 71.2862 105.933 65.5717 123.878 60.5914C124.263 60.4845 124.2 59.8474 123.85 59.6548Z" fill="#00160A"/>
<path fill-rule="evenodd" clip-rule="evenodd" d="M187.062 139.923C186.649 140.104 186.202 140.273 185.757 140.196C185.312 140.12 184.897 139.703 184.986 139.26C185.802 135.217 184.777 130.839 182.25 127.578C181.365 126.435 180.311 125.43 179.448 124.27C178.904 123.539 178.42 122.62 178.696 121.752C179.088 120.516 180.669 120.216 181.962 120.128C184.968 119.923 187.975 119.718 190.981 119.513C192.366 119.419 193.962 119.405 194.886 120.44C197.461 123.324 202.478 123.517 205.266 120.841C205.698 120.427 206.241 121.251 206.224 121.849C206.17 123.729 205.395 125.579 204.094 126.937C203.787 127.257 203.394 127.57 202.953 127.525C202.511 127.479 202.186 126.845 202.538 126.575C203.293 125.995 204.061 125.4 204.591 124.609C205.12 123.818 205.377 122.781 205.016 121.9C203.074 124.357 201.113 126.799 199.134 129.226C195.703 133.434 192.033 137.739 187.062 139.923ZM192.485 127.539C191.991 127.676 191.464 127.571 190.971 127.432C187.423 126.429 184.154 123.657 180.524 124.306C184.756 127.714 187.003 133.429 186.226 138.808C189.014 138.21 191.216 136.129 193.191 134.072C196.115 131.027 198.891 127.84 201.506 124.527C199.626 124.511 197.753 123.969 196.156 122.978C194.183 123.466 194.444 126.998 192.485 127.539ZM195.062 121.941C193.886 120.555 191.774 120.598 189.964 120.757C187.602 120.965 185.241 121.172 182.88 121.379C181.922 121.464 180.821 121.632 180.321 122.454C184.408 123.31 188.392 124.653 192.162 126.448C192.646 124.925 193.618 123.561 194.899 122.605C195.043 122.498 195.208 122.36 195.189 122.181C195.179 122.09 195.121 122.011 195.062 121.941V121.941Z" fill="#FFB61D"/>
<path fill-rule="evenodd" clip-rule="evenodd" d="M20.0187 88.8961C16.4625 87.474 12.2246 87.8957 9.01853 89.9909C8.70814 90.1937 8.26189 89.9676 8.10823 89.6302C7.95458 89.2927 8.01205 88.9001 8.09065 88.5378C9.11461 83.817 13.1938 80.2048 17.7302 78.5448C22.2666 76.8849 27.2287 76.8802 32.0509 77.164C32.5294 77.1921 33.0295 77.2296 33.4377 77.4809C33.8458 77.7322 34.1205 78.2695 33.917 78.7035C32.0201 82.7503 30.5911 87.0162 29.6677 91.3891C29.518 92.0982 28.7846 92.5686 28.0623 92.6278C27.34 92.6869 26.6322 92.4199 25.9767 92.1108C23.9338 91.1475 22.1158 89.7348 20.0187 88.8961ZM20.4252 84.1197C20.1083 84.3772 19.6129 84.2412 19.3147 83.9622C19.0165 83.6832 18.8465 83.2972 18.6121 82.9628C17.3547 81.1692 14.4693 81.318 12.759 82.6865C11.0486 84.055 10.221 86.2174 9.46735 88.2741C14.4851 86.0946 20.6652 86.8768 24.9818 90.2375C25.5712 90.6964 26.1559 91.2134 26.8817 91.3901C27.6074 91.5667 28.5217 91.2493 28.7055 90.5253C29.6875 86.6578 30.8976 82.8483 32.3275 79.123C29.5839 82.5332 23.8222 81.3598 20.4252 84.1197ZM19.3333 82.0586C19.6151 82.4126 20.1267 82.5066 20.5721 82.4267C21.0174 82.3468 21.422 82.125 21.837 81.9446C23.2657 81.3236 24.848 81.185 26.3797 80.9011C27.9114 80.6171 29.4912 80.1365 30.5694 79.0122C28.1366 79.0049 25.7038 78.9976 23.271 78.9903C20.8262 78.9829 18.1915 79.0347 16.2274 80.4907C17.4231 80.5343 18.5882 81.1225 19.3333 82.0586Z" fill="#FFB61D"/>
<path fill-rule="evenodd" clip-rule="evenodd" d="M134.27 88.5698C134.264 86.4299 134.259 84.29 134.253 82.1501C134.251 81.5356 134.25 80.9211 134.248 80.3066C134.247 79.8828 134.318 79.3525 134.721 79.2207C135.025 79.1211 135.361 79.34 135.503 79.6271C135.646 79.9142 135.644 80.2488 135.639 80.5693C135.595 83.5555 135.55 86.5418 135.506 89.528C135.499 89.9574 135.427 90.4858 135.025 90.6365C134.355 90.2567 134.272 89.3405 134.27 88.5698H134.27Z" fill="#00160A"/>
<path fill-rule="evenodd" clip-rule="evenodd" d="M129.998 86.5896C129.689 86.7254 129.529 86.215 129.577 85.8803C129.748 84.6819 129.92 83.4812 130.211 82.3063C130.393 81.5749 130.654 80.8053 131.258 80.3548C131.862 79.9043 132.9 79.9831 133.195 80.6763C133.339 81.0121 133.279 81.3958 133.213 81.7548C132.807 83.9778 132.259 86.175 131.574 88.3288C131.545 88.4202 131.513 88.5155 131.444 88.5819C131.276 88.7434 130.972 88.6348 130.855 88.4327C130.739 88.2306 130.754 87.9815 130.772 87.7489C131.05 87.7286 131.18 87.4014 131.247 87.1307C131.52 86.0248 131.793 84.9189 132.065 83.813C132.278 82.9525 132.471 81.9726 131.977 81.2368C131.47 81.5492 131.279 82.1813 131.128 82.7577C130.824 83.9175 130.521 85.0772 130.217 86.237C130.18 86.3756 130.13 86.532 129.998 86.5896L129.998 86.5896Z" fill="#00160A"/>
<path d="M42.8715 56.5191L48.3592 35.7827L63.573 50.9009L42.8715 56.5191Z" fill="#FE9A0C"/>
<g filter="url(#filter0_biiii_356_27202)">
<path d="M67.4451 31.7904L62.726 62.2824L36.9834 36.7014L67.4451 31.7904Z" fill="url(#paint0_linear_356_27202)"/>
</g>
<path d="M46.5006 52.8666L49.3113 42.2456L57.1036 49.989L46.5006 52.8666Z" fill="url(#paint1_linear_356_27202)"/>
<defs>
<filter id="filter0_biiii_356_27202" x="15.9834" y="10.7903" width="72.4619" height="72.4922" filterUnits="userSpaceOnUse" color-interpolation-filters="sRGB">
<feFlood flood-opacity="0" result="BackgroundImageFix"/>
<feGaussianBlur in="BackgroundImageFix" stdDeviation="10.5"/>
<feComposite in2="SourceAlpha" operator="in" result="effect1_backgroundBlur_356_27202"/>
<feBlend mode="normal" in="SourceGraphic" in2="effect1_backgroundBlur_356_27202" result="shape"/>
<feColorMatrix in="SourceAlpha" type="matrix" values="0 0 0 0 0 0 0 0 0 0 0 0 0 0 0 0 0 0 127 0" result="hardAlpha"/>
<feOffset dx="10" dy="10"/>
<feGaussianBlur stdDeviation="11.5"/>
<feComposite in2="hardAlpha" operator="arithmetic" k2="-1" k3="1"/>
<feColorMatrix type="matrix" values="0 0 0 0 0.996078 0 0 0 0 0.603922 0 0 0 0 0.0470588 0 0 0 0.18 0"/>
<feBlend mode="normal" in2="shape" result="effect2_innerShadow_356_27202"/>
<feColorMatrix in="SourceAlpha" type="matrix" values="0 0 0 0 0 0 0 0 0 0 0 0 0 0 0 0 0 0 127 0" result="hardAlpha"/>
<feOffset dy="2"/>
<feGaussianBlur stdDeviation="3"/>
<feComposite in2="hardAlpha" operator="arithmetic" k2="-1" k3="1"/>
<feColorMatrix type="matrix" values="0 0 0 0 1 0 0 0 0 1 0 0 0 0 1 0 0 0 0.05 0"/>
<feBlend mode="normal" in2="effect2_innerShadow_356_27202" result="effect3_innerShadow_356_27202"/>
<feColorMatrix in="SourceAlpha" type="matrix" values="0 0 0 0 0 0 0 0 0 0 0 0 0 0 0 0 0 0 127 0" result="hardAlpha"/>
<feOffset dy="1"/>
<feComposite in2="hardAlpha" operator="arithmetic" k2="-1" k3="1"/>
<feColorMatrix type="matrix" values="0 0 0 0 1 0 0 0 0 1 0 0 0 0 1 0 0 0 0.05 0"/>
<feBlend mode="normal" in2="effect3_innerShadow_356_27202" result="effect4_innerShadow_356_27202"/>
<feColorMatrix in="SourceAlpha" type="matrix" values="0 0 0 0 0 0 0 0 0 0 0 0 0 0 0 0 0 0 127 0" result="hardAlpha"/>
<feOffset dy="-10"/>
<feGaussianBlur stdDeviation="5"/>
<feComposite in2="hardAlpha" operator="arithmetic" k2="-1" k3="1"/>
<feColorMatrix type="matrix" values="0 0 0 0 0.996078 0 0 0 0 0.603922 0 0 0 0 0.0470588 0 0 0 0.4 0"/>
<feBlend mode="overlay" in2="effect4_innerShadow_356_27202" result="effect5_innerShadow_356_27202"/>
</filter>
<linearGradient id="paint0_linear_356_27202" x1="96.7348" y1="78.4869" x2="35.7427" y2="60.9189" gradientUnits="userSpaceOnUse">
<stop stop-color="#FE9A0C" stop-opacity="0.01"/>
<stop offset="1" stop-color="#FE9A0C" stop-opacity="0.12"/>
</linearGradient>
<linearGradient id="paint1_linear_356_27202" x1="48.5237" y1="43.0383" x2="55.6741" y2="50.3721" gradientUnits="userSpaceOnUse">
<stop stop-color="white"/>
<stop offset="1" stop-color="white" stop-opacity="0"/>
</linearGradient>
</defs>
</svg>
