<svg width="165" height="160" viewBox="0 0 165 160" fill="none" xmlns="http://www.w3.org/2000/svg">
<path d="M143.871 118.639C142.881 137.948 127.409 155.447 108.445 159.21C89.4799 162.974 68.7242 152.963 59.4834 135.98C58.4636 134.106 57.5555 132.14 56.6475 130.174C54.3032 125.1 51.9597 120.027 47.6982 116.537C42.8325 112.551 36.5748 111.485 30.254 110.409C26.2403 109.725 22.2011 109.037 18.4769 107.594C9.49898 104.117 2.52809 95.878 0.584874 86.4482C-2.56413 71.1671 7.41039 55.5655 20.7118 47.4107C34.0132 39.2559 49.9966 36.9848 65.5003 35.2347C71.4311 34.5653 76.2486 30.0959 79.6894 25.2192C81.0214 23.3312 82.2199 21.3474 83.4175 19.365C85.3133 16.2267 87.207 13.0921 89.6249 10.3474C99.8632 -1.27488 118.929 -3.23608 131.969 5.12099C145.01 13.4781 151.252 30.6626 147.784 45.7581C147.187 48.358 146.339 50.8897 145.491 53.4215L145.491 53.4219C144.679 55.8454 143.868 58.2692 143.275 60.7532C142.01 66.0627 141.769 71.5571 141.624 77.0134C141.453 83.5188 141.412 90.0413 142.021 96.5204C142.233 98.7743 142.524 101.025 142.814 103.276C143.474 108.39 144.134 113.502 143.871 118.639Z" fill="#EFFEFB"/>
<path d="M65.4787 30.6229C72.5698 27.0952 78.2136 20.9687 81.7677 13.8909C82.2337 12.9629 82.6753 11.9768 82.659 10.9385C82.6426 9.90017 82.0385 8.80036 81.0341 8.53667C79.5947 8.15877 78.3568 9.53886 77.4592 10.7259C71.2931 18.8801 62.3183 25.2815 52.1909 26.6776C48.3013 27.2138 44.3523 27.0124 40.4312 26.81L34.3066 26.4937C29.3737 26.2391 24.3723 25.9895 19.5438 27.0304C14.7153 28.0713 9.99719 30.5746 7.34521 34.7418C6.50109 36.0682 5.86881 37.6313 6.10237 39.1861C6.34172 40.7794 7.47425 42.1317 8.83847 42.9889C10.2027 43.8461 11.7876 44.2749 13.3583 44.6337C14.5083 44.8964 15.6829 45.1291 16.8596 45.0463C18.7834 44.9108 20.5292 43.9542 22.2279 43.0234C22.3411 42.9614 22.4541 42.8995 22.5668 42.8379C25.5358 41.2182 28.6122 39.7798 31.8209 38.711C36.5001 37.1524 41.4203 36.3897 46.3282 35.6288C52.9402 34.6038 59.53 33.5823 65.4787 30.6229Z" fill="#EFFEFB"/>
<path d="M28.603 124.602L28.6071 124.602C28.8961 124.614 29.185 124.625 29.4731 124.64C34.0297 124.877 38.5389 125.995 42.6791 127.912C44.2577 128.643 45.8565 129.558 46.7431 131.055C47.8401 132.907 49.157 134.629 50.6572 136.172C51.2392 136.771 51.8694 137.357 52.6465 137.663C53.4235 137.969 54.383 137.941 55.0134 137.393C55.7793 136.728 55.829 135.547 55.593 134.56C55.2062 132.943 54.2415 131.534 53.2868 130.173C50.1538 125.707 46.8554 121.241 42.4956 117.962C38.1357 114.683 32.5091 112.697 27.1725 113.83C25.3298 114.221 23.5036 115.018 22.2819 116.452C21.0603 117.886 20.5775 120.044 21.4573 121.709C22.1553 123.031 23.5704 123.844 25.0192 124.21C26.1868 124.505 27.3961 124.554 28.6027 124.602H28.603Z" fill="#EFFEFB"/>
<path d="M151.854 57.4273C150.636 56.968 149.256 57.5227 148.225 58.3175C146.189 59.8873 144.984 62.343 144.436 64.8551C143.888 67.3671 143.932 69.9657 143.979 72.5365L144.382 94.6251C144.411 96.2388 144.483 97.9781 145.475 99.2509C145.786 99.6492 146.211 99.9989 146.713 100.05C147.322 100.112 147.886 99.7278 148.326 99.3019C150.731 96.9733 151.047 93.305 151.334 89.9615L151.345 89.84C151.768 84.9321 152.5 80.0509 153.537 75.2349C153.828 73.8806 154.148 72.5177 154.758 71.2736C156.669 67.3737 156.212 62.4232 153.619 58.939C153.15 58.3088 152.589 57.7044 151.854 57.4273Z" fill="#EFFEFB"/>
<path d="M108.222 87.3255C109.507 87.6795 110.658 88.7498 110.784 90.077C111.028 89.549 111.564 89.1675 112.142 89.1095L111.302 90.0022L112.365 90.0234L110.903 90.8401C111.809 92.5169 111.662 94.5852 111.081 96.4007C110.726 97.5119 110.211 98.625 110.311 99.7875C110.41 100.931 111.425 102.099 112.535 101.865L112.591 101.852C113.925 101.515 115.385 101.71 116.584 102.385C118.306 103.356 119.351 105.158 120.535 106.741C121.58 108.138 122.817 109.438 124.363 110.248C125.908 111.057 127.804 111.325 129.414 110.652C130.213 110.319 130.929 109.767 131.777 109.591C132.625 109.415 133.493 109.887 133.805 110.69C133.943 111.046 133.646 112.363 132.892 113.901C133.015 113.866 133.143 113.843 133.277 113.834C137.243 113.577 141.246 112.714 144.659 110.678C145.744 110.031 146.758 109.272 147.764 108.508L148.35 108.061L148.705 107.787C150.913 106.077 153.093 104.17 154.001 101.569L154.048 101.429L154.149 101.121C154.343 100.539 154.589 99.9375 155.151 99.7567C155.929 99.5066 156.637 100.259 157.11 100.926L160.516 105.729C160.604 105.852 160.693 105.98 160.727 106.127C160.874 106.78 159.9 107.109 159.272 106.878C158.131 106.456 157.215 105.201 156.017 105.416C155.175 105.568 154.672 106.383 154.256 107.151L154.151 107.347C151.63 112.066 147.388 115.842 142.407 117.799C141.124 118.304 139.797 118.69 138.473 119.076L135.797 119.855L136.269 119.939C140.261 120.639 144.52 121.067 148.145 119.298C150.559 118.12 152.418 116.092 154.172 114.043L154.808 113.295L155.071 112.983C156.147 111.691 157.17 110.309 157.484 108.672C157.605 108.044 158.398 107.744 159.015 107.914C159.632 108.085 160.102 108.573 160.539 109.04L163.85 112.585C164.111 112.864 164.386 113.172 164.424 113.553C164.462 113.933 164.121 114.363 163.754 114.257L160.163 113.214C159.826 113.116 159.453 113.02 159.136 113.17C158.893 113.285 158.736 113.52 158.597 113.753L154.737 120.273C153.649 122.109 151.635 123.173 149.655 123.969C144.908 125.878 139.756 126.775 134.643 126.583C134.088 126.562 133.532 126.528 132.983 126.442C130.921 126.117 129.058 125.068 127.254 124.007C127.57 125.164 127.289 126.139 125.41 126.214C123.747 126.279 119.672 119.429 118.404 119.074C111.487 117.134 110.352 113.305 108.129 110.69C108.129 110.69 103.638 111.271 100.674 110.652C93.7234 109.203 89.0527 104.746 87.3688 104.462C85.6849 104.179 84.5745 105.258 84.0546 104.603L84.0546 104.129C84.135 103.998 84.9397 103.246 87.2351 103.735C90.4404 104.417 95.5643 106.991 99.4774 107.472C103.585 107.977 107.065 107.309 107.046 107.196C107.006 106.968 108.039 105.996 107.214 105.505C106.389 105.014 94.4128 100.207 91.8097 96.2017L91.7785 96.1518C91.3309 95.4089 90.9909 93.5628 91.8915 94.4079L92.1436 93.9608C93.1134 94.8753 96.2971 96.9656 99.6045 99.0263C103.101 101.205 108.039 102.6 108.129 102.539C110.142 101.178 108.357 100.193 108.024 99.9034C107.244 99.2263 106.209 98.8571 105.537 98.0729C103.926 96.1917 105.077 92.8266 103.235 91.1704C102.956 90.9198 102.618 90.7226 102.416 90.4068C102.07 89.8658 102.24 89.113 102.659 88.6263C103.078 88.1397 103.691 87.8679 104.298 87.6563C105.556 87.2168 106.936 86.9715 108.222 87.3255Z" fill="white"/>
<circle cx="109.301" cy="96.9454" r="0.475223" fill="#FFB61D"/>
<ellipse cx="106.404" cy="96.9454" rx="0.35243" ry="0.475223" fill="#FFB61D"/>
<path d="M110.957 76.1626C108.107 79.8815 103.896 82.3159 99.2512 82.9302C94.6061 83.5445 89.9073 82.2884 86.1884 79.4382C82.4695 76.588 80.0351 72.3772 79.4208 67.7321C78.8065 63.0871 80.0626 58.3883 82.9128 54.6693L110.957 76.1626Z" fill="#00CBA9"/>
<g filter="url(#filter0_biiii_356_28105)">
<path d="M116.802 91.7712C121.861 85.1702 124.109 76.8439 123.051 68.6241C121.994 60.4043 117.717 52.9644 111.163 47.9409C104.608 42.9175 96.3123 40.722 88.1002 41.8376C79.8881 42.9531 72.4324 47.2883 67.3733 53.8894L116.802 91.7712Z" fill="url(#paint0_linear_356_28105)"/>
</g>
<path d="M104.811 72.5654C103.101 74.7968 100.574 76.2574 97.7872 76.626C95.0001 76.9946 92.1808 76.2409 89.9495 74.5308C87.7181 72.8207 86.2575 70.2942 85.8889 67.5072C85.5204 64.7201 86.274 61.9008 87.9841 59.6695L104.811 72.5654Z" fill="url(#paint1_linear_356_28105)"/>
<path d="M89.1824 99.2482C84.7641 98.1057 80.1204 97.842 75.6012 98.477C75.9429 96.788 76.371 95.1165 76.8831 93.4711C75.4126 93.9456 73.6765 92.598 73.7716 91.0557C73.8667 89.5135 75.7551 88.3893 77.1562 89.0409C77.6375 87.9304 77.668 86.6321 77.2394 85.5002C77.0338 84.9571 77.8533 84.6439 78.434 84.6438L81.6422 84.6431C82.0907 84.643 82.716 84.4347 82.6046 84.0003C82.3404 82.9702 83.0487 81.7931 84.0826 81.5443C85.0977 81.2999 86.2405 81.995 86.5028 83.0023L86.5164 83.0586C86.76 84.1404 88.1304 84.484 89.2391 84.4627L89.791 84.4494C90.75 84.4293 91.7494 84.4605 92.3912 85.1312C93.1589 85.9334 92.9873 87.211 92.7343 88.3001L92.7173 88.3724C92.3589 89.8842 91.9766 91.3903 91.5708 92.89C92.3589 99.2325 90.4073 99.5649 89.1824 99.2482Z" fill="white"/>
<path d="M52.3306 93.9527C51.8622 90.9043 51.8629 87.7843 52.3325 84.7361L52.3563 84.5886C52.4728 83.8968 52.6775 83.1665 53.2555 82.7854C53.6883 82.5001 54.2348 82.4787 54.756 82.4785L58.7467 82.4895C58.9284 82.49 59.1274 82.4967 59.264 82.6165C59.4006 82.7363 59.3968 83.0113 59.2218 83.0598C58.8038 83.1756 58.5635 83.6576 58.6143 84.0884C58.665 84.5192 58.9451 84.8921 59.274 85.1749C60.0585 85.8492 61.2777 86.0887 62.146 85.5265C63.0143 84.9643 63.2185 83.516 62.3957 82.889C64.2598 82.8511 66.1248 82.857 67.9886 82.9066L68.6875 82.9272C68.9134 82.9345 69.1631 82.9526 69.3209 83.1143C69.4394 83.2358 69.4784 83.4123 69.5052 83.5799C69.7115 84.8702 69.4858 86.2258 68.8725 87.3796C68.7749 87.5634 68.5487 87.7659 68.3946 87.626C67.7397 87.0315 66.6383 87.1125 65.9682 87.6898C65.2981 88.2671 65.039 89.2259 65.1575 90.1024C65.2715 90.9461 65.8864 91.8471 66.7366 91.8045C67.4063 91.771 68.1509 91.1854 68.6569 91.6253L67.8044 95.4344C67.6529 96.1111 67.3811 96.9138 66.703 97.0588C62.7885 97.8961 58.6842 97.8328 54.7974 96.8752L54.6088 96.8275C54.1372 96.7041 53.6673 96.5443 53.2992 96.2292C52.6587 95.6809 52.4587 94.7861 52.3306 93.9527Z" fill="white"/>
<path d="M83.0415 64.062L92.501 64.2521L92.6556 64.2559C92.9397 64.2648 93.2259 64.2898 93.4817 64.4091C94.06 64.679 94.325 65.3443 94.5009 65.9577C95.4395 69.2321 95.3236 72.8 94.1745 76.0065L94.1262 76.1379C93.9767 76.5324 93.7811 76.9257 93.428 77.1476C93.1373 77.3304 92.7829 77.3685 92.4382 77.3869L92.3645 77.3906C90.9579 77.4574 89.5464 77.4214 88.145 77.2831C88.8748 76.8338 89.0591 75.74 88.5957 75.019C88.1323 74.2981 87.1531 73.997 86.3287 74.2312C85.8261 74.3739 85.3581 74.7173 85.1762 75.2071C84.9944 75.6968 85.1702 76.3258 85.6346 76.565C85.9559 76.7304 85.9005 77.2512 85.6192 77.478C85.338 77.7048 84.9471 77.7209 84.5858 77.7267L79.8398 77.8037C79.4831 77.8095 79.108 77.811 78.7948 77.6401C78.3507 77.3978 78.1464 76.8758 78.0213 76.3856C77.7194 75.2027 77.6786 73.954 77.9026 72.7539C78.1724 73.7016 79.3403 74.2772 80.2562 73.9138C81.1721 73.5504 81.6278 72.3307 81.1744 71.4558C80.7211 70.5809 79.4619 70.2498 78.6368 70.7885L78.6025 70.4827C78.4841 69.411 78.3921 68.3252 78.598 67.2696C78.8234 66.1134 79.4665 64.9779 80.5207 64.4525C81.2897 64.0694 82.1776 64.0482 83.0415 64.062Z" fill="white"/>
<path d="M54.3516 74.7026C53.0196 74.7078 51.6873 74.6531 50.3601 74.5385L50.2312 74.5266C49.756 74.4791 49.2576 74.3841 48.9462 74.0306C48.5259 73.5536 48.6285 72.8344 48.7548 72.2052L48.7675 72.1425C49.3315 69.3815 49.5531 66.5508 49.4258 63.7356L49.4021 63.2503C49.3668 62.3776 49.4225 61.3878 50.1476 60.9389C50.3682 60.8023 50.6242 60.739 50.8795 60.6875L50.9645 60.6707C55.6065 59.7665 60.4399 59.8581 65.0443 60.9377C65.6506 61.0798 65.8193 61.9012 65.6183 62.4906C65.4172 63.0799 64.9855 63.5754 64.8239 64.1768C64.6624 64.7782 64.9585 65.5924 65.5809 65.6119C66.8763 65.6524 67.9743 66.9685 67.8002 68.2528C67.6261 69.537 66.238 70.511 64.9673 70.256C64.6691 70.1962 64.5636 70.6369 64.5963 70.9393L64.959 74.2918C65.0181 74.839 64.2416 75.0118 63.6929 74.9691L60.4916 74.7199C59.9886 74.6808 59.3141 74.7675 59.2366 75.266C59.0436 76.5072 57.771 77.4764 56.5233 77.3324C55.2755 77.1885 54.2569 75.955 54.3516 74.7026Z" fill="white"/>
<path fill-rule="evenodd" clip-rule="evenodd" d="M45.7346 95.335C46.0898 95.4214 46.5982 95.5748 46.57 95.9106C46.0016 102.68 43.5547 101.435 41.3728 103.376C40.7962 103.889 40.4517 105.102 40.204 105.13C41.1223 105.554 42.4549 107.255 44.7483 107.333C51.1382 107.549 53.464 102.887 53.464 102.887C53.6143 101.392 52.8561 98.6995 53.8025 99.4534C54.4557 99.9738 54.3266 97.4385 55.2189 97.6909C55.4871 97.7668 55.0188 99.4525 55.2189 99.5533C55.3296 99.6091 55.4932 99.1494 55.7786 98.7839C56.0166 98.4791 56.3838 98.2532 56.4597 98.3198C56.5112 98.365 56.4618 98.8007 56.2475 99.1693C55.9463 99.6875 55.4426 100.186 55.5131 100.269C55.5907 100.361 56.919 99.1246 56.9999 99.2326C57.5373 99.9496 54.1332 108.202 48.3888 109.76L47.9339 109.882C44.5853 110.771 43.1791 110.893 40.0766 109.76C38.6055 109.222 37.6906 114.241 36.8729 115.911C36.3566 116.966 33.8488 119.551 32.7036 118.769C31.1928 117.738 29.9609 115.818 28.6751 114.847L28.5925 114.786C27.7163 114.158 25.7345 113.205 22.6471 111.926L22.7862 111.862C23.4303 111.569 25.0895 110.853 26.3635 109.76C28.1737 108.205 29.1541 104.867 30.416 103.067C31.6619 101.289 33.3339 101.551 32.3248 101.236C32.3248 101.236 29.7679 99.8817 28.5925 99.7577C24.667 99.3435 19.5497 101.199 17.9126 102.394C15.6664 104.035 17.8981 106.449 14.7944 105.265C13.76 104.871 16.5325 99.7623 20.3568 97.6909C25.6725 94.8117 30.6987 94.0197 35.7379 98.603C37.7887 100.468 37.9917 102.129 38.5416 103.395L38.4291 103.085C44.5081 102.684 35.3997 96.5977 43.0039 95.0746C43.8025 94.9146 44.6406 95.0811 45.4411 95.2662L45.7346 95.335Z" fill="white"/>
<circle cx="41.8196" cy="99.5592" r="0.475223" fill="#FFB61D"/>
<circle cx="44.4334" cy="100.509" r="0.475223" fill="#FFB61D"/>
<path fill-rule="evenodd" clip-rule="evenodd" d="M16.8451 117.989C21.9962 121.556 15.4055 116.629 21.0337 122.5C22.1702 123.686 27.9247 116.915 28.5183 120.928C28.7348 122.391 28.2627 123.915 28.5505 125.366C28.8191 126.721 34.7097 125.908 35.1647 125.315C36.8141 123.168 31.681 117.652 30.6047 116.77C24.5986 111.851 22.6167 112.192 17.0048 117.282L16.8451 117.989Z" fill="white"/>
<path fill-rule="evenodd" clip-rule="evenodd" d="M150.845 28.8354C151.855 28.9562 152.795 29.0685 152.795 27.8909C152.795 27.6108 149.394 25.1496 148.387 26.0974C147.091 27.3162 146.062 28.7139 145.065 30.0678C142.973 32.9099 141.023 35.5587 137.046 35.9534L136.998 35.9587C135.457 36.1448 138.329 37.5128 141.554 35.9534C143.771 34.8812 146.721 31.4891 148.122 29.878C148.489 29.4563 148.749 29.1567 148.863 29.0524L148.892 29.0274C149.37 28.6591 150.125 28.7494 150.845 28.8354ZM155.642 32.0225L159.006 34.693C159.661 35.2133 158.894 36.3345 158.059 36.3882C157.574 36.4194 157.11 36.2703 156.642 36.1204C156.304 36.012 155.965 35.9031 155.616 35.8619C153.641 35.6283 152.134 37.4891 150.909 39.0562C149.789 40.4884 148.562 41.8373 147.243 43.0883L147.064 43.256L146.879 43.4271C145.817 44.3919 144.627 45.2659 143.227 45.5177C141.165 45.8885 139.118 44.8329 137.434 43.5872C137.023 43.2831 136.619 42.9642 136.215 42.6451C134.965 41.6568 133.712 40.6667 132.229 40.1119C130.944 40.8132 129.741 41.6607 128.642 42.6274L128.691 42.5889C130.535 44.4372 131.825 46.8321 132.353 49.3891L132 49.3272L131.767 49.2875C129.588 48.922 127.255 48.7058 125.413 49.872C124.764 50.283 124.185 50.8568 123.613 51.4243C123.214 51.8193 122.819 52.2113 122.405 52.5429C122.511 52.6054 122.618 52.6702 122.728 52.7376C124.766 53.5711 126.926 54.105 129.117 54.3167C129.452 54.3491 129.791 54.3748 130.13 54.4006L130.13 54.4006C131.702 54.52 133.294 54.6409 134.638 55.43L135.109 55.7117C135.865 56.1593 136.707 56.5852 137.34 56.0671C137.522 55.918 137.642 55.7137 137.761 55.5084L137.761 55.5083C137.834 55.3835 137.907 55.2583 137.995 55.1449C138.226 54.8453 138.685 54.6344 138.973 54.8805L139.09 55.7961C139.174 55.2071 139.743 54.7283 140.338 54.7448C140.932 54.7614 141.473 55.271 141.525 55.8638C141.619 56.9399 140.399 57.5839 139.364 57.9265L133.996 59.6563C132.078 60.2743 129.952 59.9541 128.103 59.153C126.382 58.4071 124.864 57.2718 123.412 56.0786L123.091 55.8127C121.995 54.9007 120.513 53.9099 119.27 54.6075C121.431 54.7389 123.006 56.6008 124.295 58.3617L124.419 58.5318C124.627 58.8194 124.842 59.1221 124.894 59.4736C125.038 60.4577 123.92 61.1109 122.976 61.4237C123.772 61.8498 123.377 63.0873 122.761 63.7465C121.864 64.7054 120.69 65.3956 119.423 65.7374L119.307 66.1376L119.3 66.1622L119.298 66.1713L119.297 66.1764C119.297 66.1781 119.297 66.1789 119.297 66.179C119.894 66.1375 120.263 66.9403 120.02 67.4876C119.776 68.0349 119.175 68.3264 118.599 68.4894C116.699 69.0265 114.554 68.6028 113.001 67.3839L112.699 67.5412C111.387 68.2202 110.031 68.8516 108.573 69.0656C107.002 69.2961 105.274 68.9725 104.139 67.8634L104.214 68.0268C104.374 68.3827 104.518 68.7511 104.524 69.1389C104.529 69.5865 104.298 70.0697 103.874 70.2133C103.174 70.4503 102.563 69.7026 102.2 69.0593C102.001 69.5546 102.206 70.1119 102.406 70.6537C102.633 71.2718 102.853 71.8698 102.458 72.3326C102.046 72.8147 101.265 72.6912 100.698 72.4069C98.5754 71.3421 97.578 68.6618 98.0379 66.3317C98.4978 64.0017 100.173 62.0504 102.168 60.7619C100.814 59.769 99.8229 58.2909 99.4192 56.6607C99.5267 56.7995 100.007 56.3532 100.689 55.7191C101.937 54.5592 103.861 52.7713 105.415 52.788C105.713 52.7911 106.193 53.0215 106.664 53.2472L106.664 53.2472C107.005 53.4106 107.341 53.5715 107.599 53.6419C107.62 53.6144 107.646 53.5895 107.676 53.5678L107.382 53.3565C106.79 52.9363 106.173 52.5411 105.472 52.367C104.655 52.1638 103.687 52.331 103.167 52.9928C101.894 54.6111 100.281 55.9607 98.4635 56.9284L99.5408 58.9174C99.0955 59.1301 98.5409 59.0912 98.1275 58.8228L98.0767 58.7883L98.1086 58.8281C98.7291 59.6374 98.1838 61.0485 97.1682 61.2085C96.1373 61.6411 95.0977 60.3491 95.1993 59.2358C95.2704 58.4555 95.6569 57.7641 96.0441 57.0714C96.2094 56.7757 96.3749 56.4798 96.516 56.1766C96.9926 55.1524 97.2021 54.0148 97.4104 52.8843C97.6958 51.3349 97.9787 49.799 98.9434 48.5879C99.619 47.7397 100.565 47.1499 101.536 46.6661C105.387 44.7464 109.946 44.2873 114.103 45.4005C114.811 42.8637 116.215 40.5248 118.12 38.7067L118.234 38.6001C118.963 37.9284 119.87 37.3284 120.837 37.4385L120.913 37.4487C121.873 37.5952 122.708 36.8542 123.406 36.1685L123.621 35.9573L123.789 35.7949C125.174 34.4721 126.782 33.2514 128.674 33.1197C130.357 33.0026 131.969 33.7754 133.422 34.6334C135.065 35.6041 136.629 36.7107 138.091 37.9379L138.348 38.1557C138.417 38.2144 138.486 38.2737 138.555 38.3332C139.934 39.5177 141.443 40.8138 143.238 40.7064C145.079 40.5963 146.423 39.0685 147.662 37.6607C147.762 37.5468 147.862 37.4337 147.961 37.3222C149.489 35.6018 151.229 34.0872 152.991 32.6036L153.746 31.9691C153.975 31.7775 154.221 31.5779 154.517 31.5395C154.933 31.4854 155.313 31.7615 155.642 32.0225ZM122.377 61.1847C122.003 61.1102 121.493 61.1428 120.847 61.2824C121.272 61.284 121.631 61.2763 121.922 61.2595C122.063 61.2421 122.203 61.2202 122.341 61.1925L122.377 61.1847ZM108.524 52.9473C108.66 52.8074 108.804 52.6598 108.963 52.5336L108.964 52.5334L108.964 52.5331C109.261 52.3766 109.595 52.2972 109.932 52.3292C111.072 52.4375 111.935 53.6497 111.786 54.7848C111.184 56.2757 109.695 57.1264 108.223 57.9678C107.316 58.4861 106.415 59.0009 105.731 59.6596C105.903 59.3767 106.09 59.1509 106.281 59.0123C106.875 58.5796 107.497 58.2047 108.082 57.8513C108.575 57.5543 109.042 57.2725 109.446 56.9845C110.083 56.5312 110.51 56.1004 110.842 55.7667C111.095 55.5115 111.292 55.3129 111.483 55.2043C111.499 55.1955 112.217 53.7395 110.481 52.7879C109.17 52.0694 108.586 52.9784 108.272 53.4668C108.17 53.6253 108.097 53.7395 108.036 53.7395C108.02 53.7395 107.998 53.7371 107.971 53.7323C108.014 53.5774 108.08 53.4278 108.165 53.2877L108.165 53.2876L108.165 53.2874C108.282 53.1948 108.4 53.0742 108.524 52.9473ZM108.165 53.2874L108.165 53.2875L108.165 53.2877L108.122 53.3203C108.035 53.3831 107.948 53.4294 107.859 53.4505C107.678 53.493 107.249 53.1634 106.885 52.8841C106.667 52.7172 106.473 52.5682 106.37 52.5277C105.689 52.2608 105.609 52.2571 105.137 52.2347L105.137 52.2347C105.058 52.2309 104.967 52.2266 104.86 52.2204L104.664 52.2081C104.621 52.2057 104.574 52.2037 104.524 52.2015C104.132 52.1851 103.569 52.1615 103.682 51.8573C105.692 46.4154 114.283 45.2311 112.863 51.3828C112.745 51.8914 112.437 52.3366 112.129 52.7818C111.974 53.0044 111.82 53.227 111.69 53.4575C111.135 52.6687 110.53 52.2529 109.875 52.2101C109.511 52.1862 109.218 52.3326 108.964 52.5331L108.964 52.5333L108.963 52.5336L108.894 52.5718C108.596 52.7445 108.341 52.9954 108.165 53.2874ZM124.477 47.6897L124.479 47.6866C124.006 48.5853 123.499 49.6671 122.956 50.9318C123.364 49.8081 123.875 48.7225 124.477 47.6897ZM128.308 48.5186L128.242 48.5211C127.718 48.5431 127.247 48.6215 126.831 48.7564C126.369 48.906 125.878 49.1562 125.357 49.507C126.268 49.002 127.276 48.6642 128.308 48.5186Z" fill="white"/>
<path fill-rule="evenodd" clip-rule="evenodd" d="M101.502 71.3103C101.09 71.7923 100.493 71.6368 99.9461 71.1036C98.8016 69.9879 98.3417 67.835 98.8016 65.505C99.2615 63.1749 101.054 62.2149 103.049 60.9263C102.154 60.5576 100.532 58.2197 100.369 55.9478C100.921 56.6598 100.95 57.9378 101.502 58.6498C102.026 59.3255 103.072 60.148 103.596 60.8237C103.662 60.91 103.72 61.0549 103.625 61.1088C101.713 62.1951 100.473 62.5546 99.3452 65.5048C98.2171 68.455 100.507 71.184 100.812 71.1036C101.187 71.0046 101.054 70.5072 100.838 70.1848C100.231 69.2751 100.809 68.0622 101.304 67.0869C101.569 67.3836 100.932 68.235 101.066 69.1201C101.197 69.9844 101.869 70.8811 101.502 71.3103Z" fill="#E7EAEE"/>
<circle cx="109.301" cy="61.5411" r="0.475223" fill="#FFB61D"/>
<circle cx="107.638" cy="59.6403" r="0.475223" fill="#FFB61D"/>
<path fill-rule="evenodd" clip-rule="evenodd" d="M147.769 31.0123C148.295 30.0841 149.13 29.2299 150.189 29.0999C150.478 29.0644 150.772 29.0843 151.065 29.1043C151.462 29.1312 151.856 29.1579 152.234 29.0476C152.891 28.8556 153.35 27.8763 152.771 27.5093C151.694 26.8257 150.536 26.2703 149.328 25.8585C148.935 25.7243 148.406 25.6489 148.186 26.0017C146.763 28.282 145.242 30.5401 143.247 32.3418C141.252 34.1434 138.72 35.4694 136.033 35.5594C135.92 35.7903 136.288 35.9469 136.545 35.9358C140.172 35.7787 143.348 33.3454 145.561 30.4672L145.645 30.3586C145.913 30.0137 146.209 29.6661 146.626 29.5563C147.087 29.4349 147.684 29.8223 147.556 30.2812C146.473 34.1771 143.053 37.3225 139.08 38.0763C138.95 38.5104 139.683 38.5926 140.101 38.418C142.528 37.4056 145.06 36.1667 146.392 33.9003C146.672 33.4253 146.889 32.9182 147.107 32.411L147.107 32.4109C147.31 31.936 147.514 31.4611 147.769 31.0123ZM149.064 26.8258L149.157 26.8539C149.731 27.0359 150.294 27.2544 150.84 27.5076C151.08 27.6187 151.331 27.7502 151.456 27.983C151.581 28.2157 151.501 28.5728 151.244 28.6362C151.07 28.6831 150.991 28.4333 150.948 28.2577C150.906 28.0821 150.633 27.9259 150.589 28.1011C150.6 28.2709 150.533 28.4445 150.41 28.5617C150.288 28.5864 150.19 28.4572 150.158 28.3372C150.15 28.3069 150.144 28.2755 150.137 28.2441C150.119 28.1513 150.1 28.0582 150.037 27.9903C149.952 27.8994 149.75 27.933 149.762 28.0565C149.794 28.3877 149.622 28.7305 149.338 28.9028C149.053 29.075 148.669 29.068 148.391 28.8855C148.051 28.6621 147.67 28.4995 147.273 28.4077L148.029 27.1328C148.087 27.0371 148.15 26.9432 148.239 26.8752C148.466 26.6998 148.782 26.7448 149.064 26.8258ZM148.386 29.4884C147.828 29.535 147.254 29.3236 146.859 28.9264L146.919 28.9159C147.462 28.8326 148.044 29.0576 148.386 29.4884ZM113.001 67.3837C114.554 68.6026 116.699 69.0263 118.599 68.4892C119.175 68.3262 119.776 68.0348 120.019 67.4874C120.263 66.9401 119.894 66.1373 119.297 66.1788C119.191 66.1326 119.106 66.3026 119.161 66.4037C119.198 66.4708 119.261 66.5146 119.325 66.5587L119.325 66.5588C119.357 66.5812 119.39 66.6036 119.419 66.6292C119.658 66.839 119.626 67.2439 119.428 67.4929C119.231 67.7418 118.918 67.8669 118.613 67.9573C116.844 68.4822 114.841 68.1439 113.343 67.0675C113.786 66.9399 114.149 66.564 114.261 66.1163L112.709 66.9359C111.394 67.6304 110.049 68.3351 108.581 68.5732C107.113 68.8113 105.473 68.5045 104.452 67.4228C104.196 67.1517 103.712 67.4836 103.677 67.8546C103.653 68.1079 103.742 68.3491 103.832 68.5913C103.874 68.7038 103.915 68.8165 103.946 68.9307C104.042 69.2907 103.953 69.7761 103.592 69.8689L102.022 68.109C101.527 69.0843 101.601 70.3242 102.208 71.2338C102.424 71.5562 102.143 72.0268 101.768 72.1258C101.393 72.2248 100.999 72.0616 100.669 71.8584C98.7962 70.7052 98.041 68.1891 98.5838 66.0575C99.1265 63.926 100.762 62.1951 102.675 61.1088C102.77 61.0549 102.712 60.9099 102.645 60.8236C102.384 60.4858 102.051 60.2056 101.717 59.9253C101.384 59.6451 101.051 59.3648 100.789 59.027C100.513 58.671 100.309 58.2574 100.104 57.8438C99.8996 57.4302 99.695 57.0166 99.4191 56.6606C99.8228 58.2907 100.814 59.7689 102.168 60.7617C100.173 62.0502 98.4977 64.0015 98.0378 66.3316C97.5779 68.6616 98.5752 71.3419 100.698 72.4068C101.265 72.691 102.046 72.8145 102.458 72.3325C102.853 71.8696 102.633 71.2716 102.406 70.6535C102.206 70.1117 102.001 69.5544 102.2 69.0592C102.563 69.7024 103.174 70.4501 103.874 70.2131C104.298 70.0695 104.529 69.5863 104.523 69.1388C104.517 68.6912 104.326 68.2696 104.139 67.8632C105.274 68.9723 107.002 69.2959 108.572 69.0654C110.143 68.8349 111.596 68.1204 113.001 67.3837ZM107.122 60.9968C107.27 60.6704 107.653 60.435 107.994 60.5448C108.186 60.6066 108.005 60.7026 107.785 60.8193C107.614 60.9095 107.42 61.0122 107.357 61.1211C107.212 61.3735 107.163 61.663 107.128 62.047C107.015 61.7066 106.973 61.3231 107.122 60.9968ZM109.083 60.0497C108.765 59.6474 108.203 59.4558 107.705 59.5798C109.01 59.9636 109.089 60.695 109.138 61.1527C109.155 61.3076 109.168 61.4311 109.224 61.4993C109.459 61.0432 109.402 60.452 109.083 60.0497ZM108.522 63.4738C107.664 63.8321 107.115 63.3125 107.273 63.1159C107.419 62.9342 107.454 62.9842 107.526 63.0835C107.574 63.1506 107.638 63.2403 107.764 63.2962C107.912 63.3623 108.16 63.3769 108.347 63.3878C108.551 63.3998 108.681 63.4074 108.522 63.4738ZM108.066 64.2044C109.216 64.3028 109.561 63.4996 109.012 63.7736C108.677 63.9403 108.312 63.9721 108.077 63.9925C107.926 64.0057 107.828 64.0142 107.828 64.0509C107.827 64.1554 107.962 64.1955 108.066 64.2044ZM106.328 62.4179C106.127 62.4566 105.826 62.4513 105.619 62.2492C105.412 62.0471 105.52 61.7127 105.619 61.6137C105.669 61.5636 105.699 61.6705 105.735 61.7995C105.77 61.925 105.81 62.0713 105.881 62.1142C105.992 62.181 106.157 62.207 106.276 62.2258L106.276 62.2258L106.276 62.2258L106.277 62.2259L106.277 62.2259L106.277 62.2259L106.278 62.226C106.329 62.2342 106.372 62.241 106.398 62.2492C106.511 62.2847 106.451 62.3942 106.328 62.4179ZM105.439 62.9329C105.521 63.0329 105.903 63.0853 105.803 62.9329C105.785 62.9056 105.764 62.9004 105.736 62.8935C105.696 62.8833 105.641 62.8695 105.558 62.7761C105.516 62.728 105.499 62.6525 105.484 62.5869C105.467 62.5159 105.454 62.4566 105.414 62.4566C105.276 62.4566 105.357 62.8329 105.439 62.9329ZM122.462 63.3491C122.809 63.0479 123.169 62.5871 122.963 62.1762C122.789 61.8277 122.362 61.7915 121.935 61.7552C121.507 61.7189 121.079 61.6826 120.907 61.3319L121.085 61.3245C122.069 61.2807 123.12 61.1675 123.81 60.4787C124.542 59.7482 124.35 58.1585 123.323 58.0363L118.648 57.4802C119.968 57.1365 121.366 57.0926 122.706 57.3528C122.532 56.1555 121.207 55.4482 119.999 55.3816C119.322 55.3442 118.649 55.4446 117.976 55.5451L117.976 55.5451C117.449 55.6238 116.921 55.7026 116.39 55.7154C114.718 55.7558 113.214 56.9154 112.407 58.3799C112.118 58.9022 111.869 59.7766 111.615 60.666C111.48 61.139 111.344 61.6164 111.2 62.0473C111.109 62.3207 110.851 62.2941 110.851 62.2941C110.804 64.051 109.037 65.5607 107.294 65.3322C105.552 65.1036 104.233 63.1891 104.641 61.4797C105.046 59.7828 106.625 58.8809 108.223 57.968C109.696 57.1266 111.185 56.2759 111.786 54.7849C111.936 53.6498 111.072 52.4376 109.933 52.3293C108.793 52.2211 107.681 53.3888 107.954 54.5006C107.531 54.4795 107.334 53.817 107.676 53.5678L107.382 53.3565C106.791 52.9364 106.173 52.5411 105.473 52.367C104.655 52.1639 103.688 52.331 103.167 52.9928C101.894 54.6111 100.281 55.9607 98.4639 56.9285L99.5413 58.9174C99.0775 59.139 98.4949 59.0875 98.0771 58.7882C98.7477 59.5901 98.2012 61.0459 97.1687 61.2086C96.1378 61.6411 95.0982 60.3492 95.1997 59.2358C95.2709 58.4555 95.6574 57.7642 96.0446 57.0714C96.2099 56.7757 96.3753 56.4798 96.5164 56.1766C96.993 55.1525 97.2026 54.0148 97.4109 52.8844C97.6963 51.3349 97.9792 49.7991 98.9438 48.588C99.6195 47.7397 100.566 47.1499 101.536 46.6662C105.388 44.7464 109.946 44.2874 114.103 45.4005C114.811 42.8637 116.215 40.5248 118.121 38.7067L118.234 38.6001C118.963 37.9285 119.87 37.3284 120.837 37.4386L120.914 37.4488C121.874 37.5952 122.708 36.8543 123.406 36.1685L123.621 35.9573C125.044 34.5736 126.705 33.2568 128.675 33.1197C130.358 33.0026 131.969 33.7754 133.422 34.6335C135.066 35.6042 136.629 36.7107 138.092 37.9379L138.349 38.1557C138.417 38.2145 138.486 38.2737 138.555 38.3332C139.934 39.5177 141.443 40.8138 143.239 40.7064C145.079 40.5963 146.424 39.0685 147.662 37.6607L147.666 37.6567C147.765 37.5442 147.863 37.4324 147.961 37.3222C149.49 35.6018 151.23 34.0872 152.991 32.6036L153.747 31.9692C153.976 31.7775 154.222 31.5779 154.517 31.5395C154.934 31.4855 155.313 31.7616 155.642 32.0225L159.006 34.6931C159.662 35.2133 158.894 36.3345 158.059 36.3883C157.575 36.4194 157.11 36.2703 156.643 36.1205C156.305 36.012 155.966 35.9032 155.617 35.8619C153.641 35.6284 152.135 37.4891 150.909 39.0563C149.789 40.4884 148.563 41.8374 147.243 43.0883L147.065 43.256C145.957 44.287 144.71 45.2511 143.227 45.5177C141.166 45.8885 139.118 44.8329 137.434 43.5872C137.023 43.2832 136.62 42.9643 136.216 42.6452C134.965 41.6568 133.712 40.6667 132.229 40.1119C127.627 42.6235 124.083 47.0088 122.593 52.0362C124.523 49.0964 128.524 47.7074 131.861 48.8189L128.692 42.5889C130.536 44.4373 131.826 46.8321 132.354 49.3892L132.001 49.3272C129.756 48.9393 127.321 48.6642 125.413 49.872C124.764 50.283 124.186 50.8569 123.613 51.4243C122.552 52.4764 121.513 53.5063 120.091 53.4347C121.468 54.1251 122.715 55.0335 123.962 55.9427L123.963 55.9428C124.643 56.4383 125.323 56.9341 126.025 57.3949L126.243 57.5363C128.183 58.7761 130.409 59.7476 132.693 59.5392C134.09 59.4118 135.708 58.3566 135.374 56.9943C135.144 56.0561 134.108 55.5785 133.171 55.3442C131.99 55.0489 130.743 54.9176 129.502 54.7868C127.039 54.5273 124.597 54.2701 122.729 52.7376C124.766 53.5712 126.926 54.105 129.118 54.3168C129.453 54.3491 129.791 54.3748 130.131 54.4006L130.131 54.4006C131.703 54.52 133.295 54.6409 134.638 55.4301L135.11 55.7117C135.865 56.1593 136.707 56.5853 137.341 56.0671C137.523 55.918 137.642 55.7137 137.762 55.5084C137.835 55.3836 137.908 55.2583 137.995 55.145C138.227 54.8453 138.686 54.6344 138.973 54.8806L139.09 55.7962C139.175 55.2072 139.743 54.7283 140.338 54.7449C140.933 54.7614 141.474 55.2711 141.526 55.8639C141.62 56.94 140.4 57.5839 139.364 57.9266L133.997 59.6563C132.079 60.2743 129.953 59.9542 128.104 59.153C126.383 58.4071 124.864 57.2718 123.413 56.0787L123.091 55.8127C121.995 54.9007 120.514 53.91 119.27 54.6075C121.431 54.7389 123.007 56.6008 124.296 58.3618L124.419 58.5318C124.628 58.8194 124.843 59.1221 124.894 59.4736C125.038 60.4577 123.921 61.1109 122.977 61.4237C123.772 61.8499 123.378 63.0873 122.761 63.7465C121.436 65.1631 119.506 65.9932 117.566 65.98C119.366 65.4796 121.051 64.5738 122.462 63.3491ZM142.526 45.1642C144.691 45.0835 146.385 43.3538 147.835 41.7445L153.127 35.869C152.669 35.2082 151.728 35.0206 150.957 35.2472C150.185 35.4737 149.556 36.0317 149.014 36.6251C148.637 37.0365 148.289 37.4723 147.94 37.908L147.94 37.9083L147.94 37.9086C147.508 38.4482 147.077 38.9876 146.593 39.4801C145.719 40.3705 144.618 41.1212 143.375 41.2379C141.337 41.4294 139.617 39.9472 138.041 38.5885L138.038 38.5863L138.033 38.5822C137.917 38.4818 137.801 38.3821 137.686 38.2838C136.027 36.8662 134.213 35.631 132.285 34.6077C131.374 34.1237 130.407 33.679 129.377 33.6188C127.958 33.5359 126.591 34.1959 125.448 35.0413C124.872 35.4673 124.335 35.9426 123.798 36.4179L123.798 36.418L123.798 36.4181C123.269 36.8858 122.741 37.3536 122.175 37.7745C124.925 37.8307 127.64 38.9545 129.625 40.8586C129.135 41.07 128.621 40.7036 128.196 40.3588L128.11 40.288C126.332 38.825 123.963 38.1034 121.672 38.3274C124.322 38.6822 127.016 39.5627 128.899 41.4618C128.706 41.7417 128.273 41.5312 128.009 41.3169C126.358 39.977 124.327 39.1113 122.217 38.8486C121.886 38.8074 121.532 38.7844 121.236 38.9373C120.939 39.0902 120.742 39.4822 120.91 39.7705L122.734 42.8913C122.858 43.1034 122.945 43.443 122.718 43.5372C118.708 45.2005 115.522 48.7362 114.284 52.8969C115.033 53.0036 115.731 53.4292 116.169 54.0462C116.436 54.4228 116.971 54.1372 117.405 53.9056L117.405 53.9055C117.449 53.882 117.492 53.8591 117.533 53.8375C117.903 53.6451 118.317 53.5831 118.732 53.5209L118.732 53.5209C118.939 53.4899 119.147 53.4589 119.349 53.4115C120.794 53.0737 121.916 51.9135 122.675 50.6382C123.111 49.9043 123.454 49.1217 123.796 48.3387C124.049 47.7609 124.302 47.1829 124.593 46.6241C126.157 43.6197 128.847 41.219 132.01 40.0063C131.645 39.5347 131.166 39.1024 130.577 39.0096C129.988 38.9169 129.302 39.2942 129.244 39.8875C128.973 39.4912 129.124 38.8738 129.547 38.6469L127.038 37.8574C128.623 37.4477 130.248 38.2457 131.661 39.0718C133.485 40.1387 135.257 41.2954 136.968 42.5364L137.334 42.8036L137.447 42.8869C138.978 44.0151 140.634 45.2348 142.526 45.1642ZM99.4854 48.612C98.452 49.7253 98.1756 51.2375 97.8961 52.7668C97.7326 53.6614 97.568 54.5619 97.2502 55.3918C97.6486 55.9725 98.4828 56.1157 99.1541 55.9029C99.8254 55.6901 100.368 55.1987 100.869 54.7042C102.114 53.4766 103.254 52.1423 104.272 50.7208L104.701 50.1182C105.279 49.3139 105.896 48.5304 106.757 48.0629C108.384 47.1792 110.383 47.6634 112.164 48.1677L112.272 48.1991C112.58 48.2918 112.895 48.4202 113.043 48.6989C113.175 48.9484 113.133 49.2504 113.088 49.5291L112.596 52.5696C113.59 52.8036 114.271 51.65 114.7 50.7105L114.724 50.6576C116.235 47.3063 119.048 44.5627 122.436 43.1357C121.157 41.6696 120.314 39.8291 120.038 37.9036C116.924 39.8639 114.793 43.3061 114.417 46.965C114.432 46.0899 113.29 45.5728 112.369 45.4394C108.603 44.8944 104.67 45.5658 101.298 47.3294C100.639 47.6742 99.9915 48.0668 99.4854 48.612ZM114.402 47.1255C114.412 47.0707 114.417 47.0172 114.417 46.965C114.412 47.0185 114.407 47.072 114.402 47.1255ZM106.131 64.3326C106.957 64.8133 107.817 65.0067 108.875 64.6144C109.933 64.2221 110.6 62.4081 110.6 62.4081C110.348 61.8968 110.841 60.8182 111.087 60.5119C111.296 60.2511 111.394 59.9249 111.492 59.6026L111.492 59.602L111.492 59.6014L111.492 59.5998L111.523 59.4999L111.543 59.4345C112.184 57.3968 113.788 55.6853 115.78 54.9141C116.065 54.8039 115.907 54.3698 115.693 54.1515C115.396 53.8465 115.051 53.5635 114.638 53.4582C114.225 53.353 113.731 53.4685 113.497 53.8249C112.323 55.6101 110.714 57.1065 108.848 58.1472C108.657 58.2537 108.463 58.3557 108.269 58.4578L108.269 58.4582C107.706 58.7542 107.144 59.0504 106.655 59.4539C105.948 60.0374 105.422 60.8364 105.165 61.716C104.993 62.3045 104.948 62.9693 105.246 63.5049C105.445 63.8621 105.778 64.1269 106.131 64.3326ZM112.49 48.928C112.313 48.6486 111.962 48.5445 111.639 48.4721C110.765 48.2761 109.874 48.1545 108.979 48.1089C108.506 48.0849 108.022 48.0835 107.572 48.2296C107.093 48.3848 106.682 48.697 106.303 49.0281C105.376 49.837 104.579 50.7937 103.951 51.8509C105.13 51.659 106.385 51.9934 107.313 52.7467L107.403 52.8201C107.494 52.893 107.59 52.9605 107.701 52.9905C107.85 53.0304 108.038 52.9766 108.091 52.832C108.362 52.0997 109.151 51.5951 109.93 51.6569C110.708 51.7188 111.408 52.3415 111.56 53.1074C111.694 53.2293 111.877 53.0236 111.937 52.8526C112.289 51.8408 112.513 50.7848 112.603 49.7173C112.626 49.4475 112.635 49.1567 112.49 48.928ZM152.2 34.1245C152.853 34.2159 153.47 34.5374 153.921 35.0179L153.979 35.0814C154.202 35.3346 154.582 35.4362 154.902 35.3283C155.222 35.2204 155.463 34.9094 155.487 34.5727C155.668 34.5115 155.771 34.7622 155.79 34.9587L155.792 34.9864C155.803 35.186 155.945 35.458 156.12 35.3613C156.164 35.3374 156.192 35.2948 156.216 35.2509L156.478 34.7483C156.621 34.8318 156.693 35.0195 156.648 35.1783L156.637 35.2096C156.526 35.489 156.917 35.7726 157.188 35.6431C157.459 35.5136 157.541 35.143 157.44 34.8599C157.338 34.5768 157.104 34.3646 156.871 34.1745C156.173 33.605 155.406 33.1195 154.593 32.7319C154.35 32.6161 154.087 32.5065 153.82 32.5401C153.45 32.5866 153.175 32.8891 152.94 33.1839L152.2 34.1245ZM97.1432 58.629L97.4598 59.8297C97.5018 59.9891 97.5575 60.1663 97.7036 60.2427C97.8496 60.3191 98.0818 60.177 98.0116 60.0278C97.6681 59.2987 97.5505 58.4651 97.6788 57.6694C98.0336 58.0546 98.4418 58.3906 98.8881 58.6646C99.033 58.4493 98.8116 58.2357 98.6044 58.0358C98.5508 57.9841 98.4981 57.9334 98.453 57.8837C98.3257 57.7436 98.2491 57.5625 98.1733 57.3833C98.073 57.1464 97.9741 56.9127 97.7611 56.7811C97.5047 56.6227 97.1589 56.6799 96.9079 56.8467C96.6568 57.0135 96.482 57.2708 96.3242 57.5276C96.0218 58.0195 95.7529 58.5484 95.6795 59.1211C95.6062 59.6939 95.7575 60.3211 96.1864 60.7077L96.0981 59.3178C96.0833 59.0849 96.2226 58.7423 96.4272 58.8546C96.4241 59.5693 96.5879 60.2842 96.9017 60.9264C97.0716 60.4191 97.0756 59.8578 96.913 59.3481L96.8642 59.1982C96.8333 59.0976 96.8105 58.9955 96.8247 58.8924C96.846 58.7376 96.9928 58.5868 97.1432 58.629ZM140.86 55.5649C140.759 55.5145 140.55 55.6994 140.321 55.9017C140.161 56.0436 139.991 56.194 139.842 56.2778C139.842 56.2778 140.444 55.2942 140.293 55.2387C140.141 55.1828 139.237 56.0551 139.237 56.0551C138.889 56.3241 138.361 56.5855 138.059 56.2659C137.945 56.1457 137.747 56.2534 137.624 56.3636L137.554 56.4284C137.261 56.7057 136.983 57.0738 137.108 57.447C137.244 57.856 137.774 57.9705 138.203 57.9222C139.26 57.8031 140.403 57.1944 140.995 56.4284C141.09 56.3055 140.605 56.427 140.431 56.5399C140.258 56.6528 139.961 56.7445 139.93 56.5399C140.354 56.3575 141.154 55.7118 140.86 55.5649ZM136.307 56.7904C136.214 56.7304 136.101 56.6868 135.993 56.7114C135.785 56.7585 135.711 57.0101 135.674 57.2196L135.522 58.0873C135.502 58.2059 135.49 58.3498 135.584 58.4251C135.628 58.461 135.688 58.4718 135.745 58.4759C136.148 58.5052 136.554 58.2346 136.681 57.8515C136.809 57.4684 136.647 57.0085 136.307 56.7904ZM118.598 54.8114C118.025 54.6669 117.422 54.6428 116.839 54.7412C116.455 54.8062 116.041 54.9539 115.858 55.2981C116.589 55.3844 117.334 55.3523 118.055 55.2033C118.289 55.155 118.565 55.0477 118.598 54.8114ZM151.832 34.5978L153.361 35.5007C153.484 35.5736 153.652 35.6434 153.758 35.5467C153.388 34.8809 152.585 34.4853 151.832 34.5978ZM119.86 53.6077C119.211 53.7793 118.571 53.9788 117.94 54.2054C118.595 54.5678 119.526 54.278 119.86 53.6077ZM113.479 53.2192C113.622 53.1055 113.703 52.8248 113.524 52.788L111.925 53.2897C112.388 53.595 113.046 53.5652 113.479 53.2192ZM154.52 31.9077C154.421 31.8633 154.313 31.8209 154.208 31.8457C154.136 31.8629 154.072 31.9129 154.039 31.9791L156.236 33.1009C155.743 32.6027 155.158 32.196 154.52 31.9077ZM120.758 37.9216L120.737 37.9064C120.56 38.1606 120.536 38.512 120.675 38.7882C120.954 38.5655 121.185 38.2852 121.352 37.9702C121.161 37.9098 120.957 37.893 120.758 37.9216ZM158.336 34.8377L158.332 34.8238C158.165 34.5556 157.903 34.3473 157.605 34.2438C157.823 34.7631 158.227 35.2018 158.728 35.4612C158.744 35.1997 158.579 34.9363 158.336 34.8377ZM112.806 54.0492L112.843 53.9996C112.583 53.9064 112.288 53.9178 112.036 54.0305C111.887 54.1831 112.104 54.4576 112.317 54.4329C112.529 54.4082 112.68 54.2214 112.806 54.0492ZM98.1802 56.506C98.21 56.3138 97.996 56.1757 97.8066 56.1315C97.5079 56.0618 97.1874 56.0886 96.9044 56.2071C97.3182 56.3491 97.7464 56.4494 98.1802 56.506ZM138.006 55.9049C137.913 55.9575 138.002 56.1373 138.1 56.0946C138.277 56.0045 138.695 55.7626 138.681 55.5649C138.653 54.7703 138.006 55.9049 138.006 55.9049ZM111.087 60.9265C110.903 60.9265 110.812 61.5757 110.764 61.9201C110.751 62.0167 110.74 62.0894 110.733 62.1169C110.934 62.2074 111.109 62.0597 111.133 61.8719C111.14 61.8183 111.157 61.742 111.176 61.6558L111.176 61.6556C111.247 61.3428 111.347 60.8988 111.087 60.9265ZM54.1144 73.9899C52.7823 73.9952 51.45 73.9404 50.1229 73.8258L49.994 73.8139C49.5188 73.7665 49.0204 73.6714 48.709 73.318C48.2887 72.8409 48.3913 72.1217 48.5175 71.4925L48.5302 71.4299C49.0943 68.6689 49.3158 65.8381 49.1886 63.023L49.1649 62.5377C49.1295 61.6649 49.1853 60.6752 49.9103 60.2263C50.1309 60.0897 50.387 60.0263 50.6422 59.9749L50.7273 59.9581C55.3693 59.0538 60.2027 59.1455 64.8071 60.225C65.4134 60.3672 65.5821 61.1885 65.3811 61.7779C65.2881 62.0504 65.1459 62.3028 65.0038 62.5548C64.8386 62.848 64.6736 63.1407 64.5867 63.4641C64.4252 64.0656 64.7212 64.8797 65.3437 64.8992C66.639 64.9398 67.737 66.2558 67.5629 67.5401C67.3889 68.8244 66.0007 69.7984 64.7301 69.5434C64.4319 69.4835 64.3264 69.9243 64.3591 70.2267L64.7217 73.5792C64.7809 74.1264 64.0044 74.2992 63.4557 74.2564L60.2543 74.0073C59.7513 73.9681 59.0769 74.0549 58.9994 74.5534C58.8064 75.7945 57.5338 76.7637 56.286 76.6198C55.0382 76.4758 54.0197 75.2424 54.1144 73.9899ZM58.2072 75.0412C58.2801 74.8711 58.3266 74.6822 58.2894 74.501C58.2548 74.3322 58.1522 74.1692 58.0526 74.0111C57.8931 73.7577 57.7414 73.5166 57.8894 73.2835L62.7189 73.6434C63.3239 73.6884 64.1908 73.4638 64.0741 72.8684C63.7373 71.1509 63.6665 69.3814 63.8651 67.6425C64.0873 68.4868 65.105 69.0219 65.9265 68.7264C66.7481 68.4308 67.1917 67.37 66.8251 66.5776C66.4585 65.7853 65.3627 65.4366 64.6056 65.8715C64.3246 66.0329 64.0724 65.6114 64.0356 65.2893C63.8912 64.0265 64.112 62.724 64.6645 61.5793C64.8992 61.093 64.2176 60.6906 63.6881 60.5853C59.5488 59.7624 55.2536 59.7308 51.1027 60.4929C50.4594 60.611 49.6568 60.9494 49.7083 61.6014C49.993 65.1994 49.7636 68.8377 49.0295 72.3715C48.9228 72.8854 49.6052 73.1672 50.1272 73.2215C51.814 73.397 53.5203 73.3837 55.2042 73.1821C54.5415 73.9629 54.755 75.3172 55.6257 75.8562C56.4803 76.3852 57.7556 75.9974 58.1839 75.0929L58.2072 75.0412ZM92.7384 63.7766L83.2788 63.5864C82.4149 63.5726 81.527 63.5938 80.7581 63.9769C79.7038 64.5023 79.0607 65.6378 78.8353 66.794C78.6295 67.8496 78.7214 68.9354 78.8398 70.0071L78.8742 70.3129C79.6992 69.7742 80.9584 70.1053 81.4118 70.9802C81.8651 71.8551 81.4095 73.0748 80.4936 73.4382C79.5777 73.8016 78.4098 73.226 78.14 72.2783C77.9159 73.4784 77.9567 74.7271 78.2587 75.91C78.3838 76.4002 78.588 76.9222 79.0322 77.1646C79.3453 77.3354 79.7204 77.3339 80.0771 77.3281L84.8232 77.2512C85.1844 77.2453 85.5753 77.2292 85.8566 77.0024C86.1378 76.7756 86.1932 76.2548 85.872 76.0894C85.4075 75.8502 85.2317 75.2213 85.4136 74.7315C85.5954 74.2418 86.0635 73.8983 86.566 73.7556C87.3904 73.5214 88.3696 73.8225 88.833 74.5434C89.2964 75.2644 89.1122 76.3582 88.3823 76.8075C89.7837 76.9458 91.1952 76.9818 92.6018 76.9151L92.6755 76.9114C93.0203 76.8929 93.3746 76.8548 93.6653 76.6721C94.0185 76.4501 94.214 76.0568 94.3636 75.6623L94.4119 75.531C95.561 72.3244 95.6768 68.7565 94.7382 65.4821C94.5624 64.8687 94.2973 64.2034 93.719 63.9336C93.4632 63.8142 93.177 63.7892 92.8929 63.7803L92.7384 63.7766ZM92.8047 64.3971C93.0826 64.4089 93.3681 64.4333 93.605 64.5758L93.6571 64.6096C93.995 64.845 94.1412 65.2793 94.2466 65.6828C95.0619 68.8038 94.9501 72.161 93.9289 75.2208C93.8287 75.521 93.7106 75.8324 93.4702 76.0383C93.2257 76.2478 92.8926 76.3154 92.5733 76.3573C91.5904 76.4862 90.5849 76.4405 89.6178 76.2227C90.1006 74.7522 88.8427 72.9944 87.295 72.9769C85.7473 72.9594 84.4501 74.6884 84.8996 76.1695C84.9788 76.4304 84.6024 76.5712 84.3299 76.58L79.9297 76.7215C79.4397 76.7373 79.0233 76.3131 78.8808 75.844C78.7383 75.3749 78.8059 74.871 78.8749 74.3856C80.3928 74.6819 82.0961 73.5723 82.273 72.0358C82.45 70.4994 80.846 68.9842 79.355 69.395C79.2998 68.47 79.2461 67.5281 79.4702 66.629C79.6944 65.7299 80.2439 64.8639 81.0919 64.4904C81.6602 64.2402 82.3013 64.2314 82.9222 64.2291L83.9038 64.2275C86.8484 64.2289 89.7929 64.2845 92.7355 64.3944L92.8047 64.3971ZM51.857 84.4988C51.3874 87.547 51.3867 90.667 51.8551 93.7154C51.9832 94.5488 52.1832 95.4436 52.8237 95.992C53.1918 96.307 53.6616 96.4668 54.1333 96.5902L54.3219 96.6379C58.2087 97.5955 62.313 97.6588 66.2275 96.8215C66.9056 96.6765 67.1774 95.8738 67.3289 95.1971L68.1814 91.388C67.8564 91.1055 67.4331 91.246 66.9943 91.3915C66.7499 91.4726 66.5007 91.5553 66.2611 91.5673C65.4109 91.6098 64.796 90.7088 64.682 89.8651C64.5635 88.9886 64.8226 88.0298 65.4927 87.4525C66.1628 86.8752 67.2642 86.7942 67.9191 87.3887C68.0732 87.5286 68.2994 87.3261 68.397 87.1423C69.0103 85.9885 69.236 84.6329 69.0297 83.3426C69.0029 83.175 68.9639 82.9985 68.8454 82.877C68.6876 82.7153 68.4379 82.6972 68.212 82.6899L67.5131 82.6693C65.6493 82.6197 63.7843 82.6138 61.9202 82.6517C62.743 83.2787 62.5388 84.727 61.6705 85.2892C60.8022 85.8514 59.583 85.6119 58.7985 84.9376C58.4696 84.6548 58.1895 84.2819 58.1388 83.8511C58.088 83.4203 58.3282 82.9383 58.7463 82.8225C58.9213 82.774 58.9251 82.499 58.7885 82.3792C58.6519 82.2595 58.4529 82.2527 58.2712 82.2522L54.2805 82.2412C53.7593 82.2414 53.2127 82.2628 52.78 82.5481C52.202 82.9292 51.9973 83.6595 51.8808 84.3513L51.857 84.4988ZM64.1827 91.1343C64.8757 92.1429 66.3184 92.5899 67.4258 92.0691L66.547 95.3863C66.4832 95.6271 66.4095 95.8839 66.218 96.0432C66.071 96.1655 65.8765 96.2108 65.6894 96.2502L65.4781 96.2938C61.6726 97.061 57.6874 96.9235 53.9442 95.894L53.8712 95.8737C53.5786 95.7911 53.2836 95.6908 53.0589 95.4882C52.7321 95.1935 52.615 94.7425 52.5401 94.3034L52.5177 94.1654C52.0576 91.2146 51.9831 88.2039 52.2966 85.234C52.3512 84.7167 52.4232 84.1834 52.6915 83.7378C53.4792 82.4289 55.3822 82.5466 56.8833 82.8304L56.9375 82.8409C57.0826 82.8696 57.2294 82.9073 57.3411 83.0022C57.5003 83.1374 57.5481 83.348 57.5787 83.5611L57.6071 83.7723C57.8103 85.1931 59.2519 86.3176 60.6794 86.1689C62.1069 86.0202 63.2858 84.6226 63.1918 83.1905L68.3509 83.1528C68.5756 83.9724 68.5869 84.8495 68.3832 85.6745C68.3322 85.8814 68.2539 86.1035 68.0703 86.2116C67.9252 86.297 67.7499 86.2907 67.579 86.2763L67.4772 86.2674C66.2579 86.1632 64.9798 86.6926 64.2686 87.6885C63.5575 88.6844 63.4896 90.1257 64.1827 91.1343ZM95.3636 98.8276C95.2887 99.0226 95.2673 99.6163 95.2673 99.6163C93.5893 98.4395 94.0194 97.277 94.2906 96.6708C93.8727 97.1322 93.6641 97.7762 93.7322 98.395C92.8725 98.0534 92.2467 97.2764 91.9793 96.395C91.9664 96.1306 91.95 95.8451 91.9323 95.5378C91.9198 95.32 91.9066 95.0913 91.8936 94.8512C91.9424 94.6097 92.0226 94.3743 92.1366 94.1516C97.6971 98.9506 105.442 102.924 113.865 103.785C112.3 103.309 110.706 102.924 109.096 102.633C110.034 102.214 109.93 100.763 109.255 99.9883C108.879 99.5577 108.4 99.2434 107.919 98.9283C107.535 98.6765 107.15 98.4242 106.817 98.1118C105.698 97.0611 105.288 95.4487 105.221 93.9146L105.219 93.8667C105.206 93.4322 105.276 92.9238 105.663 92.7394C106.859 92.17 108.306 92.1576 109.512 92.7064C110.81 93.2979 111.841 94.8289 111.28 96.1411C110.736 97.4133 110.18 98.7755 110.416 100.139C110.652 101.502 112.039 102.756 113.35 102.312L113.434 102.285C114.803 101.862 116.332 102.383 117.469 103.264C118.484 104.05 119.258 105.09 120.026 106.123L120.027 106.124L120.028 106.124C120.138 106.273 120.249 106.422 120.36 106.569L120.465 106.709C121.558 108.148 122.77 109.537 124.317 110.467C125.913 111.427 127.933 111.84 129.667 111.159C130.013 111.023 130.343 110.847 130.672 110.671C131.098 110.442 131.523 110.214 131.985 110.075C132.802 109.828 133.841 109.958 134.28 110.691C134.179 109.83 133.1 109.416 132.252 109.591C131.718 109.702 131.237 109.962 130.755 110.222C130.47 110.376 130.186 110.529 129.89 110.653C128.279 111.325 126.384 111.058 124.838 110.248C123.292 109.438 122.055 108.139 121.01 106.741C120.787 106.443 120.569 106.137 120.351 105.83L120.351 105.83C119.409 104.509 118.457 103.173 117.059 102.386C115.861 101.71 114.4 101.515 113.066 101.852L113.01 101.865C111.901 102.099 110.885 100.931 110.787 99.7879C110.706 98.858 111.019 97.9597 111.33 97.0686C111.408 96.8458 111.485 96.6234 111.556 96.4011C112.138 94.5856 112.284 92.5173 111.378 90.8405L112.84 90.0238L111.777 90.0026L112.617 89.1099C112.039 89.1679 111.503 89.5494 111.26 90.0774C111.133 88.7502 109.982 87.6799 108.697 87.3259C107.411 86.9719 106.031 87.2172 104.773 87.6567C104.166 87.8683 103.554 88.1401 103.135 88.6267C102.716 89.1134 102.546 89.8662 102.892 90.4072C103.031 90.626 103.237 90.7878 103.442 90.95C103.533 91.0219 103.625 91.0938 103.71 91.1708C104.67 92.0335 104.817 93.36 104.966 94.6988C105.103 95.9302 105.241 97.172 106.013 98.0733C106.401 98.527 106.911 98.8418 107.423 99.1576L107.424 99.1577C107.797 99.3878 108.17 99.6185 108.499 99.9038C109.279 100.581 109.725 101.913 108.951 102.597C102.493 101.54 92.0361 93.7542 92.0361 93.7542C92.0361 93.7542 91.9576 93.9963 91.8684 94.3625C91.8431 93.8416 91.8207 93.2727 91.808 92.6528C91.7771 91.1331 92.1256 90.3139 92.4703 89.5037C92.6513 89.0784 92.8312 88.6556 92.9546 88.1351L92.9716 88.0628C93.2246 86.9738 93.3961 85.6962 92.6285 84.8939C91.9866 84.2232 90.9873 84.192 90.0283 84.2122L89.4764 84.2254C88.3677 84.2467 86.9972 83.9032 86.7537 82.8213L86.7401 82.765C86.4778 81.7578 85.335 81.0626 84.3199 81.307C83.286 81.5559 82.5776 82.7329 82.8418 83.763C82.9532 84.1974 82.3279 84.4057 81.8795 84.4058L78.6712 84.4065C78.0906 84.4066 77.2711 84.7199 77.4767 85.2629C77.9053 86.3948 77.8747 87.6931 77.3935 88.8036C75.9924 88.1521 74.104 89.2762 74.0089 90.8185C73.9138 92.3607 75.6498 93.7083 77.1203 93.2338C76.6083 94.8792 76.1802 96.5508 75.8384 98.2397C80.3577 97.6047 84.9421 98.088 89.4197 99.0109C91.472 99.4339 91.9641 99.0924 92.0039 97.5403C92.0144 97.5513 92.0251 97.562 92.0361 97.5725C97.4524 102.736 101.624 104.152 107.098 106.011L107.136 106.024C107.287 106.075 107.35 106.242 107.384 106.404L107.398 106.478L108.09 110.527C103.82 111.415 99.3888 110.46 95.2097 109.211C94.4639 108.988 93.689 108.737 93.1411 108.184C92.5931 107.631 92.3638 106.681 92.8452 106.069C96.7868 107.636 101.116 108.216 105.331 107.742C105.925 107.676 106.625 107.506 106.831 106.944C102.098 107.871 97.0907 107.34 92.6585 105.44C92.2604 105.269 91.8592 105.087 91.4554 104.903L91.455 104.903L91.4548 104.903L91.4548 104.903C89.2781 103.914 87.0257 102.89 84.7658 103.477C84.3631 103.582 83.9249 103.788 83.8086 104.187C83.6924 104.587 84.2087 105.066 84.5142 104.784C84.3199 104.858 84.1432 104.579 84.2237 104.388C84.3043 104.196 84.5176 104.101 84.7151 104.036C86.5602 103.425 88.7193 103.888 90.1519 105.202L90.5053 107.075C89.9165 107.097 89.3807 106.839 88.8407 106.579C88.532 106.43 88.2219 106.281 87.8997 106.183C87.0474 105.923 86.2543 106.442 85.8201 107.217C85.815 107.226 85.6896 107.319 85.5761 107.281C85.4782 107.248 85.4555 107.108 85.4527 107.08C85.5101 106.248 86.2714 105.525 87.1053 105.512C87.2352 105.51 87.2892 105.319 87.2126 105.214C87.1361 105.109 86.9931 105.079 86.8632 105.074C86.5412 105.063 86.2162 105.161 85.9546 105.35C85.8671 105.413 85.7867 105.485 85.7063 105.557C85.5952 105.657 85.4842 105.757 85.355 105.832C85.1324 105.96 84.5566 105.921 84.6477 105.681C84.961 104.856 85.8912 104.721 86.6957 104.685C86.8297 104.679 86.8727 104.476 86.7853 104.374C86.6978 104.273 86.5493 104.253 86.4152 104.252C85.7946 104.243 85.1731 104.459 84.6917 104.851C84.4664 105.034 84.389 105.389 84.3922 105.681C84.3954 105.973 84.6012 106.108 84.8912 106.142C85.1054 106.167 85.3839 105.978 85.7061 105.76L85.7061 105.76L85.7063 105.76L85.7064 105.76L85.7064 105.76L85.7065 105.76C85.9148 105.619 86.1415 105.466 86.3809 105.35C86.691 105.199 87.0324 105.288 87.0424 105.319C87.0467 105.333 86.9946 105.345 86.9061 105.365L86.9059 105.365L86.9058 105.365L86.9056 105.365C86.7089 105.41 86.3331 105.495 85.9994 105.73C85.5193 106.069 85.2643 106.616 85.2643 106.741C85.2643 106.974 85.2746 107.087 85.3048 107.127C85.3399 107.27 85.453 107.486 85.5761 107.475C85.8388 107.453 85.8974 107.35 85.9063 107.334C85.9072 107.333 85.9076 107.332 85.9076 107.332C86.216 106.534 87.3509 106.559 88.1744 106.793C89.6522 107.214 91.0571 107.84 92.4629 108.466L92.4632 108.466C93.3457 108.859 94.2285 109.252 95.1301 109.595C99.3457 111.198 103.983 111.678 108.437 110.971C109.664 113.999 112.599 115.921 115.464 117.52L116.703 118.206C119.343 119.674 122.004 121.278 123.511 123.861C123.594 124.004 123.674 124.151 123.755 124.297L123.755 124.298C124 124.746 124.245 125.195 124.597 125.562C125.063 126.05 125.788 126.371 126.42 126.134C127.052 125.898 127.353 124.941 126.831 124.513C126.971 125.02 126.659 125.61 126.161 125.779C125.662 125.949 125.056 125.671 124.858 125.183C123.781 122.523 121.447 120.595 119.007 119.067L118.754 118.911C118.066 118.489 117.364 118.087 116.661 117.685L116.661 117.684L116.661 117.684L116.661 117.684L116.661 117.684L116.661 117.684L116.661 117.684C114.778 116.606 112.896 115.528 111.297 114.074C109.1 112.077 107.472 109.132 107.999 106.21C110.439 107.456 112.942 108.722 115.662 109.054C114.079 108.405 112.498 107.769 110.921 107.135L110.92 107.134C107.063 105.582 103.223 104.037 99.403 102.33C98.5097 101.931 95.9105 100.227 95.7328 99.9038C95.5025 99.4845 95.6541 98.9179 95.7913 98.4049C95.8313 98.2552 95.8701 98.1101 95.8979 97.9746C95.8979 97.9746 95.4989 98.4754 95.3636 98.8276ZM105.932 87.5364C106.694 87.5443 107.456 87.6186 108.206 87.7582C109.186 87.9408 110.278 88.3536 110.609 89.2945C110.703 89.5617 110.723 89.8449 110.744 90.1288C110.759 90.331 110.774 90.5336 110.815 90.7309C110.89 91.0891 111.05 91.4194 111.21 91.7504C111.312 91.9627 111.415 92.1753 111.495 92.3957C111.701 92.9599 111.728 93.6712 111.29 94.0829L109.959 92.0961C109.776 91.8237 109.492 91.5137 109.182 91.6219C107.946 92.0538 106.622 92.2296 105.316 92.1348C104.974 92.11 104.552 91.9937 104.496 91.6556C104.906 91.5516 105.331 91.5434 105.755 91.5351C105.93 91.5317 106.105 91.5283 106.279 91.5181C106.876 91.4834 107.505 91.3492 107.929 90.9279C108.002 90.8552 108.071 90.7644 108.066 90.6615C108.061 90.5586 107.94 90.4643 107.854 90.5208C106.791 91.218 105.382 91.3537 104.206 90.8721C103.732 90.6778 103.257 90.3326 103.171 89.8275C103.103 89.432 103.301 89.0236 103.605 88.7612C103.909 88.4988 104.303 88.3638 104.697 88.2888C105.47 88.1416 106.282 88.2064 107.022 88.4743L107.047 88.4835C107.48 88.6404 108.013 88.8336 108.336 88.511C107.564 88.1478 106.727 87.9238 105.877 87.8531C105.86 87.7453 105.88 87.6323 105.932 87.5364ZM90.9141 105.2L92.1226 105.894C92.203 105.941 92.2156 106.049 92.2191 106.142L92.2848 107.889C91.3923 107.667 91.2098 107.5 90.9572 107.172C90.5562 106.652 90.5052 105.888 90.5466 105.264C90.533 105.11 90.7801 105.123 90.9141 105.2ZM110.853 96.0081C110.765 96.1538 110.672 96.3055 110.525 96.3908C110.378 96.476 110.161 96.4666 110.067 96.3249C110.418 95.9233 110.679 95.4442 110.827 94.932C110.603 94.8318 110.395 95.0855 110.254 95.2863C110.113 95.487 109.797 95.6669 109.657 95.4655C109.768 95.1488 109.979 94.8681 110.253 94.6744C110.376 94.5871 110.52 94.5152 110.671 94.5211C110.974 94.5331 111.184 94.8645 111.177 95.1682C111.171 95.4719 111.009 95.7477 110.853 96.0081ZM111.645 109.863C112.244 110.037 112.606 110.613 112.943 111.147L113.004 111.244C114.035 112.873 115.457 114.252 117.116 115.233C118.157 115.849 119.279 116.305 120.401 116.761L120.401 116.761C121.329 117.138 122.258 117.515 123.142 117.983C125.094 119.018 126.923 120.692 127.236 122.879C126.441 121.345 125.267 120.01 123.847 119.026C122.714 118.24 121.449 117.687 120.182 117.134L120.182 117.134C119.273 116.737 118.364 116.34 117.502 115.856C115.032 114.471 112.973 112.364 111.645 109.863ZM117.152 111.969L117.115 111.887C116.985 111.607 116.846 111.317 116.601 111.129C116.356 110.942 115.972 110.897 115.755 111.116C115.493 111.38 115.152 111.563 114.788 111.635C115.079 112.26 115.595 112.777 116.218 113.07C116.507 113.205 116.878 113.283 117.122 113.079C117.429 112.823 117.316 112.347 117.152 111.969ZM116.277 111.331C116.591 111.385 117.232 112.218 116.917 112.782C116.603 113.346 115.345 111.905 115.345 111.905C115.529 111.896 115.695 111.736 115.85 111.588C116.001 111.443 116.141 111.308 116.277 111.331ZM152.638 104.489C147.849 110.436 140.399 114.154 132.768 114.404C132.299 114.42 131.997 114.888 131.757 115.291C130.668 117.117 129.138 118.678 127.335 119.805C126.955 120.043 126.407 120.242 126.107 119.91C127.904 119.15 129.476 117.867 130.58 116.258C130.655 116.148 130.731 116.035 130.808 115.921L130.808 115.921C131.452 114.959 132.156 113.907 133.277 113.835C137.243 113.577 141.246 112.715 144.659 110.678C145.828 109.981 146.913 109.155 147.996 108.331C150.471 106.448 153.078 104.384 154.048 101.429L154.085 101.316C154.292 100.679 154.526 99.9581 155.151 99.7572C155.929 99.507 156.637 100.26 157.11 100.926L160.516 105.729C160.604 105.852 160.693 105.98 160.727 106.127C160.874 106.78 159.9 107.11 159.272 106.878C158.847 106.721 158.452 106.448 158.063 106.178C157.408 105.725 156.768 105.281 156.017 105.417C155.103 105.581 154.588 106.528 154.15 107.347C151.629 112.067 147.387 115.843 142.407 117.8C141.123 118.304 139.797 118.691 138.473 119.076L135.797 119.856C139.923 120.603 144.376 121.137 148.145 119.298C150.773 118.016 152.744 115.726 154.637 113.497C155.861 112.057 157.128 110.528 157.484 108.673C157.605 108.044 158.398 107.745 159.015 107.915C159.632 108.085 160.102 108.573 160.539 109.041L163.85 112.585C164.111 112.865 164.386 113.173 164.424 113.553C164.462 113.933 164.121 114.364 163.754 114.257L160.163 113.214C159.826 113.116 159.453 113.021 159.136 113.17C158.876 113.294 158.714 113.555 158.568 113.803L154.736 120.273C153.649 122.109 151.634 123.173 149.655 123.969C144.908 125.879 139.756 126.776 134.643 126.583C134.088 126.562 133.532 126.529 132.983 126.442C130.828 126.103 128.892 124.974 127.013 123.866C126.72 123.693 126.454 123.192 126.785 123.109L127.907 123.754C129.321 124.566 130.756 125.386 132.334 125.799C134.502 126.366 136.788 126.126 139.014 125.874C144.034 125.305 149.414 124.524 153.097 121.066C155.302 118.996 156.637 116.187 157.921 113.449C158.391 112.448 159.835 112.439 160.865 112.842C161.108 112.937 161.351 113.047 161.594 113.157L161.594 113.157C162.381 113.514 163.174 113.873 164.008 113.742C162.586 111.985 161.094 110.285 159.537 108.647C159.062 108.148 158.15 108.432 157.784 109.016C157.418 109.601 157.438 110.338 157.471 111.026C158.021 111.336 158.468 111.826 158.726 112.402C158.366 112.53 158.046 112.156 157.81 111.856C157.574 111.556 157.107 111.281 156.854 111.567L152.53 116.448C151.943 117.111 151.353 117.776 150.673 118.343C148.994 119.742 146.846 120.469 144.692 120.838C140.928 121.483 136.993 121.103 133.422 119.751C139.196 118.639 145.123 116.879 149.371 112.812C151.2 111.061 152.644 108.945 153.904 106.749C154.29 106.078 154.719 105.345 155.446 105.081C156.282 104.778 157.102 105.199 157.934 105.625C158.68 106.007 159.436 106.395 160.222 106.273C158.947 104.278 157.553 102.358 156.051 100.527C155.913 100.36 155.746 100.178 155.528 100.175C155.231 100.171 155.049 100.489 154.932 100.763L154.062 102.801C153.866 103.259 153.688 103.84 154.022 104.209C154.104 104.3 154.209 104.365 154.315 104.431C154.417 104.494 154.52 104.558 154.601 104.645C154.767 104.823 154.759 105.196 154.519 105.231C154.299 104.903 154.066 104.563 153.722 104.369C153.377 104.176 152.886 104.181 152.638 104.489ZM107.837 97.8632C108.258 97.8258 108.649 97.5491 108.824 97.1648C108.767 96.9404 108.435 97.0921 108.243 97.2228C107.802 97.5245 107.131 97.414 106.809 96.9866C106.654 96.9732 106.653 97.2224 106.742 97.35C106.982 97.6973 107.416 97.9006 107.837 97.8632ZM106.072 93.7227C105.751 93.7705 105.48 94.0502 105.442 94.3721C105.919 93.968 106.076 94.0105 106.342 94.0823C106.473 94.1176 106.63 94.16 106.864 94.16C106.734 93.8633 106.393 93.6749 106.072 93.7227ZM107.562 96.3216L107.927 96.1653C108.071 96.44 107.852 96.8147 107.546 96.8699C107.241 96.925 106.927 96.7027 106.824 96.4098C106.721 96.1168 106.802 95.7811 106.979 95.5259C107.121 95.603 107.129 95.7812 107.137 95.9526V95.9527V95.9527V95.9528V95.9529C107.14 95.9975 107.142 96.0416 107.146 96.0834C107.168 96.2857 107.446 96.4897 107.541 96.3095L107.562 96.3216ZM109.076 94.0437C108.949 93.7403 108.826 93.7153 108.364 93.6782C107.903 93.6411 106.864 94.3846 108.408 93.9268C108.444 93.9161 108.578 93.9541 108.716 93.9936C108.904 94.0472 109.101 94.1034 109.076 94.0437ZM108.234 94.4759C108.489 94.6779 108.415 95.483 108.039 95.3316C107.881 95.2681 107.693 94.0466 108.234 94.4759ZM120.651 115.623C120.457 115.613 120.319 115.884 120.44 116.036L120.442 116.032C120.579 116.061 120.731 115.996 120.805 115.876C120.795 115.774 120.737 115.678 120.651 115.623ZM117.238 114.426L116.973 114.466C116.92 114.391 116.904 114.291 116.93 114.203C117.05 114.05 117.351 114.246 117.259 114.418L117.238 114.426ZM118.773 115.156C118.686 115.29 118.707 115.554 118.861 115.512L118.865 115.506C118.978 115.492 119.083 115.422 119.14 115.323L118.773 115.156ZM114.005 111.593C114.09 111.525 114.236 111.564 114.277 111.665C114.318 111.765 114.239 111.895 114.131 111.905C114.013 111.877 113.955 111.713 114.029 111.616L114.005 111.593ZM105.919 94.9547C105.911 95.2058 106.066 95.3504 106.213 95.3504C106.366 95.3504 106.432 94.7182 106.213 94.5949C105.995 94.4717 105.926 94.7037 105.919 94.9547ZM37.7648 64.7868C37.6865 64.9112 37.4831 64.9626 37.3941 64.8456C37.6273 64.6006 37.5792 64.1488 37.2998 63.9583C37.3434 64.5748 36.8806 65.1873 36.2757 65.3137C36.669 65.8197 37.551 65.6148 37.905 65.0807C38.259 64.5465 38.2279 63.8511 38.1412 63.2162C37.8235 60.8899 36.9439 58.6828 36.0717 56.5029C35.6945 56.9763 35.9536 57.6659 36.2 58.2188C37.0652 60.1602 37.6142 62.2421 37.8191 64.3577C37.8332 64.504 37.8431 64.6624 37.7648 64.7868ZM44.4444 106.852C47.6092 106.679 51.2756 106.222 52.9357 103.522C53.3662 102.822 53.2744 101.721 53.1987 100.814C53.1379 100.085 53.0875 99.4813 53.3268 99.3108C53.8639 98.9279 54.2936 99.9153 54.2936 99.9153C54.3094 99.85 54.3274 99.7691 54.3478 99.6778C54.4977 99.005 54.774 97.7658 55.208 97.9986C55.3865 98.0944 55.3251 98.6968 55.2829 99.1107C55.273 99.2079 55.2641 99.2948 55.2597 99.3622C55.2496 99.4261 55.2481 99.4796 55.2557 99.5175C55.2618 99.5149 55.2681 99.5114 55.2747 99.5069C55.2792 99.5062 55.2847 99.5021 55.2913 99.4942C55.3615 99.435 55.4576 99.2886 55.5646 99.1258L55.5646 99.1257C55.7862 98.7883 56.0542 98.3802 56.2338 98.5302C56.5159 98.7657 55.5131 100.269 55.5131 100.269C55.5131 100.269 56.7041 98.9605 56.8045 99.5175C56.905 100.074 54.1927 105.105 51.7443 107.078C49.296 109.051 45.8462 110.156 42.7268 109.76C42.7964 108.523 43.2071 106.92 44.4444 106.852ZM55.2913 99.4942C55.2856 99.4991 55.28 99.5033 55.2747 99.5069C55.2558 99.5099 55.2536 99.4541 55.2597 99.3622C55.2827 99.2166 55.3507 99.0171 55.4595 98.8266C55.4389 98.892 55.4183 98.9552 55.3988 99.0148C55.3119 99.2814 55.249 99.4745 55.3143 99.4594C55.3055 99.4749 55.2979 99.4864 55.2913 99.4942ZM55.8808 98.359C55.7054 98.4699 55.5637 98.6441 55.4595 98.8266C55.622 98.3119 55.7865 97.6628 55.3865 97.6109C54.7082 97.5228 54.0451 98.6269 54.1629 99.2134C53.9746 98.7462 53.1913 98.9484 53.0016 99.415C52.8561 99.7731 52.918 100.165 52.9794 100.555L52.9794 100.555L52.9795 100.555C52.9981 100.673 53.0167 100.791 53.0294 100.907C53.2332 102.768 51.838 104.507 50.1468 105.31C48.5521 106.067 46.7424 106.173 44.9724 106.228L44.5594 106.24C43.5489 106.266 42.4545 106.243 41.6833 105.598C40.8886 104.933 40.8895 103.356 41.8873 103.078C44.4202 102.37 46.3523 99.9021 46.431 97.2734C46.4543 96.4965 46.9581 95.8501 47.4451 95.2253C47.4888 95.1692 47.5324 95.1133 47.5755 95.0574L47.6825 94.9174C48.2276 94.1943 48.6756 93.1982 48.2179 92.4169C47.5089 93.3267 46.1805 93.6936 45.105 93.2766C44.6563 93.1027 44.2587 92.812 43.8636 92.5232C43.3346 92.1364 42.8099 91.7528 42.1727 91.6568C40.9267 91.4692 39.6907 92.7309 39.904 93.9728C39.5666 93.6898 39.0431 94.1183 39.0066 94.5572C38.9852 94.8151 39.053 95.066 39.1211 95.3181C39.1689 95.4949 39.2168 95.6723 39.2342 95.853C39.2544 96.0634 39.2328 96.274 39.2113 96.4848C39.1967 96.6273 39.1821 96.7699 39.1803 96.9127C39.1713 97.652 39.5007 98.3361 39.8251 99.0099L39.8256 99.0109C39.8581 99.0786 39.8907 99.1462 39.9228 99.2137L40.0096 99.3986C40.3789 100.199 40.6528 101.152 40.2593 101.941C39.8657 102.731 38.5259 102.978 38.1463 102.182C36.2861 98.2807 32.0696 95.6245 27.7477 95.6311C22.7436 95.6386 18.2413 98.9363 15.2923 102.979C14.9245 103.483 14.5645 104.026 14.4844 104.645C14.4042 105.264 14.6914 105.975 15.2802 106.182C15.869 106.389 16.6324 105.81 16.4406 105.216C16.7393 105.564 17.3502 105.235 17.4909 104.798C17.57 104.552 17.569 104.293 17.5681 104.033C17.5673 103.831 17.5666 103.627 17.6038 103.43C17.7862 102.46 18.7834 101.9 19.6809 101.491L19.8619 101.409C21.9761 100.452 24.1789 99.5977 26.4914 99.4352C28.87 99.2681 31.4082 99.9293 33.0428 101.665C30.8124 102.194 29.5171 104.432 28.4846 106.5L28.3414 106.788C27.2989 108.881 25.9336 111.165 23.6475 111.609C23.7344 112.06 24.1326 112.433 24.5883 112.49L16.2078 117.473L16.8507 118.27C14.8102 121.398 12.5024 124.35 9.96072 127.086C8.57881 128.573 6.78442 130.115 4.7839 129.768C4.42221 129.706 4.07153 129.582 3.72206 129.458L3.72199 129.458L3.72191 129.458C3.21011 129.277 2.70091 129.096 2.16355 129.112C1.25921 129.137 0.351656 130.238 0.965514 130.902C2.325 132.374 3.87663 133.668 5.56856 134.741L5.61238 134.769C5.81835 134.897 6.0449 135.017 6.28372 134.99C6.52516 134.962 6.72174 134.79 6.90131 134.626L18.2514 124.277C19.181 123.437 20.204 122.596 21.4423 122.472L21.5468 122.459C22.4626 122.332 23.2171 121.753 23.9738 121.172C24.3032 120.919 24.6331 120.666 24.9768 120.45C26.14 119.718 28.0694 119.643 28.5218 120.94C28.7623 121.63 28.4476 122.332 28.1374 123.023C28.045 123.229 27.953 123.434 27.8762 123.638C27.5416 124.525 27.8157 125.889 28.7636 125.872L34.068 125.779C34.2587 125.777 34.4594 125.787 34.6077 125.904C34.7628 126.026 34.8172 126.229 34.847 126.428L34.8593 126.519C35.0591 128.144 35.0315 129.797 34.7777 131.414C34.5027 133.166 33.7708 135.094 32.1173 135.736C31.0743 136.141 29.9127 135.931 28.8142 135.679L22.1397 134.121C22.1285 133.312 22.8597 132.654 23.6392 132.44C24.3002 132.258 24.9944 132.314 25.6819 132.369L25.8085 132.379L26.051 132.397C27.7402 132.513 29.4479 132.356 31.0876 131.934L28.7216 126.013C28.9628 127.978 29.4945 129.908 30.294 131.72L22.5159 131.973C21.8387 131.992 21.0867 131.962 20.6314 131.467C20.5146 131.34 20.4172 131.184 20.3207 131.03L20.3206 131.029C20.1224 130.712 19.9278 130.4 19.5759 130.359C19.2718 130.324 18.9963 130.527 18.7633 130.726C17.2427 132.023 15.98 133.621 15.0703 135.401C15.3983 136.213 16.485 136.44 17.3292 136.207C17.823 136.071 18.2737 135.825 18.7253 135.579L18.7254 135.579L18.7255 135.579C19.0458 135.405 19.3666 135.23 19.7035 135.094C21.5837 134.334 23.6507 134.849 25.6363 135.447L26.8157 135.806C29.1464 136.506 31.9882 136.865 33.7349 135.17C34.7655 134.17 35.141 132.682 35.3451 131.261C35.9339 127.159 35.4566 122.908 33.9724 119.039C35.6272 118.401 36.4081 116.55 37.0152 114.883L38.204 111.62C38.6012 110.529 39.5036 109.191 40.5778 109.631C43.6484 110.886 47.2754 110.355 50.1342 108.672C52.993 106.989 55.133 104.262 56.5744 101.274L56.6131 101.194C56.8951 100.6 57.2547 99.2143 56.9335 99.0608C56.8138 98.9668 56.6005 99.1229 56.4552 99.2292C56.3766 99.2867 56.3179 99.3297 56.3046 99.3108C56.2964 99.2992 56.3227 99.2225 56.3601 99.1137C56.5069 98.6859 56.8238 97.7625 55.8808 98.359ZM35.5607 116.68C35.1893 117.515 34.5746 118.498 33.6672 118.387C33.1814 118.328 32.8144 117.961 32.4843 117.584L32.3074 117.379C30.3898 115.153 27.7848 113.674 25.1666 112.312L24.2943 111.861C26.427 111.442 27.7427 109.333 28.6821 107.372L28.9815 106.748C29.8406 104.967 30.818 103.134 32.5899 102.333C32.8348 102.222 33.1157 102.134 33.3683 102.226C33.4062 102.239 33.4471 102.255 33.4897 102.272L33.4909 102.272C33.8027 102.392 34.2043 102.546 34.1979 102.251C33.6294 102.022 33.5359 101.193 33.8638 100.675C34.1632 100.202 34.6819 99.9289 35.1954 99.6938L35.3418 99.6275C35.0142 99.1758 34.3043 99.5556 33.9333 99.9724L33.9028 100.006C33.5306 100.415 32.9592 100.862 32.5296 100.53C30.7542 99.1582 28.3882 98.7179 26.155 98.9332C23.9218 99.1486 21.7912 99.9651 19.7511 100.899C19.0034 101.241 18.2439 101.614 17.689 102.221C17.2597 102.69 17.2152 103.315 17.1705 103.943C17.1574 104.127 17.1443 104.311 17.1215 104.491C17.0664 104.928 16.8262 104.945 16.6147 104.959C16.5013 104.967 16.3961 104.975 16.3321 105.046C16.3269 105.051 16.3104 105.077 16.2856 105.115L16.2854 105.115C16.1584 105.31 15.8146 105.838 15.6594 105.785C15.4313 105.708 15.5476 105.216 15.5476 105.216C15.5476 105.216 14.8709 105.409 14.8206 105.216C14.6444 104.539 15.6594 103.154 15.6594 103.154C17.3659 100.644 19.8966 98.561 22.6789 97.3501C25.5127 96.1168 28.8196 95.8787 31.7165 96.9554C34.9825 98.1692 37.5687 101.069 38.4025 104.452C38.6103 105.295 39.5914 105.668 40.4487 105.808C40.5293 105.821 40.611 105.834 40.6932 105.847C41.4843 105.97 42.3256 106.102 42.8299 106.706C42.9785 106.884 42.9374 107.147 42.8863 107.374L42.8714 107.439C42.6833 108.246 42.3552 109.149 41.5713 109.394C40.8589 109.616 40.0147 109.042 39.9602 108.297C39.9554 108.232 39.954 108.162 39.9525 108.092C39.9465 107.803 39.9402 107.498 39.6973 107.379L35.5607 116.68ZM28.8232 121.092C28.5568 119.723 27.747 118.491 26.6846 117.588C26.7261 118.126 26.9537 118.648 27.3199 119.044C25.5195 119.617 23.8217 120.51 22.3304 121.67C21.9313 121.98 21.2532 122.263 21.0194 121.815C20.0997 120.051 18.6356 118.576 16.8787 117.643L24.1016 113.492C24.4281 113.305 24.7734 113.112 25.1499 113.108C25.4417 113.105 25.719 113.217 25.9829 113.347L26.1137 113.413C28.8167 114.805 31.2362 116.745 33.183 119.08C33.6651 119.658 33.8894 120.399 34.0803 121.131L34.9395 124.488C34.9964 124.71 35.0381 124.985 34.8639 125.135C34.7659 125.219 34.6279 125.233 34.4992 125.243L34.3485 125.255H34.3484C32.2097 125.419 30.4842 125.552 28.3415 125.243C28.0217 124.63 28.2634 123.87 28.5128 123.086C28.7266 122.414 28.9462 121.724 28.8232 121.092ZM18.0781 119.028C18.8795 119.734 19.602 120.529 20.2278 121.394C20.2947 121.487 20.3636 121.59 20.3565 121.704C20.3482 121.837 20.2404 121.94 20.1401 122.027L10.8046 130.198C10.4154 130.539 9.79441 130.479 9.3584 130.201C8.97688 129.957 8.7041 129.584 8.45381 129.203L8.34767 129.04C10.7806 127.761 12.3413 125.471 13.9159 123.16C14.9035 121.71 15.8966 120.253 17.1139 119.032C17.2322 118.913 17.3656 118.791 17.5322 118.772C17.7381 118.749 17.9225 118.891 18.0781 119.028ZM45.2641 96.2371L45.5024 96.3103C45.9666 96.4539 46.0437 97.0757 45.9846 97.558C45.74 99.5548 44.4988 101.531 42.5852 102.152L42.5168 102.175C41.2698 102.615 40.3783 103.919 40.4315 105.243C39.5945 105.4 38.697 104.73 38.6091 103.883C38.5915 103.714 38.6415 103.495 38.8093 103.469C39.5698 103.352 40.2693 102.885 40.6691 102.228C41.0689 101.571 41.1616 100.735 40.9156 100.006C40.8653 99.8569 40.8014 99.7078 40.7375 99.5585C40.5556 99.1341 40.3731 98.708 40.5008 98.28C40.7923 98.3068 40.8476 98.7066 40.8168 98.9976L40.8135 99.033C40.7899 99.32 40.8405 99.6881 41.1189 99.7264C41.3024 99.3051 41.3406 98.8333 41.3784 98.3652C41.4263 97.7741 41.4736 97.1887 41.8126 96.7177C42.2001 96.1792 42.8953 95.9318 43.5587 95.924C44.1392 95.9172 44.7067 96.0679 45.2641 96.2371ZM3.31864 129.903L3.37851 129.834C3.71261 129.761 4.03166 130.189 3.8662 130.488C3.76004 130.68 4.08651 130.87 4.2688 130.748C4.45108 130.626 4.48785 130.378 4.5079 130.159C4.69129 130.102 4.84994 130.312 4.88456 130.501C4.89371 130.551 4.89939 130.603 4.90507 130.654C4.92088 130.798 4.93673 130.943 5.02757 131.051C5.15106 131.198 5.47821 131.122 5.42456 130.937C5.34451 130.662 5.66971 130.437 5.95352 130.397C6.02175 130.387 6.09221 130.381 6.16285 130.376C6.38603 130.357 6.61103 130.339 6.7735 130.194L6.798 130.174C7.00418 130.028 7.25946 130.298 7.41508 130.539L7.48747 130.655C7.82965 131.187 8.41128 131.56 9.03835 131.645C9.16121 131.661 9.09871 131.853 9.00844 131.938L6.89214 133.931C6.78955 134.028 6.62331 133.959 6.50313 133.885C5.24693 133.116 4.08725 132.19 3.05987 131.134C2.73621 130.802 3.0107 130.271 3.31864 129.903ZM21.826 133.613C21.765 133.864 21.5915 134.145 21.3336 134.126C20.7119 134.08 20.0816 134.155 19.488 134.346C19.5425 134.092 19.4318 133.812 19.2192 133.664C19.0641 133.886 19.1276 134.229 19.3516 134.381L18.7598 134.966L18.4766 134.315C18.3369 134.352 18.3328 134.524 18.3425 134.681L18.3494 134.778C18.3777 135.19 18.0282 135.591 17.6161 135.619C17.204 135.647 16.8038 135.297 16.7765 134.884C16.7469 134.435 17.0907 134.059 17.4104 133.742L19.6805 131.494C19.7288 131.449 19.784 131.406 19.8492 131.407C19.9212 131.408 19.9796 131.463 20.0303 131.514L20.9161 132.408C21.0879 132.581 20.9793 132.846 20.8735 133.105C20.7646 133.371 20.6587 133.63 20.8643 133.774C21.0646 133.786 21.2313 133.612 21.3083 133.427C21.3475 133.332 21.3714 133.233 21.3953 133.133C21.4182 133.037 21.4411 132.941 21.4777 132.85C21.5523 132.664 21.7135 132.487 21.914 132.491C22.1145 132.495 22.2693 132.782 22.1142 132.909C21.9489 133.045 21.9016 133.265 21.8557 133.48C21.8461 133.524 21.8366 133.569 21.826 133.613ZM6.30518 134.607C4.26479 133.515 2.4612 131.984 1.05342 130.147C1.23802 129.972 1.51563 130.158 1.69418 130.356L1.73838 130.408C3.07599 132.063 4.75585 133.441 6.6411 134.428C6.62582 134.577 6.43713 134.677 6.30518 134.607ZM16.0907 134.189C16.9746 133.033 17.9539 131.95 19.0154 130.954C19.1799 130.8 19.5217 130.696 19.5633 130.918C18.3276 132.097 17.1456 133.333 16.0224 134.621C15.9003 134.515 15.9926 134.317 16.0907 134.189ZM9.30265 131.299C8.68589 131.079 8.13604 130.675 7.7421 130.152C7.59387 129.956 7.50038 129.614 7.72497 129.513C7.90248 129.433 8.073 129.601 8.19682 129.763L8.28965 129.89C8.6886 130.416 9.25763 130.812 9.89053 131.001C9.89164 131.17 9.75185 131.329 9.58415 131.348C9.48864 131.359 9.39325 131.331 9.30265 131.299ZM39.5689 97.0913C39.8589 97.0982 40.1044 97.4004 40.0517 97.6856L40.0585 97.6897C40.0986 97.8964 40.0722 98.1155 39.9842 98.3068C39.6671 97.9959 39.5083 97.5312 39.5689 97.0913ZM45.0927 97.0984H45.0928C45.1294 97.0951 45.1678 97.0917 45.2068 97.0913C45.2557 97.0907 45.3122 97.0994 45.3654 97.1077C45.5089 97.1299 45.629 97.1485 45.5156 96.9709C45.36 96.7274 44.905 96.7 44.8303 96.9791C44.8512 97.1196 44.9596 97.1101 45.0927 97.0984ZM45.459 98.3023L45.4656 98.2772C45.5762 97.858 45.5122 97.5273 45.2069 97.5273C45.089 97.5362 44.9092 98.1362 44.9263 98.3181C44.9435 98.5 45.1485 98.6683 45.3074 98.578C45.4015 98.5244 45.4317 98.408 45.459 98.3023ZM43.4447 98.175C43.2319 97.8793 43.2095 97.4584 43.3899 97.1419C43.4168 97.0946 43.4494 97.0481 43.4966 97.0211C43.616 96.9527 43.7758 97.0454 43.8284 97.1726C43.8811 97.2998 43.8581 97.4441 43.8343 97.5797C43.8343 97.5797 43.6576 98.4707 43.4447 98.175ZM88.5393 98.1837C84.6504 97.2299 80.5879 96.9885 76.6135 97.4763C77.3033 95.8692 77.6061 94.0975 77.4893 92.3525C76.4536 93.0783 74.7533 92.2269 74.714 90.9629C74.6748 89.6988 76.319 88.7435 77.3977 89.4037C77.6837 89.5787 77.9979 89.2159 78.1123 88.9007C78.5017 87.8272 78.5055 86.6183 78.1228 85.5424C77.9738 85.1233 78.6062 84.8961 79.0509 84.9049L82.8249 84.9795C83.0783 84.9846 83.3474 84.9856 83.5638 84.8536C83.7802 84.7217 83.9032 84.4043 83.7441 84.207C83.0911 83.3966 83.8417 81.9464 84.8803 82.0117C85.919 82.0769 86.4822 83.6096 85.7329 84.3319C85.5932 84.4666 85.8648 84.64 86.0588 84.6445L90.9935 84.7581C91.9749 84.7807 92.6684 85.8262 92.7085 86.8071C92.7424 87.6372 92.4476 88.4321 92.1565 89.2174C92.1311 89.2858 92.1057 89.3542 92.0806 89.4225L92.0001 89.6446C91.1261 92.0971 90.8448 94.7584 91.1867 97.3394C91.2534 97.8429 90.7899 98.2909 90.2938 98.3999C89.8561 98.496 89.4054 98.4007 88.9672 98.2911L88.5393 98.1837Z" fill="#00160A"/>
<path fill-rule="evenodd" clip-rule="evenodd" d="M35.9414 53.0174C35.9773 52.7848 36.2873 52.6504 36.5113 52.7303C36.7353 52.8101 36.9353 53.1314 36.7712 53.3131C36.5113 53.6008 35.8716 53.4688 35.9414 53.0174Z" fill="#FFB61D"/>
<path fill-rule="evenodd" clip-rule="evenodd" d="M133.459 113.248C133.313 113.371 133.019 113.415 132.992 113.226C133.563 112.644 133.956 111.89 134.106 111.088C134.292 111.038 134.346 111.335 134.299 111.523C134.142 112.154 133.958 112.829 133.459 113.248Z" fill="#00160A"/>
<path d="M7.2771 43.964C7.2713 44.1514 6.98694 44.1405 6.81497 44.0657C6.87687 43.8984 7.12781 43.8424 7.25493 43.9675L7.2771 43.964Z" fill="black"/>
<path fill-rule="evenodd" clip-rule="evenodd" d="M88.4236 95.4646C88.2255 95.6408 87.8921 95.3713 87.9216 95.1077C87.951 94.8442 88.1845 94.6556 88.4085 94.5137C89.2113 94.005 90.1412 93.6985 91.0891 93.63C91.1146 93.9915 90.6459 94.1408 90.2903 94.2102C89.5356 94.3573 88.8166 94.6843 88.2097 95.1563C88.3195 95.2236 88.399 95.3382 88.4236 95.4646V95.4646Z" fill="#00160A"/>
<path fill-rule="evenodd" clip-rule="evenodd" d="M91.1161 95.9256C90.6712 96.1402 90.2186 96.3385 89.7593 96.5201C89.8115 96.7139 90.0899 96.7075 90.2787 96.6393C90.4675 96.5712 90.7158 96.4995 90.8382 96.6586C90.5276 97.1326 89.7581 97.2065 89.3629 96.8003C89.1912 96.6237 88.8802 96.7399 88.6584 96.6328C88.3409 96.4795 88.4 96.0001 88.5869 95.7011C88.9772 95.077 89.7214 94.692 90.4563 94.7342C90.7361 94.7503 91.0704 94.8885 91.0891 95.1681C90.2114 95.113 89.3165 95.4749 88.7239 96.1247C89.0605 96.3852 89.5435 96.1908 89.9232 95.9984C90.3028 95.806 90.8041 95.636 91.1161 95.9256Z" fill="#00160A"/>
<path fill-rule="evenodd" clip-rule="evenodd" d="M44.3919 98.4157C44.6439 98.6678 44.7484 98.7832 44.7484 99.1539C44.7484 99.5247 44.5473 99.7626 44.2079 99.8714C44.0514 99.9216 43.8348 99.8833 43.7942 99.724C44.9251 99.493 44.5095 98.9999 44.3919 98.4157Z" fill="#00160A"/>
<path fill-rule="evenodd" clip-rule="evenodd" d="M42.8831 96.8384C43.0037 96.4383 43.5285 96.2221 43.8959 96.4211C44.0413 96.4998 44.1622 96.6432 44.1697 96.8083C43.7408 96.8183 43.3877 96.541 42.8831 96.8384Z" fill="#00160A"/>
<path fill-rule="evenodd" clip-rule="evenodd" d="M43.9099 100.412C43.3904 100.786 41.5175 99.0841 43.9099 100.412V100.412Z" fill="#00160A"/>
<path d="M44.6458 63.4001L30.6147 77.5199L30.526 49.369L44.6458 63.4001Z" fill="#FE9A0C"/>
<g filter="url(#filter1_biiii_356_28105)">
<path d="M45.9468 70.1596L25.4089 49.7507L14.184 61.0465L14.2347 61.0969C9.5933 66.7981 9.94414 75.2017 15.2689 80.493C20.5937 85.7844 28.9993 86.0823 34.6712 81.4051L34.7219 81.4555L45.9468 70.1596Z" fill="url(#paint2_linear_356_28105)"/>
</g>
<path d="M42.4093 61.1775L33.7897 69.8514L33.7353 52.558L42.4093 61.1775Z" fill="url(#paint3_linear_356_28105)"/>
<defs>
<filter id="filter0_biiii_356_28105" x="46.3733" y="20.5532" width="97.9337" height="92.2183" filterUnits="userSpaceOnUse" color-interpolation-filters="sRGB">
<feFlood flood-opacity="0" result="BackgroundImageFix"/>
<feGaussianBlur in="BackgroundImageFix" stdDeviation="10.5"/>
<feComposite in2="SourceAlpha" operator="in" result="effect1_backgroundBlur_356_28105"/>
<feBlend mode="normal" in="SourceGraphic" in2="effect1_backgroundBlur_356_28105" result="shape"/>
<feColorMatrix in="SourceAlpha" type="matrix" values="0 0 0 0 0 0 0 0 0 0 0 0 0 0 0 0 0 0 127 0" result="hardAlpha"/>
<feOffset dx="10" dy="10"/>
<feGaussianBlur stdDeviation="11.5"/>
<feComposite in2="hardAlpha" operator="arithmetic" k2="-1" k3="1"/>
<feColorMatrix type="matrix" values="0 0 0 0 0 0 0 0 0 0.796078 0 0 0 0 0.662745 0 0 0 0.18 0"/>
<feBlend mode="normal" in2="shape" result="effect2_innerShadow_356_28105"/>
<feColorMatrix in="SourceAlpha" type="matrix" values="0 0 0 0 0 0 0 0 0 0 0 0 0 0 0 0 0 0 127 0" result="hardAlpha"/>
<feOffset dy="2"/>
<feGaussianBlur stdDeviation="3"/>
<feComposite in2="hardAlpha" operator="arithmetic" k2="-1" k3="1"/>
<feColorMatrix type="matrix" values="0 0 0 0 1 0 0 0 0 1 0 0 0 0 1 0 0 0 0.05 0"/>
<feBlend mode="normal" in2="effect2_innerShadow_356_28105" result="effect3_innerShadow_356_28105"/>
<feColorMatrix in="SourceAlpha" type="matrix" values="0 0 0 0 0 0 0 0 0 0 0 0 0 0 0 0 0 0 127 0" result="hardAlpha"/>
<feOffset dy="1"/>
<feComposite in2="hardAlpha" operator="arithmetic" k2="-1" k3="1"/>
<feColorMatrix type="matrix" values="0 0 0 0 1 0 0 0 0 1 0 0 0 0 1 0 0 0 0.05 0"/>
<feBlend mode="normal" in2="effect3_innerShadow_356_28105" result="effect4_innerShadow_356_28105"/>
<feColorMatrix in="SourceAlpha" type="matrix" values="0 0 0 0 0 0 0 0 0 0 0 0 0 0 0 0 0 0 127 0" result="hardAlpha"/>
<feOffset dy="-10"/>
<feGaussianBlur stdDeviation="5"/>
<feComposite in2="hardAlpha" operator="arithmetic" k2="-1" k3="1"/>
<feColorMatrix type="matrix" values="0 0 0 0 0 0 0 0 0 0.796078 0 0 0 0 0.662745 0 0 0 0.4 0"/>
<feBlend mode="overlay" in2="effect4_innerShadow_356_28105" result="effect5_innerShadow_356_28105"/>
</filter>
<filter id="filter1_biiii_356_28105" x="-10.0035" y="28.7505" width="76.9504" height="76.9507" filterUnits="userSpaceOnUse" color-interpolation-filters="sRGB">
<feFlood flood-opacity="0" result="BackgroundImageFix"/>
<feGaussianBlur in="BackgroundImageFix" stdDeviation="10.5"/>
<feComposite in2="SourceAlpha" operator="in" result="effect1_backgroundBlur_356_28105"/>
<feBlend mode="normal" in="SourceGraphic" in2="effect1_backgroundBlur_356_28105" result="shape"/>
<feColorMatrix in="SourceAlpha" type="matrix" values="0 0 0 0 0 0 0 0 0 0 0 0 0 0 0 0 0 0 127 0" result="hardAlpha"/>
<feOffset dx="10" dy="10"/>
<feGaussianBlur stdDeviation="11.5"/>
<feComposite in2="hardAlpha" operator="arithmetic" k2="-1" k3="1"/>
<feColorMatrix type="matrix" values="0 0 0 0 0.996078 0 0 0 0 0.603922 0 0 0 0 0.0470588 0 0 0 0.18 0"/>
<feBlend mode="normal" in2="shape" result="effect2_innerShadow_356_28105"/>
<feColorMatrix in="SourceAlpha" type="matrix" values="0 0 0 0 0 0 0 0 0 0 0 0 0 0 0 0 0 0 127 0" result="hardAlpha"/>
<feOffset dy="2"/>
<feGaussianBlur stdDeviation="3"/>
<feComposite in2="hardAlpha" operator="arithmetic" k2="-1" k3="1"/>
<feColorMatrix type="matrix" values="0 0 0 0 1 0 0 0 0 1 0 0 0 0 1 0 0 0 0.05 0"/>
<feBlend mode="normal" in2="effect2_innerShadow_356_28105" result="effect3_innerShadow_356_28105"/>
<feColorMatrix in="SourceAlpha" type="matrix" values="0 0 0 0 0 0 0 0 0 0 0 0 0 0 0 0 0 0 127 0" result="hardAlpha"/>
<feOffset dy="1"/>
<feComposite in2="hardAlpha" operator="arithmetic" k2="-1" k3="1"/>
<feColorMatrix type="matrix" values="0 0 0 0 1 0 0 0 0 1 0 0 0 0 1 0 0 0 0.05 0"/>
<feBlend mode="normal" in2="effect3_innerShadow_356_28105" result="effect4_innerShadow_356_28105"/>
<feColorMatrix in="SourceAlpha" type="matrix" values="0 0 0 0 0 0 0 0 0 0 0 0 0 0 0 0 0 0 127 0" result="hardAlpha"/>
<feOffset dy="-10"/>
<feGaussianBlur stdDeviation="5"/>
<feComposite in2="hardAlpha" operator="arithmetic" k2="-1" k3="1"/>
<feColorMatrix type="matrix" values="0 0 0 0 0.996078 0 0 0 0 0.603922 0 0 0 0 0.0470588 0 0 0 0.4 0"/>
<feBlend mode="overlay" in2="effect4_innerShadow_356_28105" result="effect5_innerShadow_356_28105"/>
</filter>
<linearGradient id="paint0_linear_356_28105" x1="28.4983" y1="4.3412" x2="127.915" y2="5.42601" gradientUnits="userSpaceOnUse">
<stop stop-color="#00CBA9" stop-opacity="0.01"/>
<stop offset="1" stop-color="#00CBA9" stop-opacity="0.12"/>
</linearGradient>
<linearGradient id="paint1_linear_356_28105" x1="87.3012" y1="77.9862" x2="96.3975" y2="66.1174" gradientUnits="userSpaceOnUse">
<stop stop-color="white"/>
<stop offset="1" stop-color="white" stop-opacity="0"/>
</linearGradient>
<linearGradient id="paint2_linear_356_28105" x1="55.8582" y1="100.418" x2="6.54622" y2="78.3085" gradientUnits="userSpaceOnUse">
<stop stop-color="#FE9A0C" stop-opacity="0.01"/>
<stop offset="1" stop-color="#FE9A0C" stop-opacity="0.12"/>
</linearGradient>
<linearGradient id="paint3_linear_356_28105" x1="34.2979" y1="53.1169" x2="42.4093" y2="61.1774" gradientUnits="userSpaceOnUse">
<stop stop-color="white"/>
<stop offset="1" stop-color="white" stop-opacity="0"/>
</linearGradient>
</defs>
</svg>
