<svg width="20" height="20" viewBox="0 0 20 20" fill="none" xmlns="http://www.w3.org/2000/svg">
<path d="M14.0167 1.59167H5.98333C4.21666 1.59167 2.76666 3.04167 2.76666 4.80834V16.55C2.76666 18.05 3.84166 18.6833 5.15833 17.9583L9.225 15.7C9.65833 15.4583 10.3583 15.4583 10.7833 15.7L14.85 17.9583C16.1667 18.6917 17.2417 18.0583 17.2417 16.55V4.80834C17.2333 3.04167 15.7917 1.59167 14.0167 1.59167ZM13.0167 7.52501L9.68333 10.8583C9.55833 10.9833 9.4 11.0417 9.24166 11.0417C9.08333 11.0417 8.925 10.9833 8.8 10.8583L7.55 9.60834C7.30833 9.36667 7.30833 8.96667 7.55 8.72501C7.79166 8.48334 8.19166 8.48334 8.43333 8.72501L9.24166 9.53334L12.1333 6.64167C12.375 6.40001 12.775 6.40001 13.0167 6.64167C13.2583 6.88334 13.2583 7.28334 13.0167 7.52501Z" fill="white"/>
</svg>
