<svg width="182" height="160" viewBox="0 0 182 160" fill="none" xmlns="http://www.w3.org/2000/svg">
<rect width="21.3019" height="42.1773" transform="matrix(0.715842 -0.698262 0.720223 0.693742 23.0859 98.6445)" fill="#FE9A0C"/>
<g filter="url(#filter0_biiii_104_5513)">
<rect width="27.3881" height="54.787" transform="matrix(0.715842 -0.698262 0.720223 0.693742 0 103.557)" fill="url(#paint0_linear_104_5513)"/>
</g>
<rect width="11.9452" height="29.2906" transform="matrix(0.715842 -0.698262 0.720223 0.693742 29.418 110.461)" fill="url(#paint1_linear_104_5513)"/>
<path fill-rule="evenodd" clip-rule="evenodd" d="M119.684 22.8883L118.864 22.8606L118.841 23.589C118.802 24.8996 118.82 26.3016 118.839 27.8302C118.853 28.8955 118.868 30.0223 118.864 31.2225L118.728 33.5925C118.732 35.8004 118.747 38.8736 118.774 42.8122L118.864 54.0238C118.261 54.2236 117.808 54.7439 117.718 55.3767C117.22 55.4524 116.839 55.8745 116.839 56.3824C116.839 56.7419 117.03 57.0582 117.318 57.2393L116.968 58.087C116.812 58.4636 116.555 58.7856 116.224 59.0182C114.775 60.0374 113.922 61.6881 113.942 63.4339C113.943 63.4803 113.944 63.5265 113.946 63.5727C113.952 63.7401 114.096 63.8691 114.267 63.8645C114.438 63.8583 114.571 63.7176 114.565 63.5502C114.563 63.5093 114.562 63.4682 114.562 63.427C114.544 61.8788 115.574 60.4148 116.859 59.5109C117.284 59.2113 117.615 58.7978 117.815 58.3148L117.92 57.4003H118.36C118.36 57.4003 118.513 58.2234 118.513 58.8669C118.513 59.5104 118.36 60.7849 118.36 60.7849H117.853C117.271 60.7849 116.799 61.248 116.799 61.8173C116.799 62.3865 117.271 62.8496 117.853 62.8496H117.925C118.506 62.8496 118.706 62.5523 118.706 61.8173C118.706 61.4326 118.748 61.1573 119.376 61.1573C120.004 61.1573 119.842 61.8173 119.842 61.8173C119.842 62.3865 120.315 62.8496 120.896 62.8496H120.969C121.55 62.8496 122.023 62.3865 122.023 61.8173C122.023 61.248 121.043 60.7665 120.462 60.7665C120.462 60.7665 120.307 59.6084 120.307 59.0182C120.307 58.5208 120.462 57.5037 120.462 57.5037H119.842C119.842 57.5037 119.972 58.453 119.972 59.0323C119.972 59.6117 119.842 60.7665 119.842 60.7665C119.842 60.7665 119.501 60.8282 119.338 60.8316C119.176 60.8351 118.979 60.7849 118.979 60.7849C118.979 60.7849 118.843 59.6007 118.843 59.0323C118.843 58.464 118.979 57.4003 118.979 57.4003H119.842H120.462H120.902L121.28 58.3146C121.47 58.774 122.039 59.1772 122.472 59.4844L122.527 59.5234C123.784 60.4155 124.26 61.8542 124.26 63.3719C124.26 64.6539 123.747 65.8555 122.815 66.7554C121.883 67.6551 120.648 68.4138 119.338 68.395C118.299 68.3802 117.237 67.8078 116.407 67.1874C115.603 66.5866 114.562 64.9434 114.388 64.5641C114.215 64.1848 114.133 64.7834 114.184 64.9434C114.517 66.0011 115.2 66.9562 116.106 67.6329C117.042 68.3326 118.157 68.7113 119.329 68.7281C120.807 68.7489 122.198 68.202 123.249 67.1874C124.3 66.1726 124.879 64.8175 124.879 63.3719C124.879 61.6605 124.034 60.0382 122.617 59.0323C122.272 58.7873 122.008 58.4604 121.854 58.0869L121.503 57.2394C121.791 57.0582 121.983 56.7419 121.983 56.3824C121.983 55.8745 121.601 55.4524 121.104 55.3767C121.002 54.6631 120.439 54.0927 119.72 53.9634L119.68 53.9634L119.206 43.5376C119.177 39.569 119.548 31.6369 119.548 31.6369C119.555 28.5865 119.593 25.9122 119.661 23.614L119.684 22.8883ZM120.896 62.2432C120.656 62.2432 120.461 62.0522 120.461 61.8174V61.1574C120.461 61.1574 121.404 61.3461 121.404 61.8174C121.404 62.2498 121.239 62.2472 121.027 62.2438C121.008 62.2435 120.989 62.2432 120.969 62.2432H120.896ZM117.181 61.8174C117.221 62.4104 118.451 62.6688 118.36 61.8174V61.1574C118.36 61.1574 117.141 61.2244 117.181 61.8174ZM118.349 55.3646C118.463 54.8935 118.896 54.5419 119.411 54.5419C119.926 54.5419 120.359 54.8935 120.473 55.3646H118.349ZM120.944 55.971H120.811H118.01H117.878C117.646 55.971 117.458 56.1555 117.458 56.3823C117.458 56.6091 117.646 56.7936 117.878 56.7936H120.944C121.175 56.7936 121.364 56.6091 121.364 56.3823C121.364 56.1555 121.175 55.971 120.944 55.971ZM126.249 58.6119H126.791C126.943 58.6119 127.067 58.4895 127.067 58.3384C127.067 58.1874 126.943 58.065 126.791 58.065H126.249C126.097 58.065 125.973 58.1874 125.973 58.3384C125.973 58.4895 126.097 58.6119 126.249 58.6119ZM125.819 60.5473L126.34 60.7665C126.487 60.8283 126.558 61.0032 126.499 61.1573C126.44 61.3113 126.274 61.386 126.127 61.3243L125.606 61.1051C125.459 61.0433 125.388 60.8684 125.447 60.7144C125.492 60.597 125.599 60.5257 125.713 60.5257C125.748 60.5257 125.784 60.5326 125.819 60.5473ZM125.355 56.0883L125.843 55.6969C125.98 55.5866 126.014 55.3679 125.919 55.2084C125.86 55.1099 125.766 55.057 125.67 55.057C125.61 55.057 125.55 55.0773 125.498 55.1195L125.01 55.5109C124.872 55.6213 124.838 55.84 124.933 55.9995C125.028 56.1589 125.217 56.1987 125.355 56.0883ZM112.299 58.6119H111.757C111.605 58.6119 111.481 58.4895 111.481 58.3384C111.481 58.1874 111.605 58.065 111.757 58.065H112.299C112.451 58.065 112.575 58.1874 112.575 58.3384C112.575 58.4895 112.451 58.6119 112.299 58.6119ZM112.729 60.5473L112.208 60.7665C112.061 60.8283 111.99 61.0033 112.049 61.1573C112.108 61.3113 112.274 61.386 112.421 61.3243L112.942 61.1051C113.089 61.0433 113.16 60.8684 113.101 60.7144C113.056 60.597 112.949 60.5257 112.835 60.5257C112.8 60.5257 112.764 60.5326 112.729 60.5473ZM113.193 56.0883L112.705 55.6969C112.568 55.5866 112.534 55.3679 112.629 55.2084C112.688 55.1099 112.782 55.057 112.878 55.057C112.938 55.057 112.998 55.0773 113.05 55.1195L113.538 55.5109C113.676 55.6212 113.71 55.84 113.615 55.9994C113.52 56.1588 113.331 56.1987 113.193 56.0883Z" fill="#FFB61D"/>
<path d="M79.2903 99.2385C82.3063 100.032 83.8539 101.921 85.1609 103.681C86.4707 105.44 83.5914 104.603 82.0028 103.968C80.4142 103.333 76.5888 100.985 76.5888 100.985L63.9071 97.1489V91.2832L67.6996 91.0618C67.6996 91.0618 76.2717 98.4444 79.2903 99.2385Z" fill="white"/>
<path d="M66.1496 56.2793C68.862 66.545 70.262 76.3675 70.4835 85.7902C70.4835 85.7902 73.0237 86.1076 72.7065 88.3304C72.3893 90.5531 65.7203 96.5858 65.7203 96.5858L63.4098 88.9273L62.5458 60.7059L66.1496 56.2793Z" fill="white"/>
<path fill-rule="evenodd" clip-rule="evenodd" d="M67.075 61.5334L65.5175 60.5003C65.418 60.4343 65.2868 60.4855 65.251 60.6044L64.7079 62.4082C64.6626 62.5584 64.7978 62.6992 64.9378 62.6478L67.0385 61.8771C67.1817 61.8246 67.2036 61.6186 67.075 61.5334ZM66.8864 61.8316L64.9724 62.3853L65.5421 60.7447L66.8864 61.8316Z" fill="#FFB61D"/>
<path fill-rule="evenodd" clip-rule="evenodd" d="M66.3914 74.5212L64.8339 73.4881C64.7344 73.4221 64.6032 73.4733 64.5674 73.5922L64.0243 75.396C63.979 75.5462 64.1142 75.687 64.2542 75.6356L66.3549 74.8649C66.4981 74.8124 66.52 74.6064 66.3914 74.5212ZM66.2029 74.8192L64.2889 75.3728L64.8586 73.7322L66.2029 74.8192Z" fill="#FFB61D"/>
<path fill-rule="evenodd" clip-rule="evenodd" d="M65.5725 81.8181L65.6885 79.9527C65.6959 79.8335 65.5859 79.7455 65.465 79.7739L63.6313 80.2055C63.4786 80.2414 63.4242 80.4288 63.5388 80.5244L65.2566 81.9583C65.3737 82.0561 65.563 81.972 65.5725 81.8181ZM65.2199 81.804L63.7835 80.4233L65.4891 80.0964L65.2199 81.804Z" fill="#FFB61D"/>
<path fill-rule="evenodd" clip-rule="evenodd" d="M68.5246 80.4417L66.6592 80.3258C66.5401 80.3184 66.452 80.4284 66.4805 80.5492L66.912 82.383C66.948 82.5357 67.1354 82.59 67.231 82.4755L68.6649 80.7577C68.7626 80.6406 68.6786 80.4513 68.5246 80.4417ZM68.5104 80.7943L67.1296 82.2308L66.8028 80.5251L68.5104 80.7943Z" fill="#FFB61D"/>
<path fill-rule="evenodd" clip-rule="evenodd" d="M67.0845 89.951L65.4111 90.7834C65.3042 90.8365 65.283 90.9758 65.368 91.0662L66.6586 92.4385C66.7661 92.5528 66.9556 92.5062 66.9811 92.3592L67.364 90.1545C67.3901 90.0043 67.2227 89.8823 67.0845 89.951ZM67.2485 90.2632L66.7709 92.1976L65.635 90.8839L67.2485 90.2632Z" fill="#FFB61D"/>
<path fill-rule="evenodd" clip-rule="evenodd" d="M67.9048 84.7557L66.2314 85.588C66.1245 85.6412 66.1033 85.7805 66.1883 85.8709L67.4789 87.2432C67.5864 87.3575 67.7759 87.3108 67.8014 87.1638L68.1843 84.9592C68.2104 84.8089 68.043 84.687 67.9048 84.7557ZM68.0688 85.0678L67.5912 87.0022L66.4553 85.6885L68.0688 85.0678Z" fill="#FFB61D"/>
<path d="M57.0559 62.4524L55.2158 68.0076C51.0097 80.73 48.9385 87.1878 48.8763 87.7932C48.8377 88.1692 49.0657 88.4504 49.4174 88.546C49.6288 88.6034 49.8872 88.6003 50.2083 88.5527C50.7078 88.4786 51.3756 88.2912 52.1819 88.0128C52.8052 87.7975 53.4787 87.539 54.1609 87.2598L54.448 87.1413C54.5412 87.1024 54.6319 87.0643 54.7197 87.0271L55.1756 86.8306L55.3057 86.7732L55.3814 86.6527C55.5158 86.4388 55.7073 86.0603 55.8962 85.5416C56.0622 85.0856 56.1944 84.5974 56.2814 84.0816L56.3119 83.8869C56.3389 83.6975 56.599 83.2591 57.1352 82.5106L57.5089 81.9991C57.8154 81.5859 58.4052 80.7965 58.4645 80.7167L58.8113 80.2471C59.1427 79.7954 59.432 79.3917 59.7146 78.9849C61.1325 76.9435 62.1344 75.1569 62.7254 73.4375C63.2268 71.979 63.4026 70.6276 63.2041 69.3853C62.9 67.4889 63.0165 65.677 63.4603 63.9763C63.829 62.5633 62.6627 61.2597 60.9814 60.7805C59.2441 60.2853 57.5889 60.8462 57.0559 62.4524Z" fill="white"/>
<path d="M60.1356 54.2375C61.1604 55.3252 62.0203 56.1547 62.7153 56.7259C63.8859 57.6881 65.5641 58.7194 67.7497 59.8197C61.0643 61.3679 56.982 61.674 55.503 60.7379C55.503 60.7379 56.1191 57.839 57.0042 56.5969C57.6632 55.6722 60.1356 54.2375 60.1356 54.2375Z" fill="white"/>
<path d="M70.7701 40.2622C69.3811 45.5378 65.5859 51.0455 61.5446 49.9819C57.5032 48.918 55.2666 41.7073 56.6556 36.4317C58.0446 31.1561 62.4469 27.7418 66.4882 28.8054C70.5295 29.8691 72.1592 34.9869 70.7701 40.2622Z" fill="white"/>
<path d="M71.6946 41.9447C70.1227 47.9821 65.8277 54.2852 61.2541 53.068C56.6806 51.8504 54.1494 43.5985 55.7213 37.561C57.2933 31.5236 62.2753 27.6162 66.8488 28.8335C71.4223 30.0507 73.2666 35.9076 71.6946 41.9447Z" fill="white"/>
<path fill-rule="evenodd" clip-rule="evenodd" d="M64.3958 29.5281C67.5123 29.7051 69.7868 30.729 71.0619 32.5331L71.2056 32.7417C71.8362 33.6518 72.3664 34.2245 72.5983 35.947L72.6206 36.1301C72.753 37.2632 72.7919 38.4586 72.7238 38.8553C72.687 39.0229 72.6152 39.0814 72.5244 39.0636C72.3184 39.0234 71.785 38.0755 70.9242 36.2199L70.2018 37.0655C69.8087 37.5197 68.975 37.9478 68.4809 38.2695C67.9868 38.5913 64.3958 29.5281 64.3958 29.5281Z" fill="#E7EAEE"/>
<path fill-rule="evenodd" clip-rule="evenodd" d="M67.5424 46.6657C69.2778 47.3895 70.5962 48.3295 70.9457 47.9386C71.2952 47.5476 70.1032 46.3571 69.177 44.7401C68.2074 43.1321 67.2864 41.1067 67.1142 40.2827L66.6734 38.1998C65.3839 39.8271 64.1765 45.2868 67.5424 46.6657Z" fill="white"/>
<path d="M87.7184 146.089L87.6244 151.88H84.3301L83.3435 145.235L87.7184 146.089Z" fill="white"/>
<path d="M51.6398 115.291C51.6398 115.291 73.0148 114.819 79.7342 113.85C87.1932 112.774 91.2724 110.231 92.8947 110.531C93.6548 110.672 98.1414 111.467 107.504 112.463C111.463 112.884 121.741 112.949 121.741 112.949L125.73 104.458C125.73 104.458 97.6585 98.8225 88.7834 101.262C85.9917 102.029 79.9463 103.136 72.7586 102.732C66.5433 102.382 49.6391 99.0992 49.6391 99.0992C49.6391 99.0992 42.814 101.549 44.0494 107.574C45.2848 113.599 51.6398 115.291 51.6398 115.291Z" fill="white"/>
<path fill-rule="evenodd" clip-rule="evenodd" d="M123.443 108.091L124.757 104.286C124.757 104.286 96.7328 99.0589 87.8577 101.498C85.066 102.266 82.5432 103.531 75.3556 103.126C72.6039 102.972 67.8994 102.328 61.2418 101.194C57.8741 100.621 57.333 100.833 59.9799 102.564C66.1179 106.578 79.7713 105.632 92.1593 103.823C115.183 100.462 123.443 108.091 123.443 108.091Z" fill="#E7EAEE"/>
<path d="M83.9998 147.404C82.6053 148.944 80.757 151.482 81.7085 154.022L98.221 159.102C98.221 159.102 98.8554 157.197 97.9038 155.611C96.9496 154.022 87.9404 147.755 87.9404 147.755L83.9998 147.404Z" fill="white"/>
<path fill-rule="evenodd" clip-rule="evenodd" d="M91.6216 150.845C91.7309 150.815 91.8435 150.88 91.8731 150.989C91.9028 151.098 91.8381 151.211 91.7288 151.24C91.191 151.386 90.8367 151.726 90.7121 152.156C90.551 152.713 90.5334 153.282 90.7162 154.192C90.7385 154.303 90.6665 154.411 90.5555 154.434C90.4444 154.456 90.3364 154.384 90.3141 154.273C90.1185 153.299 90.1382 152.663 90.3181 152.042C90.4831 151.473 90.9473 151.027 91.6216 150.845Z" fill="#E7EAEE"/>
<path fill-rule="evenodd" clip-rule="evenodd" d="M82.5287 154.295L98.7736 159.075C98.7736 159.075 100.837 158.642 98.7034 158.338C96.5116 158.027 83.6787 152.151 82.2672 153.221C82.0665 153.373 82.4044 153.963 82.5287 154.295Z" fill="#E7EAEE"/>
<path d="M42.051 114.079C42.051 114.079 49.3812 116.392 55.284 117.26C61.1868 118.127 72.9611 118.621 72.9611 118.621C72.9611 118.621 76.637 120.619 76.8741 121.544C76.9665 121.905 77.5235 126.668 79.0636 132.752C79.7881 135.614 83.6593 148.557 83.6593 148.557L88.7834 146.289C88.7834 146.289 88.5776 122.5 85.3068 114.61C82.0359 106.719 48.4141 99.0561 48.4141 99.0561C48.4141 99.0561 41.2784 97.7652 39.3358 103.601C37.3932 109.436 42.051 114.079 42.051 114.079Z" fill="white"/>
<path fill-rule="evenodd" clip-rule="evenodd" d="M84.4797 147.737L89.6038 145.469C89.4666 129.609 88.3077 119.05 86.1271 113.79C86.1271 113.79 88.3556 141.792 84.4797 147.737Z" fill="#E7EAEE"/>
<path d="M129.162 108.403C130.437 110.044 132.615 112.305 135.282 111.809L143.152 96.4296C143.152 96.4296 141.127 95.5337 139.4 96.1954C137.67 96.8593 130.062 104.799 130.062 104.799L129.162 108.403Z" fill="white"/>
<path fill-rule="evenodd" clip-rule="evenodd" d="M94.976 153.576C95.0578 153.497 95.1876 153.5 95.266 153.582C95.3443 153.664 95.3416 153.793 95.2598 153.872C94.7833 154.328 94.6949 155.093 94.9682 155.555C95.0259 155.653 94.9937 155.778 94.8962 155.836C94.7988 155.894 94.673 155.861 94.6153 155.764C94.2467 155.141 94.3593 154.167 94.976 153.576Z" fill="#E7EAEE"/>
<path fill-rule="evenodd" clip-rule="evenodd" d="M93.3009 152.223C93.3834 152.146 93.5132 152.15 93.5908 152.232C93.6683 152.315 93.6643 152.444 93.5817 152.522L93.4708 152.629C92.6084 153.477 92.3612 154.219 93.1205 155.015C93.1987 155.097 93.1956 155.227 93.1137 155.305C93.0317 155.383 92.9019 155.38 92.8237 155.298C92.2625 154.71 92.1473 154.075 92.3959 153.439C92.5673 153 92.8658 152.632 93.3009 152.223Z" fill="#E7EAEE"/>
<path fill-rule="evenodd" clip-rule="evenodd" d="M85.4078 151.955C85.8784 152.854 88.3777 152.485 87.9428 149.996C87.737 148.819 84.1041 149.462 85.4078 151.955Z" fill="#E7EAEE"/>
<path fill-rule="evenodd" clip-rule="evenodd" d="M133.721 112.095C137.024 108.321 138.922 99.833 141.642 96.9123C142.602 95.8814 143.847 95.65 142.507 98.0907C140.055 102.556 135.341 112.095 135.341 112.095C135.092 112.22 134.783 112.095 134.504 112.095H133.721Z" fill="#E7EAEE"/>
<path d="M79.2903 99.2388C82.3063 100.033 83.8539 101.922 85.1609 103.681C86.4706 105.44 83.5914 104.603 82.0028 103.968C80.4141 103.333 77.3752 100.923 77.3752 100.923L79.2903 99.2388Z" fill="white"/>
<path d="M51.8187 92.0944C51.8187 92.0944 68.7961 99.3876 71.1886 99.3972C73.5784 99.407 79.4435 102.255 79.7607 104.478C80.1462 107.181 69.9171 103.207 69.9171 103.207C69.9171 103.207 47.0555 103.207 43.2466 99.3972C39.4353 95.5869 41.9752 87.6489 41.9752 87.6489L51.8187 92.0944Z" fill="white"/>
<path d="M47.6899 58.1197C47.6899 58.1197 51.8187 60.6596 52.4531 68.9153C53.0875 77.1708 50.5473 87.014 50.5473 87.014C50.5473 87.014 52.1359 88.2841 52.4531 89.5542C52.7703 90.8243 51.8051 92.5007 51.8051 92.5007C51.8051 92.5007 42.2929 97.1747 41.6578 97.4922C41.0228 97.8096 38.4827 96.857 38.4827 94.3168C38.4827 91.7769 39.4353 89.5542 39.4353 89.5542C39.8911 72.7969 37.2126 56.5319 47.6899 58.1197Z" fill="white"/>
<path fill-rule="evenodd" clip-rule="evenodd" d="M64.5086 40.553C65.4852 39.2452 67.5495 38.8194 68.1003 40.884C68.1003 40.884 68.5235 42.1297 67.6705 42.8994C65.0573 45.2574 63.532 41.8608 64.5086 40.553Z" fill="white"/>
<path fill-rule="evenodd" clip-rule="evenodd" d="M69.9622 41.9717C70.8901 40.7293 72.8511 40.3247 73.3744 42.2861C73.3744 42.2861 73.7765 43.4696 72.9661 44.2008C70.4835 46.4409 69.0344 43.2141 69.9622 41.9717Z" fill="white"/>
<path d="M62.3649 57.8744C62.3649 57.8744 62.3649 73.1374 62.5891 81.6665C62.8133 90.1957 60.8583 98.5993 57.1232 105.171C53.3881 111.743 53.8965 121.145 51.1433 121.844C29.3659 127.371 35.2291 59.7279 43.2868 55.4054C51.3444 51.0829 54.0061 50.1672 54.0061 50.1672" fill="white"/>
<path fill-rule="evenodd" clip-rule="evenodd" d="M51.1962 62.1568L49.3195 64.9589C49.1638 65.1913 49.2814 65.5079 49.551 65.5825L52.0553 66.2749C52.3464 66.3554 52.6217 66.1044 52.5683 65.8071L51.9407 62.3125C51.8755 61.9495 51.4015 61.8503 51.1962 62.1568ZM51.6042 62.5878L52.1646 65.8794L49.987 64.9588L51.6042 62.5878Z" fill="#FFB61D"/>
<path fill-rule="evenodd" clip-rule="evenodd" d="M45.1578 59.4197L42.9461 62.9698C42.8049 63.1966 42.9146 63.4957 43.1691 63.5773L47.0307 64.8153C47.3523 64.9184 47.6538 64.6104 47.5437 64.2911L45.8937 59.5029C45.7812 59.1765 45.3404 59.1266 45.1578 59.4197ZM45.6823 59.852L46.8122 64.2907L43.464 62.9694L45.6823 59.852Z" fill="#FFB61D"/>
<path fill-rule="evenodd" clip-rule="evenodd" d="M43.7953 86.2793L45.2997 91.933C45.3922 92.2805 45.8551 92.3493 46.0446 92.0437L48.2814 88.4372C48.4054 88.2372 48.3362 87.9742 48.1298 87.8612L44.3885 85.814C44.0722 85.6409 43.7026 85.9308 43.7953 86.2793ZM44.1917 86.4473L47.6595 88.2211L45.6961 91.8276L44.1917 86.4473Z" fill="#FFB61D"/>
<path fill-rule="evenodd" clip-rule="evenodd" d="M40.7826 107.039L41.6029 110.915C41.6781 111.271 42.1445 111.36 42.3457 111.057L44.5618 107.723C44.7253 107.477 44.583 107.144 44.2922 107.092L41.2558 106.551C40.9694 106.5 40.7223 106.755 40.7826 107.039ZM41.4984 106.978L44.1298 107.911L41.8592 110.504L41.4984 106.978Z" fill="#FFB61D"/>
<path fill-rule="evenodd" clip-rule="evenodd" d="M47.8918 106.219L48.7121 110.094C48.7874 110.45 49.2538 110.539 49.455 110.237L51.6711 106.902C51.8346 106.656 51.6923 106.323 51.4015 106.271L48.365 105.73C48.0786 105.679 47.8316 105.934 47.8918 106.219ZM48.2715 106.556L51.3351 106.472L48.814 109.711L48.2715 106.556Z" fill="#FFB61D"/>
<path fill-rule="evenodd" clip-rule="evenodd" d="M44.0638 98.2895L44.8841 102.165C44.9594 102.521 45.4258 102.61 45.6269 102.307L47.8431 98.9728C48.0066 98.7268 47.8643 98.3938 47.5735 98.342L44.537 97.8007C44.2506 97.7497 44.0036 98.0048 44.0638 98.2895ZM44.4651 98.2041L47.2281 99.0188L45.012 101.806L44.4651 98.2041Z" fill="#FFB61D"/>
<path fill-rule="evenodd" clip-rule="evenodd" d="M136.024 110.83C135.818 111.233 135.48 111.401 135.029 111.426C133.423 111.515 132.15 110.807 131.015 109.775C130.584 109.384 130.203 108.939 129.771 108.548C129.468 108.274 129.142 108.095 128.669 108.265C128.306 108.395 127.881 108.346 127.484 108.387C126.59 108.478 125.698 108.597 124.802 108.662C124.23 108.704 124.216 109.191 124.082 109.527C123.779 110.288 123.552 111.079 123.311 111.864C123.218 112.168 123.069 112.289 122.727 112.284C121.019 112.263 119.31 112.265 117.602 112.279C116.824 112.285 116.046 112.378 115.269 112.361C113.808 112.328 112.345 112.281 110.888 112.169C109.479 112.061 108.077 111.858 106.671 111.708C105.683 111.602 104.689 111.547 103.706 111.413C102.562 111.258 101.428 111.031 100.287 110.856C99.7155 110.768 99.135 110.742 98.5633 110.658C97.5829 110.514 96.6026 110.364 95.6286 110.183C94.7248 110.014 93.8745 110.189 93.0237 110.47C91.3674 111.017 89.7069 111.551 88.0455 112.082C87.75 112.177 87.6625 112.254 87.7959 112.613C88.2854 113.93 88.7438 115.261 89.1422 116.608C89.4233 117.558 89.6178 118.538 89.7982 119.514C90.0193 120.71 90.2042 121.914 90.3689 123.119C90.4948 124.04 90.5747 124.968 90.6574 125.894C90.7624 127.071 90.8618 128.249 90.9411 129.428C91.02 130.602 91.0863 131.778 91.1309 132.954C91.2066 134.95 91.2632 136.948 91.3233 138.946C91.3596 140.155 91.3825 141.365 91.4221 142.574C91.4337 142.926 91.5465 143.286 91.493 143.623C91.4526 143.877 91.2719 144.232 91.0647 144.312C90.5309 144.518 90.3767 144.915 90.3813 145.462C90.3873 146.161 90.475 146.86 90.4568 147.557C90.4451 148.001 90.6152 148.311 90.938 148.546C92.4054 149.617 93.8875 150.668 95.3543 151.739C96.0504 152.248 96.7371 152.771 97.4043 153.317C98.1189 153.901 98.8193 154.505 99.5005 155.127C100.179 155.748 100.54 156.507 100.655 157.454C100.744 158.188 100.65 158.87 100.527 159.568C100.463 159.932 100.256 160.081 99.8776 159.957C98.289 159.439 96.7033 158.911 95.107 158.417C92.4702 157.601 89.8262 156.808 87.185 156.006C86.2436 155.721 85.3021 155.435 84.3596 155.153C83.7822 154.98 83.6602 154.462 83.5531 153.994C83.2484 152.661 83.6419 151.448 84.3449 150.33C84.7751 149.646 85.2765 149.007 85.7469 148.348C86.1311 147.81 86.032 147.259 85.8417 146.677C85.2225 144.782 84.6138 142.883 84.0285 140.977C83.4506 139.096 82.8781 137.212 82.3547 135.316C81.8014 133.311 81.2993 131.292 80.7934 129.274C80.5197 128.183 80.2615 127.086 80.0399 125.983C79.8741 125.158 79.7803 124.319 79.6501 123.486C79.4946 122.492 79.401 121.481 79.1451 120.513C79.0349 120.097 78.6307 119.716 78.2782 119.414C77.5106 118.756 76.6289 118.267 75.671 117.932C75.4343 117.849 75.1778 117.792 74.9281 117.783C73.7397 117.738 72.5499 117.726 71.3616 117.678C70.201 117.632 69.0407 117.567 67.8816 117.489C66.6863 117.409 65.4918 117.312 64.2985 117.205C63.0213 117.09 61.7395 116.999 60.4715 116.816C59.1273 116.622 57.7953 116.34 56.4614 116.079C56.0276 115.994 55.7107 116.257 55.6434 116.869C55.4963 118.206 55.0419 119.449 54.5022 120.666C54.1129 121.544 53.3785 121.982 52.4725 122.132C51.8258 122.239 51.1633 122.341 50.5128 122.316C48.6613 122.246 47.01 121.635 45.5413 120.461C43.6784 118.972 42.5885 116.982 41.6604 114.86C41.2446 113.909 40.7093 113.002 40.3829 112.023C40.0284 110.96 39.849 109.839 39.6021 108.74C39.41 107.886 39.214 107.031 39.0524 106.171C38.9247 105.49 38.8442 104.801 38.7471 104.114C38.6181 103.203 38.4909 102.291 38.3683 101.378C38.3277 101.077 38.2876 100.773 38.2749 100.469C38.2352 99.5183 38.2157 98.5666 38.1753 97.6157C38.1188 96.282 38.0132 94.9493 37.9955 93.6153C37.9654 91.3337 37.9685 89.0513 37.9959 86.7696C38.0079 85.7676 38.0926 84.7648 38.1826 83.7658C38.285 82.6303 38.4402 81.4997 38.5533 80.3651C38.634 79.5551 38.6593 78.7393 38.7521 77.931C38.8883 76.745 39.0378 75.5594 39.2275 74.3811C39.4531 72.9795 39.711 71.5827 39.9837 70.1894C40.4998 67.5528 41.1002 64.9323 42.0831 62.4272C42.7093 60.8312 43.3628 59.2031 44.6411 57.9983C45.1944 57.4768 45.9632 57.1763 46.6507 56.8061C48.5377 55.7902 50.4346 54.7927 52.3222 53.778C52.4105 53.7306 52.4862 53.5927 52.5007 53.4877C52.5507 53.1239 52.5285 52.7452 52.6178 52.3935C52.6761 52.1645 52.8368 51.9132 53.0267 51.7747C53.6635 51.3102 54.3306 50.8867 54.9947 50.4608C55.1136 50.3846 55.2819 50.3179 55.4124 50.339C56.1126 50.452 56.4638 50.0212 56.7038 49.4911C57.0288 48.7733 57.3254 48.0389 57.5775 47.2926C57.995 46.0564 58.4161 44.8172 58.7321 43.5534C58.841 43.1174 58.6733 42.5974 58.5749 42.1277C58.3745 41.1719 58.2083 40.1986 57.8858 39.2825C57.6796 38.6968 57.2623 38.1656 56.8635 37.6713C55.8326 36.3935 55.291 34.9622 55.4644 33.3224C55.5396 32.6104 55.8451 31.9468 56.3777 31.4294C57.0045 30.8206 57.6471 30.2281 58.2758 29.6213C58.7342 29.1789 58.7013 28.8407 58.1045 28.4082C57.2692 27.803 56.4682 27.149 55.6691 26.4957C54.9867 25.9376 54.6931 25.1403 54.5123 24.3231C54.2664 23.2112 54.2369 22.0894 54.6904 21.0042C55.4157 19.2685 56.4609 17.8361 58.3741 17.296C60.0604 16.82 61.7426 16.8523 63.2559 17.8082C64.631 18.6767 65.5044 19.9704 65.8886 21.5671C66.3394 23.441 65.8262 25.1272 64.8792 26.7311C64.7999 26.8654 64.7918 27.0418 64.7506 27.1987C64.8914 27.2253 65.0314 27.2694 65.1731 27.2758C66.9945 27.3588 68.8048 27.561 70.4361 28.4291C72.5772 29.5686 73.9239 31.3746 74.5179 33.7252C74.6068 34.0771 74.6061 34.4553 74.6177 34.8223C74.6574 36.0737 74.6608 37.3268 74.7346 38.576C74.75 38.8368 74.9497 39.1568 75.163 39.3239C76.1866 40.1256 76.5349 42.089 75.5828 43.2511C75.4876 43.3674 75.4066 43.4953 75.313 43.6131C74.9474 44.0735 74.4168 44.297 73.8888 44.203C73.4388 44.1228 73.4007 44.2743 73.2521 44.6064C72.9352 45.3149 72.5553 46.0004 72.1458 46.661C71.597 47.5466 71.0366 48.4311 70.4019 49.2551C70.0187 49.7527 69.5009 50.1532 69.0155 50.5643C68.4268 51.0628 67.8042 51.5213 67.2047 52.0074C66.9057 52.2499 66.5778 52.3751 66.1957 52.32C65.7995 52.2629 65.5765 52.4857 65.4606 52.8065C65.2365 53.4263 65.034 54.055 64.8572 54.6897C64.8199 54.8234 64.8989 55.0185 64.9798 55.1516C65.6866 56.3151 66.3888 57.4821 67.1273 58.6255C67.7268 59.5534 68.4083 60.4293 68.9883 61.3685C69.347 61.9493 69.5848 62.605 69.8753 63.2278C70.3821 64.3143 70.8998 65.396 71.3841 66.4924C71.4838 66.7181 71.511 67.007 71.4762 67.2533C71.4255 67.6118 71.0719 67.7263 70.6887 67.4949C70.2434 67.226 69.8241 66.9117 69.4072 66.5989C69.149 66.4052 68.9168 66.177 68.6715 65.966C68.6431 65.9416 68.6051 65.9284 68.5715 65.91C68.5662 65.9528 68.5512 65.997 68.5571 66.0382C68.6257 66.5205 68.6808 67.0055 68.773 67.4834C68.8682 67.9769 69.0133 68.4606 69.1135 68.9533C69.3126 69.9321 69.505 70.9124 69.6832 71.8951C69.8837 73.0003 70.0764 74.1071 70.2505 75.2167C70.34 75.7872 70.3705 76.3666 70.4475 76.9393C70.5641 77.8052 70.7105 78.6672 70.8196 79.5339C70.8791 80.0074 70.8921 80.487 70.9184 80.9643C70.9542 81.615 70.978 82.2663 71.0153 82.9169C71.1073 84.5219 71.2004 86.1269 71.3018 87.7314C71.3269 88.1291 71.5606 88.4351 71.9188 88.5488C72.9378 88.8725 73.6499 90.062 73.4784 91.055C73.4386 91.2858 73.3873 91.5246 73.2857 91.7327C73.042 92.2321 73.3599 92.5157 73.676 92.7754C74.1892 93.1972 74.7242 93.5934 75.2603 93.9863C76.5329 94.9191 77.8144 95.8398 79.0871 96.7725C80.2399 97.6174 81.5121 98.2048 82.8771 98.6213C83.973 98.9557 84.9052 99.5893 85.7814 100.32C86.2118 100.679 86.5842 101.21 87.2658 101.079C88.2306 100.893 89.1925 100.692 90.1548 100.494C90.4448 100.434 90.7296 100.346 91.0211 100.296C92.0363 100.121 92.6357 99.4031 93.2332 98.66C93.6779 98.1071 94.1736 97.5956 94.6362 97.0568C95.5463 95.9968 96.4466 94.9284 97.3563 93.868C97.8084 93.341 98.2738 92.8253 98.7305 92.3021C100.017 90.8276 101.297 89.3463 102.592 87.8788C103.271 87.1096 103.978 86.3653 104.668 85.6066C104.854 85.4024 105.053 85.2031 105.2 84.9723C105.424 84.6213 105.652 84.5136 106.089 84.655C107.044 84.9642 107.027 84.9053 106.359 85.6379C105.163 86.95 104.007 88.2982 102.829 89.6271C102.253 90.2768 101.658 90.9096 101.087 91.5632C100.085 92.7103 99.098 93.8706 98.098 95.0196C97.3883 95.8351 96.6697 96.643 95.9512 97.4509C95.3953 98.076 94.8316 98.6942 94.2775 99.3209C94.2291 99.3756 94.191 99.5273 94.2082 99.5381C94.3436 99.6229 94.4961 99.7484 94.6387 99.7429C95.7995 99.6976 96.9586 99.6087 98.1194 99.5691C98.9883 99.5395 99.8599 99.5393 100.729 99.5693C101.842 99.6078 102.957 99.6557 104.066 99.7621C105.301 99.8806 106.529 100.071 107.761 100.227C109.024 100.387 110.291 100.519 111.549 100.709C112.807 100.898 114.054 101.154 115.309 101.363C116.348 101.535 117.395 101.664 118.432 101.844C119.756 102.075 121.073 102.343 122.394 102.586C123.322 102.756 124.254 102.905 125.181 103.075C126.076 103.24 126.966 103.43 127.862 103.589C128.426 103.689 128.995 103.79 129.566 103.814C129.805 103.824 130.109 103.694 130.287 103.525C131.643 102.235 132.958 100.9 134.321 99.6159C135.846 98.1789 137.441 96.8223 139.16 95.6162C139.947 95.0644 140.828 95.1606 141.685 95.235C142.185 95.2783 142.668 95.519 143.157 95.6746C143.559 95.8022 143.595 96.0501 143.416 96.4006C142.605 97.9929 141.808 99.5925 140.996 101.185C140.295 102.561 139.58 103.93 138.848 105.326C137.891 107.177 136.959 109.004 136.024 110.83ZM60.9438 99.0886C61.3703 97.8552 61.7446 96.6013 62.081 95.3402C62.2995 94.5209 62.4234 93.6749 62.5638 92.8366C62.7081 91.9752 62.8287 91.1096 62.9453 90.2439C63.0807 89.2385 63.2915 88.2325 63.3078 87.2241C63.3407 85.1993 63.2569 83.1728 63.2346 81.1468C63.221 79.9087 63.2138 78.6699 63.238 77.4321C63.257 76.4584 62.6904 75.7327 62.2776 74.9342C62.0027 74.4026 61.7126 73.8662 61.537 73.2986C61.215 72.2574 60.9531 71.1962 60.7035 70.1346C60.5329 69.4087 60.4071 68.6707 60.2949 67.933C60.165 67.0793 59.8843 66.2776 59.52 65.5029C59.4894 65.4379 59.2333 65.3905 59.2059 65.4273C59.0591 65.6239 58.9496 65.8488 58.831 66.0661C58.6199 66.4526 58.2991 66.8207 58.2258 67.2324C58.0794 68.055 57.7003 68.7609 57.3128 69.4667C57.0715 69.9061 56.6654 69.9174 56.3832 69.5143C56.0799 69.0809 55.7523 68.6435 55.5588 68.1586C55.1037 67.0186 54.6963 65.8578 54.3174 64.6898C53.8195 63.155 53.3499 61.6103 52.9029 60.0599C52.6695 59.2504 52.4369 58.4282 52.3389 57.5959C52.2428 56.7799 52.3189 55.9437 52.3164 55.1164C52.3161 55.0424 52.2935 54.9684 52.2813 54.8945C52.2478 54.9208 52.2171 54.9524 52.1802 54.9727C51.3131 55.4497 50.4514 55.937 49.576 56.3982C48.7078 56.8557 47.8354 57.3075 46.947 57.724C45.9736 58.1803 44.9966 58.6511 44.4328 59.6072C43.8228 60.6416 43.1099 61.6275 42.7424 62.7935C42.3635 63.9955 41.935 65.1838 41.6053 66.3989C41.268 67.6419 41.0384 68.9136 40.7344 70.1662C40.5402 70.9663 40.2203 71.7423 40.0929 72.5506C39.8986 73.7836 39.7784 75.0327 39.7088 76.2796C39.649 77.3498 39.6536 78.4227 39.5092 79.4888C39.397 80.3165 39.3208 81.149 39.2198 81.9783C39.0661 83.241 38.7897 84.501 38.7699 85.7654C38.7262 88.5646 38.8414 91.3659 38.8284 94.166C38.8216 95.6336 39.0405 97.0682 39.2133 98.5145C39.4052 100.12 39.5188 101.736 39.702 103.343C39.8264 104.435 39.9509 105.533 40.1839 106.605C40.5632 108.351 40.9706 110.095 41.477 111.807C42.1088 113.943 43.0365 115.955 44.3427 117.779C45.1589 118.92 46.1553 119.854 47.3854 120.525C49.053 121.436 50.8414 121.357 52.6332 121.079C52.9271 121.033 53.3073 120.807 53.4331 120.557C53.7858 119.855 54.094 119.116 54.2948 118.358C54.5801 117.281 54.7062 116.162 54.9861 115.084C55.4476 113.305 56.0284 111.557 56.4633 109.772C56.8215 108.302 57.5042 106.976 58.0973 105.61C58.5338 104.604 59.0501 103.633 59.5782 102.599C60.0369 101.43 60.5338 100.274 60.9438 99.0886ZM76.6845 117.244C77.5474 117.771 78.3934 118.33 79.2143 118.921C79.727 119.29 80.0954 119.825 80.2078 120.445C80.4681 121.879 80.6404 123.33 80.8921 124.766C81.0688 125.774 81.3224 126.768 81.5323 127.77C81.7031 128.586 81.861 129.405 82.0231 130.223C82.1823 131.027 82.3374 131.831 82.4986 132.634C82.6214 133.246 82.7485 133.858 82.878 134.469C83.0874 135.456 83.2541 136.456 83.5246 137.427C83.7912 138.383 84.1921 139.302 84.4846 140.252C84.9715 141.833 85.5756 143.363 86.2755 144.862C86.4414 145.217 86.7205 145.145 86.8858 145.081C87.9328 144.671 88.9658 144.223 89.9919 143.763C90.3157 143.617 90.4878 143.336 90.4729 142.951C90.4325 141.905 90.4042 140.859 90.3756 139.813C90.3414 138.562 90.312 137.31 90.28 136.059C90.2487 134.834 90.2418 133.607 90.1781 132.384C90.1158 131.188 89.9986 129.996 89.8997 128.803C89.7765 127.316 89.6618 125.829 89.5159 124.344C89.4152 123.319 89.3228 122.288 89.129 121.279C88.7934 119.531 88.3811 117.798 88.0026 116.058C87.5614 114.03 86.7093 112.264 85.0243 110.937C83.741 109.926 82.3948 109.024 80.9393 108.303C79.3291 107.505 77.701 106.729 76.0296 106.073C74.119 105.324 72.2631 104.377 70.1595 104.204C69.1488 104.121 68.1462 103.944 67.1371 103.837C66.3276 103.751 65.5115 103.727 64.7024 103.638C63.4218 103.498 62.1461 103.311 60.8643 103.186C60.6846 103.168 60.4139 103.337 60.3037 103.499C60.0503 103.873 59.8596 104.291 59.6618 104.7C59.0441 105.977 58.3206 107.218 57.8506 108.548C57.2297 110.305 56.8082 112.133 56.3046 113.932C56.0193 114.951 56.0132 114.996 56.9016 115.183C57.9295 115.398 58.9738 115.541 60.0153 115.684C60.6965 115.778 61.3867 115.804 62.0704 115.883C63.3659 116.031 64.6581 116.209 65.9545 116.349C66.7794 116.438 67.6087 116.492 68.4373 116.541C69.6755 116.615 70.9144 116.684 72.1539 116.729C72.8962 116.756 73.6402 116.734 74.4783 116.734C75.2566 116.719 76.017 116.835 76.6845 117.244ZM113.88 111.325C114.678 111.363 115.477 111.402 116.276 111.419C118.128 111.458 119.981 111.489 121.834 111.512C122.204 111.516 122.537 111.363 122.637 110.982C123.174 108.933 124.229 107.033 124.365 104.864C124.399 104.315 124.161 103.926 123.599 103.828C123.014 103.726 122.436 103.582 121.852 103.47C121.117 103.33 120.379 103.208 119.644 103.073C118.984 102.951 118.324 102.825 117.665 102.698C117.182 102.604 116.702 102.501 116.219 102.41C115.294 102.235 114.369 102.064 113.444 101.895C112.811 101.779 112.179 101.66 111.544 101.558C111.052 101.479 110.555 101.429 110.061 101.357C109.018 101.205 107.976 101.048 106.934 100.891C106.338 100.802 105.744 100.704 105.148 100.624C104.352 100.516 103.554 100.335 102.758 100.34C100.76 100.351 98.762 100.439 96.7649 100.517C95.8097 100.554 94.8528 100.607 93.9036 100.714C93.3724 100.774 92.8613 100.942 92.476 101.39C91.8483 102.119 91.1742 102.808 90.54 103.532C90.1395 103.989 89.7646 104.47 89.3986 104.956C88.9144 105.598 88.3239 105.988 87.4795 105.922C86.0967 105.816 84.7116 105.737 83.3287 105.631C82.8155 105.591 82.3047 105.515 81.7944 105.443C80.929 105.322 80.0661 105.182 79.1997 105.068C78.3711 104.96 77.54 104.87 76.7086 104.785C76.4739 104.76 76.2343 104.774 75.9978 104.787C75.9507 104.79 75.9079 104.87 75.8631 104.915C75.9114 104.937 75.9607 104.957 76.0078 104.982C76.4238 105.199 76.8289 105.441 77.2573 105.63C78.5134 106.185 79.8088 106.659 81.0333 107.275C82.8113 108.169 84.4706 109.261 85.9792 110.574C86.447 110.981 86.8959 111.283 87.6631 111.181C88.8791 111.019 90.0154 110.719 91.1066 110.188C92.5752 109.474 94.0695 108.888 95.7581 109.238C96.7352 109.441 97.7176 109.618 98.6933 109.827C99.3114 109.96 99.9144 110.178 100.537 110.271C101.31 110.385 102.096 110.406 102.876 110.473C104.294 110.597 105.712 110.728 107.13 110.851C108.093 110.935 109.057 111.01 110.068 111.137C111.339 111.2 112.609 111.266 113.88 111.325ZM64.4615 83.9199C64.4755 84.2988 64.4604 84.6786 64.4667 85.0579C64.4963 86.8311 64.5241 88.6043 64.5638 90.3773C64.5753 90.8918 64.5527 91.4224 64.6706 91.9158C64.9092 92.9147 65.2222 93.8967 65.5271 94.8786C65.6577 95.2991 65.8393 95.6996 66.3146 95.866C66.7282 96.0108 67.1287 96.193 67.5431 96.3353C68.158 96.5463 68.3465 96.4665 68.7475 95.904C68.8801 95.7179 69.0331 95.546 69.1821 95.3722C70.1428 94.2519 71.1324 93.1551 72.0576 92.0063C72.7404 91.1585 72.622 89.7941 71.4786 89.3563C71.3557 89.3093 71.2337 89.2527 71.106 89.2262C70.4303 89.0863 70.4616 89.088 70.4391 88.4497C70.3589 86.1683 70.6266 83.881 70.2681 81.6023C70.125 80.6926 70.1839 79.7518 70.0524 78.8394C69.8478 77.4197 69.5644 76.0111 69.3044 74.5996C69.0585 73.2645 68.812 71.9294 68.5427 70.599C68.3417 69.6062 68.1001 68.6217 67.8836 67.6319C67.7185 66.8771 67.5888 66.1133 67.3895 65.3679C67.3356 65.1664 67.0855 65.0173 66.9254 64.8442C66.7383 65.025 66.4102 65.1898 66.3876 65.3892C66.2728 66.4005 66.1169 67.4314 66.2058 68.4351C66.3078 69.5877 66.4808 70.7306 66.2607 71.8751C66.01 73.1792 65.5929 74.4315 64.8862 75.5726C64.4944 76.2051 64.2018 76.8614 64.2685 77.644C64.3344 78.4184 64.3559 79.1977 64.3669 79.9753C64.3826 81.0816 64.3709 82.1883 64.3709 83.3897C64.4025 83.5664 64.4549 83.7423 64.4615 83.9199ZM59.4855 44.7356C59.4057 44.8592 59.295 44.9728 59.2508 45.108C58.8001 46.4873 58.3885 47.88 57.9068 49.2481C57.6166 50.0724 57.1611 50.8079 56.408 51.3259C55.8608 51.7022 55.3505 52.1316 54.8151 52.5256C54.5511 52.7199 54.6068 52.8881 54.7715 53.1241C55.2642 53.8301 55.7849 54.5245 56.1962 55.2772C56.7637 56.316 57.2498 57.3999 57.7549 58.472C58.2471 59.5166 58.7611 60.5539 59.1873 61.6255C59.5494 62.5359 59.7442 63.5135 60.1168 64.4187C60.4535 65.237 60.8148 66.0436 60.9368 66.92C60.9783 67.218 61.0749 67.2205 61.3007 67.2197C62.6579 67.2148 63.9684 67.0355 65.1127 66.2276C65.2105 66.1586 65.2933 66.0166 65.3118 65.8974C65.3567 65.6091 65.349 65.3131 65.3829 65.0225C65.4067 64.8175 65.5404 64.5959 65.4925 64.4173C65.3142 63.753 65.0769 63.1048 64.8696 62.4481C64.4734 61.1937 63.9538 59.9526 63.9184 58.6292C63.8823 57.2826 64.0034 55.9299 64.0957 54.5827C64.1333 54.0331 64.2411 53.4816 64.38 52.9474C64.5431 52.3208 64.5043 52.1493 63.9388 51.8437C63.0082 51.3408 62.2059 50.6644 61.6323 49.7921C60.6964 48.3685 59.9772 46.8364 59.7206 45.0655C59.6422 44.9555 59.5638 44.8456 59.4855 44.7356ZM72.9857 44.3154C73.0115 44.2642 73.2417 44.1045 72.8993 44.0468C72.5533 43.9885 72.1627 43.8206 71.9252 43.5729C71.4592 43.087 71.0737 42.521 70.682 41.9688C70.5712 41.8126 70.5319 41.7177 70.3761 41.9051C70.2772 42.024 70.1487 42.1184 70.0501 42.2375C69.1939 43.2715 67.9627 43.7106 66.8098 43.4233C65.4278 43.0788 64.5852 41.6053 64.5663 40.3269C64.5588 39.8172 64.3976 39.3902 63.9906 39.097C63.3132 38.6091 62.6164 38.1476 61.9201 37.6866C61.5303 37.4285 61.159 37.5129 61.0584 37.9199C60.8093 38.9276 60.4992 39.9375 60.4122 40.9634C60.3047 42.2326 60.3558 43.514 60.6589 44.7805C61.1694 46.9141 61.8323 48.9417 63.5734 50.4453C64.6961 51.4147 66.0827 51.6329 67.4194 51.0462C68.7441 50.4647 69.558 49.3892 70.3498 48.2698C71.0153 47.3289 71.6787 46.3865 72.3905 45.3974C72.5917 45.0381 72.8004 44.6826 72.9857 44.3154ZM130.355 107.686C131.275 108.858 132.345 109.835 133.81 110.308C134.715 110.6 135.046 110.549 135.547 109.594C136.569 107.647 137.578 105.694 138.585 103.739C138.987 102.958 139.359 102.161 139.762 101.381C140.549 99.8564 141.346 98.3372 142.143 96.8182C142.289 96.541 142.15 96.29 141.936 96.2614C141.192 96.1622 140.406 95.9496 139.715 96.4092C138.804 97.0153 137.887 97.6251 137.049 98.3248C135.777 99.3861 134.552 100.506 133.346 101.642C132.799 102.157 132.337 102.764 131.851 103.342C131.467 103.798 130.974 104.182 130.828 104.806C130.693 105.382 130.559 105.959 130.425 106.631C130.267 106.975 130.091 107.351 130.355 107.686ZM99.0101 158.599C99.227 158.616 99.6449 158.518 99.6469 158.459C99.6749 157.643 99.8295 156.778 99.0967 156.14C98.1442 155.311 97.2214 154.445 96.228 153.668C94.6253 152.415 92.976 151.222 91.3454 150.005C90.7628 149.57 90.1833 149.108 89.4417 148.995C88.778 148.893 88.1012 148.88 87.4351 148.791C86.8731 148.716 86.4908 148.96 86.1496 149.364C85.3222 150.345 84.7203 151.435 84.4928 152.709C84.3145 153.707 84.6358 154.257 85.4414 154.494C86.9756 154.946 88.4989 155.435 90.0301 155.896C91.1275 156.227 92.2348 156.526 93.3299 156.864C94.9269 157.357 96.5169 157.872 98.2047 158.378C98.4728 158.456 98.7375 158.578 99.0101 158.599ZM66.7909 97.095C65.7314 96.6755 64.6782 96.2402 63.6162 95.8273C63.3024 95.7053 63.0353 95.6693 62.9319 96.1526C62.8196 96.6772 62.5801 97.1739 62.407 97.6865C62.0229 98.8239 61.6371 99.9608 61.2734 101.105C61.2063 101.316 61.104 101.613 61.5216 101.653C62.0657 101.706 62.6066 101.797 63.1513 101.836C64.2152 101.914 65.2801 101.99 66.3459 102.025C67.9292 102.077 69.5137 102.096 71.0978 102.124C71.6036 102.132 72.1098 102.123 72.6158 102.126C72.7389 102.127 72.8694 102.118 72.9838 102.154C74.3553 102.582 75.7219 103.026 77.0947 103.451C78.4755 103.878 79.8586 104.297 81.3338 104.215C81.846 104.186 81.9399 104.09 81.7516 103.619C81.6488 103.362 81.506 103.1 81.3168 102.901C80.3927 101.933 79.2648 101.257 78.0578 100.701C77.0963 100.258 76.1564 99.7644 75.0748 99.6532C74.5684 99.6012 74.0585 99.5283 73.5668 99.401C72.7857 99.1988 72.0111 98.9646 71.2472 98.7045C70.2925 98.3793 69.3514 98.0143 68.3095 97.6664C67.8031 97.4765 67.2937 97.294 66.7909 97.095ZM54.8759 55.2183C54.4319 54.5301 53.9645 53.857 53.5056 53.1784C53.4418 53.084 53.372 52.9935 53.305 52.9011C53.2607 53.0566 53.1983 53.2094 53.1754 53.3679C53.0995 53.8917 53.0568 54.4208 52.9668 54.942C52.7887 55.9735 52.6919 56.987 53.3605 57.9038C53.4028 57.9619 53.436 58.0316 53.4551 58.1009C53.701 58.9946 53.9425 59.8895 54.1877 60.7834C54.2497 61.0098 54.3145 61.2358 54.3889 61.4583C54.7087 62.4156 55.0962 63.3559 55.3372 64.3324C55.5848 65.3354 55.7743 66.3436 56.2885 67.2598C56.4362 67.523 56.484 67.8409 56.593 68.1279C56.6255 68.2135 56.7328 68.3515 56.7668 68.3409C56.8755 68.307 57.0187 68.235 57.0551 68.1415C57.4797 67.0514 57.6842 65.8606 58.4894 64.9453C59.1734 64.1678 59.0315 63.3733 58.6119 62.5433C58.4479 62.2189 58.3465 61.8636 58.2001 61.5296C57.8837 60.8075 57.5807 60.0778 57.2266 59.3743C56.9172 58.7596 56.5424 58.1779 56.2018 57.5787C55.9624 57.1573 55.7318 56.7309 55.4498 56.2593C55.2599 55.9114 55.0902 55.5505 54.8759 55.2183ZM80.5108 98.7544C79.1248 97.859 77.7195 96.9892 76.3764 96.0326C75.2519 95.2316 74.2098 94.3158 73.1169 93.4692C72.822 93.2407 72.4834 93.1649 72.182 93.5092C71.6937 94.0672 71.196 94.617 70.7084 95.1757C70.3453 95.5918 69.9965 96.0203 69.6327 96.4359C69.3484 96.7606 69.3783 96.9348 69.7945 97.0592C71.1318 97.4591 72.4788 97.827 73.812 98.2397C75.6321 98.8031 77.45 99.3756 79.2535 99.9889C79.8305 100.185 80.3391 100.581 80.9156 100.781C81.5009 100.983 82.1266 101.088 82.7432 101.174C83.4557 101.273 84.1771 101.313 84.8959 101.358C85.0105 101.365 85.132 101.262 85.2502 101.211C85.1801 101.113 85.127 100.995 85.0372 100.922C83.8976 99.989 82.537 99.5075 81.1218 98.9943C80.917 98.9161 80.6909 98.8708 80.5108 98.7544ZM62.4641 73.7681C62.6404 74.4365 63.059 74.7615 63.7037 74.8221C64.2603 74.8743 64.4238 74.569 64.5595 74.1622C64.7539 73.5797 64.9465 72.9964 65.1289 72.41C65.534 71.1075 65.4761 69.7951 65.2336 68.4711C65.1545 68.0394 65.173 67.5894 65.1532 67.1476C65.1503 67.0834 65.183 67.0176 65.1992 66.9526C65.1341 66.9716 65.0667 66.9848 65.0044 67.0105C64.6136 67.1722 64.2373 67.396 63.8311 67.4873C63.07 67.6583 62.2942 67.7714 61.5196 67.8703C61.2206 67.9085 61.0435 67.9398 61.1384 68.3057C61.2281 68.6513 61.264 69.0106 61.3353 69.3614C61.489 70.1173 61.6503 70.8716 61.8084 71.7215C62.0299 72.4029 62.2817 73.0763 62.4641 73.7681ZM70.5745 66.6322C70.6483 66.6947 70.7303 66.7475 70.8085 66.8047C70.8081 66.6988 70.8374 66.5816 70.8023 66.4886C70.5966 65.9423 70.405 65.3878 70.1542 64.8619C69.6189 63.7395 69.1271 62.5854 68.4737 61.5335C67.8314 60.4993 66.9665 59.6056 66.2842 58.5931C65.7954 57.8677 65.4495 57.0465 65.0322 56.2723C64.968 56.1532 64.862 56.0567 64.7753 55.9498C64.7354 56.0754 64.6586 56.202 64.6617 56.3266C64.6816 57.1352 64.6921 57.9457 64.7599 58.751C64.8061 59.3003 64.8988 59.8538 65.0464 60.3843C65.2104 60.9733 65.5076 61.5262 65.6607 62.117C65.8399 62.8085 66.1683 63.2459 66.838 63.6153C67.9485 64.2278 69.0945 64.8644 69.8755 66.0298C70.1083 66.2309 70.3399 66.4333 70.5745 66.6322ZM65.6312 39.8274C65.2668 40.358 65.9425 42.2171 66.3099 42.3554C68.8818 43.3234 69.6151 41.6669 69.6488 41.2121C69.7159 40.3094 69.8272 39.3942 68.9738 38.6623C66.7229 38.2146 66.2201 38.9699 65.6312 39.8274ZM75.4793 40.5789C75.1336 39.7177 74.6105 39.1561 73.6996 39.3526C73.2348 39.4529 72.8253 39.8213 72.3978 40.08C71.4794 40.6355 71.3592 40.9395 71.6802 41.9244C72.0015 42.9101 72.751 43.4747 73.7046 43.6664C74.4938 43.825 75.0579 43.3355 75.4749 42.599C75.58 41.9262 75.7529 41.2605 75.4793 40.5789ZM72.0734 39.4654C72.4442 39.2017 72.8461 38.8113 73.2461 38.7969C73.9382 38.7719 73.8257 38.3492 73.7511 38.0164C73.5425 37.0864 73.2701 36.1701 73.004 35.2539C72.8219 34.6266 72.6678 34.5906 72.226 35.0324C71.4692 35.7892 70.7025 36.5313 69.7517 37.0537C69.4544 37.2171 69.4135 37.5935 69.6261 37.8901C69.7053 38.0004 69.8126 38.0951 69.872 38.2144C70.1643 38.8022 70.4295 39.4042 70.7416 39.981C70.8106 40.1085 70.7581 40.5595 71.2041 40.2274C71.4922 39.971 71.761 39.6876 72.0734 39.4654ZM127.923 107.516C128.568 107.396 129.26 107.23 129.36 106.371C129.377 106.227 129.442 106.089 129.475 105.946C129.679 105.058 129.448 104.774 128.559 104.678C127.722 104.588 126.891 104.439 126.06 104.304C125.615 104.233 125.533 104.316 125.483 104.769C125.415 105.396 125.318 106.022 125.2 106.642C125.098 107.185 125.25 107.615 125.727 107.722C126.46 107.658 127.203 107.65 127.923 107.516ZM89.1674 147.929C89.2577 147.925 89.4112 147.746 89.4146 147.644C89.4368 146.965 89.4206 146.286 89.4282 145.606C89.4324 145.225 89.1401 145.212 88.9302 145.279C88.4732 145.425 88.0387 145.642 87.5977 145.836C87.279 145.976 86.9209 146.089 86.9594 146.549C86.9866 146.873 86.9866 147.205 87.0614 147.519C87.1855 148.04 87.6352 147.792 88.0025 147.896C88.391 147.912 88.7804 147.946 89.1674 147.929ZM63.8894 92.7465C63.8621 92.6693 63.7498 92.6221 63.6765 92.5611C63.6233 92.6373 63.5306 92.7099 63.5232 92.7902C63.4786 93.278 63.4405 93.7672 63.4256 94.2567C63.411 94.7348 63.7495 95.0448 64.2359 95.0007C64.3183 94.9932 64.4644 94.848 64.4537 94.7899C64.3821 94.4012 64.276 94.0189 64.1337 93.5872C64.0546 93.3061 63.9864 93.0212 63.8894 92.7465ZM90.6284 101.708C90.681 101.604 90.7918 101.313 90.4698 101.374C89.9787 101.466 89.4961 101.605 89.0132 101.737C88.925 101.761 88.8528 101.844 88.7732 101.899C88.8655 101.943 88.9566 102.021 89.0504 102.024C89.444 102.038 89.8385 102.03 90.2801 101.983C90.4009 101.893 90.568 101.828 90.6284 101.708ZM53.9788 51.9429C53.9032 51.9869 53.8275 52.0309 53.7519 52.0749C53.8114 52.1412 53.8602 52.2332 53.9344 52.2643C53.9788 52.2828 54.0761 52.2191 54.1274 52.1695C54.4195 51.8865 54.7063 51.598 54.9913 51.3079C55.0484 51.2498 55.0899 51.1764 55.1386 51.11C55.0426 51.1288 54.9221 51.1172 54.855 51.1716C54.5701 51.4022 54.3011 51.6524 53.9788 51.9429Z" fill="#00160A"/>
<path fill-rule="evenodd" clip-rule="evenodd" d="M64.1485 46.4168C63.7039 46.1764 63.2641 45.9793 63.1717 45.4436C62.9922 44.4028 63.3672 43.1766 64.7236 43.2478C65.9467 43.3121 66.7227 44.3278 66.29 45.4751C65.9709 46.321 65.1967 46.7405 64.1485 46.4168Z" fill="#FFB61D"/>
<path fill-rule="evenodd" clip-rule="evenodd" d="M70.1799 42.5343C70.2043 42.3748 70.2287 42.2631 70.253 42.1514C70.2915 42.2488 70.3409 42.3433 70.3667 42.4441C70.5575 43.1906 71.1621 45.0495 70.442 45.9048C70.382 45.976 70.0783 45.9872 69.889 45.9753C69.517 45.9517 69.0836 45.4032 69.1526 45.0495C69.1629 44.9964 70.0605 45.8675 70.253 45.396C70.5741 44.6099 70.1799 42.8047 70.1799 42.5343Z" fill="#00160A"/>
<path fill-rule="evenodd" clip-rule="evenodd" d="M65.117 47.9816C65.0796 47.9626 65.0278 47.9677 64.9831 47.9695C64.8726 47.9741 64.7212 47.7761 64.7857 47.6923C64.8827 47.5663 64.9926 47.439 65.124 47.356C65.2023 47.3065 65.3317 47.4668 65.3219 47.5377C65.3146 47.5906 65.3649 47.6736 65.4137 47.7094C66.1568 48.2553 66.9817 48.6091 67.8844 48.7792C67.944 48.7904 67.9959 48.8437 68.0514 48.8774C67.9962 48.9158 67.9411 48.9904 67.8855 48.9872C66.9006 48.9296 65.7621 48.3089 65.117 47.9816Z" fill="#00160A"/>
<path fill-rule="evenodd" clip-rule="evenodd" d="M39.9593 90.7283L39.0239 94.7231C38.9516 95.032 39.2423 95.3026 39.5452 95.2083L42.7923 94.1972C43.0655 94.1122 43.1698 93.7806 42.9946 93.5544L40.6828 90.5706C40.4714 90.2977 40.038 90.3921 39.9593 90.7283ZM40.3586 91.3686L42.3969 93.8056L39.4232 94.8166L40.3586 91.3686Z" fill="#FFB61D"/>
<path fill-rule="evenodd" clip-rule="evenodd" d="M42.8612 67.68C42.5193 67.6493 42.2932 68.0271 42.4818 68.3139L44.8607 71.9303C45.0211 72.1741 45.3775 72.1772 45.5421 71.9362L47.7316 68.7297C47.9082 68.4711 47.7415 68.1179 47.4296 68.0899L42.8612 67.68ZM43.183 68.09L47.273 68.8849L44.8607 71.4097L43.183 68.09Z" fill="#FFB61D"/>
<path fill-rule="evenodd" clip-rule="evenodd" d="M57.9373 95.3335H54.5821C54.3039 95.3335 54.1065 95.6045 54.1916 95.8693L55.3187 99.3724C55.4251 99.7031 55.8688 99.7601 56.0553 99.4669L58.2834 95.9638C58.4571 95.6907 58.2609 95.3335 57.9373 95.3335ZM57.664 96.0168L55.9827 99.2465L54.8556 95.7433L57.664 96.0168Z" fill="#FFB61D"/>
<path fill-rule="evenodd" clip-rule="evenodd" d="M46.9432 114.316L46.7899 117.353C46.7738 117.672 47.111 117.886 47.3923 117.736L51.2935 115.658C51.6239 115.482 51.5651 114.991 51.2023 114.898L47.4545 113.939C47.2033 113.875 46.9563 114.057 46.9432 114.316ZM47.2397 114.606L50.8248 115.104L47.3923 117.133L47.2397 114.606Z" fill="#FFB61D"/>
<path fill-rule="evenodd" clip-rule="evenodd" d="M41.7706 77.0154L38.7628 79.1002C38.5083 79.2766 38.5336 79.6607 38.8091 79.8022L42.329 81.6092C42.6232 81.7602 42.9661 81.5187 42.9229 81.1908L42.4109 77.299C42.3708 76.9946 42.0229 76.8405 41.7706 77.0154ZM41.8914 77.7399L42.5163 81.2444L38.9965 79.4374L41.8914 77.7399Z" fill="#FFB61D"/>
<path fill-rule="evenodd" clip-rule="evenodd" d="M55.5711 85.9453L53.6943 88.7474C53.5327 88.9887 53.6661 89.3169 53.9502 89.3769L56.1446 89.8411C56.4158 89.8984 56.6646 89.6759 56.6377 89.4001L56.3201 86.1338C56.2828 85.7505 55.7854 85.6253 55.5711 85.9453ZM56.0822 86.507V89.5077L54.1953 88.7477L56.0822 86.507Z" fill="#FFB61D"/>
<path fill-rule="evenodd" clip-rule="evenodd" d="M55.9266 72.7444C56.4727 72.388 56.9518 72.4725 56.5619 73.2566C56.5619 73.2566 53.7153 80.4742 52.8647 80.5597C52.0582 80.6408 51.6688 79.5977 50.5426 76.6154L50.4947 76.4883C50.4905 76.4771 50.4868 76.4658 50.4835 76.4546L50.4775 76.4307L50.4702 76.4175L50.4546 76.3812L50.3199 76.0169C50.1608 75.5827 49.7604 74.866 49.5487 74.617C49.323 74.3518 49.8264 74.1875 50.1983 74.1875C50.8923 74.1875 51.7416 74.3813 53.0771 73.9958C54.6414 73.5444 55.1782 73.2328 55.9266 72.7444ZM54.716 76.4522L54.6784 76.4765C54.2813 76.721 53.8424 76.9091 53.3628 77.0402C52.7891 77.197 51.9567 77.2164 51.4182 77.0989L51.3282 77.0778L51.3614 77.1606C51.6652 77.9181 51.9355 78.7939 52.1709 79.2393L52.2531 79.3909C52.4007 79.6563 52.5304 79.8489 52.6352 79.9648L52.668 79.9989L52.7087 79.9497C52.8842 79.7253 53.5092 78.8808 53.9433 78.0374L53.9887 77.9487C54.1745 77.5842 54.3773 77.1701 54.5968 76.7063L54.716 76.4522ZM55.8877 73.5781L55.8216 73.6156C55.2041 73.9596 54.1826 74.5304 53.3046 74.7838C52.2536 75.0871 51.3626 75.1954 50.6296 75.0984L50.5847 75.0916L50.6105 75.1642C50.6804 75.3602 50.9773 76.288 51.0824 76.4306C51.5077 76.8236 52.0294 76.8609 52.668 76.7062L52.7595 76.6826C55.0464 76.2409 55.8877 73.5781 55.8877 73.5781Z" fill="#FFB61D"/>
<path fill-rule="evenodd" clip-rule="evenodd" d="M136.195 98.8103C136.286 98.7431 136.415 98.7625 136.482 98.8537C136.955 99.4957 137.757 99.5274 138.823 98.9356C138.922 98.8807 139.046 98.9164 139.101 99.0154C139.156 99.1144 139.121 99.2392 139.022 99.2942C137.796 99.975 136.769 99.9345 136.152 99.097C136.085 99.0059 136.104 98.8775 136.195 98.8103Z" fill="#E7EAEE"/>
<path fill-rule="evenodd" clip-rule="evenodd" d="M134.645 100.453C134.729 100.377 134.859 100.383 134.935 100.467C135.653 101.257 136.607 101.302 137.383 100.888C137.483 100.834 137.607 100.872 137.661 100.972C137.714 101.072 137.676 101.196 137.577 101.249C136.65 101.744 135.492 101.69 134.631 100.743C134.555 100.659 134.561 100.529 134.645 100.453Z" fill="#E7EAEE"/>
<path fill-rule="evenodd" clip-rule="evenodd" d="M132.966 102.081C133.048 102.003 133.178 102.007 133.256 102.089C133.948 102.825 135.355 103.184 136.317 102.674C136.418 102.621 136.542 102.659 136.595 102.759C136.648 102.859 136.61 102.983 136.51 103.036C135.37 103.64 133.767 103.231 132.957 102.371C132.879 102.288 132.883 102.158 132.966 102.081Z" fill="#E7EAEE"/>
<path fill-rule="evenodd" clip-rule="evenodd" d="M134.27 108.512C135.709 107.815 134.221 105.234 132.828 106.279C131.934 106.949 132.914 109.168 134.27 108.512Z" fill="#E7EAEE"/>
<path d="M134.673 22.4939C137.976 19.1703 142.464 17.2949 147.149 17.2801C151.835 17.2654 156.334 19.1125 159.658 22.4152C162.981 25.7179 164.857 30.2056 164.872 34.8911C164.886 39.5766 163.039 44.076 159.736 47.3996L134.673 22.4939Z" fill="#00CBA9"/>
<g filter="url(#filter1_biiii_104_5513)">
<path d="M130.875 6.26584C125.013 12.1652 121.717 20.1353 121.714 28.4228C121.711 36.7103 125 44.6364 130.858 50.4574C136.716 56.2784 144.662 59.5175 152.95 59.4621C161.237 59.4068 169.186 56.0614 175.048 50.1621L130.875 6.26584Z" fill="url(#paint2_linear_104_5513)"/>
</g>
<path d="M140.309 26.8484C142.291 24.8542 144.983 23.729 147.794 23.7201C150.606 23.7113 153.305 24.8196 155.3 26.8012C157.294 28.7828 158.419 31.4754 158.428 34.2867C158.437 37.098 157.328 39.7977 155.347 41.7918L140.309 26.8484Z" fill="url(#paint3_linear_104_5513)"/>
<defs>
<filter id="filter0_biiii_104_5513" x="-21" y="63.4329" width="101.064" height="99.1321" filterUnits="userSpaceOnUse" color-interpolation-filters="sRGB">
<feFlood flood-opacity="0" result="BackgroundImageFix"/>
<feGaussianBlur in="BackgroundImageFix" stdDeviation="10.5"/>
<feComposite in2="SourceAlpha" operator="in" result="effect1_backgroundBlur_104_5513"/>
<feBlend mode="normal" in="SourceGraphic" in2="effect1_backgroundBlur_104_5513" result="shape"/>
<feColorMatrix in="SourceAlpha" type="matrix" values="0 0 0 0 0 0 0 0 0 0 0 0 0 0 0 0 0 0 127 0" result="hardAlpha"/>
<feOffset dx="10" dy="10"/>
<feGaussianBlur stdDeviation="11.5"/>
<feComposite in2="hardAlpha" operator="arithmetic" k2="-1" k3="1"/>
<feColorMatrix type="matrix" values="0 0 0 0 0.996078 0 0 0 0 0.603922 0 0 0 0 0.0470588 0 0 0 0.18 0"/>
<feBlend mode="normal" in2="shape" result="effect2_innerShadow_104_5513"/>
<feColorMatrix in="SourceAlpha" type="matrix" values="0 0 0 0 0 0 0 0 0 0 0 0 0 0 0 0 0 0 127 0" result="hardAlpha"/>
<feOffset dy="2"/>
<feGaussianBlur stdDeviation="3"/>
<feComposite in2="hardAlpha" operator="arithmetic" k2="-1" k3="1"/>
<feColorMatrix type="matrix" values="0 0 0 0 1 0 0 0 0 1 0 0 0 0 1 0 0 0 0.05 0"/>
<feBlend mode="normal" in2="effect2_innerShadow_104_5513" result="effect3_innerShadow_104_5513"/>
<feColorMatrix in="SourceAlpha" type="matrix" values="0 0 0 0 0 0 0 0 0 0 0 0 0 0 0 0 0 0 127 0" result="hardAlpha"/>
<feOffset dy="1"/>
<feComposite in2="hardAlpha" operator="arithmetic" k2="-1" k3="1"/>
<feColorMatrix type="matrix" values="0 0 0 0 1 0 0 0 0 1 0 0 0 0 1 0 0 0 0.05 0"/>
<feBlend mode="normal" in2="effect3_innerShadow_104_5513" result="effect4_innerShadow_104_5513"/>
<feColorMatrix in="SourceAlpha" type="matrix" values="0 0 0 0 0 0 0 0 0 0 0 0 0 0 0 0 0 0 127 0" result="hardAlpha"/>
<feOffset dy="-10"/>
<feGaussianBlur stdDeviation="5"/>
<feComposite in2="hardAlpha" operator="arithmetic" k2="-1" k3="1"/>
<feColorMatrix type="matrix" values="0 0 0 0 0.996078 0 0 0 0 0.603922 0 0 0 0 0.0470588 0 0 0 0.4 0"/>
<feBlend mode="overlay" in2="effect4_innerShadow_104_5513" result="effect5_innerShadow_104_5513"/>
</filter>
<filter id="filter1_biiii_104_5513" x="100.714" y="-14.7341" width="95.3342" height="95.197" filterUnits="userSpaceOnUse" color-interpolation-filters="sRGB">
<feFlood flood-opacity="0" result="BackgroundImageFix"/>
<feGaussianBlur in="BackgroundImageFix" stdDeviation="10.5"/>
<feComposite in2="SourceAlpha" operator="in" result="effect1_backgroundBlur_104_5513"/>
<feBlend mode="normal" in="SourceGraphic" in2="effect1_backgroundBlur_104_5513" result="shape"/>
<feColorMatrix in="SourceAlpha" type="matrix" values="0 0 0 0 0 0 0 0 0 0 0 0 0 0 0 0 0 0 127 0" result="hardAlpha"/>
<feOffset dx="10" dy="10"/>
<feGaussianBlur stdDeviation="11.5"/>
<feComposite in2="hardAlpha" operator="arithmetic" k2="-1" k3="1"/>
<feColorMatrix type="matrix" values="0 0 0 0 0 0 0 0 0 0.796078 0 0 0 0 0.662745 0 0 0 0.18 0"/>
<feBlend mode="normal" in2="shape" result="effect2_innerShadow_104_5513"/>
<feColorMatrix in="SourceAlpha" type="matrix" values="0 0 0 0 0 0 0 0 0 0 0 0 0 0 0 0 0 0 127 0" result="hardAlpha"/>
<feOffset dy="2"/>
<feGaussianBlur stdDeviation="3"/>
<feComposite in2="hardAlpha" operator="arithmetic" k2="-1" k3="1"/>
<feColorMatrix type="matrix" values="0 0 0 0 1 0 0 0 0 1 0 0 0 0 1 0 0 0 0.05 0"/>
<feBlend mode="normal" in2="effect2_innerShadow_104_5513" result="effect3_innerShadow_104_5513"/>
<feColorMatrix in="SourceAlpha" type="matrix" values="0 0 0 0 0 0 0 0 0 0 0 0 0 0 0 0 0 0 127 0" result="hardAlpha"/>
<feOffset dy="1"/>
<feComposite in2="hardAlpha" operator="arithmetic" k2="-1" k3="1"/>
<feColorMatrix type="matrix" values="0 0 0 0 1 0 0 0 0 1 0 0 0 0 1 0 0 0 0.05 0"/>
<feBlend mode="normal" in2="effect3_innerShadow_104_5513" result="effect4_innerShadow_104_5513"/>
<feColorMatrix in="SourceAlpha" type="matrix" values="0 0 0 0 0 0 0 0 0 0 0 0 0 0 0 0 0 0 127 0" result="hardAlpha"/>
<feOffset dy="-10"/>
<feGaussianBlur stdDeviation="5"/>
<feComposite in2="hardAlpha" operator="arithmetic" k2="-1" k3="1"/>
<feColorMatrix type="matrix" values="0 0 0 0 0 0 0 0 0 0.796078 0 0 0 0 0.662745 0 0 0 0.4 0"/>
<feBlend mode="overlay" in2="effect4_innerShadow_104_5513" result="effect5_innerShadow_104_5513"/>
</filter>
<linearGradient id="paint0_linear_104_5513" x1="13.6941" y1="108.448" x2="-38.8576" y2="38.8144" gradientUnits="userSpaceOnUse">
<stop stop-color="#FE9A0C" stop-opacity="0.01"/>
<stop offset="1" stop-color="#FE9A0C" stop-opacity="0.12"/>
</linearGradient>
<linearGradient id="paint1_linear_104_5513" x1="5.97257" y1="-6.51503" x2="5.97256" y2="26.8245" gradientUnits="userSpaceOnUse">
<stop stop-color="white"/>
<stop offset="1" stop-color="white" stop-opacity="0"/>
</linearGradient>
<linearGradient id="paint2_linear_104_5513" x1="207.262" y1="104.278" x2="108.802" y2="90.4787" gradientUnits="userSpaceOnUse">
<stop stop-color="#00CBA9" stop-opacity="0.01"/>
<stop offset="1" stop-color="#00CBA9" stop-opacity="0.12"/>
</linearGradient>
<linearGradient id="paint3_linear_104_5513" x1="158.368" y1="23.7131" x2="147.828" y2="34.3201" gradientUnits="userSpaceOnUse">
<stop stop-color="white"/>
<stop offset="1" stop-color="white" stop-opacity="0"/>
</linearGradient>
</defs>
</svg>
