<svg width="33" height="32" viewBox="0 0 33 32" fill="none" xmlns="http://www.w3.org/2000/svg">
<circle cx="16.3252" cy="16" r="16" fill="white"/>
<circle cx="16.3252" cy="16" r="16" fill="url(#paint0_linear_1656_7400)" fill-opacity="0.2"/>
<circle cx="16.3252" cy="16" r="12" fill="#02CAB3"/>
<path d="M11.0729 23C10.9395 23 10.8262 22.9533 10.7329 22.86C10.6395 22.7667 10.5929 22.6533 10.5929 22.52V21.5C10.5929 21.14 10.7595 20.8267 11.0929 20.56L14.2529 17.42C15.6262 16.34 16.5795 15.5 17.1129 14.9C17.6595 14.2867 17.9329 13.6867 17.9329 13.1C17.9329 12.4733 17.7595 11.98 17.4129 11.62C17.0795 11.26 16.5729 11.08 15.8929 11.08C15.2262 11.08 14.6995 11.28 14.3129 11.68C13.9262 12.0667 13.6862 12.5733 13.5929 13.2C13.5529 13.36 13.4795 13.48 13.3729 13.56C13.2662 13.6267 13.1462 13.66 13.0129 13.66H11.2329C11.1129 13.66 11.0129 13.62 10.9329 13.54C10.8529 13.46 10.8129 13.3667 10.8129 13.26C10.8395 12.4733 11.0529 11.74 11.4529 11.06C11.8529 10.3667 12.4329 9.81333 13.1929 9.4C13.9529 8.97333 14.8462 8.76 15.8729 8.76C16.9395 8.76 17.8395 8.94667 18.5729 9.32C19.3195 9.68 19.8795 10.18 20.2529 10.82C20.6262 11.46 20.8129 12.1867 20.8129 13C20.8129 13.8933 20.5595 14.7 20.0529 15.42C19.5595 16.14 18.7995 16.9133 17.7729 17.74L14.9329 20.62H20.6329C20.7795 20.62 20.8929 20.6667 20.9729 20.76C21.0662 20.84 21.1129 20.9533 21.1129 21.1V22.52C21.1129 22.6533 21.0662 22.7667 20.9729 22.86C20.8929 22.9533 20.7795 23 20.6329 23H11.0729Z" fill="white"/>
<defs>
<linearGradient id="paint0_linear_1656_7400" x1="16.3252" y1="0" x2="16.3252" y2="32" gradientUnits="userSpaceOnUse">
<stop stop-color="#4F5F7A" stop-opacity="0.7"/>
<stop offset="1" stop-color="#4F5F7A" stop-opacity="0.08"/>
</linearGradient>
</defs>
</svg>
