<svg width="33" height="32" viewBox="0 0 33 32" fill="none" xmlns="http://www.w3.org/2000/svg">
<circle cx="16.3252" cy="16" r="16" fill="white"/>
<circle cx="16.3252" cy="16" r="16" fill="url(#paint0_linear_1656_5484)" fill-opacity="0.2"/>
<circle cx="16.3252" cy="16" r="12" fill="#AEB9CB"/>
<path d="M11.0729 23C10.9395 23 10.8262 22.9533 10.7329 22.86C10.6395 22.7667 10.5929 22.6533 10.5929 22.52V21.5C10.5929 21.38 10.6195 21.24 10.6729 21.08C10.7395 20.9067 10.8795 20.7333 11.0929 20.56L14.2529 17.42C15.1329 16.7267 15.8395 16.14 16.3729 15.66C16.9195 15.1667 17.3129 14.72 17.5529 14.32C17.8062 13.9067 17.9329 13.5 17.9329 13.1C17.9329 12.5 17.7662 12.0133 17.4329 11.64C17.1129 11.2667 16.5995 11.08 15.8929 11.08C15.4262 11.08 15.0329 11.18 14.7129 11.38C14.3929 11.5667 14.1395 11.82 13.9529 12.14C13.7795 12.46 13.6595 12.8133 13.5929 13.2C13.5662 13.3733 13.4929 13.4933 13.3729 13.56C13.2529 13.6267 13.1329 13.66 13.0129 13.66H11.2329C11.1129 13.66 11.0129 13.62 10.9329 13.54C10.8529 13.46 10.8129 13.3667 10.8129 13.26C10.8262 12.6867 10.9462 12.1333 11.1729 11.6C11.3995 11.0533 11.7262 10.5733 12.1529 10.16C12.5929 9.73333 13.1262 9.39333 13.7529 9.14C14.3795 8.88667 15.0862 8.76 15.8729 8.76C16.9795 8.76 17.8929 8.94667 18.6129 9.32C19.3462 9.69333 19.8929 10.2 20.2529 10.84C20.6262 11.48 20.8129 12.2 20.8129 13C20.8129 13.6267 20.6929 14.2067 20.4529 14.74C20.2129 15.26 19.8662 15.7667 19.4129 16.26C18.9595 16.74 18.4129 17.2333 17.7729 17.74L14.9329 20.62H20.6329C20.7795 20.62 20.8929 20.6667 20.9729 20.76C21.0662 20.84 21.1129 20.9533 21.1129 21.1V22.52C21.1129 22.6533 21.0662 22.7667 20.9729 22.86C20.8929 22.9533 20.7795 23 20.6329 23H11.0729Z" fill="white"/>
<defs>
<linearGradient id="paint0_linear_1656_5484" x1="16.3252" y1="0" x2="16.3252" y2="32" gradientUnits="userSpaceOnUse">
<stop stop-color="#4F5F7A" stop-opacity="0.7"/>
<stop offset="1" stop-color="#4F5F7A" stop-opacity="0.08"/>
</linearGradient>
</defs>
</svg>
