<svg width="114" height="114" viewBox="0 0 114 114" fill="none" xmlns="http://www.w3.org/2000/svg">
<path d="M57 9.02856e-06C45.7265 9.02856e-06 34.7061 3.343 25.3325 9.60624C15.9589 15.8695 8.65308 24.7717 4.33889 35.187C0.024697 45.6024 -1.10409 57.0632 1.09526 68.1201C3.29462 79.177 8.72334 89.3335 16.6949 97.3051C24.6665 105.277 34.823 110.705 45.8799 112.905C56.9368 115.104 68.3976 113.975 78.813 109.661C89.2283 105.347 98.1305 98.0411 104.394 88.6675C110.657 79.2939 114 68.2735 114 57C114.004 49.5135 112.533 42.0995 109.67 35.1821C106.807 28.2646 102.608 21.9793 97.3145 16.6855C92.0207 11.3917 85.7354 7.19331 78.8179 4.33029C71.9005 1.46727 64.4865 -0.0042057 57 9.02856e-06ZM43.4376 81.0433L22.3333 59.9355C20.9528 58.3983 20.2142 56.3904 20.2696 54.325C20.325 52.2597 21.1702 50.2942 22.6311 48.8333C24.0921 47.3724 26.0575 46.5272 28.1229 46.4718C30.1882 46.4164 32.1962 47.155 33.7333 48.5355L46.4978 61.275C46.8741 61.6517 47.3213 61.9502 47.8135 62.1533C48.3057 62.3564 48.8332 62.4601 49.3657 62.4585C49.8982 62.4568 50.4251 62.3498 50.916 62.1437C51.407 61.9375 51.8523 61.6362 52.2263 61.2572L80.2132 32.8676C81.7376 31.4654 83.7425 30.7026 85.8135 30.7372C87.8844 30.7718 89.8628 31.6011 91.3394 33.0534C92.816 34.5058 93.6779 36.4702 93.7468 38.5403C93.8157 40.6103 93.0863 42.6277 91.7094 44.175C61.3178 75.0262 55.5465 81.0433 55.5465 81.0433C53.939 82.647 51.761 83.5477 49.4903 83.5477C47.2195 83.5477 45.0451 82.647 43.4376 81.0433Z" fill="#00A393"/>
</svg>
