<svg width="32" height="32" viewBox="0 0 32 32" fill="none" xmlns="http://www.w3.org/2000/svg">
<path d="M16 2.53433e-06C12.8355 2.53433e-06 9.74207 0.938386 7.11088 2.69649C4.4797 4.45459 2.42894 6.95345 1.21793 9.87707C0.0069325 12.8007 -0.309921 16.0177 0.307443 19.1214C0.924806 22.2251 2.44866 25.0761 4.6863 27.3137C6.92394 29.5514 9.77487 31.0752 12.8786 31.6926C15.9823 32.3099 19.1993 31.9931 22.1229 30.7821C25.0466 29.5711 27.5454 27.5203 29.3035 24.8891C31.0616 22.2579 32 19.1645 32 16C32.0012 13.8985 31.5881 11.8174 30.7845 9.87567C29.9808 7.93393 28.8023 6.16963 27.3164 4.68366C25.8304 3.19768 24.0661 2.01918 22.1243 1.21552C20.1826 0.411864 18.1015 -0.00118055 16 2.53433e-06ZM12.193 22.749L6.26901 16.824C5.88149 16.3925 5.67417 15.8289 5.68972 15.2491C5.70527 14.6694 5.94251 14.1177 6.3526 13.7076C6.76269 13.2975 7.3144 13.0603 7.89414 13.0447C8.47389 13.0292 9.03753 13.2365 9.46901 13.624L13.052 17.2C13.1576 17.3057 13.2832 17.3895 13.4213 17.4465C13.5595 17.5036 13.7076 17.5327 13.857 17.5322C14.0065 17.5317 14.1544 17.5017 14.2922 17.4438C14.43 17.386 14.555 17.3014 14.66 17.195L22.516 9.226C22.9439 8.83238 23.5067 8.61829 24.088 8.62799C24.6693 8.6377 25.2246 8.87047 25.6391 9.27816C26.0536 9.68585 26.2956 10.2373 26.3149 10.8183C26.3342 11.3994 26.1295 11.9657 25.743 12.4C17.212 21.06 15.592 22.749 15.592 22.749C15.1408 23.1992 14.5294 23.452 13.892 23.452C13.2546 23.452 12.6442 23.1992 12.193 22.749Z" fill="#3EC92C"/>
</svg>
