<svg width="24" height="24" viewBox="0 0 24 24" fill="none" xmlns="http://www.w3.org/2000/svg">
<g clip-path="url(#clip0_755_10011)">
<path d="M12 2.04424e-06C9.62663 2.04424e-06 7.30655 0.70379 5.33316 2.02237C3.35977 3.34094 1.8217 5.21509 0.913451 7.4078C0.00519943 9.60051 -0.232441 12.0133 0.230582 14.3411C0.693605 16.6689 1.83649 18.8071 3.51472 20.4853C5.19295 22.1635 7.33115 23.3064 9.65892 23.7694C11.9867 24.2324 14.3995 23.9948 16.5922 23.0866C18.7849 22.1783 20.6591 20.6402 21.9776 18.6668C23.2962 16.6935 24 14.3734 24 12C24.0009 10.4239 23.6912 8.86303 23.0884 7.40671C22.4857 5.95039 21.6018 4.62715 20.4873 3.51267C19.3729 2.39818 18.0496 1.5143 16.5933 0.911573C15.137 0.308843 13.5761 -0.000918165 12 2.04424e-06ZM9.14501 17.062L4.70001 12.618C4.412 12.2939 4.25869 11.8721 4.27145 11.4387C4.28421 11.0053 4.46206 10.5932 4.76863 10.2866C5.07521 9.98006 5.48733 9.80221 5.92069 9.78945C6.35406 9.77669 6.77593 9.93 7.10001 10.218L9.78901 12.9C9.86801 12.9795 9.96195 13.0426 10.0654 13.0857C10.1689 13.1288 10.2799 13.1509 10.392 13.1509C10.5041 13.1509 10.6151 13.1288 10.7186 13.0857C10.8221 13.0426 10.916 12.9795 10.995 12.9L16.887 6.923C17.2091 6.63687 17.6279 6.48372 18.0586 6.49452C18.4893 6.50532 18.8999 6.67926 19.2072 6.98118C19.5146 7.28309 19.6959 7.69046 19.7144 8.12092C19.7329 8.55137 19.5873 8.9728 19.307 9.3C12.907 15.792 11.694 17.058 11.694 17.058C11.3557 17.3954 10.8973 17.5848 10.4195 17.5848C9.94169 17.5848 9.48336 17.3954 9.14501 17.058V17.062Z" fill="#3EC92C"/>
</g>
<defs>
<clipPath id="clip0_755_10011">
<rect width="24" height="24" fill="white"/>
</clipPath>
</defs>
</svg>
