<svg width="159" height="173" viewBox="0 0 159 173" fill="none" xmlns="http://www.w3.org/2000/svg">
<path d="M143.871 128.25C142.881 149.104 127.409 168.002 108.445 172.067C89.4799 176.132 68.7242 165.32 59.4834 146.978C58.4636 144.954 57.5555 142.831 56.6475 140.708C54.3032 135.228 51.9597 129.749 47.6982 125.98C42.8325 121.675 36.5748 120.524 30.254 119.362C26.2403 118.623 22.2011 117.88 18.4769 116.322C9.49898 112.566 2.52809 103.668 0.584874 93.4841C-2.56413 76.9806 7.41039 60.1309 20.7118 51.3237C34.0132 42.5165 49.9966 40.0637 65.5003 38.1736C71.4311 37.4506 76.2486 32.6237 79.6894 27.3568C81.0214 25.3178 82.2199 23.1753 83.4175 21.0343C85.3133 17.645 87.207 14.2596 89.6249 11.2953C99.8632 -1.25675 118.929 -3.37485 131.969 5.65079C145.01 14.6764 151.252 33.2358 147.784 49.5388C147.187 52.3468 146.339 55.081 145.491 57.8154L145.491 57.8157C144.679 60.4332 143.868 63.0508 143.275 65.7336C142.01 71.4678 141.769 77.4018 141.624 83.2946C141.453 90.3205 141.412 97.3647 142.021 104.362C142.233 106.796 142.524 109.227 142.814 111.658C143.474 117.181 144.134 122.702 143.871 128.25Z" fill="#EFFEFB"/>
<path d="M65.4787 33.1928C72.5698 29.383 78.2136 22.7663 81.7677 15.1223C82.2337 14.12 82.6753 13.0551 82.659 11.9337C82.6426 10.8123 82.0385 9.62451 81.0341 9.33972C79.5947 8.93159 78.3568 10.4221 77.4592 11.7041C71.2931 20.5106 62.3183 27.4242 52.1909 28.9319C48.3013 29.511 44.3523 29.2935 40.4312 29.0749L34.3066 28.7334C29.3737 28.4583 24.3723 28.1887 19.5438 29.3129C14.7153 30.4371 9.99719 33.1407 7.34521 37.6413C6.50109 39.0738 5.86881 40.7619 6.10237 42.4411C6.34172 44.1619 7.47425 45.6223 8.83847 46.5481C10.2027 47.4739 11.7876 47.937 13.3583 48.3245C14.5083 48.6082 15.6829 48.8595 16.8596 48.7701C18.7834 48.6238 20.5292 47.5906 22.2279 46.5854C22.3411 46.5184 22.4541 46.4515 22.5668 46.3851C25.5358 44.6358 28.6122 43.0823 31.8209 41.928C36.5001 40.2447 41.4203 39.421 46.3282 38.5993C52.9402 37.4923 59.53 36.389 65.4787 33.1928Z" fill="#EFFEFB"/>
<path d="M28.603 134.69L28.6071 134.691C28.8961 134.703 29.185 134.716 29.4731 134.732C34.0297 134.988 38.5389 136.194 42.6791 138.265C44.2577 139.055 45.8565 140.043 46.7431 141.66C47.8401 143.66 49.157 145.519 50.6572 147.186C51.2392 147.833 51.8694 148.466 52.6465 148.796C53.4235 149.126 54.383 149.096 55.0134 148.505C55.7793 147.786 55.829 146.511 55.593 145.445C55.2062 143.699 54.2415 142.177 53.2868 140.707C50.1538 135.883 46.8554 131.061 42.4956 127.519C38.1357 123.977 32.5091 121.833 27.1725 123.056C25.3298 123.479 23.5036 124.34 22.2819 125.888C21.0603 127.437 20.5775 129.767 21.4573 131.566C22.1553 132.993 23.5704 133.871 25.0192 134.267C26.1868 134.586 27.3961 134.638 28.6027 134.69H28.603Z" fill="#EFFEFB"/>
<path d="M151.854 62.1416C150.636 61.6455 149.256 62.2446 148.225 63.103C146.189 64.7984 144.984 67.4505 144.436 70.1636C143.888 72.8766 143.932 75.6831 143.979 78.4595L144.382 102.315C144.411 104.058 144.483 105.936 145.475 107.311C145.786 107.741 146.211 108.119 146.713 108.174C147.322 108.241 147.886 107.826 148.326 107.366C150.731 104.851 151.047 100.89 151.334 97.2785L151.345 97.1474C151.768 91.8468 152.5 86.5751 153.537 81.3739C153.828 79.9112 154.148 78.4392 154.758 77.0956C156.669 72.8838 156.212 67.5371 153.619 63.7742C153.15 63.0936 152.589 62.4409 151.854 62.1416Z" fill="#EFFEFB"/>
<path d="M104.067 94.9067C99.7869 98.7978 93.1628 98.4826 89.2717 94.2025C85.3805 89.9224 85.6958 83.2983 89.9758 79.4072C94.2559 75.516 100.88 75.8313 104.771 80.1113C108.662 84.3914 108.347 91.0155 104.067 94.9067Z" fill="#00CBA9"/>
<g filter="url(#filter0_biiii_356_27468)">
<path d="M110.646 113.523C110.898 108.217 110.103 102.913 108.306 97.9141C106.509 92.9154 103.745 88.3196 100.171 84.3891C96.5981 80.4586 92.2856 77.2705 87.4801 75.0066C82.6746 72.7428 77.4703 71.4477 72.1643 71.1951L70.2413 111.6L110.646 113.523Z" fill="url(#paint0_linear_356_27468)"/>
</g>
<path d="M93.6201 83.4157C91.5538 85.2942 91.4016 88.4921 93.2801 90.5583C95.1586 92.6245 98.3565 92.7767 100.423 90.8982C102.489 89.0197 102.641 85.8219 100.763 83.7557C98.8841 81.6894 95.6863 81.5372 93.6201 83.4157Z" fill="url(#paint1_linear_356_27468)"/>
<path d="M36.5 79.5L56 67L63 87.5L107.5 6L124 19L65.5 108.5L36.5 79.5Z" fill="white"/>
<path d="M127.511 43.911C127.381 43.8187 127.252 43.7268 127.122 43.6346C127.397 43.3658 127.673 43.0982 127.95 42.8325C128.14 42.6511 128.477 42.1622 128.141 41.9455C125.936 40.5248 123.732 39.1037 121.527 37.683C118.015 35.4201 114.504 33.1571 110.993 30.8942C110.19 30.377 109.388 29.8598 108.585 29.3426C108.269 29.1385 107.709 29.4792 107.499 29.7139C102.878 34.8914 99.1274 40.9409 95.6693 47.0575C91.5575 54.3306 87.8813 61.8874 84.4101 69.5357C83.1905 72.2228 81.9982 74.9241 80.8291 77.6369C77.5893 84.0911 74.472 90.6169 71.4811 97.2093C68.9972 102.684 66.6013 108.205 64.2921 113.767C61.358 107.712 57.8789 101.939 54.048 96.5172C53.7022 96.0275 53.3542 95.5386 52.9942 95.0609C52.8085 94.8147 52.4204 94.9376 52.2024 95.0547C51.9106 95.2117 51.6188 95.369 51.3269 95.526C51.3148 95.5103 51.3028 95.4942 51.2903 95.4785C51.0361 95.1501 50.6221 94.8354 50.2231 94.7661C50.0984 94.7443 49.9983 94.7584 49.9387 94.8025C49.8971 94.8082 49.8606 94.8212 49.83 94.843C47.0699 96.825 44.3098 98.8065 41.5497 100.788C37.7666 102.825 33.9833 104.861 30.2003 106.897C29.9443 106.753 29.6883 106.608 29.4316 106.466C28.8813 106.159 27.5484 107.386 28.1548 107.724C28.4279 107.876 28.7002 108.029 28.9725 108.184C29.0258 108.36 29.1813 108.408 29.3496 108.398C34.764 111.489 39.9818 114.975 44.9553 118.833C45.8656 119.539 46.7674 120.258 47.6611 120.988C51.6713 124.75 55.4788 128.771 59.128 132.929C61.3914 135.509 63.5937 138.149 65.7563 140.827C65.9026 141.008 66.9592 141.923 67.1627 141.481C67.2585 141.273 67.3551 141.064 67.4513 140.856C67.5436 140.969 67.6359 141.082 67.7275 141.196C68.1248 141.687 68.9578 140.96 69.1662 140.572C72.3357 134.671 75.311 128.65 78.2745 122.626C81.5914 115.884 84.8844 109.129 88.2794 102.432C89.7024 99.6246 91.1432 96.8276 92.6084 94.0452C94.9982 90.1747 97.4441 86.3445 99.9469 82.5578C104.07 76.3192 108.345 70.1968 112.771 64.2039C117.144 58.283 121.663 52.4876 126.331 46.8343C126.918 46.123 127.508 45.414 128.1 44.7069C128.294 44.4741 127.6 43.9749 127.512 43.9125L127.511 43.911ZM99.7129 78.8351C98.5377 80.8404 97.3845 82.8603 96.2494 84.8924C93.3913 89.3034 90.6085 93.7711 87.9026 98.2924C84.05 104.73 80.3533 111.276 76.8203 117.923C73.4001 124.358 70.1337 130.887 67.0302 137.506C63.293 133.104 59.3055 128.952 55.0968 125.074C50.0757 120.448 44.739 116.219 39.1435 112.436C37.5199 111.338 35.8739 110.279 34.208 109.258C33.9467 109.081 33.6847 108.905 33.422 108.731C37.9072 105.51 42.3925 102.29 46.8782 99.0691C48.3094 98.2989 49.7406 97.5286 51.1718 96.7584C53.3624 99.769 55.3311 102.97 57.2061 106.214C58.9291 109.196 60.5716 112.232 62.138 115.312C62.4388 115.904 62.7388 116.496 63.0292 117.094C63.1201 117.281 63.8881 117.976 64.2957 118.01C64.4803 118.423 64.6624 118.837 64.8414 119.253C64.9621 119.534 65.4687 119.345 65.6331 119.26C65.9505 119.094 66.2197 118.82 66.3418 118.461C67.1151 116.19 67.9253 113.934 68.7401 111.681C70.7902 106.013 72.9371 100.333 75.1519 94.7018C76.1766 92.0966 77.2172 89.4986 78.2759 86.9088C78.92 85.57 79.5694 84.2343 80.2241 82.9012C85.8196 71.51 91.7964 60.3365 98.14 49.4108C101.624 43.4102 105.219 37.4855 108.92 31.638C109.428 31.9658 109.937 32.2935 110.445 32.6208C111.844 33.6131 113.242 34.6054 114.641 35.5977C118.043 38.0107 121.444 40.4241 124.846 42.8371C125.169 43.0661 125.492 43.2954 125.814 43.5243C121.004 48.2864 116.63 53.5535 112.575 59.0678C107.935 65.3781 103.702 72.0295 99.7136 78.8344L99.7129 78.8351ZM126.428 42.9225C126.384 42.965 126.341 43.0075 126.297 43.05C125.212 42.2797 124.125 41.5095 123.04 40.7392C123.512 41.0435 123.985 41.3479 124.457 41.6526C125.114 42.0761 125.771 42.4995 126.428 42.9229V42.9225ZM105.148 34.2367C100.351 41.9478 95.7396 49.7929 91.3207 57.762C92.6624 55.0726 94.0446 52.4073 95.4768 49.7733C98.395 44.4075 101.508 39.0846 105.148 34.2367ZM69.1854 106.798C68.7295 108.025 68.2771 109.253 67.8284 110.483C67.1371 112.378 66.454 114.276 65.7826 116.178C65.7308 116.325 65.6775 116.472 65.6239 116.619C65.5227 116.393 65.4204 116.168 65.3178 115.943C66.5807 112.882 67.8703 109.833 69.1857 106.797L69.1854 106.798ZM35.1549 105.38C34.0294 106.188 32.9036 106.996 31.7781 107.804C31.5974 107.699 31.4167 107.594 31.2359 107.489C32.5421 106.786 33.8487 106.083 35.1549 105.38ZM65.9697 139.786C62.961 136.103 59.8682 132.497 56.6533 129.022C57.8214 130.162 58.9714 131.324 60.1012 132.509C62.1977 134.707 64.2261 136.979 66.1849 139.32C66.1128 139.475 66.0414 139.631 65.9697 139.786V139.786ZM78.0853 120.315C75.0571 126.481 72.0321 132.653 68.8339 138.719C68.732 138.913 68.6293 139.106 68.5271 139.299C68.4518 139.207 68.3766 139.115 68.3009 139.024C71.088 133.061 74.0062 127.17 77.051 121.355C78.9296 117.768 80.8561 114.21 82.8283 110.681C81.2399 113.888 79.6631 117.102 78.0853 120.315ZM107.134 68.8818C108.714 66.4412 110.338 64.0351 112.016 61.6711C115.712 56.4619 119.665 51.4471 123.993 46.8335C120.19 51.4716 116.485 56.2023 112.879 61.0195C110.936 63.6159 109.021 66.2372 107.135 68.8818H107.134Z" fill="black"/>
<path d="M50.6656 101.257C50.6386 101.209 50.5964 101.184 50.5385 101.181C50.3635 101.14 50.1671 101.162 49.9939 101.197C49.7716 101.242 49.5422 101.303 49.3392 101.412C48.5701 101.825 47.8093 102.257 47.0583 102.706C46.3553 103.127 45.6612 103.565 44.9767 104.02C44.2947 104.472 43.6222 104.942 42.9597 105.427C42.2613 105.939 41.5743 106.469 40.8979 107.014C40.2539 107.532 39.6205 108.067 38.9988 108.616C38.9218 108.684 38.8447 108.753 38.768 108.822C38.7187 108.854 38.6931 108.898 38.6913 108.955C38.6746 108.999 38.6888 109.035 38.7339 109.062C38.7893 109.096 38.8483 109.113 38.9107 109.114C38.9963 109.129 39.0826 109.131 39.1692 109.119C39.3957 109.096 39.6244 109.046 39.8378 108.96C40.0089 108.892 40.1776 108.814 40.3196 108.687C40.9888 108.088 41.6716 107.508 42.3675 106.945C42.5446 106.802 42.7229 106.66 42.9018 106.519C43.6936 105.899 44.5006 105.302 45.3229 104.73C46.1633 104.145 47.0189 103.585 47.8884 103.052C48.3461 102.772 48.808 102.499 49.2731 102.233C49.6214 102.035 49.9715 101.841 50.324 101.652C50.405 101.617 50.4796 101.57 50.5474 101.512C50.6013 101.478 50.645 101.432 50.678 101.373C50.7047 101.326 50.7008 101.287 50.6663 101.257H50.6656Z" fill="black"/>
<path d="M117.159 48.3998C117.531 47.9286 117.891 47.4447 118.213 46.9321C118.537 46.416 118.846 45.8578 118.996 45.251C119.068 44.9597 119.112 44.6737 119.015 44.387C118.911 44.0799 118.749 43.8096 118.568 43.5486C118.071 42.8292 117.437 42.2171 116.807 41.6363C116.143 41.0234 115.443 40.4545 114.731 39.9066C114.022 39.36 113.298 38.8347 112.566 38.3236C112.015 37.9389 111.459 37.5629 110.899 37.1946C110.609 37.0044 110.318 36.8152 110.025 36.6307C110.011 36.6223 109.998 36.6143 109.985 36.6058C109.905 36.5557 109.708 36.4079 109.595 36.4244C109.493 36.4393 109.531 36.5423 109.568 36.612C109.656 36.7781 109.791 36.9236 109.92 37.0507C110.087 37.2153 110.265 37.3803 110.461 37.5028C110.737 37.6751 111.01 37.8527 111.282 38.0311C111.946 38.4653 112.602 38.9105 113.252 39.368C113.446 39.5047 113.64 39.6429 113.832 39.7818C113.879 39.8159 113.926 39.85 113.973 39.8841C113.974 39.8844 113.974 39.8848 113.975 39.8852C114.072 39.9568 114.17 40.0288 114.267 40.1011C114.669 40.4001 115.067 40.7056 115.458 41.0199C115.555 41.098 115.652 41.1765 115.748 41.2558C115.772 41.2757 115.796 41.2956 115.82 41.3155C115.834 41.327 115.848 41.3384 115.861 41.3499C116.04 41.5015 116.217 41.6554 116.392 41.8128C116.466 41.8794 116.539 41.9468 116.612 42.0145C116.648 42.0498 116.685 42.085 116.721 42.1206C116.795 42.1929 116.868 42.2657 116.94 42.3399C116.965 42.3656 116.989 42.3912 117.014 42.4169C117.077 42.4866 117.14 42.5574 117.201 42.6294C117.223 42.6554 117.245 42.6818 117.267 42.7078C117.316 42.7714 117.364 42.8357 117.41 42.9016C117.428 42.9264 117.444 42.9513 117.461 42.9766C117.462 42.9781 117.463 42.9797 117.464 42.9816C117.501 43.0428 117.537 43.1056 117.569 43.1699C117.583 43.1983 117.596 43.2266 117.609 43.2557C117.612 43.2618 117.614 43.2679 117.617 43.2741C117.65 43.3736 117.679 43.4728 117.686 43.5792C117.69 43.6439 117.685 43.7082 117.677 43.7721C117.607 44.238 117.419 44.6768 117.206 45.0853C116.967 45.545 116.683 45.9776 116.384 46.3946C115.709 47.3371 114.964 48.2249 114.247 49.1307C112.604 51.2079 110.96 53.2848 109.317 55.3621C108.392 56.5313 107.467 57.7004 106.542 58.8692C106.486 58.9397 106.633 59.133 106.654 59.1633C106.778 59.3386 106.944 59.5036 107.102 59.6414C107.264 59.7823 107.434 59.9274 107.623 60.0235C107.685 60.0549 107.852 60.1621 107.912 60.0859C108.945 58.7804 109.978 57.4753 111.011 56.1699C112.039 54.8701 113.068 53.5704 114.096 52.2711C115.117 50.9805 116.14 49.6915 117.159 48.3991L117.159 48.3998ZM117.429 42.9257C117.432 42.931 117.435 42.9364 117.439 42.9418C117.434 42.9349 117.431 42.9291 117.429 42.9257Z" fill="black"/>
<path d="M25.8467 17.4522L29.8553 21.4949L29.8373 21.5131C31.496 23.5546 31.3805 26.572 29.4909 28.4777C27.6012 30.3834 24.6093 30.4999 22.5849 28.8271L22.5669 28.8452L18.5583 24.8026C16.5457 22.7728 16.5457 19.482 18.5583 17.4522C20.5709 15.4225 23.8341 15.4225 25.8467 17.4522Z" fill="#FE9A0C"/>
<g filter="url(#filter1_biiii_356_27468)">
<path d="M29.4652 15.8408C29.4652 22.9326 23.7646 28.6816 16.7326 28.6816C9.70058 28.6816 4 22.9326 4 15.8408C4 8.74902 9.70058 3 16.7326 3C23.7646 3 29.4652 8.74902 29.4652 15.8408Z" fill="url(#paint2_linear_356_27468)"/>
</g>
<path d="M26.0561 20.7417L28.252 22.9563C28.2575 22.9617 28.2629 22.9672 28.2684 22.9727C28.2739 22.9783 28.2793 22.9838 28.2847 22.9893L28.4915 23.1978L28.4806 23.2089C29.4966 24.4594 29.4259 26.3076 28.2684 27.4749C27.111 28.6422 25.2783 28.7135 24.0383 27.6889L24.0273 27.7L16.624 20.2339L21.0883 15.7317L26.0164 20.7017C26.0231 20.7083 26.0297 20.715 26.0363 20.7216C26.043 20.7283 26.0495 20.735 26.0561 20.7417Z" fill="url(#paint3_linear_356_27468)"/>
<path d="M137.191 37.3963L138.907 31.9678L138.931 31.9753C139.968 29.5576 142.693 28.257 145.259 29.0441C147.824 29.8311 149.318 32.4259 148.778 34.9959L148.803 35.0034L147.087 40.432C146.226 43.1575 143.312 44.6874 140.58 43.8492C137.847 43.0109 136.33 40.1218 137.191 37.3963Z" fill="#FE9A0C"/>
<g filter="url(#filter2_biiii_356_27468)">
<path d="M134.083 34.9414C140.361 31.6444 148.102 34.0187 151.371 40.2446C154.64 46.4705 152.2 54.1903 145.921 57.4873C139.643 60.7843 131.903 58.41 128.633 52.1841C125.364 45.9582 127.804 38.2384 134.083 34.9414Z" fill="url(#paint4_linear_356_27468)"/>
</g>
<path d="M140.007 35.6809L140.947 32.7072C140.949 32.6998 140.951 32.6924 140.953 32.685C140.956 32.6776 140.958 32.6702 140.961 32.6628L141.049 32.3828L141.064 32.3873C141.699 30.9064 143.368 30.1098 144.94 30.5919C146.511 31.074 147.426 32.6634 147.095 34.2375L147.111 34.2422L143.942 44.2678L137.881 42.4084L139.99 35.7346C139.993 35.7256 139.995 35.7166 139.998 35.7077C140.001 35.6987 140.004 35.6898 140.007 35.6809Z" fill="url(#paint5_linear_356_27468)"/>
<defs>
<filter id="filter0_biiii_356_27468" x="49.2412" y="50.1951" width="82.4502" height="84.3276" filterUnits="userSpaceOnUse" color-interpolation-filters="sRGB">
<feFlood flood-opacity="0" result="BackgroundImageFix"/>
<feGaussianBlur in="BackgroundImageFix" stdDeviation="10.5"/>
<feComposite in2="SourceAlpha" operator="in" result="effect1_backgroundBlur_356_27468"/>
<feBlend mode="normal" in="SourceGraphic" in2="effect1_backgroundBlur_356_27468" result="shape"/>
<feColorMatrix in="SourceAlpha" type="matrix" values="0 0 0 0 0 0 0 0 0 0 0 0 0 0 0 0 0 0 127 0" result="hardAlpha"/>
<feOffset dx="10" dy="10"/>
<feGaussianBlur stdDeviation="11.5"/>
<feComposite in2="hardAlpha" operator="arithmetic" k2="-1" k3="1"/>
<feColorMatrix type="matrix" values="0 0 0 0 0 0 0 0 0 0.796078 0 0 0 0 0.662745 0 0 0 0.18 0"/>
<feBlend mode="normal" in2="shape" result="effect2_innerShadow_356_27468"/>
<feColorMatrix in="SourceAlpha" type="matrix" values="0 0 0 0 0 0 0 0 0 0 0 0 0 0 0 0 0 0 127 0" result="hardAlpha"/>
<feOffset dy="2"/>
<feGaussianBlur stdDeviation="3"/>
<feComposite in2="hardAlpha" operator="arithmetic" k2="-1" k3="1"/>
<feColorMatrix type="matrix" values="0 0 0 0 1 0 0 0 0 1 0 0 0 0 1 0 0 0 0.05 0"/>
<feBlend mode="normal" in2="effect2_innerShadow_356_27468" result="effect3_innerShadow_356_27468"/>
<feColorMatrix in="SourceAlpha" type="matrix" values="0 0 0 0 0 0 0 0 0 0 0 0 0 0 0 0 0 0 127 0" result="hardAlpha"/>
<feOffset dy="1"/>
<feComposite in2="hardAlpha" operator="arithmetic" k2="-1" k3="1"/>
<feColorMatrix type="matrix" values="0 0 0 0 1 0 0 0 0 1 0 0 0 0 1 0 0 0 0.05 0"/>
<feBlend mode="normal" in2="effect3_innerShadow_356_27468" result="effect4_innerShadow_356_27468"/>
<feColorMatrix in="SourceAlpha" type="matrix" values="0 0 0 0 0 0 0 0 0 0 0 0 0 0 0 0 0 0 127 0" result="hardAlpha"/>
<feOffset dy="-10"/>
<feGaussianBlur stdDeviation="5"/>
<feComposite in2="hardAlpha" operator="arithmetic" k2="-1" k3="1"/>
<feColorMatrix type="matrix" values="0 0 0 0 0 0 0 0 0 0.796078 0 0 0 0 0.662745 0 0 0 0.4 0"/>
<feBlend mode="overlay" in2="effect4_innerShadow_356_27468" result="effect5_innerShadow_356_27468"/>
</filter>
<filter id="filter1_biiii_356_27468" x="-17" y="-18" width="67.4648" height="67.6816" filterUnits="userSpaceOnUse" color-interpolation-filters="sRGB">
<feFlood flood-opacity="0" result="BackgroundImageFix"/>
<feGaussianBlur in="BackgroundImageFix" stdDeviation="10.5"/>
<feComposite in2="SourceAlpha" operator="in" result="effect1_backgroundBlur_356_27468"/>
<feBlend mode="normal" in="SourceGraphic" in2="effect1_backgroundBlur_356_27468" result="shape"/>
<feColorMatrix in="SourceAlpha" type="matrix" values="0 0 0 0 0 0 0 0 0 0 0 0 0 0 0 0 0 0 127 0" result="hardAlpha"/>
<feOffset dx="10" dy="10"/>
<feGaussianBlur stdDeviation="11.5"/>
<feComposite in2="hardAlpha" operator="arithmetic" k2="-1" k3="1"/>
<feColorMatrix type="matrix" values="0 0 0 0 1 0 0 0 0 0.713726 0 0 0 0 0.113725 0 0 0 0.22 0"/>
<feBlend mode="normal" in2="shape" result="effect2_innerShadow_356_27468"/>
<feColorMatrix in="SourceAlpha" type="matrix" values="0 0 0 0 0 0 0 0 0 0 0 0 0 0 0 0 0 0 127 0" result="hardAlpha"/>
<feMorphology radius="2" operator="erode" in="SourceAlpha" result="effect3_innerShadow_356_27468"/>
<feOffset dy="2"/>
<feGaussianBlur stdDeviation="3"/>
<feComposite in2="hardAlpha" operator="arithmetic" k2="-1" k3="1"/>
<feColorMatrix type="matrix" values="0 0 0 0 1 0 0 0 0 1 0 0 0 0 1 0 0 0 0.05 0"/>
<feBlend mode="normal" in2="effect2_innerShadow_356_27468" result="effect3_innerShadow_356_27468"/>
<feColorMatrix in="SourceAlpha" type="matrix" values="0 0 0 0 0 0 0 0 0 0 0 0 0 0 0 0 0 0 127 0" result="hardAlpha"/>
<feOffset dy="1"/>
<feComposite in2="hardAlpha" operator="arithmetic" k2="-1" k3="1"/>
<feColorMatrix type="matrix" values="0 0 0 0 1 0 0 0 0 1 0 0 0 0 1 0 0 0 0.05 0"/>
<feBlend mode="normal" in2="effect3_innerShadow_356_27468" result="effect4_innerShadow_356_27468"/>
<feColorMatrix in="SourceAlpha" type="matrix" values="0 0 0 0 0 0 0 0 0 0 0 0 0 0 0 0 0 0 127 0" result="hardAlpha"/>
<feOffset dy="-10"/>
<feGaussianBlur stdDeviation="5"/>
<feComposite in2="hardAlpha" operator="arithmetic" k2="-1" k3="1"/>
<feColorMatrix type="matrix" values="0 0 0 0 1 0 0 0 0 0.713726 0 0 0 0 0.113725 0 0 0 0.2 0"/>
<feBlend mode="overlay" in2="effect4_innerShadow_356_27468" result="effect5_innerShadow_356_27468"/>
</filter>
<filter id="filter2_biiii_356_27468" x="106.182" y="12.4558" width="67.6406" height="67.5171" filterUnits="userSpaceOnUse" color-interpolation-filters="sRGB">
<feFlood flood-opacity="0" result="BackgroundImageFix"/>
<feGaussianBlur in="BackgroundImageFix" stdDeviation="10.5"/>
<feComposite in2="SourceAlpha" operator="in" result="effect1_backgroundBlur_356_27468"/>
<feBlend mode="normal" in="SourceGraphic" in2="effect1_backgroundBlur_356_27468" result="shape"/>
<feColorMatrix in="SourceAlpha" type="matrix" values="0 0 0 0 0 0 0 0 0 0 0 0 0 0 0 0 0 0 127 0" result="hardAlpha"/>
<feOffset dx="10" dy="10"/>
<feGaussianBlur stdDeviation="11.5"/>
<feComposite in2="hardAlpha" operator="arithmetic" k2="-1" k3="1"/>
<feColorMatrix type="matrix" values="0 0 0 0 1 0 0 0 0 0.713726 0 0 0 0 0.113725 0 0 0 0.22 0"/>
<feBlend mode="normal" in2="shape" result="effect2_innerShadow_356_27468"/>
<feColorMatrix in="SourceAlpha" type="matrix" values="0 0 0 0 0 0 0 0 0 0 0 0 0 0 0 0 0 0 127 0" result="hardAlpha"/>
<feMorphology radius="2" operator="erode" in="SourceAlpha" result="effect3_innerShadow_356_27468"/>
<feOffset dy="2"/>
<feGaussianBlur stdDeviation="3"/>
<feComposite in2="hardAlpha" operator="arithmetic" k2="-1" k3="1"/>
<feColorMatrix type="matrix" values="0 0 0 0 1 0 0 0 0 1 0 0 0 0 1 0 0 0 0.05 0"/>
<feBlend mode="normal" in2="effect2_innerShadow_356_27468" result="effect3_innerShadow_356_27468"/>
<feColorMatrix in="SourceAlpha" type="matrix" values="0 0 0 0 0 0 0 0 0 0 0 0 0 0 0 0 0 0 127 0" result="hardAlpha"/>
<feOffset dy="1"/>
<feComposite in2="hardAlpha" operator="arithmetic" k2="-1" k3="1"/>
<feColorMatrix type="matrix" values="0 0 0 0 1 0 0 0 0 1 0 0 0 0 1 0 0 0 0.05 0"/>
<feBlend mode="normal" in2="effect3_innerShadow_356_27468" result="effect4_innerShadow_356_27468"/>
<feColorMatrix in="SourceAlpha" type="matrix" values="0 0 0 0 0 0 0 0 0 0 0 0 0 0 0 0 0 0 127 0" result="hardAlpha"/>
<feOffset dy="-10"/>
<feGaussianBlur stdDeviation="5"/>
<feComposite in2="hardAlpha" operator="arithmetic" k2="-1" k3="1"/>
<feColorMatrix type="matrix" values="0 0 0 0 1 0 0 0 0 0.713726 0 0 0 0 0.113725 0 0 0 0.2 0"/>
<feBlend mode="overlay" in2="effect4_innerShadow_356_27468" result="effect5_innerShadow_356_27468"/>
</filter>
<linearGradient id="paint0_linear_356_27468" x1="40.9263" y1="138.251" x2="83.1479" y2="72.7057" gradientUnits="userSpaceOnUse">
<stop stop-color="#00CBA9" stop-opacity="0.01"/>
<stop offset="1" stop-color="#00CBA9" stop-opacity="0.12"/>
</linearGradient>
<linearGradient id="paint1_linear_356_27468" x1="103.836" y1="80.9617" x2="93.2801" y2="90.5583" gradientUnits="userSpaceOnUse">
<stop stop-color="white"/>
<stop offset="1" stop-color="white" stop-opacity="0"/>
</linearGradient>
<linearGradient id="paint2_linear_356_27468" x1="16.7326" y1="53.8355" x2="-0.294904" y2="9.08217" gradientUnits="userSpaceOnUse">
<stop stop-color="#FE9A0C" stop-opacity="0.01"/>
<stop offset="1" stop-color="#FE9A0C" stop-opacity="0.12"/>
</linearGradient>
<linearGradient id="paint3_linear_356_27468" x1="32.2367" y1="31.9499" x2="19.0367" y2="18.4224" gradientUnits="userSpaceOnUse">
<stop stop-color="white"/>
<stop offset="1" stop-color="white" stop-opacity="0"/>
</linearGradient>
<linearGradient id="paint4_linear_356_27468" x1="173.641" y1="28.5504" x2="141.934" y2="64.4319" gradientUnits="userSpaceOnUse">
<stop stop-color="#FE9A0C" stop-opacity="0.01"/>
<stop offset="1" stop-color="#FE9A0C" stop-opacity="0.12"/>
</linearGradient>
<linearGradient id="paint5_linear_356_27468" x1="147.057" y1="24.998" x2="141.217" y2="42.9738" gradientUnits="userSpaceOnUse">
<stop stop-color="white"/>
<stop offset="1" stop-color="white" stop-opacity="0"/>
</linearGradient>
</defs>
</svg>
