<svg width="24" height="24" viewBox="0 0 24 24" fill="none" xmlns="http://www.w3.org/2000/svg">
<g clip-path="url(#clip0_486_34770)">
<path d="M11.9999 0.75C9.77484 0.75 7.59977 1.4098 5.74972 2.64597C3.89966 3.88213 2.45772 5.63914 1.60624 7.69481C0.754752 9.75048 0.531965 12.0125 0.966049 14.1948C1.40013 16.3771 2.47159 18.3816 4.04493 19.955C5.61827 21.5283 7.62283 22.5998 9.80512 23.0338C11.9874 23.4679 14.2494 23.2451 16.3051 22.3936C18.3607 21.5422 20.1178 20.1002 21.3539 18.2502C22.5901 16.4001 23.2499 14.225 23.2499 12C23.2488 9.01665 22.0632 6.15579 19.9536 4.04624C17.8441 1.93669 14.9832 0.751079 11.9999 0.75ZM17.3324 8.61C17.3327 8.72827 17.3096 8.84543 17.2645 8.95475C17.2193 9.06408 17.1531 9.16341 17.0694 9.24704C16.9858 9.33067 16.8865 9.39695 16.7771 9.44208C16.6678 9.48721 16.5507 9.51029 16.4324 9.51H15.7574C15.5189 9.50931 15.2904 9.41426 15.1218 9.24563C14.9531 9.077 14.8581 8.84848 14.8574 8.61V7.725H10.6274L13.3049 11.475C13.4146 11.6281 13.4736 11.8117 13.4736 12C13.4736 12.1883 13.4146 12.3719 13.3049 12.525L10.6274 16.275H14.8574V15.39C14.8581 15.1515 14.9531 14.923 15.1218 14.7544C15.2904 14.5857 15.5189 14.4907 15.7574 14.49H16.4324C16.5507 14.4897 16.6678 14.5128 16.7771 14.5579C16.8865 14.603 16.9858 14.6693 17.0694 14.753C17.1531 14.8366 17.2193 14.9359 17.2645 15.0452C17.3096 15.1546 17.3327 15.2717 17.3324 15.39V17.85C17.3327 17.9683 17.3096 18.0854 17.2645 18.1948C17.2193 18.3041 17.1531 18.4034 17.0694 18.487C16.9858 18.5707 16.8865 18.637 16.7771 18.6821C16.6678 18.7272 16.5507 18.7503 16.4324 18.75H7.56738C7.40164 18.7504 7.23901 18.705 7.09739 18.6189C6.95577 18.5328 6.84063 18.4093 6.76466 18.262C6.68868 18.1147 6.6548 17.9493 6.66675 17.784C6.6787 17.6187 6.73601 17.4598 6.83238 17.325L10.6424 12L6.83238 6.675C6.73601 6.54015 6.6787 6.38134 6.66675 6.21603C6.6548 6.05072 6.68868 5.88532 6.76466 5.73801C6.84063 5.59071 6.95577 5.46722 7.09739 5.38112C7.23901 5.29502 7.40164 5.24965 7.56738 5.25H16.4324C16.5507 5.24971 16.6678 5.27279 16.7771 5.31792C16.8865 5.36305 16.9858 5.42933 17.0694 5.51296C17.1531 5.59659 17.2193 5.69592 17.2645 5.80524C17.3096 5.91457 17.3327 6.03173 17.3324 6.15V8.61Z" fill="#171A21"/>
</g>
<defs>
<clipPath id="clip0_486_34770">
<rect width="24" height="24" fill="white"/>
</clipPath>
</defs>
</svg>
