<svg width="33" height="32" viewBox="0 0 33 32" fill="none" xmlns="http://www.w3.org/2000/svg">
<circle cx="16.3252" cy="16" r="16" fill="white"/>
<circle cx="16.3252" cy="16" r="16" fill="url(#paint0_linear_1656_5859)" fill-opacity="0.2"/>
<circle cx="16.3252" cy="16" r="12" fill="#02CAB3"/>
<path d="M15.8054 23.2C14.8721 23.2 14.0654 23.0867 13.3854 22.86C12.7054 22.6333 12.1388 22.34 11.6854 21.98C11.2454 21.6067 10.9121 21.2067 10.6854 20.78C10.4588 20.34 10.3388 19.9067 10.3254 19.48C10.3254 19.36 10.3654 19.2667 10.4454 19.2C10.5388 19.12 10.6454 19.08 10.7654 19.08H12.5654C12.6988 19.08 12.8121 19.1067 12.9054 19.16C12.9988 19.2133 13.0788 19.32 13.1454 19.48C13.2654 19.84 13.4588 20.1267 13.7254 20.34C14.0054 20.5533 14.3254 20.7067 14.6854 20.8C15.0454 20.88 15.4254 20.92 15.8254 20.92C16.6254 20.92 17.2588 20.7333 17.7254 20.36C18.2054 19.9733 18.4454 19.4267 18.4454 18.72C18.4454 18.0133 18.2254 17.5067 17.7854 17.2C17.3454 16.88 16.7321 16.72 15.9454 16.72H13.8854C13.7388 16.72 13.6188 16.68 13.5254 16.6C13.4321 16.5067 13.3854 16.3867 13.3854 16.24V15.4C13.3854 15.2667 13.4121 15.1533 13.4654 15.06C13.5321 14.9533 13.5988 14.8667 13.6654 14.8L17.2454 11.3H11.5254C11.3788 11.3 11.2588 11.2533 11.1654 11.16C11.0854 11.0667 11.0454 10.9533 11.0454 10.82V9.5C11.0454 9.35333 11.0854 9.23333 11.1654 9.14C11.2588 9.04667 11.3788 9 11.5254 9H20.1054C20.2521 9 20.3721 9.04667 20.4654 9.14C20.5588 9.23333 20.6054 9.35333 20.6054 9.5V10.7C20.6054 10.82 20.5788 10.9267 20.5254 11.02C20.4721 11.1133 20.4121 11.1933 20.3454 11.26L16.8854 14.82L17.1254 14.84C17.9388 14.9067 18.6588 15.0933 19.2854 15.4C19.9254 15.6933 20.4188 16.1267 20.7654 16.7C21.1254 17.2733 21.3054 17.9933 21.3054 18.86C21.3054 19.7667 21.0654 20.5467 20.5854 21.2C20.1188 21.84 19.4721 22.3333 18.6454 22.68C17.8188 23.0267 16.8721 23.2 15.8054 23.2Z" fill="white"/>
<defs>
<linearGradient id="paint0_linear_1656_5859" x1="16.3252" y1="0" x2="16.3252" y2="32" gradientUnits="userSpaceOnUse">
<stop stop-color="#4F5F7A" stop-opacity="0.7"/>
<stop offset="1" stop-color="#4F5F7A" stop-opacity="0.08"/>
</linearGradient>
</defs>
</svg>
