<svg width="32" height="32" viewBox="0 0 32 32" fill="none" xmlns="http://www.w3.org/2000/svg">
<path d="M29.0007 7.94689C28.0444 8.35939 27.0038 8.65626 25.9319 8.77189C27.0448 8.11075 27.8782 7.06626 28.2757 5.83439C27.2314 6.4556 26.0874 6.89121 24.8944 7.12189C24.3958 6.58885 23.7928 6.1642 23.1229 5.87441C22.453 5.58462 21.7306 5.4359 21.0007 5.43751C18.0476 5.43751 15.6726 7.83126 15.6726 10.7688C15.6726 11.1813 15.7226 11.5938 15.8038 11.9906C11.3819 11.7594 7.43818 9.64689 4.81631 6.41251C4.33858 7.2285 4.08823 8.15759 4.09131 9.10314C4.09131 10.9531 5.03193 12.5844 6.46631 13.5438C5.62101 13.5105 4.7955 13.2781 4.05693 12.8656V12.9313C4.05693 15.5219 5.88818 17.6688 8.32881 18.1625C7.87055 18.2815 7.39914 18.3424 6.92568 18.3438C6.57881 18.3438 6.25068 18.3094 5.91943 18.2625C6.59443 20.375 8.56006 21.9094 10.9007 21.9594C9.06943 23.3938 6.77568 24.2375 4.28506 24.2375C3.83818 24.2375 3.42568 24.2219 2.99756 24.1719C5.36006 25.6875 8.16318 26.5625 11.1819 26.5625C20.9819 26.5625 26.3444 18.4438 26.3444 11.3969C26.3444 11.1656 26.3444 10.9344 26.3288 10.7031C27.3663 9.94376 28.2757 9.00314 29.0007 7.94689Z" fill="white"/>
</svg>
