<svg width="17" height="16" viewBox="0 0 17 16" fill="none" xmlns="http://www.w3.org/2000/svg">
<path d="M8.5 1.33325V5.99992L9.83333 4.66659" stroke="#02CAB3" stroke-width="1.5" stroke-linecap="round" stroke-linejoin="round"/>
<path d="M8.49984 6.00008L7.1665 4.66675" stroke="#02CAB3" stroke-width="1.5" stroke-linecap="round" stroke-linejoin="round"/>
<path d="M1.81982 8.66675H4.75982C5.01316 8.66675 5.23982 8.80675 5.35316 9.03341L6.13316 10.5934C6.35982 11.0467 6.81982 11.3334 7.32649 11.3334H9.67983C10.1865 11.3334 10.6465 11.0467 10.8732 10.5934L11.6532 9.03341C11.7665 8.80675 11.9998 8.66675 12.2465 8.66675H15.1532" stroke="#02CAB3" stroke-width="1.5" stroke-linecap="round" stroke-linejoin="round"/>
<path d="M5.16683 2.75342C2.80683 3.10008 1.8335 4.48675 1.8335 7.33342V10.0001C1.8335 13.3334 3.16683 14.6668 6.50016 14.6668H10.5002C13.8335 14.6668 15.1668 13.3334 15.1668 10.0001V7.33342C15.1668 4.48675 14.1935 3.10008 11.8335 2.75342" stroke="#02CAB3" stroke-width="1.5" stroke-linecap="round" stroke-linejoin="round"/>
</svg>
