<svg width="48" height="48" viewBox="0 0 48 48" fill="none" xmlns="http://www.w3.org/2000/svg">
<circle cx="24" cy="24" r="24" fill="#323948"/>
<g clip-path="url(#clip0_1444_5792)">
<path d="M24.442 7.00013C22.2306 6.9918 20.1053 7.85724 18.5288 9.40811C16.9523 10.959 16.0521 13.0698 16.0241 15.2811C15.9962 17.4924 16.8427 19.6252 18.3795 21.2154C19.9164 22.8057 22.0191 23.7246 24.23 23.7721C24.3591 23.7544 24.49 23.7544 24.619 23.7721H24.743C26.9486 23.7051 29.0389 22.7717 30.561 21.1742C32.0831 19.5766 32.9144 17.4437 32.8748 15.2375C32.8352 13.0313 31.9279 10.9295 30.3494 9.38767C28.771 7.8458 26.6486 6.98799 24.442 7.00013Z" fill="#AEB9CB"/>
<path d="M33.42 29.266C28.489 25.979 20.448 25.979 15.482 29.266C14.4701 29.8498 13.621 30.6784 13.0126 31.6757C12.4042 32.673 12.056 33.8071 12 34.974C12.0547 36.1343 12.4007 37.262 13.0061 38.2533C13.6115 39.2446 14.4568 40.0675 15.464 40.646C18.1503 42.3313 21.2693 43.1979 24.44 43.14C27.6121 43.1987 30.7325 42.3321 33.42 40.646C34.4287 40.0603 35.2744 39.2308 35.8796 38.2336C36.4848 37.2364 36.8301 36.1033 36.884 34.938C36.8255 33.7787 36.4779 32.6524 35.8729 31.6618C35.2679 30.6711 34.4246 29.8475 33.42 29.266Z" fill="#AEB9CB"/>
</g>
<defs>
<clipPath id="clip0_1444_5792">
<rect width="24.884" height="36.14" fill="white" transform="translate(12 7)"/>
</clipPath>
</defs>
</svg>
