<svg width="219" height="160" viewBox="0 0 219 160" fill="none" xmlns="http://www.w3.org/2000/svg">
<path fill-rule="evenodd" clip-rule="evenodd" d="M23.7423 142.587C40.2116 160.514 103.899 150.217 145.834 150.217C163.925 150.217 224.637 159.284 199.566 97.0139C117.365 -107.159 -28.4407 85.7843 23.7423 142.587Z" fill="#64FCD9"/>
<path fill-rule="evenodd" clip-rule="evenodd" d="M24.0093 142.13C40.4785 160.057 104.166 149.76 146.101 149.76C164.192 149.76 224.904 158.827 199.833 96.5569C117.632 -107.616 -28.1737 85.3273 24.0093 142.13Z" fill="#EFFEFB"/>
<path fill-rule="evenodd" clip-rule="evenodd" d="M96.6114 144.029C96.6915 143.968 96.7754 143.901 96.8102 143.807C96.922 143.503 96.4835 143.301 96.16 143.308C95.6906 143.319 95.0886 143.635 95.2323 144.082C95.3155 144.341 95.634 144.461 95.9015 144.413C96.1691 144.365 96.3959 144.195 96.6114 144.029H96.6114ZM98.007 138.706C98.3615 138.817 98.7115 138.954 99.0202 139.161C99.5999 139.549 99.9944 140.152 100.373 140.738C100.644 141.158 100.919 141.586 101.055 142.068C101.201 142.589 101.175 143.146 101.077 143.679C100.771 145.338 99.7469 146.852 98.3207 147.754C96.8946 148.656 95.0876 148.932 93.4573 148.497C93.14 148.412 92.8204 148.296 92.5763 148.077C92.3712 147.892 92.2329 147.646 92.1064 147.401C91.4423 146.113 90.9947 144.683 91.0458 143.235C91.097 141.787 91.6921 140.322 92.8194 139.412C94.234 138.271 96.2724 138.162 98.007 138.706" fill="white"/>
<path fill-rule="evenodd" clip-rule="evenodd" d="M172.877 59.9468C172.1 59.937 171.371 60.5888 171.294 61.3623C171.262 61.6784 171.396 62.0714 171.711 62.1149C171.947 62.1476 172.154 61.9654 172.312 61.7878C172.648 61.412 172.936 60.9941 173.167 60.547C173.245 60.397 173.314 60.2045 173.211 60.07C173.137 59.9719 173 59.9483 172.877 59.9468ZM172.541 56.4782C173.644 56.8634 174.645 57.5407 175.412 58.4226C176.072 59.1805 176.574 60.1644 176.435 61.1596C176.385 61.5249 176.25 61.8733 176.096 62.2085C175.514 63.4784 174.513 64.6954 173.137 64.9413C172.416 65.0703 171.672 64.9157 170.979 64.6797C170.176 64.4067 169.411 64.0238 168.712 63.5451C168.341 63.2912 167.972 62.9898 167.81 62.5707C167.698 62.2818 167.694 61.9637 167.698 61.6539C167.709 60.8877 167.76 60.1085 168.027 59.3902C168.365 58.4815 169.026 57.7314 169.727 57.0619C170.009 56.7927 170.308 56.5274 170.671 56.3831C171.263 56.147 171.938 56.2681 172.541 56.4782Z" fill="white"/>
<path fill-rule="evenodd" clip-rule="evenodd" d="M172.878 1.19584C177.445 5.90581 181.05 11.5378 183.41 17.6499C183.572 18.0697 183.729 18.5361 183.574 18.9586C182.384 22.2123 180.086 24.9249 177.834 27.5624C176.394 29.2478 174.955 30.9331 173.515 32.6185C172.141 34.2274 170.767 35.8366 169.346 37.4051C162.114 45.391 153.567 52.3741 143.669 56.6706C143.295 56.8328 142.895 56.9945 142.492 56.9297C142.09 56.8649 141.713 56.4758 141.818 56.0837C143.042 51.5265 144.274 46.7619 143.292 42.147C143.055 41.0338 142.791 39.6323 143.714 38.9625C151.19 33.5394 156.572 25.7878 161.73 18.1415C163.027 16.2189 164.321 14.2909 165.469 12.2763C167.506 8.69937 169.076 4.85799 170.125 0.880072C170.269 0.3342 170.96 0.0883933 171.508 0.231447C172.056 0.374501 172.484 0.789912 172.878 1.19584" fill="white"/>
<path fill-rule="evenodd" clip-rule="evenodd" d="M30.4479 19.4935C31.1904 26.2062 33.2571 32.7699 36.4943 38.6971C38.4987 42.367 40.9368 45.7793 43.3683 49.1812C45.0603 51.5485 46.8697 54.0156 49.5097 55.239C50.2117 55.5643 50.1138 56.5764 49.9254 57.3268C49.111 60.5703 48.7311 63.9226 48.7988 67.2661C48.8052 67.5819 48.8135 67.9094 48.6894 68.1999C48.2681 69.1862 46.8246 69.0219 45.8308 68.6185C39.6821 66.1224 34.9614 61.1028 30.5516 56.144C24.826 49.7056 19.1857 42.9845 15.8034 35.0603C15.5734 34.5216 15.3503 33.9546 15.3887 33.3702C15.4279 32.7746 15.7339 32.2333 16.0443 31.7235C19.1105 26.6874 23.3761 22.3871 28.3872 19.2802C28.7401 19.0614 29.117 18.8421 29.532 18.8277C29.9471 18.8133 30.4022 19.0807 30.4479 19.4935Z" fill="white"/>
<path fill-rule="evenodd" clip-rule="evenodd" d="M171.982 137.253C172.512 136.355 173.169 135.366 174.197 135.196C174.603 135.129 174.816 134.688 174.954 134.301C176.655 129.532 176.819 124.228 175.416 119.363C175.016 117.974 175.509 116.502 175.996 115.142C177.255 111.631 178.513 108.12 179.772 104.609C179.051 103.362 177.15 103.399 176.176 102.337C174.922 100.971 175.868 98.7991 176.849 97.2266C182.586 88.0396 188.323 78.8526 194.059 69.6656C194.762 68.5401 196.304 68.1873 197.597 68.4872C198.89 68.7871 199.993 69.6006 201.057 70.3947C205.24 73.5197 209.424 76.6446 213.608 79.7696C215.854 81.4468 218.332 83.5892 218.203 86.3889C218.132 87.9382 217.245 89.3153 216.388 90.6075C213.072 95.604 209.756 100.6 206.44 105.597C204.572 108.412 205.088 112.108 204.523 115.439C203.631 120.702 200.023 125.024 196.681 129.186C193.339 133.349 189.995 137.997 189.807 143.331C189.583 149.689 186.563 155.899 181.699 160C183.11 156.577 174.197 157.943 164.002 153.886C165.679 147.951 168.847 142.564 171.982 137.253Z" fill="white"/>
<path fill-rule="evenodd" clip-rule="evenodd" d="M60.0309 152.138C59.3952 151.618 59.1925 150.74 59.0802 149.924C57.7818 140.484 63.3579 131.165 62.3647 121.688C61.8528 116.804 59.6086 112.246 56.7846 108.238C54.8343 105.47 54.725 101.762 55.4526 98.4501C56.1801 95.1383 57.6479 92.0415 58.6378 88.7992C63.0401 74.3804 57.6834 58.9768 52.3873 44.8649C62.9406 39.7616 75.2555 40.75 86.9467 41.4414C98.6378 42.1328 111.211 42.1818 120.956 35.6526C122.291 49.7771 119.346 63.9173 116.418 77.7969C131.276 76.3494 146.134 74.9019 160.992 73.4543C161.419 73.4128 161.884 73.3808 162.239 73.6228C162.711 73.9455 162.783 74.6038 162.81 75.1772C163.505 89.8662 163.926 104.568 164.073 119.273C164.077 119.642 164.064 120.053 163.806 120.315C163.584 120.539 163.246 120.586 162.934 120.62C142.117 122.94 121.3 125.26 100.484 127.58C98.6836 127.78 96.1193 127.311 96.2247 125.494C96.6948 117.392 96.4204 109.246 95.4062 101.194C89.874 100.985 84.3042 101.829 79.0791 103.667C77.8937 104.084 76.4683 105.206 77.1077 106.292C81.3374 113.48 76.0876 124.284 81.8322 130.318C83.8075 132.393 83.671 135.656 83.2795 138.501C82.4404 144.597 81.0149 150.612 79.0293 156.434C79.9892 149.733 60.6175 155.731 60.0309 152.138Z" fill="white"/>
<path fill-rule="evenodd" clip-rule="evenodd" d="M0.489578 0.00972556C0.507362 0.152823 0.429933 0.303081 0.303079 0.371646C0.202053 0.270571 0.101026 0.169496 0 0.0684211C0.151451 0.0021799 0.323214 -0.0167139 0.485442 0.0150228L0.489578 0.00972556Z" fill="#00160A"/>
<path fill-rule="evenodd" clip-rule="evenodd" d="M97.6432 138.706C97.9978 138.817 98.3477 138.954 98.6565 139.161C99.2361 139.549 99.6306 140.152 100.009 140.738C100.28 141.158 100.556 141.586 100.691 142.068C100.838 142.589 100.811 143.146 100.713 143.679C100.407 145.338 99.3831 146.852 97.957 147.754C96.5308 148.656 94.7238 148.932 93.0936 148.497C92.7762 148.412 92.4566 148.296 92.2125 148.077C92.0074 147.892 91.8692 147.646 91.7427 147.401C91.0786 146.113 90.6309 144.683 90.6821 143.235C90.7332 141.787 91.3284 140.322 92.4556 139.412C93.8702 138.271 95.9087 138.162 97.6432 138.706M95.6553 147.325C96.5421 147.191 97.3225 146.612 97.8322 145.874C98.3418 145.135 98.6033 144.25 98.7289 143.362C98.8005 142.855 98.8071 142.274 98.4491 141.908C98.2348 141.688 97.9287 141.591 97.635 141.503C96.5325 141.173 95.2739 140.892 94.2864 141.483C93.5673 141.914 93.1664 142.711 92.8029 143.466C92.3773 144.35 92.4824 145.466 93.0657 146.256C93.649 147.045 94.685 147.473 95.6553 147.325V147.325Z" fill="#00160A"/>
<path fill-rule="evenodd" clip-rule="evenodd" d="M138.149 98.8765C138.165 98.6884 138.187 98.4865 138.312 98.3447C138.434 98.2059 138.625 98.1561 138.805 98.1142C143.438 97.0356 148.223 96.6137 152.973 96.8648C153.577 96.8968 154.355 97.1016 154.395 97.706C154.625 101.172 154.854 104.637 155.084 108.102C155.095 108.278 155.101 108.472 154.989 108.608C154.898 108.718 154.75 108.76 154.612 108.797C149.671 110.085 144.464 110.338 139.422 109.537C139.292 109.517 139.155 109.492 139.054 109.408C138.932 109.306 138.89 109.14 138.855 108.985C138.112 105.677 137.873 102.256 138.149 98.8765ZM139.242 104.625C139.333 105.934 139.607 107.23 140.055 108.463C140.501 108.527 140.943 108.62 141.387 108.695C145.219 109.344 149.138 108.691 152.969 108.039C153.241 107.993 153.539 107.932 153.707 107.713C153.878 107.489 153.856 107.178 153.825 106.898C153.693 105.704 153.561 104.51 153.429 103.316C153.418 103.219 153.404 103.116 153.339 103.044C153.26 102.957 153.131 102.943 153.014 102.936C150.291 102.756 147.559 102.959 144.838 103.163C143.334 103.275 141.83 103.387 140.327 103.499C139.973 103.526 139.572 103.578 139.368 103.868C139.219 104.082 139.224 104.365 139.242 104.625ZM139.284 99.6307C139.046 100.394 139.003 101.217 139.161 102.001C139.189 102.142 139.229 102.29 139.336 102.386C139.495 102.529 139.736 102.505 139.947 102.474C142.509 102.099 145.099 101.912 147.689 101.917C148.054 101.917 148.166 101.426 148.162 101.06C148.156 100.525 148.151 99.9897 148.145 99.4545C148.141 99.1448 148.126 98.8036 147.914 98.5778C147.659 98.3065 147.233 98.315 146.862 98.3433C146.004 98.4088 145.146 98.4744 144.288 98.5399C143.878 98.5713 142.789 98.85 142.289 98.883C141.418 99.0219 140.547 99.1609 139.676 99.2999C139.583 99.3147 139.485 99.3318 139.414 99.3929C139.344 99.4523 139.311 99.5433 139.284 99.6307ZM150.772 101.959C151.452 101.968 152.134 101.9 152.8 101.757C152.958 101.723 153.125 101.679 153.238 101.563C153.404 101.392 153.402 101.125 153.39 100.887C153.355 100.197 153.32 99.507 153.285 98.8169C153.272 98.5707 153.244 98.2935 153.052 98.1394C152.883 98.0039 152.644 98.012 152.428 98.0267C151.67 98.0782 150.913 98.1298 150.156 98.1813C150.036 98.1894 149.91 98.1995 149.81 98.2658C149.627 98.387 149.599 98.6408 149.594 98.8605C149.577 99.592 149.607 100.325 149.684 101.052C149.706 101.263 149.736 101.485 149.867 101.652C150.07 101.912 150.442 101.955 150.772 101.959Z" fill="#FFB61D"/>
<path fill-rule="evenodd" clip-rule="evenodd" d="M150.006 83.7323C151.018 83.2943 152.259 83.441 153.141 84.1028C154.024 84.7645 154.512 85.9157 154.374 87.0098C154.995 86.6746 155.781 86.3444 156.36 86.747C157.013 87.2016 156.864 88.1805 156.766 88.9705C156.594 90.3506 156.817 91.7775 157.4 93.04C157.641 93.5615 157.848 94.3527 157.313 94.563C157.223 94.5985 157.125 94.6067 157.028 94.6145C150.76 95.1197 144.492 95.6248 138.224 96.13C138.052 96.1438 137.859 96.1513 137.729 96.0381C137.596 95.9225 137.58 95.7258 137.573 95.55C137.512 94.0756 137.452 92.6012 137.392 91.1268C137.376 90.7314 137.368 90.3049 137.592 89.9781C137.962 89.4373 138.736 89.4389 139.383 89.3354C140.03 89.2318 140.782 88.686 140.533 88.0801C140.256 87.4046 141.201 86.9111 141.923 86.8012C142.645 86.6913 143.603 86.261 143.384 85.5642C143.145 84.8031 144.193 84.3306 144.984 84.2256C145.542 84.1515 146.125 84.0799 146.654 84.2713C147.184 84.4628 147.631 85.0077 147.512 85.5578C147.375 86.1876 148.143 86.7744 148.747 86.552C149.352 86.3295 149.597 85.5029 149.291 84.9358C149.041 84.4726 149.523 83.9413 150.006 83.7323ZM153.242 93.4481C153.008 93.0135 153.006 92.4959 153.004 92.0021C152.994 89.6831 152.852 87.3647 152.578 85.062C152.564 84.9458 152.542 84.8159 152.447 84.7478C152.365 84.6891 152.254 84.696 152.154 84.7054C151.664 84.7511 151.084 84.8594 150.89 85.3115C150.808 85.5044 150.818 85.7225 150.829 85.932C150.953 88.2562 151.077 90.5803 151.201 92.9045C151.213 93.121 151.242 93.3695 151.422 93.4905C151.52 93.5564 151.643 93.5687 151.761 93.5751C152.258 93.6022 152.758 93.5593 153.242 93.4481ZM144.812 89.8746C144.751 90.2618 144.666 90.6463 144.643 91.0375C144.605 91.6914 144.742 92.3414 144.879 92.9819C144.967 93.3926 145.498 93.5948 145.887 93.4365C146.276 93.2781 146.511 92.8631 146.576 92.4481C146.64 92.0331 146.565 91.6108 146.499 91.1961C146.239 89.5667 146.126 87.9138 146.163 86.2643C146.172 85.8468 145.765 85.4698 145.35 85.511C144.934 85.5522 144.609 86.0018 144.7 86.4093C144.954 87.5439 144.992 88.7262 144.812 89.8746ZM148.934 87.6487C148.69 87.3286 148.13 87.4991 147.939 87.8538C147.748 88.2085 147.807 88.6387 147.854 89.0386C147.977 90.083 147.989 91.1406 147.889 92.1875C147.859 92.4961 147.827 92.8331 147.997 93.0921C148.259 93.4906 148.834 93.487 149.309 93.4388C149.457 93.4236 149.628 93.3948 149.703 93.2654C149.755 93.1753 149.743 93.0634 149.729 92.9602C149.51 91.3359 149.292 89.7116 149.073 88.0873C149.052 87.9335 149.028 87.7721 148.934 87.6487ZM154.364 88.3467C154.179 88.5978 154.141 88.9246 154.125 89.2356C154.07 90.3017 154.211 91.3671 154.352 92.4254C154.408 92.8423 154.598 93.3782 155.018 93.3498C155.443 93.321 155.554 92.7521 155.544 92.3259C155.518 91.1971 155.492 90.0684 155.466 88.9396C155.459 88.6428 155.428 88.299 155.181 88.1333C154.923 87.9596 154.548 88.0956 154.364 88.3467ZM141.515 88.08C141.515 88.08 141.702 89.5531 141.767 90.3037C141.849 91.246 141.953 92.1863 142.08 93.1237C142.098 93.2598 142.123 93.4072 142.223 93.5009C142.397 93.6633 143.069 93.5554 143.193 93.352C143.316 93.1485 143.309 92.8945 143.299 92.6566C143.265 91.9043 143.23 91.1519 143.196 90.3995C143.16 89.593 142.968 87.8538 142.968 87.8538M139.079 93.414C139.133 93.5828 139.196 93.7594 139.333 93.8723C139.599 94.0926 140.031 93.9563 140.241 93.6817C140.451 93.4072 140.498 93.0455 140.538 92.7023C140.587 92.2811 140.635 91.8434 140.498 91.4418C140.362 91.0403 139.985 90.687 139.562 90.7243C139.174 90.7586 138.873 91.1136 138.782 91.4929C138.691 91.8723 138.768 92.2701 138.862 92.6486C138.926 92.906 138.999 93.1613 139.079 93.414Z" fill="#E7EAEE"/>
<path fill-rule="evenodd" clip-rule="evenodd" d="M164.489 33.0918C163.983 33.8515 163.434 34.621 162.651 35.09C161.868 35.5591 160.787 35.6505 160.084 35.069C159.307 34.4274 159.259 33.2709 159.321 32.2658C159.344 31.8788 159.375 31.4887 159.486 31.1171C159.679 30.4728 160.099 29.9229 160.537 29.413C161.069 28.7944 161.658 28.1977 162.396 27.8495C163.134 27.5014 164.05 27.4403 164.742 27.8734C165.569 28.3919 165.875 29.4947 165.719 30.4585C165.562 31.4223 165.031 32.2792 164.489 33.0918M162.882 33.8956C163.52 33.2159 164.067 32.451 164.505 31.6276C164.793 31.0858 165.038 30.4969 165.026 29.8835C165.015 29.27 164.691 28.6288 164.121 28.4012C163.379 28.1047 162.565 28.579 161.944 29.0829C161.503 29.4417 161.075 29.8352 160.792 30.3286C160.613 30.6406 160.497 30.9839 160.381 31.3246C160.163 31.9693 159.942 32.641 160.025 33.3164C160.108 33.9919 160.592 34.67 161.269 34.74C161.895 34.8047 162.451 34.3548 162.882 33.8956Z" fill="#FFB61D"/>
<path fill-rule="evenodd" clip-rule="evenodd" d="M34.1243 41.6778C34.9171 42.4808 35.5715 43.4201 36.0502 44.442C36.5314 45.469 36.0463 46.7889 35.1021 47.4172C34.1579 48.0455 32.8813 48.0373 31.846 47.5742C30.8107 47.1112 29.9971 46.247 29.3979 45.2841C28.9461 44.5582 28.5958 43.7446 28.5583 42.8904C28.5208 42.0362 28.8352 41.1372 29.511 40.6134C30.1945 40.0835 31.1555 40.0079 31.9821 40.2621C32.8087 40.5163 33.5167 41.0624 34.1243 41.6778ZM31.031 41.1895C30.345 41.1189 29.7356 41.7485 29.618 42.428C29.5003 43.1075 29.7593 43.7969 30.0945 44.3996C30.8213 45.7065 32.1181 46.8673 33.6118 46.795C34.3796 46.7579 35.2212 46.226 35.2075 45.4574C35.2016 45.125 35.0377 44.8184 34.8739 44.5291C34.4389 43.7606 33.969 43 33.3415 42.3787C32.7139 41.7574 31.9094 41.28 31.031 41.1895Z" fill="#FFB61D"/>
<path fill-rule="evenodd" clip-rule="evenodd" d="M94.069 142.775C94.6198 142.356 95.3047 142.085 95.9949 142.13C96.685 142.175 97.3681 142.57 97.6569 143.199C97.9667 143.873 97.7736 144.711 97.2902 145.275C96.8068 145.838 96.0783 146.149 95.3432 146.252C94.8415 146.322 94.2434 146.259 93.9687 145.833C93.8362 145.628 93.8061 145.375 93.7795 145.132C93.7316 144.696 93.6838 144.26 93.6359 143.823C93.6157 143.639 93.5961 143.447 93.6555 143.271C93.7255 143.064 93.895 142.907 94.069 142.775M96.2477 144.029C96.3277 143.968 96.4116 143.901 96.4465 143.806C96.5583 143.503 96.1198 143.301 95.7963 143.308C95.3268 143.319 94.7249 143.635 94.8686 144.082C94.9517 144.341 95.2703 144.461 95.5378 144.413C95.8054 144.365 96.0321 144.195 96.2477 144.029H96.2477Z" fill="#00160A"/>
<path fill-rule="evenodd" clip-rule="evenodd" d="M172.074 3.3215C176.365 7.76327 179.751 13.0746 181.968 18.8386C182.121 19.2345 182.268 19.6743 182.123 20.0728C181.005 23.1412 178.846 25.6993 176.73 28.1866L172.673 32.9548C171.382 34.4721 170.091 35.9897 168.756 37.4688C161.961 45 153.932 51.5854 144.632 55.6373C144.281 55.7902 143.905 55.9427 143.527 55.8816C143.149 55.8205 142.795 55.4536 142.894 55.0838C144.044 50.7861 145.201 46.2928 144.278 41.9407C144.056 40.8909 143.807 39.5692 144.675 38.9375C151.698 33.8233 156.755 26.5131 161.601 19.3022C162.819 17.489 164.035 15.6709 165.113 13.771C167.027 10.3977 168.502 6.77512 169.487 3.02372C169.622 2.50893 170.272 2.27712 170.787 2.41203C171.302 2.54694 171.704 2.93869 172.074 3.3215ZM169.071 8.83727C168.635 8.65693 168.233 9.14465 168.011 9.56093C167.77 10.0116 167.53 10.463 167.29 10.9148C162.844 19.2651 158.33 27.7436 151.556 34.3206C150.916 34.9421 150.2 35.6928 150.318 36.5771C150.696 39.4117 149.183 42.405 146.676 43.7812C145.538 44.406 145.552 46.0181 145.718 47.3056C145.785 47.8211 145.98 48.4672 146.498 48.5109C148.017 48.639 149.475 49.3868 150.465 50.546C150.778 50.9117 151.37 50.6831 151.777 50.4271C162.026 43.9841 169.9 34.4672 177.589 25.1167C177.854 24.7941 178.137 24.3876 177.998 23.9935C176.835 20.6792 177.021 16.9126 178.506 13.7294C177.63 11.9857 176.586 10.3265 175.392 8.78231C173.407 9.64432 171.071 9.66462 169.071 8.83727ZM144.762 53.9349C145.166 54.1466 145.656 53.9454 146.06 53.7342C147.123 53.1793 148.147 52.5496 149.122 51.8511C149.379 51.6665 149.456 51.2978 149.365 50.9943C149.274 50.6908 149.046 50.4461 148.793 50.2546C148.005 49.6565 146.904 49.4992 145.98 49.8528C145.809 49.9181 145.64 50.0034 145.522 50.1432C145.384 50.307 145.334 50.5251 145.29 50.7345C145.066 51.7928 144.89 52.861 144.762 53.9349ZM173.543 6.63033C172.847 5.26871 171.773 4.10266 170.473 3.29688C170.021 3.69547 169.933 4.30114 169.843 4.91861C169.782 5.34231 169.719 5.77156 169.538 6.14327C169.479 6.26418 169.407 6.37984 169.335 6.49524L169.335 6.49537L169.335 6.49552L169.335 6.49568C169.198 6.71565 169.061 6.93468 169.017 7.18729C168.95 7.57259 169.276 8.05596 169.646 7.92847C169.946 7.82482 170.261 7.8914 170.579 7.95855C170.747 7.99399 170.915 8.0296 171.083 8.04041C172.059 8.10341 172.869 7.33874 173.543 6.63033ZM179.063 14.7912C178.317 16.2751 178.435 18.0277 178.57 19.683L178.765 22.0568C178.786 22.3179 178.928 22.6702 179.18 22.5979C179.336 22.1606 179.634 21.7999 179.932 21.4382C180.193 21.1218 180.455 20.8047 180.623 20.435C181.192 19.183 180.56 17.7401 179.937 16.5137L179.063 14.7912ZM145.669 41.1389C145.7 41.6032 146.182 41.9508 146.647 41.9377C147.113 41.9247 147.532 41.6236 147.803 41.2459C148.075 40.8681 148.224 40.4182 148.369 39.9761L148.849 38.516C148.983 38.109 148.991 37.4866 148.565 37.4388C148.412 37.4215 148.265 37.5028 148.139 37.5924C147.662 37.9317 147.314 38.419 146.976 38.8968L146.054 40.1985C145.855 40.4809 145.646 40.7938 145.669 41.1389ZM35.7667 37.2419C32.5294 31.3147 30.4628 24.751 29.7202 18.0383C29.6746 17.6256 29.2194 17.3582 28.8044 17.3725C28.3893 17.3869 28.0125 17.6062 27.6595 17.825C22.6484 20.9319 18.3828 25.2323 15.3166 30.2684C15.0063 30.7782 14.7003 31.3195 14.6611 31.915C14.6226 32.4995 14.8458 33.0664 15.0757 33.6051C18.458 41.5294 24.0984 48.2505 29.8239 54.6888C34.2337 59.6477 38.9544 64.6673 45.1032 67.1633C46.0969 67.5667 47.5404 67.7311 47.9617 66.7448C48.0843 66.4578 48.0777 66.1349 48.0714 65.8227L48.0712 65.8109C48.0034 62.4674 48.3834 59.1151 49.1977 55.8716C49.3861 55.1212 49.484 54.1092 48.7821 53.7839C46.142 52.5604 44.3326 50.0934 42.6406 47.7261C40.2091 44.3241 37.7711 40.9118 35.7667 37.2419ZM41.4816 63.1509C41.1179 63.2479 40.7547 63.0186 40.451 62.7961C34.8548 58.6959 30.5181 53.1465 26.2571 47.6717L18.7377 38.0101C20.0069 37.2018 20.1681 35.4454 20.1957 33.9409C20.2317 31.9852 20.258 29.9716 19.5515 28.1476C19.3945 27.7422 19.5989 27.293 19.8178 26.9173C20.7567 25.3064 22.0587 23.9084 23.5991 22.8576C23.7482 22.7559 23.906 22.6548 24.0848 22.6296C24.5565 22.5629 24.9183 23.0217 25.1704 23.4259C26.166 25.0224 27.5342 26.8278 29.411 26.6964C30.1257 26.6463 30.522 27.4881 30.7305 28.1735C33.323 36.6966 38.1906 44.3841 43.8989 51.2236C44.6407 52.1124 44.8268 53.312 45.0112 54.5006C45.2169 55.8262 45.4204 57.1381 46.3901 57.9904C47.218 58.718 47.0643 60.0249 46.8409 61.1042C46.7952 61.3251 46.7408 61.5617 46.573 61.7124C46.4484 61.8244 46.28 61.871 46.1181 61.9142L41.4816 63.1509ZM28.2147 24.722C27.1882 24.0047 26.3014 23.088 25.6185 22.0383C25.4707 21.8112 25.3272 21.5567 25.3532 21.2871C25.3814 20.9939 25.602 20.7592 25.8215 20.5628C26.3635 20.0777 26.9761 19.6716 27.6339 19.3613C27.8748 19.2476 28.1859 19.1553 28.386 19.3311C28.5038 19.4346 28.541 19.5999 28.5718 19.7537L29.52 24.4959C29.576 24.7763 29.282 25.0288 28.9962 25.0369C28.7104 25.045 28.4491 24.8857 28.2147 24.722ZM18.8315 33.8941C18.8114 34.7861 18.7432 35.7872 18.0748 36.3781C17.9349 36.3947 17.842 36.2412 17.7871 36.1114C17.3055 34.9713 16.8172 33.8037 16.7414 32.5683C16.6655 31.333 17.0795 29.9952 18.089 29.2791C18.2256 29.1822 18.426 29.1022 18.5466 29.2185C18.595 29.2652 18.6157 29.333 18.6334 29.3979C18.9077 30.4062 18.8861 31.4681 18.8626 32.5128L18.8315 33.8941ZM46.0731 63.5641C46.2352 63.6968 46.2524 63.9341 46.2568 64.1435L46.305 66.4362C45.3645 65.9148 44.4635 65.3223 43.6121 64.6653C43.4507 64.5407 43.2733 64.339 43.3722 64.1607C43.4212 64.0723 43.5231 64.0296 43.618 63.9946C44.2266 63.7703 44.8558 63.6019 45.4951 63.4925C45.6928 63.4586 45.9179 63.4372 46.0731 63.5641ZM46.1272 54.5329C46.1186 54.4294 46.1186 54.3165 46.1801 54.2328C46.3425 54.0121 46.695 54.2119 46.844 54.442C47.2029 54.9961 47.2821 55.7218 47.0512 56.3403C46.5243 55.8886 46.1848 55.2245 46.1272 54.5329ZM186.219 37.1238C187.156 35.9433 188.865 35.7734 190.372 35.8102C190.724 35.8188 191.086 35.8358 191.407 35.9819C192.298 36.3883 192.488 37.5533 192.518 38.5326C192.545 39.4237 192.54 40.3264 192.324 41.1912C192.107 42.056 191.659 42.8892 190.943 43.42C190.621 43.6585 190.247 43.8324 189.852 43.8985C189.241 44.0008 188.616 43.8439 188.036 43.628C187.262 43.3401 186.529 42.9449 185.863 42.4571C185.538 42.2188 185.202 41.9068 185.192 41.5037C185.168 40.5743 185.272 39.6416 185.5 38.7404C185.646 38.1644 185.849 37.5892 186.219 37.1238ZM188.649 43.0036C189.853 43.3492 191.133 42.418 191.589 41.2518C192.045 40.0856 191.877 38.7758 191.626 37.549C191.53 37.078 191.026 36.8148 190.562 36.6889C189.844 36.494 189.081 36.4681 188.351 36.6141C187.988 36.6866 187.618 36.8108 187.363 37.0791C187.224 37.2253 187.128 37.4059 187.034 37.584L186.329 38.9167C186.205 39.151 186.08 39.3875 186.007 39.6425C185.789 40.405 186.077 41.2517 186.61 41.8395C187.142 42.4272 187.887 42.7848 188.649 43.0036ZM172.54 56.4781C173.644 56.8632 174.645 57.5405 175.412 58.4224C176.072 59.1803 176.574 60.1643 176.435 61.1594C176.385 61.5247 176.25 61.8731 176.096 62.2084C175.514 63.4782 174.512 64.6952 173.137 64.9411C172.416 65.0702 171.672 64.9156 170.978 64.6795C170.176 64.4065 169.411 64.0237 168.712 63.545C168.341 63.291 167.972 62.9897 167.81 62.5705C167.697 62.2817 167.694 61.9635 167.698 61.6537C167.709 60.8875 167.759 60.1083 168.027 59.3901C168.365 58.4813 169.026 57.7312 169.727 57.0617C170.009 56.7925 170.308 56.5272 170.671 56.3829C171.263 56.1468 171.938 56.2679 172.54 56.4781ZM173.669 63.1567C174.467 62.3675 174.931 61.2233 174.804 60.1083C174.678 58.9934 173.923 57.9471 172.868 57.5664C172.429 57.4082 171.943 57.3641 171.493 57.4884C171.251 57.5555 171.024 57.6697 170.811 57.8047C169.903 58.3825 169.265 59.3683 169.11 60.4338C168.955 61.4993 169.286 62.6258 169.992 63.4384C170.445 63.9588 171.183 64.1818 171.867 64.0954C172.551 64.009 173.179 63.6417 173.669 63.1567ZM72.9366 49.9052C72.8996 49.3795 72.1967 49.2417 71.6699 49.2572C68.9041 49.3385 66.142 49.5457 63.3951 49.878C62.9438 49.9326 62.9074 50.6601 63.2695 50.9349C63.6316 51.2097 64.136 51.1586 64.586 51.0945L72.9366 49.9052ZM64.0952 53.4602C64.119 53.1895 64.4592 53.0915 64.7293 53.0609L81.0196 51.2161C81.3142 51.1828 81.6281 51.1526 81.8932 51.2852C82.1583 51.4179 82.3292 51.7809 82.1561 52.0216C82.0285 52.199 81.7837 52.2351 81.5661 52.2562L64.9042 53.873C64.5577 53.9067 64.0647 53.807 64.0952 53.4602ZM100.615 56.2042C99.7041 56.4045 98.7687 56.0756 97.8946 55.749C95.0683 54.6927 92.253 53.6072 89.4491 52.4929C88.3173 52.043 87.0753 52.7167 86.0573 53.3854C83.1113 55.3207 80.275 57.4228 77.5663 59.6783C76.8706 60.2576 75.8 59.8512 75.0984 59.279C74.95 59.158 74.8039 59.0289 74.6574 58.8994C74.1109 58.4164 73.5573 57.9272 72.8505 57.8269C71.7638 57.6728 70.8079 58.4964 70.0205 59.2611L64.9429 64.1924C64.26 64.8556 63.5412 65.9176 64.149 66.6503C64.55 67.1337 65.2862 67.1091 65.9101 67.0368C69.1676 66.6591 72.409 66.1297 75.6493 65.6004C81.0048 64.7256 86.3571 63.8513 91.7738 63.6639C92.974 63.6224 94.1749 63.6147 95.3759 63.6071H95.3763C96.1284 63.6023 96.8805 63.5975 97.6324 63.5844C101.024 63.5253 104.413 63.2968 107.782 62.9C107.945 62.8808 108.13 62.8472 108.215 62.7066C108.278 62.6004 108.263 62.4665 108.245 62.3439L106.817 52.6346C106.745 52.1412 106.618 51.571 106.167 51.3579C105.712 51.1426 105.175 51.4202 104.802 51.7579C104.216 52.2864 103.766 52.9882 103.321 53.6806C102.592 54.8163 101.879 55.9266 100.615 56.2042ZM77.442 61.5168C80.4896 59.011 83.6674 56.6635 86.9582 54.4868C87.6339 54.0399 88.4553 53.5823 89.2105 53.8757L97.1902 56.9765C98.522 57.494 99.9786 58.0183 101.346 57.6034C102.935 57.1211 103.885 55.5396 104.686 54.0842C104.841 53.8012 105.294 53.8337 105.518 54.0663C105.743 54.2989 105.799 54.6411 105.846 54.9609L106.43 59.0099C106.519 59.6316 106.607 60.2768 106.428 60.8787C106.248 61.4806 105.72 62.0273 105.092 62.0152C94.8205 61.8169 84.529 62.6639 74.4279 64.5389C74.1155 64.5969 73.803 64.6559 73.4903 64.7149L73.489 64.7151L73.4889 64.7151C71.0759 65.1707 68.654 65.628 66.2016 65.6362C67.3858 63.9589 68.8863 62.5343 70.3763 61.1218C71.1944 60.3462 72.2173 59.5096 73.3157 59.7633C73.9088 59.9003 74.3637 60.3265 74.8164 60.7505L74.8165 60.7506C74.9616 60.8866 75.1065 61.0223 75.2556 61.1481C75.8698 61.6667 76.821 62.0274 77.442 61.5168ZM209.22 89.7618C208.947 89.8634 208.643 89.7939 208.366 89.7068C206.487 89.1163 204.962 87.7958 203.463 86.498L203.462 86.4973L203.456 86.4921L203.45 86.4868L203.449 86.4862L203.448 86.4856L203.448 86.485C203.25 86.3136 203.052 86.1426 202.854 85.9738C200.37 83.8549 197.675 81.9844 194.82 80.3992C194.53 80.2379 194.225 80.0681 194.047 79.7876C193.869 79.507 193.875 79.0799 194.149 78.8926C195.429 78.0187 196.259 76.5191 196.32 74.9705C196.336 74.5578 196.803 74.2827 197.214 74.3157C197.626 74.3488 197.985 74.5962 198.322 74.8353L211.364 84.0937C211.618 84.2739 211.892 84.4828 211.954 84.7879C212.005 85.0369 211.9 85.2887 211.795 85.5202C211.233 86.7614 210.586 87.9644 209.861 89.118C209.696 89.3793 209.509 89.654 209.22 89.7618ZM196.171 78.7788C196.018 79.0492 195.885 79.4403 196.133 79.6273L206.777 87.6411C207.36 88.08 208.265 88.4913 208.724 87.9241C209.251 87.2728 209.744 86.5934 210.198 85.8897C210.323 85.6971 210.449 85.4772 210.405 85.2523C210.364 85.0471 210.191 84.8981 210.029 84.7663C206.123 81.5991 201.987 78.7153 197.665 76.1447L196.171 78.7788ZM190.874 83.6792C191.046 83.3845 191.255 83.0619 191.588 82.9895C191.843 82.9341 192.103 83.0434 192.338 83.1575C193.619 83.7799 194.793 84.6234 195.792 85.6396C196.032 85.8841 196.062 86.2778 195.955 86.6034C195.848 86.9291 195.627 87.2032 195.411 87.4694C195.064 87.8971 194.694 88.3421 194.182 88.5451C193.629 88.7642 192.986 88.6585 192.462 88.3766C191.938 88.0947 191.518 87.6536 191.148 87.1883C190.665 86.5814 190.232 85.8535 190.307 85.0813C190.356 84.5754 190.618 84.1184 190.874 83.6792ZM193.116 87.0773C193.922 87.3907 194.437 87.1423 194.459 86.6137C194.472 86.2801 194.181 86.0233 193.916 85.8198L193.116 85.204C192.851 85.0005 192.559 84.7873 192.226 84.7894C191.892 84.7916 191.552 85.1358 191.689 85.4403C191.668 85.5874 192.31 86.7639 193.116 87.0773ZM189.934 93.584C190.131 93.6916 190.339 93.797 190.563 93.8017C190.787 93.8064 191.03 93.6795 191.085 93.4623C191.214 92.9524 191.552 92.5297 191.882 92.1159L191.925 92.0617L191.99 91.9805C192.351 91.5227 192.7 91.0041 192.71 90.4208C192.72 89.8374 192.237 89.2156 191.659 89.2953C191.203 89.358 190.78 89.0595 190.449 88.7402C190.397 88.6895 190.344 88.6375 190.292 88.5854L190.292 88.5847C190.015 88.3086 189.733 88.028 189.366 87.9083C188.929 87.7659 188.334 87.9924 188.299 88.4508C188.229 89.3741 187.462 90.0692 186.75 90.6613C186.537 90.8385 186.73 91.1786 186.929 91.3711C187.826 92.2384 188.84 92.9848 189.934 93.584ZM190.077 91.8248L188.675 90.8765C188.318 90.6354 188.347 90.0447 188.665 89.7545C188.982 89.4643 189.476 89.4421 189.882 89.5874C190.287 89.7327 190.624 90.0176 190.951 90.297C191.168 90.4819 191.198 90.8185 191.098 91.0855C190.999 91.3526 190.798 91.5665 190.601 91.7726C190.533 91.8431 190.458 91.9179 190.361 91.9303C190.259 91.9436 190.162 91.8829 190.077 91.8248ZM201.19 91.8874L201.875 90.431C202.085 89.9851 202.288 89.4332 202.005 89.03C201.907 88.89 201.762 88.7912 201.62 88.6956L199.126 87.015C198.857 86.8338 198.565 86.6454 198.241 86.6506C197.857 86.6567 197.535 86.931 197.262 87.2015C196.853 87.6067 196.471 88.0387 196.119 88.4939C195.851 88.8404 195.631 89.4105 195.997 89.6509L199.813 92.1546C200.114 92.3522 200.496 92.5552 200.813 92.3832C200.998 92.2823 201.1 92.0786 201.19 91.8874ZM200.344 90.8565C200.184 90.8934 200.017 90.8526 199.859 90.8052C198.896 90.5149 198.014 89.9589 197.337 89.2149C197.111 88.9673 197.239 88.5303 197.525 88.3568C197.811 88.1834 198.183 88.2233 198.492 88.3528C198.691 88.4365 198.874 88.5531 199.056 88.6698C199.156 88.7337 199.256 88.7977 199.359 88.8564C199.47 88.9194 199.585 88.9773 199.701 89.0351L199.701 89.0353C200.029 89.1997 200.357 89.3643 200.581 89.6487C200.884 90.0333 200.821 90.7469 200.344 90.8565ZM201.633 92.4832C202.073 92.3786 202.207 91.9302 202.347 91.4641C202.462 91.0789 202.581 90.6817 202.879 90.4564C203.392 90.0686 204.119 90.3927 204.672 90.7216L206.43 91.7674C206.71 91.934 206.997 92.1065 207.198 92.3631C207.398 92.6198 207.497 92.9833 207.357 93.2774C207.263 93.4738 207.085 93.604 206.907 93.7351C206.76 93.8426 206.613 93.9507 206.51 94.0965C206.378 94.2838 206.329 94.5185 206.28 94.7504C206.219 95.0414 206.159 95.3281 205.937 95.511C205.532 95.8444 204.931 95.5773 204.483 95.3039L202.007 93.7905C201.757 93.6378 201.493 93.4703 201.371 93.2044C201.248 92.9386 201.348 92.5509 201.633 92.4832ZM204.88 93.9858C205.234 93.8647 205.519 93.6017 205.793 93.3457C205.991 93.1602 205.726 92.8547 205.489 92.7215L203.972 91.8672C203.814 91.7781 203.594 91.6968 203.471 91.8307C203.076 92.262 203.018 92.9658 203.338 93.4554C203.658 93.9451 204.326 94.1748 204.88 93.9858ZM187.471 93.9329C187.131 93.8372 186.785 93.7396 186.508 93.5504C186.077 93.2567 185.477 93.3278 185.025 93.5875C184.573 93.8473 184.236 94.2635 183.909 94.6702C183.728 94.8959 183.542 95.1314 183.473 95.4123C183.404 95.6933 183.487 96.0339 183.739 96.1748L186.385 97.6496C186.586 97.7612 186.809 97.8767 187.033 97.8271C187.256 97.7776 187.41 97.5795 187.544 97.3947L188.225 96.458C188.604 95.9365 189 95.272 188.723 94.69C188.501 94.2234 187.993 94.0803 187.471 93.9329ZM186.633 96.3596C186.495 96.3962 186.352 96.3295 186.225 96.2646L184.422 95.3471C184.769 94.8567 185.428 94.6685 186.026 94.7279C186.623 94.7873 187.178 95.053 187.719 95.3145L186.89 96.1748C186.816 96.2519 186.737 96.3322 186.633 96.3596ZM174.145 59.6763C174.424 60.1019 174.337 60.6705 174.152 61.1446C173.908 61.7693 173.495 62.3482 172.913 62.6805C172.33 63.0129 171.565 63.0615 170.997 62.7043C170.43 62.3471 170.144 61.5527 170.449 60.955C170.519 60.8168 170.615 60.6943 170.711 60.5719L170.711 60.5717C170.803 60.4545 170.895 60.3372 170.964 60.2061C171.01 60.1198 171.046 60.0282 171.081 59.9367C171.132 59.8048 171.184 59.6732 171.265 59.5581C171.554 59.1489 172.123 59.0685 172.624 59.0756C173.192 59.0836 173.834 59.2011 174.145 59.6763ZM172.877 59.9466C172.1 59.9368 171.371 60.5886 171.294 61.3621C171.262 61.6782 171.396 62.0712 171.711 62.1147C171.947 62.1474 172.154 61.9652 172.312 61.7876C172.647 61.4118 172.935 60.9939 173.167 60.5468C173.245 60.3968 173.313 60.2043 173.211 60.0697C173.137 59.9717 173 59.9481 172.877 59.9466ZM191.467 39.6743C191.407 38.9626 190.931 38.2626 190.239 38.0843C189.361 37.8578 188.509 38.4763 187.812 39.0566C187.606 39.2283 187.39 39.4129 187.303 39.6666C187.154 40.0972 187.421 40.5509 187.684 40.9229C187.985 41.3489 188.306 41.7771 188.745 42.0587C189.184 42.3403 189.769 42.4496 190.23 42.2049C190.465 42.0802 190.647 41.8765 190.806 41.6632C191.232 41.0902 191.527 40.386 191.467 39.6743ZM189.519 41.4991C189.221 41.5438 188.912 41.4235 188.693 41.2171C188.365 40.9079 188.234 40.4108 188.349 39.9746C188.47 39.5153 188.855 39.136 189.317 39.0227C189.778 38.9094 190.295 39.0669 190.615 39.418C190.603 39.5136 190.593 39.6099 190.583 39.7062C190.549 40.0335 190.515 40.3614 190.402 40.6688C190.255 41.0668 189.938 41.4362 189.519 41.4991ZM165.87 152.518C167.49 146.787 170.549 141.586 173.576 136.458C174.087 135.591 174.721 134.636 175.714 134.472C176.106 134.407 176.312 133.981 176.446 133.608C178.087 129.003 178.245 123.882 176.891 119.185C176.505 117.844 176.981 116.422 177.452 115.109L181.097 104.939C180.718 104.284 180.001 103.995 179.275 103.704C178.667 103.459 178.053 103.213 177.625 102.746C176.414 101.427 177.327 99.3298 178.275 97.8115L194.892 71.2007C195.57 70.114 197.059 69.7733 198.307 70.0629C199.556 70.3525 200.621 71.138 201.648 71.9047L213.767 80.9563C215.935 82.5757 218.328 84.6442 218.203 87.3475C218.134 88.8433 217.278 90.173 216.45 91.4206L206.846 105.893C205.604 107.765 205.453 110.04 205.302 112.325C205.234 113.359 205.165 114.395 204.995 115.396C204.167 120.283 200.913 124.329 197.795 128.206C197.713 128.309 197.63 128.411 197.548 128.514L197.423 128.67C194.196 132.688 190.968 137.176 190.786 142.326C190.57 148.465 187.654 154.461 182.958 158.421L187.044 148.507C188.016 146.149 188.916 143.216 187.29 141.252C186.554 140.363 185.441 139.893 184.374 139.455L178.027 136.851C177.59 136.672 177.139 136.489 176.665 136.486C175.191 136.478 174.314 138.077 173.716 139.424C171.648 144.087 169.007 148.495 165.87 152.518ZM186.739 139.054C187.827 139.457 189.36 139.702 189.875 138.663C192.371 133.632 194.935 128.504 198.908 124.534C201.198 122.246 202.601 119.193 203.395 116.055C204.19 112.917 204.414 109.667 204.636 106.438C203.672 106.789 203.588 108.09 203.592 109.116C203.601 111.377 203.206 113.64 202.43 115.765C202.268 116.209 202.05 116.69 201.616 116.877C201.181 117.065 200.541 116.688 200.687 116.238C201.808 112.782 202.226 109.1 201.907 105.48C201.809 104.358 201.6 103.158 200.802 102.363C200.888 104.134 200.975 105.914 200.795 107.679C200.485 110.732 199.39 113.643 198.305 116.514C198.164 116.887 197.994 117.293 197.636 117.469C197.278 117.644 196.722 117.366 196.816 116.979L198.441 110.262C199.334 106.568 200.213 102.595 198.83 99.0559C198.133 99.0092 197.969 100.005 198.031 100.701C198.457 105.464 197.141 110.191 195.837 114.792C195.685 115.329 195.146 116.001 194.728 115.632C194.547 115.472 194.539 115.198 194.553 114.957C194.636 113.604 195.007 112.295 195.377 110.986L195.377 110.986L195.377 110.985C195.492 110.579 195.607 110.174 195.713 109.767C196.693 106.015 196.943 102.073 196.445 98.2274C195.586 99.3276 195.222 100.723 194.879 102.076L192.839 110.104C191.917 113.733 190.739 117.723 187.542 119.672C187.287 119.828 186.992 119.972 186.702 119.903C186.341 119.818 186.137 119.445 185.986 119.106C183.946 114.511 183.691 109.149 185.286 104.38C185.383 104.091 185.089 103.788 184.785 103.764C184.48 103.74 184.195 103.906 183.946 104.082C181.329 105.929 180.326 109.275 179.493 112.368L178.386 116.482C178.224 117.083 178.062 117.689 178.028 118.31C177.977 119.254 178.223 120.178 178.469 121.097C178.525 121.31 178.582 121.523 178.635 121.736C179.7 126.009 179.219 130.651 177.3 134.615C177.017 135.2 177.764 135.731 178.373 135.957L186.739 139.054ZM190.875 99.7971C190.438 99.4964 189.971 99.1532 189.836 98.6406C189.629 97.8547 190.377 97.0652 191.183 96.9594C191.989 96.8537 192.777 97.2427 193.445 97.7059C194.386 98.3583 195.577 97.3634 196.281 96.4608C195.331 95.8924 194.424 95.0101 194.387 93.9036C194.349 92.797 195.695 91.743 196.59 92.3943C196.938 92.647 197.358 92.8016 197.774 92.9546C198.396 93.1837 199.008 93.4089 199.35 93.9543C199.739 94.5746 199.6 95.4133 199.205 96.0291C198.81 96.645 198.201 97.087 197.606 97.5142C198.46 97.5987 199.29 97.9029 199.996 98.3894L200.765 96.1477C200.825 95.9738 200.89 95.7919 201.027 95.6691C201.29 95.4325 201.701 95.5057 202.038 95.6129C202.924 95.894 203.793 96.3329 204.378 97.0553C204.962 97.7778 205.206 98.8272 204.797 99.662C204.389 100.497 203.236 100.942 202.454 100.439C202.292 100.334 202.129 100.195 201.967 100.055C201.531 99.6818 201.096 99.3087 200.675 99.6074C201.959 100.607 202.841 102.109 203.088 103.717C207.129 97.5612 211.127 91.3772 215.081 85.1654C215.458 84.5725 215.762 83.6378 215.148 83.2969C212.522 81.8402 210.201 79.8893 207.886 77.943C204.963 75.4863 202.049 73.0371 198.542 71.5988C198.32 71.5075 198.076 71.4192 197.844 71.4805C197.6 71.5448 197.428 71.7569 197.275 71.9571C190.745 80.4807 184.884 89.5172 179.764 98.9558C179.05 100.273 180.006 101.842 180.92 103.029C181.377 103.622 182.259 104.248 182.757 103.689C183.385 102.985 184.415 102.583 185.304 102.897C186.194 103.212 186.747 104.368 186.264 105.178C185.914 105.764 186.599 106.415 187.197 106.743C188.393 107.398 189.619 107.997 190.871 108.536C191.045 108.611 191.247 108.685 191.417 108.6C191.578 108.519 191.644 108.327 191.694 108.154L193.081 103.382C193.309 102.597 193.462 101.579 192.789 101.115L190.875 99.7971ZM215.683 86.4205C215.499 86.3574 215.331 86.5416 215.222 86.7035L204.839 102.247C204.559 102.665 204.273 103.1 204.192 103.596C204.11 104.092 204.293 104.669 204.744 104.89C205.492 105.256 206.274 104.487 206.754 103.807L216.402 90.1335C217.118 89.1182 216.512 87.7302 215.899 86.6495C215.846 86.5561 215.785 86.4554 215.683 86.4205ZM186.447 107.177C186.265 107.044 185.991 107.123 185.838 107.289C185.685 107.456 185.623 107.684 185.565 107.903C185.423 108.441 185.281 108.984 185.259 109.541C185.238 110.097 185.339 110.65 185.44 111.197L186.435 116.602C186.476 116.829 186.525 117.069 186.686 117.235C186.846 117.4 187.159 117.436 187.29 117.245C188.761 115.093 190.254 112.898 191.024 110.407C191.119 110.097 191.147 109.662 190.844 109.548C189.281 108.96 187.797 108.16 186.447 107.177ZM197.931 93.8405C197.432 93.3658 196.773 93.0626 196.089 92.9927C195.464 92.929 195.104 93.806 195.389 94.365C195.674 94.924 196.304 95.201 196.886 95.4345C197.297 95.5993 197.796 95.7546 198.154 95.4944C198.669 95.1204 198.392 94.2796 197.931 93.8405ZM193.831 100.104C194.034 99.9594 194.061 99.6638 194.004 99.421C193.79 98.5061 192.786 98.0387 191.886 97.7707C191.537 97.667 191.104 97.5948 190.858 97.8628C190.653 98.0866 190.697 98.4571 190.874 98.7038C191.051 98.9504 191.327 99.1025 191.595 99.2464L192.986 99.9957C193.25 100.138 193.586 100.278 193.831 100.104ZM201.747 96.8065C201.452 97.2008 201.482 97.7743 201.728 98.2008C201.974 98.6273 202.399 98.9235 202.848 99.1251C203.002 99.1943 203.171 99.2551 203.337 99.2221C203.479 99.1938 203.601 99.0978 203.688 98.9816C204.009 98.5522 203.853 97.9053 203.485 97.5153C203.117 97.1252 202.593 96.9298 202.089 96.747C202.002 96.7155 201.9 96.685 201.821 96.7326C201.791 96.7507 201.768 96.7783 201.747 96.8065ZM62.2265 132.556C62.4191 131.132 62.689 129.566 63.8074 128.664C64.6992 127.945 65.9235 127.831 67.0687 127.809C70.8204 127.736 74.584 128.346 78.1214 129.598C79.2404 129.994 80.4116 130.515 81.0234 131.533C81.6858 132.634 81.5243 134.023 81.3412 135.295L78.5001 155.032C80.4591 149.316 81.8655 143.411 82.6934 137.425C83.0797 134.633 83.2144 131.429 81.2655 129.392C78.2233 126.213 78.3063 121.684 78.3907 117.08C78.4635 113.105 78.5373 109.075 76.6042 105.806C75.9734 104.739 77.3797 103.638 78.5492 103.229C83.7044 101.424 89.1997 100.595 94.6579 100.801C95.6585 108.706 95.9292 116.703 95.4654 124.657C95.3614 126.441 97.8914 126.901 99.6675 126.704L161.282 119.872C161.59 119.838 161.924 119.792 162.142 119.572C162.397 119.315 162.41 118.911 162.406 118.549C162.261 104.113 161.845 89.6799 161.16 75.2593C161.133 74.6964 161.062 74.0501 160.596 73.7333C160.247 73.4957 159.787 73.5272 159.367 73.5679L115.389 77.8312C118.278 64.2052 121.183 50.3234 119.865 36.457C110.252 42.8668 97.8463 42.8188 86.3115 42.14C85.8321 42.1118 85.3517 42.0831 84.8703 42.0543C73.7698 41.3909 62.1939 40.6991 52.2146 45.5009C57.4398 59.3549 62.7248 74.4771 58.3814 88.6323C57.9972 89.8847 57.54 91.1149 57.083 92.3445C56.3783 94.2403 55.6742 96.1348 55.2388 98.1069C54.5209 101.358 54.6288 104.999 56.553 107.716C59.3392 111.651 61.5534 116.125 62.0584 120.92C62.5377 125.47 61.4668 129.983 60.3972 134.491C59.2796 139.2 58.1634 143.905 58.8179 148.64C58.9287 149.441 59.1287 150.303 59.7559 150.814L62.2265 132.556ZM66.5858 75.3767C67.7509 75.4179 68.2141 76.8807 68.3631 78.037L69.5428 87.1936C67.2394 85.9994 63.999 88.0264 64.0651 90.6201C62.1242 86.8737 61.8294 82.5803 61.5374 78.3303C61.4739 77.4057 61.4106 76.4832 61.3304 75.5688C60.4735 65.7908 57.5267 56.3331 54.598 46.9647C54.1804 45.6289 55.9842 44.7626 57.369 44.5596C66.4565 43.2272 75.6539 43.4112 84.8555 43.5952C89.0263 43.6786 93.1981 43.7621 97.3609 43.7043C104.758 43.6017 112.584 42.9017 118.584 38.5747C119.933 47.5649 118.1 56.6354 116.29 65.5917C116.045 66.8032 115.801 68.0126 115.565 69.2195C113.584 79.3481 112.235 90.1444 116.026 99.7438C116.185 100.148 115.641 100.453 115.215 100.542C112.098 101.192 108.875 101.332 105.713 100.955C104.356 100.793 103.014 100.537 101.672 100.281C100.661 100.089 99.6499 99.8959 98.6325 99.7432C90.9736 98.594 82.9793 99.7868 75.9894 103.122C75.7093 103.255 75.3761 103.193 75.0827 103.091C73.6671 102.601 72.6572 101.293 72.1533 99.8826C71.6495 98.4718 71.5773 96.9492 71.5101 95.4526L71.2282 89.176C71.218 88.9505 71.2771 88.6442 71.5028 88.6372C83.7473 88.2547 95.978 87.4292 108.163 86.1629C107.648 83.28 107.597 80.3146 108.012 77.4156C108.274 75.5856 106.553 73.9169 104.721 73.672C102.888 73.4271 101.076 74.2572 99.5545 75.3074C98.9853 75.7003 98.4387 76.127 97.8925 76.5535C96.9786 77.2671 96.0655 77.9799 95.0488 78.5324C94.3833 78.894 93.5831 79.1856 92.8843 78.8936C92.0291 78.5362 91.7424 77.5188 91.4865 76.6107C91.4704 76.5536 91.4544 76.497 91.4384 76.4409C91.1049 75.2713 90.5543 74.1073 89.5857 73.3718C88.6171 72.6362 87.1557 72.4529 86.1996 73.2048C85.3823 73.8475 85.1238 74.9606 84.9869 75.9914C84.9747 76.0831 84.9629 76.1753 84.951 76.2678C84.8296 77.2155 84.7042 78.195 84.1385 78.955C83.5177 79.7892 82.1324 80.1467 81.4515 79.3608C80.1049 77.8066 77.742 77.4806 75.7592 78.0261C73.7764 78.5715 72.0798 79.8313 70.4347 81.0653C69.4423 79.5123 69.3602 77.421 70.2278 75.795L70.2423 75.7679C70.4055 75.4627 70.5928 75.1121 70.4486 74.8012C70.3593 74.6086 70.1623 74.4905 69.9672 74.4068C68.8005 73.9065 67.3099 74.3341 66.5858 75.3767ZM101.645 101.624C102.298 101.754 103.1 102.045 103.14 102.709C103.525 109.041 108.557 114.731 114.744 116.133C120.931 117.534 127.788 114.7 131.396 109.482C135.004 104.264 135.286 97.0145 132.328 91.4025C129.155 85.3839 121.446 82.1878 114.945 84.1964C114.644 82.8664 114.678 81.4617 115.043 80.1479C115.111 79.9039 115.2 79.6488 115.397 79.4895C115.589 79.3339 115.849 79.2985 116.095 79.269L134.406 77.0635C136.015 76.8696 137.629 76.6754 139.251 76.6621C146.223 76.6046 153.19 75.9094 160.037 74.5878C161.101 88.8727 161.601 103.2 161.537 117.524C161.534 118.203 161.327 119.106 160.648 119.126C149.124 119.462 137.691 120.978 126.253 122.494C118.568 123.513 110.882 124.532 103.164 125.194C101.444 125.341 99.7122 125.471 97.9935 125.307C97.682 125.278 97.3306 125.214 97.1613 124.951C97.0592 124.792 97.0477 124.594 97.0392 124.405L96.0117 101.493C95.9984 101.197 96.0163 100.841 96.2727 100.692C96.4426 100.593 96.6552 100.629 96.8478 100.667L101.645 101.624ZM70.117 96.3195C69.9349 97.5094 69.73 98.8482 70.5096 99.7486C73.4175 103.107 76.4384 106.695 77.2113 111.069C77.5722 113.112 77.4172 115.214 77.2628 117.308C77.0682 119.946 76.8747 122.57 77.7147 125.044C77.7366 125.109 77.7592 125.173 77.7819 125.238C77.9363 125.679 78.0936 126.129 78.0435 126.589C77.9861 127.118 77.5276 127.649 77.004 127.559L70.925 126.51C68.9118 126.163 66.785 125.825 64.8727 126.544C64.503 126.683 64.0774 126.439 63.8793 126.097C63.6812 125.756 63.6552 125.344 63.638 124.95C63.6172 124.473 63.6017 123.994 63.5861 123.512C63.4879 120.486 63.3878 117.403 61.9871 114.751L57.5178 106.291C56.8581 105.042 56.1829 103.738 56.1373 102.326C56.1069 101.383 56.3614 100.457 56.6138 99.5483L58.8433 91.5171C59.3127 89.8263 59.8093 88.0817 60.9209 86.724C63.6214 91.3055 63.8879 97.2327 61.6094 102.038C61.3986 102.483 62.0425 102.94 62.5015 102.763C62.9605 102.586 63.1935 102.083 63.3554 101.619C64.0035 99.7576 64.2307 97.7957 64.4583 95.8309C64.6425 94.2412 64.8268 92.6497 65.2345 91.1084C65.4842 90.1641 65.8445 89.2001 66.5736 88.5502C67.3028 87.9003 68.492 87.6778 69.2561 88.2863C69.8408 88.7519 70.0309 89.5477 70.1421 90.2868C70.4356 92.237 70.4342 94.2313 70.1381 96.1811C70.1312 96.227 70.1241 96.2731 70.117 96.3195ZM80.6062 80.4642C81.5023 81.15 82.3799 81.8217 83.455 81.6973C84.8216 81.5392 85.6732 80.1324 86.0701 78.8152C86.1569 78.5269 86.2342 78.2319 86.3117 77.9362C86.5881 76.8808 86.8667 75.8172 87.5908 75.0232C87.8012 74.7924 88.1042 74.5777 88.4032 74.6681C88.6453 74.7414 88.7864 74.9866 88.8988 75.2132C89.0581 75.5344 89.2089 75.8609 89.3597 76.1876C89.7851 77.1088 90.2106 78.0304 90.8282 78.8309C91.6648 79.9152 92.9666 80.768 94.328 80.6189C95.5454 80.4854 96.4965 79.6234 97.4237 78.7831C97.6137 78.6109 97.8028 78.4396 97.9929 78.2756C100.226 76.35 103.134 75.2234 106.082 75.1422C105.684 76.1358 105.949 77.2196 106.209 78.2831C106.272 78.5392 106.334 78.7941 106.387 79.0462C106.803 81.0355 106.593 83.1511 105.793 85.0195L86.1064 86.5351C81.5106 86.8889 76.9032 87.243 72.2965 87.081C72.0056 87.0707 71.7071 87.0568 71.4394 86.9422C70.9338 86.7259 70.6335 86.1863 70.5246 85.6472C70.2806 84.4384 70.838 83.1795 71.682 82.2805C72.5261 81.3815 73.6285 80.7761 74.7112 80.1857C75.8378 79.5714 77.0887 78.9365 78.3449 79.1988C79.1808 79.3733 79.8992 79.9231 80.6062 80.4642ZM117.885 109.142C114.903 109.08 112.319 106.647 111.433 103.798C111.253 103.217 111.629 102.579 112.147 102.26C112.666 101.94 113.293 101.865 113.899 101.797L118.269 101.306C116.94 98.7228 115.993 95.9434 115.469 93.0862C115.422 92.827 115.379 92.5548 115.46 92.3043C115.604 91.8646 116.078 91.6332 116.517 91.4858C120.067 90.2926 124.33 91.7411 126.418 94.8509C128.506 97.9607 128.232 102.456 125.782 105.289C124.721 106.515 123.331 107.42 121.866 108.117C120.618 108.711 119.268 109.17 117.885 109.142ZM132.038 93.7887C132.569 95.5412 132.722 97.3844 132.795 99.2139C131.603 99.0334 130.4 98.931 129.194 98.9076C128.959 95.8303 126.911 93.05 124.218 91.5417C121.525 90.0335 118.275 89.7076 115.233 90.224C115.207 89.7902 115.128 89.3376 115.049 88.885C114.84 87.6905 114.631 86.496 115.404 85.6481C115.87 85.136 116.581 84.9311 117.262 84.8043C120.364 84.2264 123.672 84.8319 126.368 86.4713C129.064 88.1106 131.124 90.7687 132.038 93.7887ZM110.164 103.488C110.16 103.545 110.155 103.601 110.152 103.654C110.132 104.079 110.33 104.469 110.526 104.855C110.579 104.959 110.631 105.062 110.679 105.165C110.907 105.655 111.017 106.3 110.637 106.684C109.718 107.612 108.905 108.646 108.221 109.758C108.052 110.033 107.635 110.056 107.357 109.892C107.079 109.728 106.906 109.435 106.745 109.155C105.728 107.381 104.685 105.526 104.559 103.486C104.543 103.232 104.571 102.925 104.796 102.807C104.895 102.754 105.012 102.753 105.124 102.753L109.673 102.739C109.782 102.738 109.896 102.739 109.991 102.793C110.214 102.92 110.188 103.215 110.164 103.488Z" fill="#00160A"/>
<path d="M116.646 16.4004L102.615 30.5202L102.526 2.36922L116.646 16.4004Z" fill="#FE9A0C"/>
<g filter="url(#filter0_biiii_104_5905)">
<path d="M117.947 23.1596L97.4089 2.7507L86.184 14.0465L86.2347 14.0969C81.5933 19.7981 81.9441 28.2017 87.2689 33.493C92.5937 38.7844 100.999 39.0823 106.671 34.4051L106.722 34.4555L117.947 23.1596Z" fill="url(#paint0_linear_104_5905)"/>
</g>
<path d="M114.409 14.1772L105.79 22.8512L105.735 5.55773L114.409 14.1772Z" fill="url(#paint1_linear_104_5905)"/>
<path d="M42.1025 102.955C42.8669 107.573 39.7434 111.936 35.126 112.7C30.5085 113.464 26.1458 110.341 25.3814 105.723C24.6171 101.106 27.7406 96.7432 32.358 95.9788C36.9754 95.2145 41.3382 98.338 42.1025 102.955Z" fill="#00CBA9"/>
<g filter="url(#filter1_biiii_104_5905)">
<path d="M45.6341 124.289C44.9321 120.049 43.4019 115.988 41.1307 112.34C38.8596 108.691 35.892 105.525 32.3973 103.023C28.9027 100.521 24.9494 98.7318 20.7633 97.7576C16.5772 96.7834 12.2403 96.6433 8 97.3452L13.345 129.634L45.6341 124.289Z" fill="url(#paint2_linear_104_5905)"/>
</g>
<path d="M29.706 105.008C30.075 107.237 32.1811 108.745 34.4102 108.376C36.6393 108.007 38.1472 105.9 37.7782 103.671C37.4092 101.442 35.3031 99.9343 33.074 100.303C30.8449 100.672 29.337 102.778 29.706 105.008Z" fill="url(#paint3_linear_104_5905)"/>
<defs>
<filter id="filter0_biiii_104_5905" x="61.9965" y="-18.2493" width="76.9503" height="76.9504" filterUnits="userSpaceOnUse" color-interpolation-filters="sRGB">
<feFlood flood-opacity="0" result="BackgroundImageFix"/>
<feGaussianBlur in="BackgroundImageFix" stdDeviation="10.5"/>
<feComposite in2="SourceAlpha" operator="in" result="effect1_backgroundBlur_104_5905"/>
<feBlend mode="normal" in="SourceGraphic" in2="effect1_backgroundBlur_104_5905" result="shape"/>
<feColorMatrix in="SourceAlpha" type="matrix" values="0 0 0 0 0 0 0 0 0 0 0 0 0 0 0 0 0 0 127 0" result="hardAlpha"/>
<feOffset dx="10" dy="10"/>
<feGaussianBlur stdDeviation="11.5"/>
<feComposite in2="hardAlpha" operator="arithmetic" k2="-1" k3="1"/>
<feColorMatrix type="matrix" values="0 0 0 0 0.996078 0 0 0 0 0.603922 0 0 0 0 0.0470588 0 0 0 0.18 0"/>
<feBlend mode="normal" in2="shape" result="effect2_innerShadow_104_5905"/>
<feColorMatrix in="SourceAlpha" type="matrix" values="0 0 0 0 0 0 0 0 0 0 0 0 0 0 0 0 0 0 127 0" result="hardAlpha"/>
<feOffset dy="2"/>
<feGaussianBlur stdDeviation="3"/>
<feComposite in2="hardAlpha" operator="arithmetic" k2="-1" k3="1"/>
<feColorMatrix type="matrix" values="0 0 0 0 1 0 0 0 0 1 0 0 0 0 1 0 0 0 0.05 0"/>
<feBlend mode="normal" in2="effect2_innerShadow_104_5905" result="effect3_innerShadow_104_5905"/>
<feColorMatrix in="SourceAlpha" type="matrix" values="0 0 0 0 0 0 0 0 0 0 0 0 0 0 0 0 0 0 127 0" result="hardAlpha"/>
<feOffset dy="1"/>
<feComposite in2="hardAlpha" operator="arithmetic" k2="-1" k3="1"/>
<feColorMatrix type="matrix" values="0 0 0 0 1 0 0 0 0 1 0 0 0 0 1 0 0 0 0.05 0"/>
<feBlend mode="normal" in2="effect3_innerShadow_104_5905" result="effect4_innerShadow_104_5905"/>
<feColorMatrix in="SourceAlpha" type="matrix" values="0 0 0 0 0 0 0 0 0 0 0 0 0 0 0 0 0 0 127 0" result="hardAlpha"/>
<feOffset dy="-10"/>
<feGaussianBlur stdDeviation="5"/>
<feComposite in2="hardAlpha" operator="arithmetic" k2="-1" k3="1"/>
<feColorMatrix type="matrix" values="0 0 0 0 0.996078 0 0 0 0 0.603922 0 0 0 0 0.0470588 0 0 0 0.4 0"/>
<feBlend mode="overlay" in2="effect4_innerShadow_104_5905" result="effect5_innerShadow_104_5905"/>
</filter>
<filter id="filter1_biiii_104_5905" x="-13" y="75.9058" width="79.634" height="74.7285" filterUnits="userSpaceOnUse" color-interpolation-filters="sRGB">
<feFlood flood-opacity="0" result="BackgroundImageFix"/>
<feGaussianBlur in="BackgroundImageFix" stdDeviation="10.5"/>
<feComposite in2="SourceAlpha" operator="in" result="effect1_backgroundBlur_104_5905"/>
<feBlend mode="normal" in="SourceGraphic" in2="effect1_backgroundBlur_104_5905" result="shape"/>
<feColorMatrix in="SourceAlpha" type="matrix" values="0 0 0 0 0 0 0 0 0 0 0 0 0 0 0 0 0 0 127 0" result="hardAlpha"/>
<feOffset dx="10" dy="10"/>
<feGaussianBlur stdDeviation="11.5"/>
<feComposite in2="hardAlpha" operator="arithmetic" k2="-1" k3="1"/>
<feColorMatrix type="matrix" values="0 0 0 0 0 0 0 0 0 0.796078 0 0 0 0 0.662745 0 0 0 0.18 0"/>
<feBlend mode="normal" in2="shape" result="effect2_innerShadow_104_5905"/>
<feColorMatrix in="SourceAlpha" type="matrix" values="0 0 0 0 0 0 0 0 0 0 0 0 0 0 0 0 0 0 127 0" result="hardAlpha"/>
<feOffset dy="2"/>
<feGaussianBlur stdDeviation="3"/>
<feComposite in2="hardAlpha" operator="arithmetic" k2="-1" k3="1"/>
<feColorMatrix type="matrix" values="0 0 0 0 1 0 0 0 0 1 0 0 0 0 1 0 0 0 0.05 0"/>
<feBlend mode="normal" in2="effect2_innerShadow_104_5905" result="effect3_innerShadow_104_5905"/>
<feColorMatrix in="SourceAlpha" type="matrix" values="0 0 0 0 0 0 0 0 0 0 0 0 0 0 0 0 0 0 127 0" result="hardAlpha"/>
<feOffset dy="1"/>
<feComposite in2="hardAlpha" operator="arithmetic" k2="-1" k3="1"/>
<feColorMatrix type="matrix" values="0 0 0 0 1 0 0 0 0 1 0 0 0 0 1 0 0 0 0.05 0"/>
<feBlend mode="normal" in2="effect3_innerShadow_104_5905" result="effect4_innerShadow_104_5905"/>
<feColorMatrix in="SourceAlpha" type="matrix" values="0 0 0 0 0 0 0 0 0 0 0 0 0 0 0 0 0 0 127 0" result="hardAlpha"/>
<feOffset dy="-10"/>
<feGaussianBlur stdDeviation="5"/>
<feComposite in2="hardAlpha" operator="arithmetic" k2="-1" k3="1"/>
<feColorMatrix type="matrix" values="0 0 0 0 0 0 0 0 0 0.796078 0 0 0 0 0.662745 0 0 0 0.4 0"/>
<feBlend mode="overlay" in2="effect4_innerShadow_104_5905" result="effect5_innerShadow_104_5905"/>
</filter>
<linearGradient id="paint0_linear_104_5905" x1="127.858" y1="53.4182" x2="78.5462" y2="31.3085" gradientUnits="userSpaceOnUse">
<stop stop-color="#FE9A0C" stop-opacity="0.01"/>
<stop offset="1" stop-color="#FE9A0C" stop-opacity="0.12"/>
</linearGradient>
<linearGradient id="paint1_linear_104_5905" x1="106.298" y1="6.11668" x2="114.409" y2="14.1772" gradientUnits="userSpaceOnUse">
<stop stop-color="white"/>
<stop offset="1" stop-color="white" stop-opacity="0"/>
</linearGradient>
<linearGradient id="paint2_linear_104_5905" x1="34.7248" y1="158.587" x2="4.11743" y2="105.722" gradientUnits="userSpaceOnUse">
<stop stop-color="#00CBA9" stop-opacity="0.01"/>
<stop offset="1" stop-color="#00CBA9" stop-opacity="0.12"/>
</linearGradient>
<linearGradient id="paint3_linear_104_5905" x1="32.5251" y1="96.9879" x2="34.4102" y2="108.376" gradientUnits="userSpaceOnUse">
<stop stop-color="white"/>
<stop offset="1" stop-color="white" stop-opacity="0"/>
</linearGradient>
</defs>
</svg>
